<?xml version="1.0" encoding="UTF-8" standalone="no"?>
<!-- Created with Inkscape (http://www.inkscape.org/) -->

<svg
   xmlns:dc="http://purl.org/dc/elements/1.1/"
   xmlns:cc="http://creativecommons.org/ns#"
   xmlns:rdf="http://www.w3.org/1999/02/22-rdf-syntax-ns#"
   xmlns:svg="http://www.w3.org/2000/svg"
   xmlns="http://www.w3.org/2000/svg"
   xmlns:sodipodi="http://sodipodi.sourceforge.net/DTD/sodipodi-0.dtd"
   xmlns:inkscape="http://www.inkscape.org/namespaces/inkscape"
   width="419.89999"
   height="141.99374"
   id="svg2"
   version="1.1"
   inkscape:version="0.48.2 r9819"
   sodipodi:docname="New document 1">
  <defs
     id="defs4" />
  <sodipodi:namedview
     id="base"
     pagecolor="#ffffff"
     bordercolor="#666666"
     borderopacity="1.0"
     inkscape:pageopacity="0.0"
     inkscape:pageshadow="2"
     inkscape:zoom="1.0074671"
     inkscape:cx="-0.45506897"
     inkscape:cy="45.58782"
     inkscape:document-units="px"
     inkscape:current-layer="layer2"
     showgrid="false"
     fit-margin-top="0.2"
     fit-margin-left="0.2"
     fit-margin-right="0.2"
     fit-margin-bottom="0.2"
     inkscape:window-width="1920"
     inkscape:window-height="1057"
     inkscape:window-x="-8"
     inkscape:window-y="-8"
     inkscape:window-maximized="1" />
  <metadata
     id="metadata7">
    <rdf:RDF>
      <cc:Work
         rdf:about="">
        <dc:format>image/svg+xml</dc:format>
        <dc:type
           rdf:resource="http://purl.org/dc/dcmitype/StillImage" />
        <dc:title></dc:title>
      </cc:Work>
    </rdf:RDF>
  </metadata>
  <g
     inkscape:groupmode="layer"
     id="layer2"
     inkscape:label="Layer2"
     style="display:inline"
     transform="translate(-121.175,-435.95625)">
    <g
       id="g3876">
      <path
         inkscape:connector-curvature="0"
         id="path3017"
         d="m 448.413,457.34375 0,53.78125 67.84375,0 0,-12.6875 -54.34375,0 0,-7.4375 54.34375,0 0,-12.6875 -54.34375,0 0,-8.28125 54.34375,0 0,-12.6875 -67.84375,0 z m -302,0.8125 0,53.78125 13.53125,0 0,-20.9375 51.84375,0 0,-12.6875 -51.84375,0 0,-8.5625 51.5625,0 0,-11.59375 -65.09375,0 z m 74.75,0 0,53.78125 56.53125,0 0,-13.5 -43.03125,0 0,-40.28125 -13.5,0 z m 63.4375,0 0,43.59375 c 1.10356,9.92622 10.1875,10.1875 10.1875,10.1875 l 26.21875,0 28.125,0 c 0,0 9.08357,-0.26147 10.1875,-10.1875 l 0,-43.59375 -13.5,0 0,41.375 -47.71875,0 0,-41.375 -13.5,0 z m 86.59375,0 0,53.78125 14.34375,0 0,-20.125 32.53125,20.125 24,0 -43.84375,-27.5625 41.625,-26.21875 -23.71875,0 -30.59375,18.5 0,-18.5 -14.34375,0 z"
         style="fill-rule:evenodd;display:inline" />
      <rect
         y="441.96512"
         x="127.5365"
         height="85.3181"
         width="407.55295"
         id="rect3086"
         style="fill:none;stroke:#000000;stroke-width:11.59500027;stroke-linecap:butt;stroke-linejoin:miter;stroke-miterlimit:4;stroke-opacity:1;stroke-dasharray:none" />
      <path
         inkscape:connector-curvature="0"
         id="path3856"
         d="m 540.83812,549.53568 -419.45862,0"
         style="fill:none;stroke:#000000;stroke-width:11.59499931;stroke-linecap:butt;stroke-linejoin:miter;stroke-miterlimit:4;stroke-opacity:1;stroke-dasharray:none" />
      <path
         inkscape:connector-curvature="0"
         id="path3856-6"
         d="m 540.83812,571.94945 -419.45862,0"
         style="fill:none;stroke:#000000;stroke-width:11.59499931;stroke-linecap:butt;stroke-linejoin:miter;stroke-miterlimit:4;stroke-opacity:1;stroke-dasharray:none;display:inline" />
    </g>
  </g>
</svg>
