%TF.GenerationSoftware,KiCad,Pcbnew,8.0.5*%
%TF.CreationDate,2024-09-28T22:07:55-04:00*%
%TF.ProjectId,Fluke_LCD,466c756b-655f-44c4-9344-2e6b69636164,rev?*%
%TF.SameCoordinates,Original*%
%TF.FileFunction,Legend,Bot*%
%TF.FilePolarity,Positive*%
%FSLAX46Y46*%
G04 Gerber Fmt 4.6, Leading zero omitted, Abs format (unit mm)*
G04 Created by KiCad (PCBNEW 8.0.5) date 2024-09-28 22:07:55*
%MOMM*%
%LPD*%
G01*
G04 APERTURE LIST*
%ADD10C,0.250000*%
%ADD11C,0.000000*%
G04 APERTURE END LIST*
D10*
X243404574Y-126903302D02*
X243499812Y-126855683D01*
X243499812Y-126855683D02*
X243547431Y-126808064D01*
X243547431Y-126808064D02*
X243595050Y-126712826D01*
X243595050Y-126712826D02*
X243595050Y-126665207D01*
X243595050Y-126665207D02*
X243547431Y-126569969D01*
X243547431Y-126569969D02*
X243499812Y-126522350D01*
X243499812Y-126522350D02*
X243404574Y-126474731D01*
X243404574Y-126474731D02*
X243214098Y-126474731D01*
X243214098Y-126474731D02*
X243118860Y-126522350D01*
X243118860Y-126522350D02*
X243071241Y-126569969D01*
X243071241Y-126569969D02*
X243023622Y-126665207D01*
X243023622Y-126665207D02*
X243023622Y-126712826D01*
X243023622Y-126712826D02*
X243071241Y-126808064D01*
X243071241Y-126808064D02*
X243118860Y-126855683D01*
X243118860Y-126855683D02*
X243214098Y-126903302D01*
X243214098Y-126903302D02*
X243404574Y-126903302D01*
X243404574Y-126903302D02*
X243499812Y-126950921D01*
X243499812Y-126950921D02*
X243547431Y-126998540D01*
X243547431Y-126998540D02*
X243595050Y-127093778D01*
X243595050Y-127093778D02*
X243595050Y-127284254D01*
X243595050Y-127284254D02*
X243547431Y-127379492D01*
X243547431Y-127379492D02*
X243499812Y-127427112D01*
X243499812Y-127427112D02*
X243404574Y-127474731D01*
X243404574Y-127474731D02*
X243214098Y-127474731D01*
X243214098Y-127474731D02*
X243118860Y-127427112D01*
X243118860Y-127427112D02*
X243071241Y-127379492D01*
X243071241Y-127379492D02*
X243023622Y-127284254D01*
X243023622Y-127284254D02*
X243023622Y-127093778D01*
X243023622Y-127093778D02*
X243071241Y-126998540D01*
X243071241Y-126998540D02*
X243118860Y-126950921D01*
X243118860Y-126950921D02*
X243214098Y-126903302D01*
X242404574Y-126474731D02*
X242309336Y-126474731D01*
X242309336Y-126474731D02*
X242214098Y-126522350D01*
X242214098Y-126522350D02*
X242166479Y-126569969D01*
X242166479Y-126569969D02*
X242118860Y-126665207D01*
X242118860Y-126665207D02*
X242071241Y-126855683D01*
X242071241Y-126855683D02*
X242071241Y-127093778D01*
X242071241Y-127093778D02*
X242118860Y-127284254D01*
X242118860Y-127284254D02*
X242166479Y-127379492D01*
X242166479Y-127379492D02*
X242214098Y-127427112D01*
X242214098Y-127427112D02*
X242309336Y-127474731D01*
X242309336Y-127474731D02*
X242404574Y-127474731D01*
X242404574Y-127474731D02*
X242499812Y-127427112D01*
X242499812Y-127427112D02*
X242547431Y-127379492D01*
X242547431Y-127379492D02*
X242595050Y-127284254D01*
X242595050Y-127284254D02*
X242642669Y-127093778D01*
X242642669Y-127093778D02*
X242642669Y-126855683D01*
X242642669Y-126855683D02*
X242595050Y-126665207D01*
X242595050Y-126665207D02*
X242547431Y-126569969D01*
X242547431Y-126569969D02*
X242499812Y-126522350D01*
X242499812Y-126522350D02*
X242404574Y-126474731D01*
X241214098Y-126474731D02*
X241404574Y-126474731D01*
X241404574Y-126474731D02*
X241499812Y-126522350D01*
X241499812Y-126522350D02*
X241547431Y-126569969D01*
X241547431Y-126569969D02*
X241642669Y-126712826D01*
X241642669Y-126712826D02*
X241690288Y-126903302D01*
X241690288Y-126903302D02*
X241690288Y-127284254D01*
X241690288Y-127284254D02*
X241642669Y-127379492D01*
X241642669Y-127379492D02*
X241595050Y-127427112D01*
X241595050Y-127427112D02*
X241499812Y-127474731D01*
X241499812Y-127474731D02*
X241309336Y-127474731D01*
X241309336Y-127474731D02*
X241214098Y-127427112D01*
X241214098Y-127427112D02*
X241166479Y-127379492D01*
X241166479Y-127379492D02*
X241118860Y-127284254D01*
X241118860Y-127284254D02*
X241118860Y-127046159D01*
X241118860Y-127046159D02*
X241166479Y-126950921D01*
X241166479Y-126950921D02*
X241214098Y-126903302D01*
X241214098Y-126903302D02*
X241309336Y-126855683D01*
X241309336Y-126855683D02*
X241499812Y-126855683D01*
X241499812Y-126855683D02*
X241595050Y-126903302D01*
X241595050Y-126903302D02*
X241642669Y-126950921D01*
X241642669Y-126950921D02*
X241690288Y-127046159D01*
X240499812Y-126474731D02*
X240404574Y-126474731D01*
X240404574Y-126474731D02*
X240309336Y-126522350D01*
X240309336Y-126522350D02*
X240261717Y-126569969D01*
X240261717Y-126569969D02*
X240214098Y-126665207D01*
X240214098Y-126665207D02*
X240166479Y-126855683D01*
X240166479Y-126855683D02*
X240166479Y-127093778D01*
X240166479Y-127093778D02*
X240214098Y-127284254D01*
X240214098Y-127284254D02*
X240261717Y-127379492D01*
X240261717Y-127379492D02*
X240309336Y-127427112D01*
X240309336Y-127427112D02*
X240404574Y-127474731D01*
X240404574Y-127474731D02*
X240499812Y-127474731D01*
X240499812Y-127474731D02*
X240595050Y-127427112D01*
X240595050Y-127427112D02*
X240642669Y-127379492D01*
X240642669Y-127379492D02*
X240690288Y-127284254D01*
X240690288Y-127284254D02*
X240737907Y-127093778D01*
X240737907Y-127093778D02*
X240737907Y-126855683D01*
X240737907Y-126855683D02*
X240690288Y-126665207D01*
X240690288Y-126665207D02*
X240642669Y-126569969D01*
X240642669Y-126569969D02*
X240595050Y-126522350D01*
X240595050Y-126522350D02*
X240499812Y-126474731D01*
X239785526Y-127189016D02*
X239309336Y-127189016D01*
X239880764Y-127474731D02*
X239547431Y-126474731D01*
X239547431Y-126474731D02*
X239214098Y-127474731D01*
X237642669Y-127474731D02*
X238118859Y-127474731D01*
X238118859Y-127474731D02*
X238118859Y-126474731D01*
X237309335Y-126950921D02*
X236976002Y-126950921D01*
X236833145Y-127474731D02*
X237309335Y-127474731D01*
X237309335Y-127474731D02*
X237309335Y-126474731D01*
X237309335Y-126474731D02*
X236833145Y-126474731D01*
X236404573Y-127474731D02*
X236404573Y-126474731D01*
X236404573Y-126474731D02*
X236166478Y-126474731D01*
X236166478Y-126474731D02*
X236023621Y-126522350D01*
X236023621Y-126522350D02*
X235928383Y-126617588D01*
X235928383Y-126617588D02*
X235880764Y-126712826D01*
X235880764Y-126712826D02*
X235833145Y-126903302D01*
X235833145Y-126903302D02*
X235833145Y-127046159D01*
X235833145Y-127046159D02*
X235880764Y-127236635D01*
X235880764Y-127236635D02*
X235928383Y-127331873D01*
X235928383Y-127331873D02*
X236023621Y-127427112D01*
X236023621Y-127427112D02*
X236166478Y-127474731D01*
X236166478Y-127474731D02*
X236404573Y-127474731D01*
X234642668Y-127474731D02*
X234642668Y-126474731D01*
X234642668Y-126474731D02*
X234309335Y-127189016D01*
X234309335Y-127189016D02*
X233976002Y-126474731D01*
X233976002Y-126474731D02*
X233976002Y-127474731D01*
X233356954Y-127474731D02*
X233452192Y-127427112D01*
X233452192Y-127427112D02*
X233499811Y-127379492D01*
X233499811Y-127379492D02*
X233547430Y-127284254D01*
X233547430Y-127284254D02*
X233547430Y-126998540D01*
X233547430Y-126998540D02*
X233499811Y-126903302D01*
X233499811Y-126903302D02*
X233452192Y-126855683D01*
X233452192Y-126855683D02*
X233356954Y-126808064D01*
X233356954Y-126808064D02*
X233214097Y-126808064D01*
X233214097Y-126808064D02*
X233118859Y-126855683D01*
X233118859Y-126855683D02*
X233071240Y-126903302D01*
X233071240Y-126903302D02*
X233023621Y-126998540D01*
X233023621Y-126998540D02*
X233023621Y-127284254D01*
X233023621Y-127284254D02*
X233071240Y-127379492D01*
X233071240Y-127379492D02*
X233118859Y-127427112D01*
X233118859Y-127427112D02*
X233214097Y-127474731D01*
X233214097Y-127474731D02*
X233356954Y-127474731D01*
X232166478Y-127474731D02*
X232166478Y-126474731D01*
X232166478Y-127427112D02*
X232261716Y-127474731D01*
X232261716Y-127474731D02*
X232452192Y-127474731D01*
X232452192Y-127474731D02*
X232547430Y-127427112D01*
X232547430Y-127427112D02*
X232595049Y-127379492D01*
X232595049Y-127379492D02*
X232642668Y-127284254D01*
X232642668Y-127284254D02*
X232642668Y-126998540D01*
X232642668Y-126998540D02*
X232595049Y-126903302D01*
X232595049Y-126903302D02*
X232547430Y-126855683D01*
X232547430Y-126855683D02*
X232452192Y-126808064D01*
X232452192Y-126808064D02*
X232261716Y-126808064D01*
X232261716Y-126808064D02*
X232166478Y-126855683D01*
X230356954Y-127474731D02*
X230690287Y-126998540D01*
X230928382Y-127474731D02*
X230928382Y-126474731D01*
X230928382Y-126474731D02*
X230547430Y-126474731D01*
X230547430Y-126474731D02*
X230452192Y-126522350D01*
X230452192Y-126522350D02*
X230404573Y-126569969D01*
X230404573Y-126569969D02*
X230356954Y-126665207D01*
X230356954Y-126665207D02*
X230356954Y-126808064D01*
X230356954Y-126808064D02*
X230404573Y-126903302D01*
X230404573Y-126903302D02*
X230452192Y-126950921D01*
X230452192Y-126950921D02*
X230547430Y-126998540D01*
X230547430Y-126998540D02*
X230928382Y-126998540D01*
X229547430Y-127427112D02*
X229642668Y-127474731D01*
X229642668Y-127474731D02*
X229833144Y-127474731D01*
X229833144Y-127474731D02*
X229928382Y-127427112D01*
X229928382Y-127427112D02*
X229976001Y-127331873D01*
X229976001Y-127331873D02*
X229976001Y-126950921D01*
X229976001Y-126950921D02*
X229928382Y-126855683D01*
X229928382Y-126855683D02*
X229833144Y-126808064D01*
X229833144Y-126808064D02*
X229642668Y-126808064D01*
X229642668Y-126808064D02*
X229547430Y-126855683D01*
X229547430Y-126855683D02*
X229499811Y-126950921D01*
X229499811Y-126950921D02*
X229499811Y-127046159D01*
X229499811Y-127046159D02*
X229976001Y-127141397D01*
X229166477Y-126808064D02*
X228928382Y-127474731D01*
X228928382Y-127474731D02*
X228690287Y-126808064D01*
X228309334Y-127379492D02*
X228261715Y-127427112D01*
X228261715Y-127427112D02*
X228309334Y-127474731D01*
X228309334Y-127474731D02*
X228356953Y-127427112D01*
X228356953Y-127427112D02*
X228309334Y-127379492D01*
X228309334Y-127379492D02*
X228309334Y-127474731D01*
X226547430Y-127474731D02*
X227118858Y-127474731D01*
X226833144Y-127474731D02*
X226833144Y-126474731D01*
X226833144Y-126474731D02*
X226928382Y-126617588D01*
X226928382Y-126617588D02*
X227023620Y-126712826D01*
X227023620Y-126712826D02*
X227118858Y-126760445D01*
X225356953Y-127093778D02*
X224595049Y-127093778D01*
X223499810Y-126474731D02*
X222928382Y-126474731D01*
X223214096Y-127474731D02*
X223214096Y-126474731D01*
X222595048Y-127474731D02*
X222595048Y-126474731D01*
X222166477Y-127474731D02*
X222166477Y-126950921D01*
X222166477Y-126950921D02*
X222214096Y-126855683D01*
X222214096Y-126855683D02*
X222309334Y-126808064D01*
X222309334Y-126808064D02*
X222452191Y-126808064D01*
X222452191Y-126808064D02*
X222547429Y-126855683D01*
X222547429Y-126855683D02*
X222595048Y-126903302D01*
X221261715Y-127474731D02*
X221261715Y-126950921D01*
X221261715Y-126950921D02*
X221309334Y-126855683D01*
X221309334Y-126855683D02*
X221404572Y-126808064D01*
X221404572Y-126808064D02*
X221595048Y-126808064D01*
X221595048Y-126808064D02*
X221690286Y-126855683D01*
X221261715Y-127427112D02*
X221356953Y-127474731D01*
X221356953Y-127474731D02*
X221595048Y-127474731D01*
X221595048Y-127474731D02*
X221690286Y-127427112D01*
X221690286Y-127427112D02*
X221737905Y-127331873D01*
X221737905Y-127331873D02*
X221737905Y-127236635D01*
X221737905Y-127236635D02*
X221690286Y-127141397D01*
X221690286Y-127141397D02*
X221595048Y-127093778D01*
X221595048Y-127093778D02*
X221356953Y-127093778D01*
X221356953Y-127093778D02*
X221261715Y-127046159D01*
X220785524Y-126808064D02*
X220785524Y-127474731D01*
X220785524Y-126903302D02*
X220737905Y-126855683D01*
X220737905Y-126855683D02*
X220642667Y-126808064D01*
X220642667Y-126808064D02*
X220499810Y-126808064D01*
X220499810Y-126808064D02*
X220404572Y-126855683D01*
X220404572Y-126855683D02*
X220356953Y-126950921D01*
X220356953Y-126950921D02*
X220356953Y-127474731D01*
X219880762Y-127474731D02*
X219880762Y-126474731D01*
X219785524Y-127093778D02*
X219499810Y-127474731D01*
X219499810Y-126808064D02*
X219880762Y-127189016D01*
X219118857Y-127427112D02*
X219023619Y-127474731D01*
X219023619Y-127474731D02*
X218833143Y-127474731D01*
X218833143Y-127474731D02*
X218737905Y-127427112D01*
X218737905Y-127427112D02*
X218690286Y-127331873D01*
X218690286Y-127331873D02*
X218690286Y-127284254D01*
X218690286Y-127284254D02*
X218737905Y-127189016D01*
X218737905Y-127189016D02*
X218833143Y-127141397D01*
X218833143Y-127141397D02*
X218976000Y-127141397D01*
X218976000Y-127141397D02*
X219071238Y-127093778D01*
X219071238Y-127093778D02*
X219118857Y-126998540D01*
X219118857Y-126998540D02*
X219118857Y-126950921D01*
X219118857Y-126950921D02*
X219071238Y-126855683D01*
X219071238Y-126855683D02*
X218976000Y-126808064D01*
X218976000Y-126808064D02*
X218833143Y-126808064D01*
X218833143Y-126808064D02*
X218737905Y-126855683D01*
X217642666Y-126808064D02*
X217261714Y-126808064D01*
X217499809Y-126474731D02*
X217499809Y-127331873D01*
X217499809Y-127331873D02*
X217452190Y-127427112D01*
X217452190Y-127427112D02*
X217356952Y-127474731D01*
X217356952Y-127474731D02*
X217261714Y-127474731D01*
X216785523Y-127474731D02*
X216880761Y-127427112D01*
X216880761Y-127427112D02*
X216928380Y-127379492D01*
X216928380Y-127379492D02*
X216975999Y-127284254D01*
X216975999Y-127284254D02*
X216975999Y-126998540D01*
X216975999Y-126998540D02*
X216928380Y-126903302D01*
X216928380Y-126903302D02*
X216880761Y-126855683D01*
X216880761Y-126855683D02*
X216785523Y-126808064D01*
X216785523Y-126808064D02*
X216642666Y-126808064D01*
X216642666Y-126808064D02*
X216547428Y-126855683D01*
X216547428Y-126855683D02*
X216499809Y-126903302D01*
X216499809Y-126903302D02*
X216452190Y-126998540D01*
X216452190Y-126998540D02*
X216452190Y-127284254D01*
X216452190Y-127284254D02*
X216499809Y-127379492D01*
X216499809Y-127379492D02*
X216547428Y-127427112D01*
X216547428Y-127427112D02*
X216642666Y-127474731D01*
X216642666Y-127474731D02*
X216785523Y-127474731D01*
X214833142Y-127474731D02*
X214833142Y-126950921D01*
X214833142Y-126950921D02*
X214880761Y-126855683D01*
X214880761Y-126855683D02*
X214975999Y-126808064D01*
X214975999Y-126808064D02*
X215166475Y-126808064D01*
X215166475Y-126808064D02*
X215261713Y-126855683D01*
X214833142Y-127427112D02*
X214928380Y-127474731D01*
X214928380Y-127474731D02*
X215166475Y-127474731D01*
X215166475Y-127474731D02*
X215261713Y-127427112D01*
X215261713Y-127427112D02*
X215309332Y-127331873D01*
X215309332Y-127331873D02*
X215309332Y-127236635D01*
X215309332Y-127236635D02*
X215261713Y-127141397D01*
X215261713Y-127141397D02*
X215166475Y-127093778D01*
X215166475Y-127093778D02*
X214928380Y-127093778D01*
X214928380Y-127093778D02*
X214833142Y-127046159D01*
X214214094Y-127474731D02*
X214309332Y-127427112D01*
X214309332Y-127427112D02*
X214356951Y-127331873D01*
X214356951Y-127331873D02*
X214356951Y-126474731D01*
X213690284Y-127474731D02*
X213785522Y-127427112D01*
X213785522Y-127427112D02*
X213833141Y-127331873D01*
X213833141Y-127331873D02*
X213833141Y-126474731D01*
X212118855Y-127474731D02*
X212118855Y-126950921D01*
X212118855Y-126950921D02*
X212166474Y-126855683D01*
X212166474Y-126855683D02*
X212261712Y-126808064D01*
X212261712Y-126808064D02*
X212452188Y-126808064D01*
X212452188Y-126808064D02*
X212547426Y-126855683D01*
X212118855Y-127427112D02*
X212214093Y-127474731D01*
X212214093Y-127474731D02*
X212452188Y-127474731D01*
X212452188Y-127474731D02*
X212547426Y-127427112D01*
X212547426Y-127427112D02*
X212595045Y-127331873D01*
X212595045Y-127331873D02*
X212595045Y-127236635D01*
X212595045Y-127236635D02*
X212547426Y-127141397D01*
X212547426Y-127141397D02*
X212452188Y-127093778D01*
X212452188Y-127093778D02*
X212214093Y-127093778D01*
X212214093Y-127093778D02*
X212118855Y-127046159D01*
X211785521Y-126808064D02*
X211404569Y-126808064D01*
X211642664Y-126474731D02*
X211642664Y-127331873D01*
X211642664Y-127331873D02*
X211595045Y-127427112D01*
X211595045Y-127427112D02*
X211499807Y-127474731D01*
X211499807Y-127474731D02*
X211404569Y-127474731D01*
X210309330Y-126950921D02*
X209975997Y-126950921D01*
X209833140Y-127474731D02*
X210309330Y-127474731D01*
X210309330Y-127474731D02*
X210309330Y-126474731D01*
X210309330Y-126474731D02*
X209833140Y-126474731D01*
X209404568Y-126950921D02*
X209071235Y-126950921D01*
X208928378Y-127474731D02*
X209404568Y-127474731D01*
X209404568Y-127474731D02*
X209404568Y-126474731D01*
X209404568Y-126474731D02*
X208928378Y-126474731D01*
X208642663Y-126474731D02*
X208309330Y-127474731D01*
X208309330Y-127474731D02*
X207975997Y-126474731D01*
X207309330Y-126950921D02*
X207166473Y-126998540D01*
X207166473Y-126998540D02*
X207118854Y-127046159D01*
X207118854Y-127046159D02*
X207071235Y-127141397D01*
X207071235Y-127141397D02*
X207071235Y-127284254D01*
X207071235Y-127284254D02*
X207118854Y-127379492D01*
X207118854Y-127379492D02*
X207166473Y-127427112D01*
X207166473Y-127427112D02*
X207261711Y-127474731D01*
X207261711Y-127474731D02*
X207642663Y-127474731D01*
X207642663Y-127474731D02*
X207642663Y-126474731D01*
X207642663Y-126474731D02*
X207309330Y-126474731D01*
X207309330Y-126474731D02*
X207214092Y-126522350D01*
X207214092Y-126522350D02*
X207166473Y-126569969D01*
X207166473Y-126569969D02*
X207118854Y-126665207D01*
X207118854Y-126665207D02*
X207118854Y-126760445D01*
X207118854Y-126760445D02*
X207166473Y-126855683D01*
X207166473Y-126855683D02*
X207214092Y-126903302D01*
X207214092Y-126903302D02*
X207309330Y-126950921D01*
X207309330Y-126950921D02*
X207642663Y-126950921D01*
X206499806Y-127474731D02*
X206595044Y-127427112D01*
X206595044Y-127427112D02*
X206642663Y-127331873D01*
X206642663Y-127331873D02*
X206642663Y-126474731D01*
X205975996Y-127474731D02*
X206071234Y-127427112D01*
X206071234Y-127427112D02*
X206118853Y-127379492D01*
X206118853Y-127379492D02*
X206166472Y-127284254D01*
X206166472Y-127284254D02*
X206166472Y-126998540D01*
X206166472Y-126998540D02*
X206118853Y-126903302D01*
X206118853Y-126903302D02*
X206071234Y-126855683D01*
X206071234Y-126855683D02*
X205975996Y-126808064D01*
X205975996Y-126808064D02*
X205833139Y-126808064D01*
X205833139Y-126808064D02*
X205737901Y-126855683D01*
X205737901Y-126855683D02*
X205690282Y-126903302D01*
X205690282Y-126903302D02*
X205642663Y-126998540D01*
X205642663Y-126998540D02*
X205642663Y-127284254D01*
X205642663Y-127284254D02*
X205690282Y-127379492D01*
X205690282Y-127379492D02*
X205737901Y-127427112D01*
X205737901Y-127427112D02*
X205833139Y-127474731D01*
X205833139Y-127474731D02*
X205975996Y-127474731D01*
X204785520Y-126808064D02*
X204785520Y-127617588D01*
X204785520Y-127617588D02*
X204833139Y-127712826D01*
X204833139Y-127712826D02*
X204880758Y-127760445D01*
X204880758Y-127760445D02*
X204975996Y-127808064D01*
X204975996Y-127808064D02*
X205118853Y-127808064D01*
X205118853Y-127808064D02*
X205214091Y-127760445D01*
X204785520Y-127427112D02*
X204880758Y-127474731D01*
X204880758Y-127474731D02*
X205071234Y-127474731D01*
X205071234Y-127474731D02*
X205166472Y-127427112D01*
X205166472Y-127427112D02*
X205214091Y-127379492D01*
X205214091Y-127379492D02*
X205261710Y-127284254D01*
X205261710Y-127284254D02*
X205261710Y-126998540D01*
X205261710Y-126998540D02*
X205214091Y-126903302D01*
X205214091Y-126903302D02*
X205166472Y-126855683D01*
X205166472Y-126855683D02*
X205071234Y-126808064D01*
X205071234Y-126808064D02*
X204880758Y-126808064D01*
X204880758Y-126808064D02*
X204785520Y-126855683D01*
X203118853Y-127474731D02*
X203118853Y-126950921D01*
X203118853Y-126950921D02*
X203166472Y-126855683D01*
X203166472Y-126855683D02*
X203261710Y-126808064D01*
X203261710Y-126808064D02*
X203452186Y-126808064D01*
X203452186Y-126808064D02*
X203547424Y-126855683D01*
X203118853Y-127427112D02*
X203214091Y-127474731D01*
X203214091Y-127474731D02*
X203452186Y-127474731D01*
X203452186Y-127474731D02*
X203547424Y-127427112D01*
X203547424Y-127427112D02*
X203595043Y-127331873D01*
X203595043Y-127331873D02*
X203595043Y-127236635D01*
X203595043Y-127236635D02*
X203547424Y-127141397D01*
X203547424Y-127141397D02*
X203452186Y-127093778D01*
X203452186Y-127093778D02*
X203214091Y-127093778D01*
X203214091Y-127093778D02*
X203118853Y-127046159D01*
X202642662Y-126808064D02*
X202642662Y-127474731D01*
X202642662Y-126903302D02*
X202595043Y-126855683D01*
X202595043Y-126855683D02*
X202499805Y-126808064D01*
X202499805Y-126808064D02*
X202356948Y-126808064D01*
X202356948Y-126808064D02*
X202261710Y-126855683D01*
X202261710Y-126855683D02*
X202214091Y-126950921D01*
X202214091Y-126950921D02*
X202214091Y-127474731D01*
X201309329Y-127474731D02*
X201309329Y-126474731D01*
X201309329Y-127427112D02*
X201404567Y-127474731D01*
X201404567Y-127474731D02*
X201595043Y-127474731D01*
X201595043Y-127474731D02*
X201690281Y-127427112D01*
X201690281Y-127427112D02*
X201737900Y-127379492D01*
X201737900Y-127379492D02*
X201785519Y-127284254D01*
X201785519Y-127284254D02*
X201785519Y-126998540D01*
X201785519Y-126998540D02*
X201737900Y-126903302D01*
X201737900Y-126903302D02*
X201690281Y-126855683D01*
X201690281Y-126855683D02*
X201595043Y-126808064D01*
X201595043Y-126808064D02*
X201404567Y-126808064D01*
X201404567Y-126808064D02*
X201309329Y-126855683D01*
X200071233Y-127474731D02*
X200071233Y-126474731D01*
X200071233Y-126474731D02*
X199737900Y-127189016D01*
X199737900Y-127189016D02*
X199404567Y-126474731D01*
X199404567Y-126474731D02*
X199404567Y-127474731D01*
X198785519Y-127474731D02*
X198880757Y-127427112D01*
X198880757Y-127427112D02*
X198928376Y-127379492D01*
X198928376Y-127379492D02*
X198975995Y-127284254D01*
X198975995Y-127284254D02*
X198975995Y-126998540D01*
X198975995Y-126998540D02*
X198928376Y-126903302D01*
X198928376Y-126903302D02*
X198880757Y-126855683D01*
X198880757Y-126855683D02*
X198785519Y-126808064D01*
X198785519Y-126808064D02*
X198642662Y-126808064D01*
X198642662Y-126808064D02*
X198547424Y-126855683D01*
X198547424Y-126855683D02*
X198499805Y-126903302D01*
X198499805Y-126903302D02*
X198452186Y-126998540D01*
X198452186Y-126998540D02*
X198452186Y-127284254D01*
X198452186Y-127284254D02*
X198499805Y-127379492D01*
X198499805Y-127379492D02*
X198547424Y-127427112D01*
X198547424Y-127427112D02*
X198642662Y-127474731D01*
X198642662Y-127474731D02*
X198785519Y-127474731D01*
X197595043Y-127474731D02*
X197595043Y-126474731D01*
X197595043Y-127427112D02*
X197690281Y-127474731D01*
X197690281Y-127474731D02*
X197880757Y-127474731D01*
X197880757Y-127474731D02*
X197975995Y-127427112D01*
X197975995Y-127427112D02*
X198023614Y-127379492D01*
X198023614Y-127379492D02*
X198071233Y-127284254D01*
X198071233Y-127284254D02*
X198071233Y-126998540D01*
X198071233Y-126998540D02*
X198023614Y-126903302D01*
X198023614Y-126903302D02*
X197975995Y-126855683D01*
X197975995Y-126855683D02*
X197880757Y-126808064D01*
X197880757Y-126808064D02*
X197690281Y-126808064D01*
X197690281Y-126808064D02*
X197595043Y-126855683D01*
X196737900Y-127427112D02*
X196833138Y-127474731D01*
X196833138Y-127474731D02*
X197023614Y-127474731D01*
X197023614Y-127474731D02*
X197118852Y-127427112D01*
X197118852Y-127427112D02*
X197166471Y-127331873D01*
X197166471Y-127331873D02*
X197166471Y-126950921D01*
X197166471Y-126950921D02*
X197118852Y-126855683D01*
X197118852Y-126855683D02*
X197023614Y-126808064D01*
X197023614Y-126808064D02*
X196833138Y-126808064D01*
X196833138Y-126808064D02*
X196737900Y-126855683D01*
X196737900Y-126855683D02*
X196690281Y-126950921D01*
X196690281Y-126950921D02*
X196690281Y-127046159D01*
X196690281Y-127046159D02*
X197166471Y-127141397D01*
X196261709Y-127474731D02*
X196261709Y-126808064D01*
X196261709Y-126903302D02*
X196214090Y-126855683D01*
X196214090Y-126855683D02*
X196118852Y-126808064D01*
X196118852Y-126808064D02*
X195975995Y-126808064D01*
X195975995Y-126808064D02*
X195880757Y-126855683D01*
X195880757Y-126855683D02*
X195833138Y-126950921D01*
X195833138Y-126950921D02*
X195833138Y-127474731D01*
X195833138Y-126950921D02*
X195785519Y-126855683D01*
X195785519Y-126855683D02*
X195690281Y-126808064D01*
X195690281Y-126808064D02*
X195547424Y-126808064D01*
X195547424Y-126808064D02*
X195452185Y-126855683D01*
X195452185Y-126855683D02*
X195404566Y-126950921D01*
X195404566Y-126950921D02*
X195404566Y-127474731D01*
X194928376Y-127474731D02*
X194928376Y-126474731D01*
X194928376Y-126950921D02*
X194356948Y-126950921D01*
X194356948Y-127474731D02*
X194356948Y-126474731D01*
X193499805Y-127427112D02*
X193595043Y-127474731D01*
X193595043Y-127474731D02*
X193785519Y-127474731D01*
X193785519Y-127474731D02*
X193880757Y-127427112D01*
X193880757Y-127427112D02*
X193928376Y-127331873D01*
X193928376Y-127331873D02*
X193928376Y-126950921D01*
X193928376Y-126950921D02*
X193880757Y-126855683D01*
X193880757Y-126855683D02*
X193785519Y-126808064D01*
X193785519Y-126808064D02*
X193595043Y-126808064D01*
X193595043Y-126808064D02*
X193499805Y-126855683D01*
X193499805Y-126855683D02*
X193452186Y-126950921D01*
X193452186Y-126950921D02*
X193452186Y-127046159D01*
X193452186Y-127046159D02*
X193928376Y-127141397D01*
X192595043Y-127474731D02*
X192595043Y-126950921D01*
X192595043Y-126950921D02*
X192642662Y-126855683D01*
X192642662Y-126855683D02*
X192737900Y-126808064D01*
X192737900Y-126808064D02*
X192928376Y-126808064D01*
X192928376Y-126808064D02*
X193023614Y-126855683D01*
X192595043Y-127427112D02*
X192690281Y-127474731D01*
X192690281Y-127474731D02*
X192928376Y-127474731D01*
X192928376Y-127474731D02*
X193023614Y-127427112D01*
X193023614Y-127427112D02*
X193071233Y-127331873D01*
X193071233Y-127331873D02*
X193071233Y-127236635D01*
X193071233Y-127236635D02*
X193023614Y-127141397D01*
X193023614Y-127141397D02*
X192928376Y-127093778D01*
X192928376Y-127093778D02*
X192690281Y-127093778D01*
X192690281Y-127093778D02*
X192595043Y-127046159D01*
X191690281Y-127474731D02*
X191690281Y-126474731D01*
X191690281Y-127427112D02*
X191785519Y-127474731D01*
X191785519Y-127474731D02*
X191975995Y-127474731D01*
X191975995Y-127474731D02*
X192071233Y-127427112D01*
X192071233Y-127427112D02*
X192118852Y-127379492D01*
X192118852Y-127379492D02*
X192166471Y-127284254D01*
X192166471Y-127284254D02*
X192166471Y-126998540D01*
X192166471Y-126998540D02*
X192118852Y-126903302D01*
X192118852Y-126903302D02*
X192071233Y-126855683D01*
X192071233Y-126855683D02*
X191975995Y-126808064D01*
X191975995Y-126808064D02*
X191785519Y-126808064D01*
X191785519Y-126808064D02*
X191690281Y-126855683D01*
X243547431Y-129084675D02*
X243547431Y-128084675D01*
X243071241Y-128418008D02*
X243071241Y-129084675D01*
X243071241Y-128513246D02*
X243023622Y-128465627D01*
X243023622Y-128465627D02*
X242928384Y-128418008D01*
X242928384Y-128418008D02*
X242785527Y-128418008D01*
X242785527Y-128418008D02*
X242690289Y-128465627D01*
X242690289Y-128465627D02*
X242642670Y-128560865D01*
X242642670Y-128560865D02*
X242642670Y-129084675D01*
X242214098Y-129037056D02*
X242118860Y-129084675D01*
X242118860Y-129084675D02*
X241928384Y-129084675D01*
X241928384Y-129084675D02*
X241833146Y-129037056D01*
X241833146Y-129037056D02*
X241785527Y-128941817D01*
X241785527Y-128941817D02*
X241785527Y-128894198D01*
X241785527Y-128894198D02*
X241833146Y-128798960D01*
X241833146Y-128798960D02*
X241928384Y-128751341D01*
X241928384Y-128751341D02*
X242071241Y-128751341D01*
X242071241Y-128751341D02*
X242166479Y-128703722D01*
X242166479Y-128703722D02*
X242214098Y-128608484D01*
X242214098Y-128608484D02*
X242214098Y-128560865D01*
X242214098Y-128560865D02*
X242166479Y-128465627D01*
X242166479Y-128465627D02*
X242071241Y-128418008D01*
X242071241Y-128418008D02*
X241928384Y-128418008D01*
X241928384Y-128418008D02*
X241833146Y-128465627D01*
X241356955Y-128418008D02*
X241356955Y-129418008D01*
X241356955Y-128465627D02*
X241261717Y-128418008D01*
X241261717Y-128418008D02*
X241071241Y-128418008D01*
X241071241Y-128418008D02*
X240976003Y-128465627D01*
X240976003Y-128465627D02*
X240928384Y-128513246D01*
X240928384Y-128513246D02*
X240880765Y-128608484D01*
X240880765Y-128608484D02*
X240880765Y-128894198D01*
X240880765Y-128894198D02*
X240928384Y-128989436D01*
X240928384Y-128989436D02*
X240976003Y-129037056D01*
X240976003Y-129037056D02*
X241071241Y-129084675D01*
X241071241Y-129084675D02*
X241261717Y-129084675D01*
X241261717Y-129084675D02*
X241356955Y-129037056D01*
X240452193Y-129084675D02*
X240452193Y-128418008D01*
X240452193Y-128084675D02*
X240499812Y-128132294D01*
X240499812Y-128132294D02*
X240452193Y-128179913D01*
X240452193Y-128179913D02*
X240404574Y-128132294D01*
X240404574Y-128132294D02*
X240452193Y-128084675D01*
X240452193Y-128084675D02*
X240452193Y-128179913D01*
X239976003Y-129084675D02*
X239976003Y-128418008D01*
X239976003Y-128608484D02*
X239928384Y-128513246D01*
X239928384Y-128513246D02*
X239880765Y-128465627D01*
X239880765Y-128465627D02*
X239785527Y-128418008D01*
X239785527Y-128418008D02*
X239690289Y-128418008D01*
X238976003Y-129037056D02*
X239071241Y-129084675D01*
X239071241Y-129084675D02*
X239261717Y-129084675D01*
X239261717Y-129084675D02*
X239356955Y-129037056D01*
X239356955Y-129037056D02*
X239404574Y-128941817D01*
X239404574Y-128941817D02*
X239404574Y-128560865D01*
X239404574Y-128560865D02*
X239356955Y-128465627D01*
X239356955Y-128465627D02*
X239261717Y-128418008D01*
X239261717Y-128418008D02*
X239071241Y-128418008D01*
X239071241Y-128418008D02*
X238976003Y-128465627D01*
X238976003Y-128465627D02*
X238928384Y-128560865D01*
X238928384Y-128560865D02*
X238928384Y-128656103D01*
X238928384Y-128656103D02*
X239404574Y-128751341D01*
X238071241Y-129084675D02*
X238071241Y-128084675D01*
X238071241Y-129037056D02*
X238166479Y-129084675D01*
X238166479Y-129084675D02*
X238356955Y-129084675D01*
X238356955Y-129084675D02*
X238452193Y-129037056D01*
X238452193Y-129037056D02*
X238499812Y-128989436D01*
X238499812Y-128989436D02*
X238547431Y-128894198D01*
X238547431Y-128894198D02*
X238547431Y-128608484D01*
X238547431Y-128608484D02*
X238499812Y-128513246D01*
X238499812Y-128513246D02*
X238452193Y-128465627D01*
X238452193Y-128465627D02*
X238356955Y-128418008D01*
X238356955Y-128418008D02*
X238166479Y-128418008D01*
X238166479Y-128418008D02*
X238071241Y-128465627D01*
X236833145Y-129084675D02*
X236833145Y-128084675D01*
X236833145Y-128465627D02*
X236737907Y-128418008D01*
X236737907Y-128418008D02*
X236547431Y-128418008D01*
X236547431Y-128418008D02*
X236452193Y-128465627D01*
X236452193Y-128465627D02*
X236404574Y-128513246D01*
X236404574Y-128513246D02*
X236356955Y-128608484D01*
X236356955Y-128608484D02*
X236356955Y-128894198D01*
X236356955Y-128894198D02*
X236404574Y-128989436D01*
X236404574Y-128989436D02*
X236452193Y-129037056D01*
X236452193Y-129037056D02*
X236547431Y-129084675D01*
X236547431Y-129084675D02*
X236737907Y-129084675D01*
X236737907Y-129084675D02*
X236833145Y-129037056D01*
X236023621Y-128418008D02*
X235785526Y-129084675D01*
X235547431Y-128418008D02*
X235785526Y-129084675D01*
X235785526Y-129084675D02*
X235880764Y-129322770D01*
X235880764Y-129322770D02*
X235928383Y-129370389D01*
X235928383Y-129370389D02*
X236023621Y-129418008D01*
X234404573Y-129084675D02*
X234404573Y-128084675D01*
X234404573Y-128084675D02*
X234166478Y-128084675D01*
X234166478Y-128084675D02*
X234023621Y-128132294D01*
X234023621Y-128132294D02*
X233928383Y-128227532D01*
X233928383Y-128227532D02*
X233880764Y-128322770D01*
X233880764Y-128322770D02*
X233833145Y-128513246D01*
X233833145Y-128513246D02*
X233833145Y-128656103D01*
X233833145Y-128656103D02*
X233880764Y-128846579D01*
X233880764Y-128846579D02*
X233928383Y-128941817D01*
X233928383Y-128941817D02*
X234023621Y-129037056D01*
X234023621Y-129037056D02*
X234166478Y-129084675D01*
X234166478Y-129084675D02*
X234404573Y-129084675D01*
X233404573Y-129084675D02*
X233404573Y-128418008D01*
X233404573Y-128513246D02*
X233356954Y-128465627D01*
X233356954Y-128465627D02*
X233261716Y-128418008D01*
X233261716Y-128418008D02*
X233118859Y-128418008D01*
X233118859Y-128418008D02*
X233023621Y-128465627D01*
X233023621Y-128465627D02*
X232976002Y-128560865D01*
X232976002Y-128560865D02*
X232976002Y-129084675D01*
X232976002Y-128560865D02*
X232928383Y-128465627D01*
X232928383Y-128465627D02*
X232833145Y-128418008D01*
X232833145Y-128418008D02*
X232690288Y-128418008D01*
X232690288Y-128418008D02*
X232595049Y-128465627D01*
X232595049Y-128465627D02*
X232547430Y-128560865D01*
X232547430Y-128560865D02*
X232547430Y-129084675D01*
X232071240Y-129084675D02*
X232071240Y-128418008D01*
X232071240Y-128084675D02*
X232118859Y-128132294D01*
X232118859Y-128132294D02*
X232071240Y-128179913D01*
X232071240Y-128179913D02*
X232023621Y-128132294D01*
X232023621Y-128132294D02*
X232071240Y-128084675D01*
X232071240Y-128084675D02*
X232071240Y-128179913D01*
X231737907Y-128418008D02*
X231356955Y-128418008D01*
X231595050Y-128084675D02*
X231595050Y-128941817D01*
X231595050Y-128941817D02*
X231547431Y-129037056D01*
X231547431Y-129037056D02*
X231452193Y-129084675D01*
X231452193Y-129084675D02*
X231356955Y-129084675D01*
X231023621Y-129084675D02*
X231023621Y-128418008D01*
X231023621Y-128608484D02*
X230976002Y-128513246D01*
X230976002Y-128513246D02*
X230928383Y-128465627D01*
X230928383Y-128465627D02*
X230833145Y-128418008D01*
X230833145Y-128418008D02*
X230737907Y-128418008D01*
X230404573Y-129084675D02*
X230404573Y-128418008D01*
X230404573Y-128084675D02*
X230452192Y-128132294D01*
X230452192Y-128132294D02*
X230404573Y-128179913D01*
X230404573Y-128179913D02*
X230356954Y-128132294D01*
X230356954Y-128132294D02*
X230404573Y-128084675D01*
X230404573Y-128084675D02*
X230404573Y-128179913D01*
X228737907Y-129084675D02*
X228737907Y-128560865D01*
X228737907Y-128560865D02*
X228785526Y-128465627D01*
X228785526Y-128465627D02*
X228880764Y-128418008D01*
X228880764Y-128418008D02*
X229071240Y-128418008D01*
X229071240Y-128418008D02*
X229166478Y-128465627D01*
X228737907Y-129037056D02*
X228833145Y-129084675D01*
X228833145Y-129084675D02*
X229071240Y-129084675D01*
X229071240Y-129084675D02*
X229166478Y-129037056D01*
X229166478Y-129037056D02*
X229214097Y-128941817D01*
X229214097Y-128941817D02*
X229214097Y-128846579D01*
X229214097Y-128846579D02*
X229166478Y-128751341D01*
X229166478Y-128751341D02*
X229071240Y-128703722D01*
X229071240Y-128703722D02*
X228833145Y-128703722D01*
X228833145Y-128703722D02*
X228737907Y-128656103D01*
X228261716Y-128418008D02*
X228261716Y-129084675D01*
X228261716Y-128513246D02*
X228214097Y-128465627D01*
X228214097Y-128465627D02*
X228118859Y-128418008D01*
X228118859Y-128418008D02*
X227976002Y-128418008D01*
X227976002Y-128418008D02*
X227880764Y-128465627D01*
X227880764Y-128465627D02*
X227833145Y-128560865D01*
X227833145Y-128560865D02*
X227833145Y-129084675D01*
X226928383Y-129084675D02*
X226928383Y-128084675D01*
X226928383Y-129037056D02*
X227023621Y-129084675D01*
X227023621Y-129084675D02*
X227214097Y-129084675D01*
X227214097Y-129084675D02*
X227309335Y-129037056D01*
X227309335Y-129037056D02*
X227356954Y-128989436D01*
X227356954Y-128989436D02*
X227404573Y-128894198D01*
X227404573Y-128894198D02*
X227404573Y-128608484D01*
X227404573Y-128608484D02*
X227356954Y-128513246D01*
X227356954Y-128513246D02*
X227309335Y-128465627D01*
X227309335Y-128465627D02*
X227214097Y-128418008D01*
X227214097Y-128418008D02*
X227023621Y-128418008D01*
X227023621Y-128418008D02*
X226928383Y-128465627D01*
X225833144Y-128418008D02*
X225452192Y-128418008D01*
X225690287Y-128084675D02*
X225690287Y-128941817D01*
X225690287Y-128941817D02*
X225642668Y-129037056D01*
X225642668Y-129037056D02*
X225547430Y-129084675D01*
X225547430Y-129084675D02*
X225452192Y-129084675D01*
X225118858Y-129084675D02*
X225118858Y-128084675D01*
X224690287Y-129084675D02*
X224690287Y-128560865D01*
X224690287Y-128560865D02*
X224737906Y-128465627D01*
X224737906Y-128465627D02*
X224833144Y-128418008D01*
X224833144Y-128418008D02*
X224976001Y-128418008D01*
X224976001Y-128418008D02*
X225071239Y-128465627D01*
X225071239Y-128465627D02*
X225118858Y-128513246D01*
X223833144Y-129037056D02*
X223928382Y-129084675D01*
X223928382Y-129084675D02*
X224118858Y-129084675D01*
X224118858Y-129084675D02*
X224214096Y-129037056D01*
X224214096Y-129037056D02*
X224261715Y-128941817D01*
X224261715Y-128941817D02*
X224261715Y-128560865D01*
X224261715Y-128560865D02*
X224214096Y-128465627D01*
X224214096Y-128465627D02*
X224118858Y-128418008D01*
X224118858Y-128418008D02*
X223928382Y-128418008D01*
X223928382Y-128418008D02*
X223833144Y-128465627D01*
X223833144Y-128465627D02*
X223785525Y-128560865D01*
X223785525Y-128560865D02*
X223785525Y-128656103D01*
X223785525Y-128656103D02*
X224261715Y-128751341D01*
X222452191Y-129084675D02*
X222547429Y-129037056D01*
X222547429Y-129037056D02*
X222595048Y-128989436D01*
X222595048Y-128989436D02*
X222642667Y-128894198D01*
X222642667Y-128894198D02*
X222642667Y-128608484D01*
X222642667Y-128608484D02*
X222595048Y-128513246D01*
X222595048Y-128513246D02*
X222547429Y-128465627D01*
X222547429Y-128465627D02*
X222452191Y-128418008D01*
X222452191Y-128418008D02*
X222309334Y-128418008D01*
X222309334Y-128418008D02*
X222214096Y-128465627D01*
X222214096Y-128465627D02*
X222166477Y-128513246D01*
X222166477Y-128513246D02*
X222118858Y-128608484D01*
X222118858Y-128608484D02*
X222118858Y-128894198D01*
X222118858Y-128894198D02*
X222166477Y-128989436D01*
X222166477Y-128989436D02*
X222214096Y-129037056D01*
X222214096Y-129037056D02*
X222309334Y-129084675D01*
X222309334Y-129084675D02*
X222452191Y-129084675D01*
X221690286Y-129084675D02*
X221690286Y-128418008D01*
X221690286Y-128608484D02*
X221642667Y-128513246D01*
X221642667Y-128513246D02*
X221595048Y-128465627D01*
X221595048Y-128465627D02*
X221499810Y-128418008D01*
X221499810Y-128418008D02*
X221404572Y-128418008D01*
X221071238Y-129084675D02*
X221071238Y-128418008D01*
X221071238Y-128084675D02*
X221118857Y-128132294D01*
X221118857Y-128132294D02*
X221071238Y-128179913D01*
X221071238Y-128179913D02*
X221023619Y-128132294D01*
X221023619Y-128132294D02*
X221071238Y-128084675D01*
X221071238Y-128084675D02*
X221071238Y-128179913D01*
X220166477Y-128418008D02*
X220166477Y-129227532D01*
X220166477Y-129227532D02*
X220214096Y-129322770D01*
X220214096Y-129322770D02*
X220261715Y-129370389D01*
X220261715Y-129370389D02*
X220356953Y-129418008D01*
X220356953Y-129418008D02*
X220499810Y-129418008D01*
X220499810Y-129418008D02*
X220595048Y-129370389D01*
X220166477Y-129037056D02*
X220261715Y-129084675D01*
X220261715Y-129084675D02*
X220452191Y-129084675D01*
X220452191Y-129084675D02*
X220547429Y-129037056D01*
X220547429Y-129037056D02*
X220595048Y-128989436D01*
X220595048Y-128989436D02*
X220642667Y-128894198D01*
X220642667Y-128894198D02*
X220642667Y-128608484D01*
X220642667Y-128608484D02*
X220595048Y-128513246D01*
X220595048Y-128513246D02*
X220547429Y-128465627D01*
X220547429Y-128465627D02*
X220452191Y-128418008D01*
X220452191Y-128418008D02*
X220261715Y-128418008D01*
X220261715Y-128418008D02*
X220166477Y-128465627D01*
X219690286Y-129084675D02*
X219690286Y-128418008D01*
X219690286Y-128084675D02*
X219737905Y-128132294D01*
X219737905Y-128132294D02*
X219690286Y-128179913D01*
X219690286Y-128179913D02*
X219642667Y-128132294D01*
X219642667Y-128132294D02*
X219690286Y-128084675D01*
X219690286Y-128084675D02*
X219690286Y-128179913D01*
X219214096Y-128418008D02*
X219214096Y-129084675D01*
X219214096Y-128513246D02*
X219166477Y-128465627D01*
X219166477Y-128465627D02*
X219071239Y-128418008D01*
X219071239Y-128418008D02*
X218928382Y-128418008D01*
X218928382Y-128418008D02*
X218833144Y-128465627D01*
X218833144Y-128465627D02*
X218785525Y-128560865D01*
X218785525Y-128560865D02*
X218785525Y-129084675D01*
X217880763Y-129084675D02*
X217880763Y-128560865D01*
X217880763Y-128560865D02*
X217928382Y-128465627D01*
X217928382Y-128465627D02*
X218023620Y-128418008D01*
X218023620Y-128418008D02*
X218214096Y-128418008D01*
X218214096Y-128418008D02*
X218309334Y-128465627D01*
X217880763Y-129037056D02*
X217976001Y-129084675D01*
X217976001Y-129084675D02*
X218214096Y-129084675D01*
X218214096Y-129084675D02*
X218309334Y-129037056D01*
X218309334Y-129037056D02*
X218356953Y-128941817D01*
X218356953Y-128941817D02*
X218356953Y-128846579D01*
X218356953Y-128846579D02*
X218309334Y-128751341D01*
X218309334Y-128751341D02*
X218214096Y-128703722D01*
X218214096Y-128703722D02*
X217976001Y-128703722D01*
X217976001Y-128703722D02*
X217880763Y-128656103D01*
X217261715Y-129084675D02*
X217356953Y-129037056D01*
X217356953Y-129037056D02*
X217404572Y-128941817D01*
X217404572Y-128941817D02*
X217404572Y-128084675D01*
X215642667Y-129084675D02*
X216118857Y-129084675D01*
X216118857Y-129084675D02*
X216118857Y-128084675D01*
X215309333Y-128560865D02*
X214976000Y-128560865D01*
X214833143Y-129084675D02*
X215309333Y-129084675D01*
X215309333Y-129084675D02*
X215309333Y-128084675D01*
X215309333Y-128084675D02*
X214833143Y-128084675D01*
X214404571Y-129084675D02*
X214404571Y-128084675D01*
X214404571Y-128084675D02*
X214166476Y-128084675D01*
X214166476Y-128084675D02*
X214023619Y-128132294D01*
X214023619Y-128132294D02*
X213928381Y-128227532D01*
X213928381Y-128227532D02*
X213880762Y-128322770D01*
X213880762Y-128322770D02*
X213833143Y-128513246D01*
X213833143Y-128513246D02*
X213833143Y-128656103D01*
X213833143Y-128656103D02*
X213880762Y-128846579D01*
X213880762Y-128846579D02*
X213928381Y-128941817D01*
X213928381Y-128941817D02*
X214023619Y-129037056D01*
X214023619Y-129037056D02*
X214166476Y-129084675D01*
X214166476Y-129084675D02*
X214404571Y-129084675D01*
X212499809Y-128513246D02*
X212595047Y-128465627D01*
X212595047Y-128465627D02*
X212642666Y-128418008D01*
X212642666Y-128418008D02*
X212690285Y-128322770D01*
X212690285Y-128322770D02*
X212690285Y-128275151D01*
X212690285Y-128275151D02*
X212642666Y-128179913D01*
X212642666Y-128179913D02*
X212595047Y-128132294D01*
X212595047Y-128132294D02*
X212499809Y-128084675D01*
X212499809Y-128084675D02*
X212309333Y-128084675D01*
X212309333Y-128084675D02*
X212214095Y-128132294D01*
X212214095Y-128132294D02*
X212166476Y-128179913D01*
X212166476Y-128179913D02*
X212118857Y-128275151D01*
X212118857Y-128275151D02*
X212118857Y-128322770D01*
X212118857Y-128322770D02*
X212166476Y-128418008D01*
X212166476Y-128418008D02*
X212214095Y-128465627D01*
X212214095Y-128465627D02*
X212309333Y-128513246D01*
X212309333Y-128513246D02*
X212499809Y-128513246D01*
X212499809Y-128513246D02*
X212595047Y-128560865D01*
X212595047Y-128560865D02*
X212642666Y-128608484D01*
X212642666Y-128608484D02*
X212690285Y-128703722D01*
X212690285Y-128703722D02*
X212690285Y-128894198D01*
X212690285Y-128894198D02*
X212642666Y-128989436D01*
X212642666Y-128989436D02*
X212595047Y-129037056D01*
X212595047Y-129037056D02*
X212499809Y-129084675D01*
X212499809Y-129084675D02*
X212309333Y-129084675D01*
X212309333Y-129084675D02*
X212214095Y-129037056D01*
X212214095Y-129037056D02*
X212166476Y-128989436D01*
X212166476Y-128989436D02*
X212118857Y-128894198D01*
X212118857Y-128894198D02*
X212118857Y-128703722D01*
X212118857Y-128703722D02*
X212166476Y-128608484D01*
X212166476Y-128608484D02*
X212214095Y-128560865D01*
X212214095Y-128560865D02*
X212309333Y-128513246D01*
X211499809Y-128084675D02*
X211404571Y-128084675D01*
X211404571Y-128084675D02*
X211309333Y-128132294D01*
X211309333Y-128132294D02*
X211261714Y-128179913D01*
X211261714Y-128179913D02*
X211214095Y-128275151D01*
X211214095Y-128275151D02*
X211166476Y-128465627D01*
X211166476Y-128465627D02*
X211166476Y-128703722D01*
X211166476Y-128703722D02*
X211214095Y-128894198D01*
X211214095Y-128894198D02*
X211261714Y-128989436D01*
X211261714Y-128989436D02*
X211309333Y-129037056D01*
X211309333Y-129037056D02*
X211404571Y-129084675D01*
X211404571Y-129084675D02*
X211499809Y-129084675D01*
X211499809Y-129084675D02*
X211595047Y-129037056D01*
X211595047Y-129037056D02*
X211642666Y-128989436D01*
X211642666Y-128989436D02*
X211690285Y-128894198D01*
X211690285Y-128894198D02*
X211737904Y-128703722D01*
X211737904Y-128703722D02*
X211737904Y-128465627D01*
X211737904Y-128465627D02*
X211690285Y-128275151D01*
X211690285Y-128275151D02*
X211642666Y-128179913D01*
X211642666Y-128179913D02*
X211595047Y-128132294D01*
X211595047Y-128132294D02*
X211499809Y-128084675D01*
X210309333Y-128084675D02*
X210499809Y-128084675D01*
X210499809Y-128084675D02*
X210595047Y-128132294D01*
X210595047Y-128132294D02*
X210642666Y-128179913D01*
X210642666Y-128179913D02*
X210737904Y-128322770D01*
X210737904Y-128322770D02*
X210785523Y-128513246D01*
X210785523Y-128513246D02*
X210785523Y-128894198D01*
X210785523Y-128894198D02*
X210737904Y-128989436D01*
X210737904Y-128989436D02*
X210690285Y-129037056D01*
X210690285Y-129037056D02*
X210595047Y-129084675D01*
X210595047Y-129084675D02*
X210404571Y-129084675D01*
X210404571Y-129084675D02*
X210309333Y-129037056D01*
X210309333Y-129037056D02*
X210261714Y-128989436D01*
X210261714Y-128989436D02*
X210214095Y-128894198D01*
X210214095Y-128894198D02*
X210214095Y-128656103D01*
X210214095Y-128656103D02*
X210261714Y-128560865D01*
X210261714Y-128560865D02*
X210309333Y-128513246D01*
X210309333Y-128513246D02*
X210404571Y-128465627D01*
X210404571Y-128465627D02*
X210595047Y-128465627D01*
X210595047Y-128465627D02*
X210690285Y-128513246D01*
X210690285Y-128513246D02*
X210737904Y-128560865D01*
X210737904Y-128560865D02*
X210785523Y-128656103D01*
X209595047Y-128084675D02*
X209499809Y-128084675D01*
X209499809Y-128084675D02*
X209404571Y-128132294D01*
X209404571Y-128132294D02*
X209356952Y-128179913D01*
X209356952Y-128179913D02*
X209309333Y-128275151D01*
X209309333Y-128275151D02*
X209261714Y-128465627D01*
X209261714Y-128465627D02*
X209261714Y-128703722D01*
X209261714Y-128703722D02*
X209309333Y-128894198D01*
X209309333Y-128894198D02*
X209356952Y-128989436D01*
X209356952Y-128989436D02*
X209404571Y-129037056D01*
X209404571Y-129037056D02*
X209499809Y-129084675D01*
X209499809Y-129084675D02*
X209595047Y-129084675D01*
X209595047Y-129084675D02*
X209690285Y-129037056D01*
X209690285Y-129037056D02*
X209737904Y-128989436D01*
X209737904Y-128989436D02*
X209785523Y-128894198D01*
X209785523Y-128894198D02*
X209833142Y-128703722D01*
X209833142Y-128703722D02*
X209833142Y-128465627D01*
X209833142Y-128465627D02*
X209785523Y-128275151D01*
X209785523Y-128275151D02*
X209737904Y-128179913D01*
X209737904Y-128179913D02*
X209690285Y-128132294D01*
X209690285Y-128132294D02*
X209595047Y-128084675D01*
X208880761Y-128798960D02*
X208404571Y-128798960D01*
X208975999Y-129084675D02*
X208642666Y-128084675D01*
X208642666Y-128084675D02*
X208309333Y-129084675D01*
X207214094Y-129084675D02*
X207214094Y-128084675D01*
X207214094Y-128084675D02*
X206880761Y-128798960D01*
X206880761Y-128798960D02*
X206547428Y-128084675D01*
X206547428Y-128084675D02*
X206547428Y-129084675D01*
X205928380Y-129084675D02*
X206023618Y-129037056D01*
X206023618Y-129037056D02*
X206071237Y-128989436D01*
X206071237Y-128989436D02*
X206118856Y-128894198D01*
X206118856Y-128894198D02*
X206118856Y-128608484D01*
X206118856Y-128608484D02*
X206071237Y-128513246D01*
X206071237Y-128513246D02*
X206023618Y-128465627D01*
X206023618Y-128465627D02*
X205928380Y-128418008D01*
X205928380Y-128418008D02*
X205785523Y-128418008D01*
X205785523Y-128418008D02*
X205690285Y-128465627D01*
X205690285Y-128465627D02*
X205642666Y-128513246D01*
X205642666Y-128513246D02*
X205595047Y-128608484D01*
X205595047Y-128608484D02*
X205595047Y-128894198D01*
X205595047Y-128894198D02*
X205642666Y-128989436D01*
X205642666Y-128989436D02*
X205690285Y-129037056D01*
X205690285Y-129037056D02*
X205785523Y-129084675D01*
X205785523Y-129084675D02*
X205928380Y-129084675D01*
X204737904Y-129084675D02*
X204737904Y-128084675D01*
X204737904Y-129037056D02*
X204833142Y-129084675D01*
X204833142Y-129084675D02*
X205023618Y-129084675D01*
X205023618Y-129084675D02*
X205118856Y-129037056D01*
X205118856Y-129037056D02*
X205166475Y-128989436D01*
X205166475Y-128989436D02*
X205214094Y-128894198D01*
X205214094Y-128894198D02*
X205214094Y-128608484D01*
X205214094Y-128608484D02*
X205166475Y-128513246D01*
X205166475Y-128513246D02*
X205118856Y-128465627D01*
X205118856Y-128465627D02*
X205023618Y-128418008D01*
X205023618Y-128418008D02*
X204833142Y-128418008D01*
X204833142Y-128418008D02*
X204737904Y-128465627D01*
X243547431Y-130694619D02*
X243547431Y-129694619D01*
X243547431Y-129694619D02*
X243166479Y-129694619D01*
X243166479Y-129694619D02*
X243071241Y-129742238D01*
X243071241Y-129742238D02*
X243023622Y-129789857D01*
X243023622Y-129789857D02*
X242976003Y-129885095D01*
X242976003Y-129885095D02*
X242976003Y-130027952D01*
X242976003Y-130027952D02*
X243023622Y-130123190D01*
X243023622Y-130123190D02*
X243071241Y-130170809D01*
X243071241Y-130170809D02*
X243166479Y-130218428D01*
X243166479Y-130218428D02*
X243547431Y-130218428D01*
X241976003Y-130599380D02*
X242023622Y-130647000D01*
X242023622Y-130647000D02*
X242166479Y-130694619D01*
X242166479Y-130694619D02*
X242261717Y-130694619D01*
X242261717Y-130694619D02*
X242404574Y-130647000D01*
X242404574Y-130647000D02*
X242499812Y-130551761D01*
X242499812Y-130551761D02*
X242547431Y-130456523D01*
X242547431Y-130456523D02*
X242595050Y-130266047D01*
X242595050Y-130266047D02*
X242595050Y-130123190D01*
X242595050Y-130123190D02*
X242547431Y-129932714D01*
X242547431Y-129932714D02*
X242499812Y-129837476D01*
X242499812Y-129837476D02*
X242404574Y-129742238D01*
X242404574Y-129742238D02*
X242261717Y-129694619D01*
X242261717Y-129694619D02*
X242166479Y-129694619D01*
X242166479Y-129694619D02*
X242023622Y-129742238D01*
X242023622Y-129742238D02*
X241976003Y-129789857D01*
X241214098Y-130170809D02*
X241071241Y-130218428D01*
X241071241Y-130218428D02*
X241023622Y-130266047D01*
X241023622Y-130266047D02*
X240976003Y-130361285D01*
X240976003Y-130361285D02*
X240976003Y-130504142D01*
X240976003Y-130504142D02*
X241023622Y-130599380D01*
X241023622Y-130599380D02*
X241071241Y-130647000D01*
X241071241Y-130647000D02*
X241166479Y-130694619D01*
X241166479Y-130694619D02*
X241547431Y-130694619D01*
X241547431Y-130694619D02*
X241547431Y-129694619D01*
X241547431Y-129694619D02*
X241214098Y-129694619D01*
X241214098Y-129694619D02*
X241118860Y-129742238D01*
X241118860Y-129742238D02*
X241071241Y-129789857D01*
X241071241Y-129789857D02*
X241023622Y-129885095D01*
X241023622Y-129885095D02*
X241023622Y-129980333D01*
X241023622Y-129980333D02*
X241071241Y-130075571D01*
X241071241Y-130075571D02*
X241118860Y-130123190D01*
X241118860Y-130123190D02*
X241214098Y-130170809D01*
X241214098Y-130170809D02*
X241547431Y-130170809D01*
X239785526Y-130694619D02*
X239785526Y-129694619D01*
X239785526Y-129694619D02*
X239452193Y-130408904D01*
X239452193Y-130408904D02*
X239118860Y-129694619D01*
X239118860Y-129694619D02*
X239118860Y-130694619D01*
X238214098Y-130694619D02*
X238214098Y-130170809D01*
X238214098Y-130170809D02*
X238261717Y-130075571D01*
X238261717Y-130075571D02*
X238356955Y-130027952D01*
X238356955Y-130027952D02*
X238547431Y-130027952D01*
X238547431Y-130027952D02*
X238642669Y-130075571D01*
X238214098Y-130647000D02*
X238309336Y-130694619D01*
X238309336Y-130694619D02*
X238547431Y-130694619D01*
X238547431Y-130694619D02*
X238642669Y-130647000D01*
X238642669Y-130647000D02*
X238690288Y-130551761D01*
X238690288Y-130551761D02*
X238690288Y-130456523D01*
X238690288Y-130456523D02*
X238642669Y-130361285D01*
X238642669Y-130361285D02*
X238547431Y-130313666D01*
X238547431Y-130313666D02*
X238309336Y-130313666D01*
X238309336Y-130313666D02*
X238214098Y-130266047D01*
X237309336Y-130694619D02*
X237309336Y-129694619D01*
X237309336Y-130647000D02*
X237404574Y-130694619D01*
X237404574Y-130694619D02*
X237595050Y-130694619D01*
X237595050Y-130694619D02*
X237690288Y-130647000D01*
X237690288Y-130647000D02*
X237737907Y-130599380D01*
X237737907Y-130599380D02*
X237785526Y-130504142D01*
X237785526Y-130504142D02*
X237785526Y-130218428D01*
X237785526Y-130218428D02*
X237737907Y-130123190D01*
X237737907Y-130123190D02*
X237690288Y-130075571D01*
X237690288Y-130075571D02*
X237595050Y-130027952D01*
X237595050Y-130027952D02*
X237404574Y-130027952D01*
X237404574Y-130027952D02*
X237309336Y-130075571D01*
X236452193Y-130647000D02*
X236547431Y-130694619D01*
X236547431Y-130694619D02*
X236737907Y-130694619D01*
X236737907Y-130694619D02*
X236833145Y-130647000D01*
X236833145Y-130647000D02*
X236880764Y-130551761D01*
X236880764Y-130551761D02*
X236880764Y-130170809D01*
X236880764Y-130170809D02*
X236833145Y-130075571D01*
X236833145Y-130075571D02*
X236737907Y-130027952D01*
X236737907Y-130027952D02*
X236547431Y-130027952D01*
X236547431Y-130027952D02*
X236452193Y-130075571D01*
X236452193Y-130075571D02*
X236404574Y-130170809D01*
X236404574Y-130170809D02*
X236404574Y-130266047D01*
X236404574Y-130266047D02*
X236880764Y-130361285D01*
X235214097Y-130694619D02*
X235214097Y-129694619D01*
X235214097Y-130075571D02*
X235118859Y-130027952D01*
X235118859Y-130027952D02*
X234928383Y-130027952D01*
X234928383Y-130027952D02*
X234833145Y-130075571D01*
X234833145Y-130075571D02*
X234785526Y-130123190D01*
X234785526Y-130123190D02*
X234737907Y-130218428D01*
X234737907Y-130218428D02*
X234737907Y-130504142D01*
X234737907Y-130504142D02*
X234785526Y-130599380D01*
X234785526Y-130599380D02*
X234833145Y-130647000D01*
X234833145Y-130647000D02*
X234928383Y-130694619D01*
X234928383Y-130694619D02*
X235118859Y-130694619D01*
X235118859Y-130694619D02*
X235214097Y-130647000D01*
X234404573Y-130027952D02*
X234166478Y-130694619D01*
X233928383Y-130027952D02*
X234166478Y-130694619D01*
X234166478Y-130694619D02*
X234261716Y-130932714D01*
X234261716Y-130932714D02*
X234309335Y-130980333D01*
X234309335Y-130980333D02*
X234404573Y-131027952D01*
X232785525Y-130694619D02*
X232785525Y-129694619D01*
X232785525Y-129694619D02*
X232404573Y-129694619D01*
X232404573Y-129694619D02*
X232309335Y-129742238D01*
X232309335Y-129742238D02*
X232261716Y-129789857D01*
X232261716Y-129789857D02*
X232214097Y-129885095D01*
X232214097Y-129885095D02*
X232214097Y-130027952D01*
X232214097Y-130027952D02*
X232261716Y-130123190D01*
X232261716Y-130123190D02*
X232309335Y-130170809D01*
X232309335Y-130170809D02*
X232404573Y-130218428D01*
X232404573Y-130218428D02*
X232785525Y-130218428D01*
X231356954Y-130694619D02*
X231356954Y-130170809D01*
X231356954Y-130170809D02*
X231404573Y-130075571D01*
X231404573Y-130075571D02*
X231499811Y-130027952D01*
X231499811Y-130027952D02*
X231690287Y-130027952D01*
X231690287Y-130027952D02*
X231785525Y-130075571D01*
X231356954Y-130647000D02*
X231452192Y-130694619D01*
X231452192Y-130694619D02*
X231690287Y-130694619D01*
X231690287Y-130694619D02*
X231785525Y-130647000D01*
X231785525Y-130647000D02*
X231833144Y-130551761D01*
X231833144Y-130551761D02*
X231833144Y-130456523D01*
X231833144Y-130456523D02*
X231785525Y-130361285D01*
X231785525Y-130361285D02*
X231690287Y-130313666D01*
X231690287Y-130313666D02*
X231452192Y-130313666D01*
X231452192Y-130313666D02*
X231356954Y-130266047D01*
X230880763Y-130694619D02*
X230880763Y-130027952D01*
X230880763Y-130218428D02*
X230833144Y-130123190D01*
X230833144Y-130123190D02*
X230785525Y-130075571D01*
X230785525Y-130075571D02*
X230690287Y-130027952D01*
X230690287Y-130027952D02*
X230595049Y-130027952D01*
X229833144Y-130694619D02*
X229833144Y-130170809D01*
X229833144Y-130170809D02*
X229880763Y-130075571D01*
X229880763Y-130075571D02*
X229976001Y-130027952D01*
X229976001Y-130027952D02*
X230166477Y-130027952D01*
X230166477Y-130027952D02*
X230261715Y-130075571D01*
X229833144Y-130647000D02*
X229928382Y-130694619D01*
X229928382Y-130694619D02*
X230166477Y-130694619D01*
X230166477Y-130694619D02*
X230261715Y-130647000D01*
X230261715Y-130647000D02*
X230309334Y-130551761D01*
X230309334Y-130551761D02*
X230309334Y-130456523D01*
X230309334Y-130456523D02*
X230261715Y-130361285D01*
X230261715Y-130361285D02*
X230166477Y-130313666D01*
X230166477Y-130313666D02*
X229928382Y-130313666D01*
X229928382Y-130313666D02*
X229833144Y-130266047D01*
X229356953Y-130694619D02*
X229356953Y-129694619D01*
X229356953Y-130075571D02*
X229261715Y-130027952D01*
X229261715Y-130027952D02*
X229071239Y-130027952D01*
X229071239Y-130027952D02*
X228976001Y-130075571D01*
X228976001Y-130075571D02*
X228928382Y-130123190D01*
X228928382Y-130123190D02*
X228880763Y-130218428D01*
X228880763Y-130218428D02*
X228880763Y-130504142D01*
X228880763Y-130504142D02*
X228928382Y-130599380D01*
X228928382Y-130599380D02*
X228976001Y-130647000D01*
X228976001Y-130647000D02*
X229071239Y-130694619D01*
X229071239Y-130694619D02*
X229261715Y-130694619D01*
X229261715Y-130694619D02*
X229356953Y-130647000D01*
X228309334Y-130694619D02*
X228404572Y-130647000D01*
X228404572Y-130647000D02*
X228452191Y-130599380D01*
X228452191Y-130599380D02*
X228499810Y-130504142D01*
X228499810Y-130504142D02*
X228499810Y-130218428D01*
X228499810Y-130218428D02*
X228452191Y-130123190D01*
X228452191Y-130123190D02*
X228404572Y-130075571D01*
X228404572Y-130075571D02*
X228309334Y-130027952D01*
X228309334Y-130027952D02*
X228166477Y-130027952D01*
X228166477Y-130027952D02*
X228071239Y-130075571D01*
X228071239Y-130075571D02*
X228023620Y-130123190D01*
X228023620Y-130123190D02*
X227976001Y-130218428D01*
X227976001Y-130218428D02*
X227976001Y-130504142D01*
X227976001Y-130504142D02*
X228023620Y-130599380D01*
X228023620Y-130599380D02*
X228071239Y-130647000D01*
X228071239Y-130647000D02*
X228166477Y-130694619D01*
X228166477Y-130694619D02*
X228309334Y-130694619D01*
X227404572Y-130694619D02*
X227499810Y-130647000D01*
X227499810Y-130647000D02*
X227547429Y-130551761D01*
X227547429Y-130551761D02*
X227547429Y-129694619D01*
X227023619Y-130694619D02*
X227023619Y-130027952D01*
X227023619Y-129694619D02*
X227071238Y-129742238D01*
X227071238Y-129742238D02*
X227023619Y-129789857D01*
X227023619Y-129789857D02*
X226976000Y-129742238D01*
X226976000Y-129742238D02*
X227023619Y-129694619D01*
X227023619Y-129694619D02*
X227023619Y-129789857D01*
X226118858Y-130647000D02*
X226214096Y-130694619D01*
X226214096Y-130694619D02*
X226404572Y-130694619D01*
X226404572Y-130694619D02*
X226499810Y-130647000D01*
X226499810Y-130647000D02*
X226547429Y-130599380D01*
X226547429Y-130599380D02*
X226595048Y-130504142D01*
X226595048Y-130504142D02*
X226595048Y-130218428D01*
X226595048Y-130218428D02*
X226547429Y-130123190D01*
X226547429Y-130123190D02*
X226499810Y-130075571D01*
X226499810Y-130075571D02*
X226404572Y-130027952D01*
X226404572Y-130027952D02*
X226214096Y-130027952D01*
X226214096Y-130027952D02*
X226118858Y-130075571D01*
X224452191Y-130694619D02*
X224928381Y-130694619D01*
X224928381Y-130694619D02*
X224928381Y-129694619D01*
X223690286Y-130694619D02*
X223690286Y-130170809D01*
X223690286Y-130170809D02*
X223737905Y-130075571D01*
X223737905Y-130075571D02*
X223833143Y-130027952D01*
X223833143Y-130027952D02*
X224023619Y-130027952D01*
X224023619Y-130027952D02*
X224118857Y-130075571D01*
X223690286Y-130647000D02*
X223785524Y-130694619D01*
X223785524Y-130694619D02*
X224023619Y-130694619D01*
X224023619Y-130694619D02*
X224118857Y-130647000D01*
X224118857Y-130647000D02*
X224166476Y-130551761D01*
X224166476Y-130551761D02*
X224166476Y-130456523D01*
X224166476Y-130456523D02*
X224118857Y-130361285D01*
X224118857Y-130361285D02*
X224023619Y-130313666D01*
X224023619Y-130313666D02*
X223785524Y-130313666D01*
X223785524Y-130313666D02*
X223690286Y-130266047D01*
X223214095Y-130694619D02*
X223214095Y-129694619D01*
X223214095Y-130075571D02*
X223118857Y-130027952D01*
X223118857Y-130027952D02*
X222928381Y-130027952D01*
X222928381Y-130027952D02*
X222833143Y-130075571D01*
X222833143Y-130075571D02*
X222785524Y-130123190D01*
X222785524Y-130123190D02*
X222737905Y-130218428D01*
X222737905Y-130218428D02*
X222737905Y-130504142D01*
X222737905Y-130504142D02*
X222785524Y-130599380D01*
X222785524Y-130599380D02*
X222833143Y-130647000D01*
X222833143Y-130647000D02*
X222928381Y-130694619D01*
X222928381Y-130694619D02*
X223118857Y-130694619D01*
X223118857Y-130694619D02*
X223214095Y-130647000D01*
X222356952Y-130647000D02*
X222261714Y-130694619D01*
X222261714Y-130694619D02*
X222071238Y-130694619D01*
X222071238Y-130694619D02*
X221976000Y-130647000D01*
X221976000Y-130647000D02*
X221928381Y-130551761D01*
X221928381Y-130551761D02*
X221928381Y-130504142D01*
X221928381Y-130504142D02*
X221976000Y-130408904D01*
X221976000Y-130408904D02*
X222071238Y-130361285D01*
X222071238Y-130361285D02*
X222214095Y-130361285D01*
X222214095Y-130361285D02*
X222309333Y-130313666D01*
X222309333Y-130313666D02*
X222356952Y-130218428D01*
X222356952Y-130218428D02*
X222356952Y-130170809D01*
X222356952Y-130170809D02*
X222309333Y-130075571D01*
X222309333Y-130075571D02*
X222214095Y-130027952D01*
X222214095Y-130027952D02*
X222071238Y-130027952D01*
X222071238Y-130027952D02*
X221976000Y-130075571D01*
%TO.C,G\u002A\u002A\u002A*%
G36*
X203584237Y-134680672D02*
G01*
X180755762Y-134680672D01*
X180755762Y-135324790D01*
X203584237Y-135324790D01*
X203584237Y-134680672D01*
G37*
G36*
X203584237Y-135961344D02*
G01*
X180755762Y-135961344D01*
X180755762Y-136605462D01*
X203584237Y-136605462D01*
X203584237Y-135961344D01*
G37*
G36*
X202072452Y-129987297D02*
G01*
X198651108Y-129987297D01*
X198651108Y-130628992D01*
X202072452Y-130628992D01*
X202072452Y-129987297D01*
G37*
G36*
X202072452Y-131054524D02*
G01*
X198651108Y-131054524D01*
X198651108Y-131696219D01*
X202072452Y-131696219D01*
X202072452Y-131054524D01*
G37*
G36*
X202071695Y-129988656D02*
G01*
X201430000Y-129988656D01*
X201430000Y-132740000D01*
X202071695Y-132740000D01*
X202071695Y-129988656D01*
G37*
G36*
X197961695Y-132128305D02*
G01*
X195000000Y-132128305D01*
X195000000Y-132790000D01*
X197961695Y-132790000D01*
X197961695Y-132128305D01*
G37*
G36*
X197960000Y-129980000D02*
G01*
X197320000Y-129980000D01*
X197320000Y-132790000D01*
X197960000Y-132790000D01*
X197960000Y-129980000D01*
G37*
G36*
X194665672Y-129990000D02*
G01*
X194023977Y-129990000D01*
X194023977Y-132770000D01*
X194665672Y-132770000D01*
X194665672Y-129990000D01*
G37*
G36*
X194665672Y-132128305D02*
G01*
X190724328Y-132128305D01*
X190724328Y-132800000D01*
X194665672Y-132800000D01*
X194665672Y-132128305D01*
G37*
G36*
X191361695Y-129998656D02*
G01*
X190720000Y-129998656D01*
X190720000Y-132800000D01*
X191361695Y-132800000D01*
X191361695Y-129998656D01*
G37*
G36*
X189891695Y-129994328D02*
G01*
X189250000Y-129994328D01*
X189250000Y-132785672D01*
X189891695Y-132785672D01*
X189891695Y-129994328D01*
G37*
D11*
G36*
X203578474Y-134044118D02*
G01*
X192170000Y-134044118D01*
X180761525Y-134044118D01*
X180761525Y-131376051D01*
X180761525Y-129348320D01*
X181407288Y-129348320D01*
X181407288Y-131376051D01*
X181407288Y-133403782D01*
X192170000Y-133403782D01*
X202932712Y-133403782D01*
X202932712Y-131376051D01*
X202932712Y-129348320D01*
X192170000Y-129348320D01*
X181407288Y-129348320D01*
X180761525Y-129348320D01*
X180761525Y-128707984D01*
X192170000Y-128707984D01*
X203578474Y-128707984D01*
X203578474Y-131376051D01*
X203578474Y-134044118D01*
G37*
G36*
X187750629Y-130050000D02*
G01*
X188380000Y-130450000D01*
X189290000Y-131020000D01*
X189320000Y-130560000D01*
X189390000Y-130460000D01*
X189580000Y-130450000D01*
X189700000Y-130460000D01*
X189800000Y-130530000D01*
X189800000Y-130690000D01*
X189740000Y-131420000D01*
X189720000Y-131890000D01*
X189710000Y-132430000D01*
X189680000Y-132580000D01*
X189560000Y-132590000D01*
X189400000Y-132560000D01*
X189390000Y-132350000D01*
X189337618Y-131969211D01*
X189255361Y-131789664D01*
X189013747Y-131920341D01*
X188690887Y-132068884D01*
X188187797Y-132336555D01*
X188070269Y-132398596D01*
X187440000Y-132760000D01*
X186830000Y-132760000D01*
X186560000Y-132760000D01*
X186560000Y-132570000D01*
X186813417Y-132424623D01*
X187411219Y-132031200D01*
X188557411Y-131298955D01*
X187511587Y-130630000D01*
X187020000Y-130300000D01*
X186780000Y-130120000D01*
X186780000Y-129950000D01*
X187045408Y-129950000D01*
X187590000Y-129950000D01*
X187750629Y-130050000D01*
G37*
G36*
X185927627Y-131376051D02*
G01*
X185927627Y-132763446D01*
X184097966Y-132763446D01*
X183196340Y-132760000D01*
X182520000Y-132760000D01*
X182270000Y-132760000D01*
X182268305Y-132443278D01*
X182270000Y-132280000D01*
X182270000Y-132100000D01*
X182860000Y-132100000D01*
X183660000Y-132100000D01*
X184345237Y-132097567D01*
X185070000Y-132100000D01*
X185070000Y-131910000D01*
X185070000Y-131720000D01*
X184390000Y-131720000D01*
X183667458Y-131720000D01*
X183250000Y-131720000D01*
X182690000Y-131720000D01*
X182270000Y-131720000D01*
X182268305Y-131376051D01*
X182270000Y-131020000D01*
X182450000Y-131020000D01*
X182880000Y-131020000D01*
X183660000Y-131020000D01*
X184345237Y-131020000D01*
X185080000Y-131020000D01*
X185080000Y-130830000D01*
X185080000Y-130670000D01*
X184400000Y-130670000D01*
X183667458Y-130670000D01*
X183349919Y-130670000D01*
X182695480Y-130670000D01*
X182280000Y-130670000D01*
X182280000Y-130310000D01*
X182280000Y-129990000D01*
X182623383Y-129990000D01*
X183170000Y-129990000D01*
X184100000Y-129988656D01*
X185927627Y-129988656D01*
X185927627Y-131376051D01*
G37*
%TD*%
M02*
