%TF.GenerationSoftware,KiCad,Pcbnew,8.0.5*%
%TF.CreationDate,2024-09-28T22:07:55-04:00*%
%TF.ProjectId,Fluke_LCD,466c756b-655f-44c4-9344-2e6b69636164,rev?*%
%TF.SameCoordinates,Original*%
%TF.FileFunction,Copper,L2,Bot*%
%TF.FilePolarity,Positive*%
%FSLAX46Y46*%
G04 Gerber Fmt 4.6, Leading zero omitted, Abs format (unit mm)*
G04 Created by KiCad (PCBNEW 8.0.5) date 2024-09-28 22:07:55*
%MOMM*%
%LPD*%
G01*
G04 APERTURE LIST*
G04 Aperture macros list*
%AMRoundRect*
0 Rectangle with rounded corners*
0 $1 Rounding radius*
0 $2 $3 $4 $5 $6 $7 $8 $9 X,Y pos of 4 corners*
0 Add a 4 corners polygon primitive as box body*
4,1,4,$2,$3,$4,$5,$6,$7,$8,$9,$2,$3,0*
0 Add four circle primitives for the rounded corners*
1,1,$1+$1,$2,$3*
1,1,$1+$1,$4,$5*
1,1,$1+$1,$6,$7*
1,1,$1+$1,$8,$9*
0 Add four rect primitives between the rounded corners*
20,1,$1+$1,$2,$3,$4,$5,0*
20,1,$1+$1,$4,$5,$6,$7,0*
20,1,$1+$1,$6,$7,$8,$9,0*
20,1,$1+$1,$8,$9,$2,$3,0*%
G04 Aperture macros list end*
%TA.AperFunction,SMDPad,CuDef*%
%ADD10RoundRect,0.375000X-0.375000X-1.625000X0.375000X-1.625000X0.375000X1.625000X-0.375000X1.625000X0*%
%TD*%
%TA.AperFunction,ViaPad*%
%ADD11C,0.800000*%
%TD*%
%TA.AperFunction,Conductor*%
%ADD12C,0.250000*%
%TD*%
G04 APERTURE END LIST*
D10*
%TO.P,J1,1,Pin_1*%
%TO.N,/TopGround*%
X238345000Y-157910000D03*
%TO.P,J1,2,Pin_2*%
%TO.N,Net-(J1-Pin_2)*%
X235938182Y-157900000D03*
%TO.P,J1,3,Pin_3*%
%TO.N,Net-(J1-Pin_3)*%
X233530000Y-157910000D03*
%TO.P,J1,4,Pin_4*%
%TO.N,Net-(J1-Pin_4)*%
X231124546Y-157910000D03*
%TO.P,J1,5,Pin_5*%
%TO.N,Net-(J1-Pin_5)*%
X228710000Y-157900000D03*
%TO.P,J1,6,Pin_6*%
%TO.N,Net-(J1-Pin_6)*%
X226310000Y-157910000D03*
%TO.P,J1,7,Pin_7*%
%TO.N,Net-(J1-Pin_7)*%
X223904092Y-157900000D03*
%TO.P,J1,8,Pin_8*%
%TO.N,Net-(J1-Pin_8)*%
X221497274Y-157900000D03*
%TO.P,J1,9,Pin_9*%
%TO.N,Net-(J1-Pin_9)*%
X219090000Y-157900000D03*
%TO.P,J1,10,Pin_10*%
%TO.N,Net-(J1-Pin_10)*%
X216683638Y-157900000D03*
%TO.P,J1,11,Pin_11*%
%TO.N,Net-(J1-Pin_11)*%
X214276820Y-157900000D03*
%TO.P,J1,12,Pin_12*%
%TO.N,Net-(J1-Pin_12)*%
X211870000Y-157900000D03*
%TO.P,J1,13,Pin_13*%
%TO.N,Net-(J1-Pin_13)*%
X209463184Y-157900000D03*
%TO.P,J1,14,Pin_14*%
%TO.N,Net-(J1-Pin_14)*%
X207050000Y-157900000D03*
%TO.P,J1,15,Pin_15*%
%TO.N,Net-(J1-Pin_15)*%
X204649548Y-157900000D03*
%TO.P,J1,16,Pin_16*%
%TO.N,Net-(J1-Pin_16)*%
X202240000Y-157900000D03*
%TO.P,J1,17,Pin_17*%
%TO.N,Net-(J1-Pin_17)*%
X199830000Y-157900000D03*
%TO.P,J1,18,Pin_18*%
%TO.N,Net-(J1-Pin_18)*%
X197429094Y-157900000D03*
%TO.P,J1,19,Pin_19*%
%TO.N,Net-(J1-Pin_19)*%
X195020000Y-157900000D03*
%TO.P,J1,20,Pin_20*%
%TO.N,Net-(J1-Pin_20)*%
X192610000Y-157900000D03*
%TO.P,J1,21,Pin_21*%
%TO.N,Net-(J1-Pin_21)*%
X190208640Y-157900000D03*
%TO.P,J1,22,Pin_22*%
%TO.N,Net-(J1-Pin_22)*%
X187800000Y-157900000D03*
%TO.P,J1,23,Pin_23*%
%TO.N,/BottomGround*%
X185390000Y-157900000D03*
%TD*%
D11*
%TO.N,Net-(D27-A)*%
X229877500Y-152560000D03*
X235450000Y-136650000D03*
X233560000Y-140380000D03*
%TO.N,Net-(D32-A)*%
X220720000Y-134810000D03*
X235840000Y-150670000D03*
X231830000Y-133390000D03*
%TO.N,Net-(J1-Pin_10)*%
X215390000Y-155580000D03*
%TO.N,Net-(J1-Pin_22)*%
X186510000Y-155450000D03*
%TO.N,Net-(J1-Pin_21)*%
X188930000Y-155550000D03*
%TO.N,Net-(J1-Pin_20)*%
X191320000Y-155520000D03*
%TO.N,Net-(J1-Pin_19)*%
X193720000Y-155560000D03*
%TO.N,Net-(J1-Pin_18)*%
X196140000Y-155580000D03*
%TO.N,Net-(J1-Pin_17)*%
X198540000Y-155550000D03*
%TO.N,Net-(J1-Pin_16)*%
X200960000Y-155570000D03*
%TO.N,Net-(J1-Pin_15)*%
X203360000Y-155550000D03*
%TO.N,Net-(J1-Pin_14)*%
X205760000Y-155560000D03*
%TO.N,Net-(J1-Pin_13)*%
X208180000Y-155570000D03*
%TO.N,Net-(J1-Pin_12)*%
X210590000Y-155560000D03*
%TO.N,Net-(J1-Pin_11)*%
X212980000Y-155580000D03*
%TO.N,Net-(J1-Pin_9)*%
X217810000Y-155560000D03*
%TO.N,Net-(J1-Pin_8)*%
X220210000Y-155560000D03*
%TO.N,Net-(J1-Pin_7)*%
X222620000Y-155560000D03*
%TO.N,Net-(J1-Pin_6)*%
X225030000Y-155560000D03*
%TO.N,Net-(J1-Pin_5)*%
X227430000Y-155570000D03*
%TO.N,Net-(J1-Pin_4)*%
X229830000Y-155550000D03*
%TO.N,Net-(J1-Pin_3)*%
X232230000Y-155560000D03*
%TO.N,Net-(J1-Pin_2)*%
X234650000Y-155560000D03*
%TO.N,/TopGround*%
X237600000Y-146040000D03*
%TO.N,/BottomGround*%
X185310000Y-154940000D03*
%TO.N,Net-(D28-A)*%
X236930000Y-142400000D03*
X236930000Y-144990000D03*
%TO.N,Net-(D1-A)*%
X197000000Y-149490000D03*
X197000000Y-141620000D03*
%TO.N,Net-(D2-A)*%
X204080000Y-136310000D03*
X204080000Y-140380000D03*
X202850000Y-150620000D03*
%TO.N,Net-(D4-A)*%
X200710000Y-146470000D03*
X202520000Y-142410000D03*
%TO.N,Net-(D8-A)*%
X206630000Y-140330000D03*
X207820000Y-149490000D03*
%TO.N,Net-(D11-A)*%
X212530000Y-150630000D03*
X215080000Y-136270000D03*
X215080000Y-140320000D03*
%TO.N,Net-(D12-A)*%
X211710000Y-146420000D03*
X213570000Y-142360000D03*
%TO.N,Net-(D16-A)*%
X217670000Y-140360000D03*
X218870000Y-149500000D03*
%TO.N,Net-(D19-A)*%
X226130000Y-140360000D03*
X223800000Y-150570000D03*
X226130000Y-136310000D03*
%TO.N,Net-(D20-A)*%
X224890000Y-142400000D03*
X222700000Y-146460000D03*
%TO.N,Net-(D24-A)*%
X229790000Y-149490000D03*
X228720000Y-140370000D03*
%TD*%
D12*
%TO.N,Net-(D27-A)*%
X230510000Y-142390000D02*
X230510000Y-150010000D01*
X232520000Y-140380000D02*
X230510000Y-142390000D01*
X233560000Y-138540000D02*
X235450000Y-136650000D01*
X229877500Y-150642500D02*
X229877500Y-152560000D01*
X230510000Y-150010000D02*
X229877500Y-150642500D01*
X233560000Y-140380000D02*
X233560000Y-138540000D01*
X233560000Y-140380000D02*
X232520000Y-140380000D01*
%TO.N,Net-(D32-A)*%
X237020000Y-136300000D02*
X234110000Y-133390000D01*
X220720000Y-134810000D02*
X230410000Y-134810000D01*
X235840000Y-150670000D02*
X235840000Y-141770000D01*
X234110000Y-133390000D02*
X231830000Y-133390000D01*
X237020000Y-140590000D02*
X237020000Y-136300000D01*
X230410000Y-134810000D02*
X231830000Y-133390000D01*
X235840000Y-141770000D02*
X237020000Y-140590000D01*
%TO.N,Net-(J1-Pin_10)*%
X215390000Y-155580000D02*
X215929000Y-156119000D01*
X215929000Y-156119000D02*
X216596638Y-156119000D01*
%TO.N,Net-(J1-Pin_22)*%
X187179000Y-156119000D02*
X187714822Y-156119000D01*
X186510000Y-155450000D02*
X187179000Y-156119000D01*
%TO.N,Net-(J1-Pin_21)*%
X189499000Y-156119000D02*
X190121640Y-156119000D01*
X188930000Y-155550000D02*
X189499000Y-156119000D01*
%TO.N,Net-(J1-Pin_20)*%
X191320000Y-155520000D02*
X191919000Y-156119000D01*
X191919000Y-156119000D02*
X192528458Y-156119000D01*
%TO.N,Net-(J1-Pin_19)*%
X194279000Y-156119000D02*
X194935276Y-156119000D01*
X193720000Y-155560000D02*
X194279000Y-156119000D01*
%TO.N,Net-(J1-Pin_18)*%
X196679000Y-156119000D02*
X197342094Y-156119000D01*
X196140000Y-155580000D02*
X196679000Y-156119000D01*
%TO.N,Net-(J1-Pin_17)*%
X199109000Y-156119000D02*
X199748912Y-156119000D01*
X198540000Y-155550000D02*
X199109000Y-156119000D01*
%TO.N,Net-(J1-Pin_16)*%
X201509000Y-156119000D02*
X202155730Y-156119000D01*
X200960000Y-155570000D02*
X201509000Y-156119000D01*
%TO.N,Net-(J1-Pin_15)*%
X203929000Y-156119000D02*
X204562548Y-156119000D01*
X203360000Y-155550000D02*
X203929000Y-156119000D01*
%TO.N,Net-(J1-Pin_14)*%
X205760000Y-155560000D02*
X206319000Y-156119000D01*
X206319000Y-156119000D02*
X206969366Y-156119000D01*
%TO.N,Net-(J1-Pin_13)*%
X208180000Y-155570000D02*
X208729000Y-156119000D01*
X208729000Y-156119000D02*
X209376184Y-156119000D01*
%TO.N,Net-(J1-Pin_12)*%
X211149000Y-156119000D02*
X211783002Y-156119000D01*
X210590000Y-155560000D02*
X211149000Y-156119000D01*
%TO.N,Net-(J1-Pin_11)*%
X213519000Y-156119000D02*
X214189820Y-156119000D01*
X212980000Y-155580000D02*
X213519000Y-156119000D01*
%TO.N,Net-(J1-Pin_9)*%
X218369000Y-156119000D02*
X219003456Y-156119000D01*
X217810000Y-155560000D02*
X218369000Y-156119000D01*
%TO.N,Net-(J1-Pin_8)*%
X220210000Y-155560000D02*
X220769000Y-156119000D01*
X220769000Y-156119000D02*
X221410274Y-156119000D01*
%TO.N,Net-(J1-Pin_7)*%
X222620000Y-155560000D02*
X223179000Y-156119000D01*
X223179000Y-156119000D02*
X223817092Y-156119000D01*
%TO.N,Net-(J1-Pin_6)*%
X225589000Y-156119000D02*
X226223910Y-156119000D01*
X225030000Y-155560000D02*
X225589000Y-156119000D01*
%TO.N,Net-(J1-Pin_5)*%
X227979000Y-156119000D02*
X228630728Y-156119000D01*
X227430000Y-155570000D02*
X227979000Y-156119000D01*
%TO.N,Net-(J1-Pin_4)*%
X230399000Y-156119000D02*
X231037546Y-156119000D01*
X229830000Y-155550000D02*
X230399000Y-156119000D01*
%TO.N,Net-(J1-Pin_3)*%
X232789000Y-156119000D02*
X233444364Y-156119000D01*
X232230000Y-155560000D02*
X232789000Y-156119000D01*
%TO.N,Net-(J1-Pin_2)*%
X235209000Y-156119000D02*
X235851182Y-156119000D01*
X234650000Y-155560000D02*
X235209000Y-156119000D01*
%TO.N,/TopGround*%
X237600000Y-149320000D02*
X238258000Y-149978000D01*
X238258000Y-149978000D02*
X238258000Y-156119000D01*
X237600000Y-146040000D02*
X237600000Y-149320000D01*
%TO.N,/BottomGround*%
X185310000Y-154940000D02*
X185310000Y-156119000D01*
X185310000Y-156119000D02*
X185308000Y-156119000D01*
%TO.N,Net-(D28-A)*%
X236930000Y-142400000D02*
X236930000Y-144990000D01*
%TO.N,Net-(D1-A)*%
X197000000Y-141620000D02*
X197000000Y-149490000D01*
%TO.N,Net-(D2-A)*%
X203520000Y-149950000D02*
X203520000Y-145850000D01*
X204080000Y-145290000D02*
X204080000Y-140380000D01*
X203520000Y-145850000D02*
X204080000Y-145290000D01*
X202850000Y-150620000D02*
X203520000Y-149950000D01*
X204080000Y-140380000D02*
X204080000Y-136310000D01*
%TO.N,Net-(D4-A)*%
X200710000Y-144220000D02*
X202520000Y-142410000D01*
X200710000Y-146470000D02*
X200710000Y-144220000D01*
%TO.N,Net-(D8-A)*%
X207820000Y-148180000D02*
X206630000Y-146990000D01*
X207820000Y-149490000D02*
X207820000Y-148180000D01*
X206630000Y-146990000D02*
X206630000Y-140330000D01*
%TO.N,Net-(D11-A)*%
X215080000Y-140320000D02*
X215080000Y-145550000D01*
X214470000Y-146160000D02*
X214470000Y-148690000D01*
X214470000Y-148690000D02*
X212530000Y-150630000D01*
X215080000Y-136270000D02*
X215080000Y-140320000D01*
X215080000Y-145550000D02*
X214470000Y-146160000D01*
%TO.N,Net-(D12-A)*%
X211710000Y-146420000D02*
X211710000Y-144220000D01*
X211710000Y-144220000D02*
X213570000Y-142360000D01*
%TO.N,Net-(D16-A)*%
X218870000Y-148250000D02*
X218870000Y-149500000D01*
X217670000Y-140360000D02*
X217670000Y-147050000D01*
X217670000Y-147050000D02*
X218870000Y-148250000D01*
%TO.N,Net-(D19-A)*%
X226130000Y-140360000D02*
X226130000Y-136310000D01*
X225630000Y-148340000D02*
X225630000Y-146090000D01*
X223800000Y-150570000D02*
X223800000Y-150170000D01*
X223800000Y-150170000D02*
X225630000Y-148340000D01*
X226130000Y-145590000D02*
X226130000Y-140360000D01*
X225630000Y-146090000D02*
X226130000Y-145590000D01*
%TO.N,Net-(D20-A)*%
X222700000Y-146460000D02*
X222700000Y-144590000D01*
X222700000Y-144590000D02*
X224890000Y-142400000D01*
%TO.N,Net-(D24-A)*%
X229790000Y-148180000D02*
X228720000Y-147110000D01*
X228720000Y-147110000D02*
X228720000Y-140370000D01*
X229790000Y-149490000D02*
X229790000Y-148180000D01*
%TD*%
M02*
