M48
; DRILL file {KiCad 8.0.5} date 2024-09-28T22:07:45-0400
; FORMAT={-:-/ absolute / inch / decimal}
; #@! TF.CreationDate,2024-09-28T22:07:45-04:00
; #@! TF.GenerationSoftware,Kicad,Pcbnew,8.0.5
; #@! TF.FileFunction,Plated,1,2,PTH
FMAT,2
INCH
; #@! TA.AperFunction,Plated,PTH,ViaDrill
T1C0.0157
%
G90
G05
T1
X7.2957Y-6.1
X7.3429Y-6.1201
X7.4382Y-6.124
X7.5323Y-6.1228
X7.6268Y-6.1244
X7.722Y-6.1252
X7.7559Y-5.5756
X7.7559Y-5.8854
X7.8165Y-6.124
X7.902Y-5.7665
X7.9118Y-6.1248
X7.9732Y-5.6067
X7.9862Y-5.9299
X8.0063Y-6.124
X8.0346Y-5.3665
X8.0346Y-5.5268
X8.1008Y-6.1244
X8.135Y-5.5248
X8.1819Y-5.8854
X8.1961Y-6.1248
X8.2909Y-6.1244
X8.335Y-5.7646
X8.3673Y-5.9303
X8.385Y-6.1252
X8.4083Y-5.6047
X8.4677Y-5.365
X8.4677Y-5.5244
X8.4799Y-6.1252
X8.5697Y-5.526
X8.5752Y-6.1244
X8.6169Y-5.8858
X8.6697Y-6.1244
X8.6898Y-5.3075
X8.7646Y-6.1244
X8.7677Y-5.7661
X8.811Y-5.928
X8.8539Y-5.6063
X8.8594Y-6.1244
X8.9028Y-5.3665
X8.9028Y-5.526
X8.9539Y-6.1248
X9.0047Y-5.5264
X9.0469Y-5.8854
X9.0484Y-6.124
X9.0503Y-6.0063
X9.1272Y-5.2516
X9.1429Y-6.1244
X9.1953Y-5.5268
X9.2382Y-6.1244
X9.2697Y-5.3799
X9.285Y-5.9319
X9.328Y-5.6063
X9.328Y-5.7083
X9.3543Y-5.7496
M30
