%TF.GenerationSoftware,KiCad,Pcbnew,8.0.5*%
%TF.CreationDate,2024-09-28T22:07:44-04:00*%
%TF.ProjectId,Fluke_LCD,466c756b-655f-44c4-9344-2e6b69636164,rev?*%
%TF.SameCoordinates,Original*%
%TF.FileFunction,Drillmap*%
%TF.FilePolarity,Positive*%
%FSLAX45Y45*%
G04 Gerber Fmt 4.5, Leading zero omitted, Abs format (unit mm)*
G04 Created by KiCad (PCBNEW 8.0.5) date 2024-09-28 22:07:44*
%MOMM*%
%LPD*%
G01*
G04 APERTURE LIST*
%ADD10C,0.200000*%
%ADD11C,0.100000*%
G04 APERTURE END LIST*
D10*
X18000000Y-12596400D02*
X24426200Y-12596400D01*
X24426200Y-16000000D01*
X18000000Y-16000000D01*
X18000000Y-12596400D01*
D11*
X18511000Y-15474000D02*
X18551000Y-15514000D01*
X18551000Y-15474000D02*
X18511000Y-15514000D01*
X18631000Y-15525000D02*
X18671000Y-15565000D01*
X18671000Y-15525000D02*
X18631000Y-15565000D01*
X18873000Y-15535000D02*
X18913000Y-15575000D01*
X18913000Y-15535000D02*
X18873000Y-15575000D01*
X19112000Y-15532000D02*
X19152000Y-15572000D01*
X19152000Y-15532000D02*
X19112000Y-15572000D01*
X19352000Y-15536000D02*
X19392000Y-15576000D01*
X19392000Y-15536000D02*
X19352000Y-15576000D01*
X19594000Y-15538000D02*
X19634000Y-15578000D01*
X19634000Y-15538000D02*
X19594000Y-15578000D01*
X19680000Y-14142000D02*
X19720000Y-14182000D01*
X19720000Y-14142000D02*
X19680000Y-14182000D01*
X19680000Y-14929000D02*
X19720000Y-14969000D01*
X19720000Y-14929000D02*
X19680000Y-14969000D01*
X19834000Y-15535000D02*
X19874000Y-15575000D01*
X19874000Y-15535000D02*
X19834000Y-15575000D01*
X20051000Y-14627000D02*
X20091000Y-14667000D01*
X20091000Y-14627000D02*
X20051000Y-14667000D01*
X20076000Y-15537000D02*
X20116000Y-15577000D01*
X20116000Y-15537000D02*
X20076000Y-15577000D01*
X20232000Y-14221000D02*
X20272000Y-14261000D01*
X20272000Y-14221000D02*
X20232000Y-14261000D01*
X20265000Y-15042000D02*
X20305000Y-15082000D01*
X20305000Y-15042000D02*
X20265000Y-15082000D01*
X20316000Y-15535000D02*
X20356000Y-15575000D01*
X20356000Y-15535000D02*
X20316000Y-15575000D01*
X20388000Y-13611000D02*
X20428000Y-13651000D01*
X20428000Y-13611000D02*
X20388000Y-13651000D01*
X20388000Y-14018000D02*
X20428000Y-14058000D01*
X20428000Y-14018000D02*
X20388000Y-14058000D01*
X20556000Y-15536000D02*
X20596000Y-15576000D01*
X20596000Y-15536000D02*
X20556000Y-15576000D01*
X20643000Y-14013000D02*
X20683000Y-14053000D01*
X20683000Y-14013000D02*
X20643000Y-14053000D01*
X20762000Y-14929000D02*
X20802000Y-14969000D01*
X20802000Y-14929000D02*
X20762000Y-14969000D01*
X20798000Y-15537000D02*
X20838000Y-15577000D01*
X20838000Y-15537000D02*
X20798000Y-15577000D01*
X21039000Y-15536000D02*
X21079000Y-15576000D01*
X21079000Y-15536000D02*
X21039000Y-15576000D01*
X21151000Y-14622000D02*
X21191000Y-14662000D01*
X21191000Y-14622000D02*
X21151000Y-14662000D01*
X21233000Y-15043000D02*
X21273000Y-15083000D01*
X21273000Y-15043000D02*
X21233000Y-15083000D01*
X21278000Y-15538000D02*
X21318000Y-15578000D01*
X21318000Y-15538000D02*
X21278000Y-15578000D01*
X21337000Y-14216000D02*
X21377000Y-14256000D01*
X21377000Y-14216000D02*
X21337000Y-14256000D01*
X21488000Y-13607000D02*
X21528000Y-13647000D01*
X21528000Y-13607000D02*
X21488000Y-13647000D01*
X21488000Y-14012000D02*
X21528000Y-14052000D01*
X21528000Y-14012000D02*
X21488000Y-14052000D01*
X21519000Y-15538000D02*
X21559000Y-15578000D01*
X21559000Y-15538000D02*
X21519000Y-15578000D01*
X21747000Y-14016000D02*
X21787000Y-14056000D01*
X21787000Y-14016000D02*
X21747000Y-14056000D01*
X21761000Y-15536000D02*
X21801000Y-15576000D01*
X21801000Y-15536000D02*
X21761000Y-15576000D01*
X21867000Y-14930000D02*
X21907000Y-14970000D01*
X21907000Y-14930000D02*
X21867000Y-14970000D01*
X22001000Y-15536000D02*
X22041000Y-15576000D01*
X22041000Y-15536000D02*
X22001000Y-15576000D01*
X22052000Y-13461000D02*
X22092000Y-13501000D01*
X22092000Y-13461000D02*
X22052000Y-13501000D01*
X22242000Y-15536000D02*
X22282000Y-15576000D01*
X22282000Y-15536000D02*
X22242000Y-15576000D01*
X22250000Y-14626000D02*
X22290000Y-14666000D01*
X22290000Y-14626000D02*
X22250000Y-14666000D01*
X22360000Y-15037000D02*
X22400000Y-15077000D01*
X22400000Y-15037000D02*
X22360000Y-15077000D01*
X22469000Y-14220000D02*
X22509000Y-14260000D01*
X22509000Y-14220000D02*
X22469000Y-14260000D01*
X22483000Y-15536000D02*
X22523000Y-15576000D01*
X22523000Y-15536000D02*
X22483000Y-15576000D01*
X22593000Y-13611000D02*
X22633000Y-13651000D01*
X22633000Y-13611000D02*
X22593000Y-13651000D01*
X22593000Y-14016000D02*
X22633000Y-14056000D01*
X22633000Y-14016000D02*
X22593000Y-14056000D01*
X22723000Y-15537000D02*
X22763000Y-15577000D01*
X22763000Y-15537000D02*
X22723000Y-15577000D01*
X22852000Y-14017000D02*
X22892000Y-14057000D01*
X22892000Y-14017000D02*
X22852000Y-14057000D01*
X22959000Y-14929000D02*
X22999000Y-14969000D01*
X22999000Y-14929000D02*
X22959000Y-14969000D01*
X22963000Y-15535000D02*
X23003000Y-15575000D01*
X23003000Y-15535000D02*
X22963000Y-15575000D01*
X22967750Y-15236000D02*
X23007750Y-15276000D01*
X23007750Y-15236000D02*
X22967750Y-15276000D01*
X23163000Y-13319000D02*
X23203000Y-13359000D01*
X23203000Y-13319000D02*
X23163000Y-13359000D01*
X23203000Y-15536000D02*
X23243000Y-15576000D01*
X23243000Y-15536000D02*
X23203000Y-15576000D01*
X23336000Y-14018000D02*
X23376000Y-14058000D01*
X23376000Y-14018000D02*
X23336000Y-14058000D01*
X23445000Y-15536000D02*
X23485000Y-15576000D01*
X23485000Y-15536000D02*
X23445000Y-15576000D01*
X23525000Y-13645000D02*
X23565000Y-13685000D01*
X23565000Y-13645000D02*
X23525000Y-13685000D01*
X23564000Y-15047000D02*
X23604000Y-15087000D01*
X23604000Y-15047000D02*
X23564000Y-15087000D01*
X23673000Y-14220000D02*
X23713000Y-14260000D01*
X23713000Y-14220000D02*
X23673000Y-14260000D01*
X23673000Y-14479000D02*
X23713000Y-14519000D01*
X23713000Y-14479000D02*
X23673000Y-14519000D01*
X23740000Y-14584000D02*
X23780000Y-14624000D01*
X23780000Y-14584000D02*
X23740000Y-14624000D01*
D10*
X18250777Y-16321484D02*
X18250777Y-16121484D01*
X18250777Y-16121484D02*
X18298396Y-16121484D01*
X18298396Y-16121484D02*
X18326967Y-16131008D01*
X18326967Y-16131008D02*
X18346015Y-16150055D01*
X18346015Y-16150055D02*
X18355539Y-16169103D01*
X18355539Y-16169103D02*
X18365063Y-16207198D01*
X18365063Y-16207198D02*
X18365063Y-16235769D01*
X18365063Y-16235769D02*
X18355539Y-16273865D01*
X18355539Y-16273865D02*
X18346015Y-16292912D01*
X18346015Y-16292912D02*
X18326967Y-16311960D01*
X18326967Y-16311960D02*
X18298396Y-16321484D01*
X18298396Y-16321484D02*
X18250777Y-16321484D01*
X18450777Y-16321484D02*
X18450777Y-16188150D01*
X18450777Y-16226246D02*
X18460301Y-16207198D01*
X18460301Y-16207198D02*
X18469824Y-16197674D01*
X18469824Y-16197674D02*
X18488872Y-16188150D01*
X18488872Y-16188150D02*
X18507920Y-16188150D01*
X18574586Y-16321484D02*
X18574586Y-16188150D01*
X18574586Y-16121484D02*
X18565063Y-16131008D01*
X18565063Y-16131008D02*
X18574586Y-16140531D01*
X18574586Y-16140531D02*
X18584110Y-16131008D01*
X18584110Y-16131008D02*
X18574586Y-16121484D01*
X18574586Y-16121484D02*
X18574586Y-16140531D01*
X18698396Y-16321484D02*
X18679348Y-16311960D01*
X18679348Y-16311960D02*
X18669824Y-16292912D01*
X18669824Y-16292912D02*
X18669824Y-16121484D01*
X18803158Y-16321484D02*
X18784110Y-16311960D01*
X18784110Y-16311960D02*
X18774586Y-16292912D01*
X18774586Y-16292912D02*
X18774586Y-16121484D01*
X19031729Y-16321484D02*
X19031729Y-16121484D01*
X19031729Y-16121484D02*
X19098396Y-16264341D01*
X19098396Y-16264341D02*
X19165063Y-16121484D01*
X19165063Y-16121484D02*
X19165063Y-16321484D01*
X19346015Y-16321484D02*
X19346015Y-16216722D01*
X19346015Y-16216722D02*
X19336491Y-16197674D01*
X19336491Y-16197674D02*
X19317444Y-16188150D01*
X19317444Y-16188150D02*
X19279348Y-16188150D01*
X19279348Y-16188150D02*
X19260301Y-16197674D01*
X19346015Y-16311960D02*
X19326967Y-16321484D01*
X19326967Y-16321484D02*
X19279348Y-16321484D01*
X19279348Y-16321484D02*
X19260301Y-16311960D01*
X19260301Y-16311960D02*
X19250777Y-16292912D01*
X19250777Y-16292912D02*
X19250777Y-16273865D01*
X19250777Y-16273865D02*
X19260301Y-16254817D01*
X19260301Y-16254817D02*
X19279348Y-16245293D01*
X19279348Y-16245293D02*
X19326967Y-16245293D01*
X19326967Y-16245293D02*
X19346015Y-16235769D01*
X19441253Y-16188150D02*
X19441253Y-16388150D01*
X19441253Y-16197674D02*
X19460301Y-16188150D01*
X19460301Y-16188150D02*
X19498396Y-16188150D01*
X19498396Y-16188150D02*
X19517444Y-16197674D01*
X19517444Y-16197674D02*
X19526967Y-16207198D01*
X19526967Y-16207198D02*
X19536491Y-16226246D01*
X19536491Y-16226246D02*
X19536491Y-16283388D01*
X19536491Y-16283388D02*
X19526967Y-16302436D01*
X19526967Y-16302436D02*
X19517444Y-16311960D01*
X19517444Y-16311960D02*
X19498396Y-16321484D01*
X19498396Y-16321484D02*
X19460301Y-16321484D01*
X19460301Y-16321484D02*
X19441253Y-16311960D01*
X19622205Y-16302436D02*
X19631729Y-16311960D01*
X19631729Y-16311960D02*
X19622205Y-16321484D01*
X19622205Y-16321484D02*
X19612682Y-16311960D01*
X19612682Y-16311960D02*
X19622205Y-16302436D01*
X19622205Y-16302436D02*
X19622205Y-16321484D01*
X19622205Y-16197674D02*
X19631729Y-16207198D01*
X19631729Y-16207198D02*
X19622205Y-16216722D01*
X19622205Y-16216722D02*
X19612682Y-16207198D01*
X19612682Y-16207198D02*
X19622205Y-16197674D01*
X19622205Y-16197674D02*
X19622205Y-16216722D01*
D11*
X17950000Y-16630000D02*
X17990000Y-16670000D01*
X17990000Y-16630000D02*
X17950000Y-16670000D01*
D10*
X18288872Y-16541484D02*
X18307920Y-16541484D01*
X18307920Y-16541484D02*
X18326967Y-16551008D01*
X18326967Y-16551008D02*
X18336491Y-16560531D01*
X18336491Y-16560531D02*
X18346015Y-16579579D01*
X18346015Y-16579579D02*
X18355539Y-16617674D01*
X18355539Y-16617674D02*
X18355539Y-16665293D01*
X18355539Y-16665293D02*
X18346015Y-16703388D01*
X18346015Y-16703388D02*
X18336491Y-16722436D01*
X18336491Y-16722436D02*
X18326967Y-16731960D01*
X18326967Y-16731960D02*
X18307920Y-16741484D01*
X18307920Y-16741484D02*
X18288872Y-16741484D01*
X18288872Y-16741484D02*
X18269824Y-16731960D01*
X18269824Y-16731960D02*
X18260301Y-16722436D01*
X18260301Y-16722436D02*
X18250777Y-16703388D01*
X18250777Y-16703388D02*
X18241253Y-16665293D01*
X18241253Y-16665293D02*
X18241253Y-16617674D01*
X18241253Y-16617674D02*
X18250777Y-16579579D01*
X18250777Y-16579579D02*
X18260301Y-16560531D01*
X18260301Y-16560531D02*
X18269824Y-16551008D01*
X18269824Y-16551008D02*
X18288872Y-16541484D01*
X18441253Y-16722436D02*
X18450777Y-16731960D01*
X18450777Y-16731960D02*
X18441253Y-16741484D01*
X18441253Y-16741484D02*
X18431729Y-16731960D01*
X18431729Y-16731960D02*
X18441253Y-16722436D01*
X18441253Y-16722436D02*
X18441253Y-16741484D01*
X18622205Y-16608150D02*
X18622205Y-16741484D01*
X18574586Y-16531960D02*
X18526967Y-16674817D01*
X18526967Y-16674817D02*
X18650777Y-16674817D01*
X18765063Y-16541484D02*
X18784110Y-16541484D01*
X18784110Y-16541484D02*
X18803158Y-16551008D01*
X18803158Y-16551008D02*
X18812682Y-16560531D01*
X18812682Y-16560531D02*
X18822205Y-16579579D01*
X18822205Y-16579579D02*
X18831729Y-16617674D01*
X18831729Y-16617674D02*
X18831729Y-16665293D01*
X18831729Y-16665293D02*
X18822205Y-16703388D01*
X18822205Y-16703388D02*
X18812682Y-16722436D01*
X18812682Y-16722436D02*
X18803158Y-16731960D01*
X18803158Y-16731960D02*
X18784110Y-16741484D01*
X18784110Y-16741484D02*
X18765063Y-16741484D01*
X18765063Y-16741484D02*
X18746015Y-16731960D01*
X18746015Y-16731960D02*
X18736491Y-16722436D01*
X18736491Y-16722436D02*
X18726967Y-16703388D01*
X18726967Y-16703388D02*
X18717444Y-16665293D01*
X18717444Y-16665293D02*
X18717444Y-16617674D01*
X18717444Y-16617674D02*
X18726967Y-16579579D01*
X18726967Y-16579579D02*
X18736491Y-16560531D01*
X18736491Y-16560531D02*
X18746015Y-16551008D01*
X18746015Y-16551008D02*
X18765063Y-16541484D01*
X18955539Y-16541484D02*
X18974586Y-16541484D01*
X18974586Y-16541484D02*
X18993634Y-16551008D01*
X18993634Y-16551008D02*
X19003158Y-16560531D01*
X19003158Y-16560531D02*
X19012682Y-16579579D01*
X19012682Y-16579579D02*
X19022205Y-16617674D01*
X19022205Y-16617674D02*
X19022205Y-16665293D01*
X19022205Y-16665293D02*
X19012682Y-16703388D01*
X19012682Y-16703388D02*
X19003158Y-16722436D01*
X19003158Y-16722436D02*
X18993634Y-16731960D01*
X18993634Y-16731960D02*
X18974586Y-16741484D01*
X18974586Y-16741484D02*
X18955539Y-16741484D01*
X18955539Y-16741484D02*
X18936491Y-16731960D01*
X18936491Y-16731960D02*
X18926967Y-16722436D01*
X18926967Y-16722436D02*
X18917444Y-16703388D01*
X18917444Y-16703388D02*
X18907920Y-16665293D01*
X18907920Y-16665293D02*
X18907920Y-16617674D01*
X18907920Y-16617674D02*
X18917444Y-16579579D01*
X18917444Y-16579579D02*
X18926967Y-16560531D01*
X18926967Y-16560531D02*
X18936491Y-16551008D01*
X18936491Y-16551008D02*
X18955539Y-16541484D01*
X19107920Y-16741484D02*
X19107920Y-16608150D01*
X19107920Y-16627198D02*
X19117444Y-16617674D01*
X19117444Y-16617674D02*
X19136491Y-16608150D01*
X19136491Y-16608150D02*
X19165063Y-16608150D01*
X19165063Y-16608150D02*
X19184110Y-16617674D01*
X19184110Y-16617674D02*
X19193634Y-16636722D01*
X19193634Y-16636722D02*
X19193634Y-16741484D01*
X19193634Y-16636722D02*
X19203158Y-16617674D01*
X19203158Y-16617674D02*
X19222205Y-16608150D01*
X19222205Y-16608150D02*
X19250777Y-16608150D01*
X19250777Y-16608150D02*
X19269825Y-16617674D01*
X19269825Y-16617674D02*
X19279348Y-16636722D01*
X19279348Y-16636722D02*
X19279348Y-16741484D01*
X19374586Y-16741484D02*
X19374586Y-16608150D01*
X19374586Y-16627198D02*
X19384110Y-16617674D01*
X19384110Y-16617674D02*
X19403158Y-16608150D01*
X19403158Y-16608150D02*
X19431729Y-16608150D01*
X19431729Y-16608150D02*
X19450777Y-16617674D01*
X19450777Y-16617674D02*
X19460301Y-16636722D01*
X19460301Y-16636722D02*
X19460301Y-16741484D01*
X19460301Y-16636722D02*
X19469825Y-16617674D01*
X19469825Y-16617674D02*
X19488872Y-16608150D01*
X19488872Y-16608150D02*
X19517444Y-16608150D01*
X19517444Y-16608150D02*
X19536491Y-16617674D01*
X19536491Y-16617674D02*
X19546015Y-16636722D01*
X19546015Y-16636722D02*
X19546015Y-16741484D01*
X19936491Y-16531960D02*
X19765063Y-16789103D01*
X20193634Y-16541484D02*
X20212682Y-16541484D01*
X20212682Y-16541484D02*
X20231729Y-16551008D01*
X20231729Y-16551008D02*
X20241253Y-16560531D01*
X20241253Y-16560531D02*
X20250777Y-16579579D01*
X20250777Y-16579579D02*
X20260301Y-16617674D01*
X20260301Y-16617674D02*
X20260301Y-16665293D01*
X20260301Y-16665293D02*
X20250777Y-16703388D01*
X20250777Y-16703388D02*
X20241253Y-16722436D01*
X20241253Y-16722436D02*
X20231729Y-16731960D01*
X20231729Y-16731960D02*
X20212682Y-16741484D01*
X20212682Y-16741484D02*
X20193634Y-16741484D01*
X20193634Y-16741484D02*
X20174587Y-16731960D01*
X20174587Y-16731960D02*
X20165063Y-16722436D01*
X20165063Y-16722436D02*
X20155539Y-16703388D01*
X20155539Y-16703388D02*
X20146015Y-16665293D01*
X20146015Y-16665293D02*
X20146015Y-16617674D01*
X20146015Y-16617674D02*
X20155539Y-16579579D01*
X20155539Y-16579579D02*
X20165063Y-16560531D01*
X20165063Y-16560531D02*
X20174587Y-16551008D01*
X20174587Y-16551008D02*
X20193634Y-16541484D01*
X20346015Y-16722436D02*
X20355539Y-16731960D01*
X20355539Y-16731960D02*
X20346015Y-16741484D01*
X20346015Y-16741484D02*
X20336491Y-16731960D01*
X20336491Y-16731960D02*
X20346015Y-16722436D01*
X20346015Y-16722436D02*
X20346015Y-16741484D01*
X20479348Y-16541484D02*
X20498396Y-16541484D01*
X20498396Y-16541484D02*
X20517444Y-16551008D01*
X20517444Y-16551008D02*
X20526968Y-16560531D01*
X20526968Y-16560531D02*
X20536491Y-16579579D01*
X20536491Y-16579579D02*
X20546015Y-16617674D01*
X20546015Y-16617674D02*
X20546015Y-16665293D01*
X20546015Y-16665293D02*
X20536491Y-16703388D01*
X20536491Y-16703388D02*
X20526968Y-16722436D01*
X20526968Y-16722436D02*
X20517444Y-16731960D01*
X20517444Y-16731960D02*
X20498396Y-16741484D01*
X20498396Y-16741484D02*
X20479348Y-16741484D01*
X20479348Y-16741484D02*
X20460301Y-16731960D01*
X20460301Y-16731960D02*
X20450777Y-16722436D01*
X20450777Y-16722436D02*
X20441253Y-16703388D01*
X20441253Y-16703388D02*
X20431729Y-16665293D01*
X20431729Y-16665293D02*
X20431729Y-16617674D01*
X20431729Y-16617674D02*
X20441253Y-16579579D01*
X20441253Y-16579579D02*
X20450777Y-16560531D01*
X20450777Y-16560531D02*
X20460301Y-16551008D01*
X20460301Y-16551008D02*
X20479348Y-16541484D01*
X20736491Y-16741484D02*
X20622206Y-16741484D01*
X20679348Y-16741484D02*
X20679348Y-16541484D01*
X20679348Y-16541484D02*
X20660301Y-16570055D01*
X20660301Y-16570055D02*
X20641253Y-16589103D01*
X20641253Y-16589103D02*
X20622206Y-16598627D01*
X20917444Y-16541484D02*
X20822206Y-16541484D01*
X20822206Y-16541484D02*
X20812682Y-16636722D01*
X20812682Y-16636722D02*
X20822206Y-16627198D01*
X20822206Y-16627198D02*
X20841253Y-16617674D01*
X20841253Y-16617674D02*
X20888872Y-16617674D01*
X20888872Y-16617674D02*
X20907920Y-16627198D01*
X20907920Y-16627198D02*
X20917444Y-16636722D01*
X20917444Y-16636722D02*
X20926968Y-16655769D01*
X20926968Y-16655769D02*
X20926968Y-16703388D01*
X20926968Y-16703388D02*
X20917444Y-16722436D01*
X20917444Y-16722436D02*
X20907920Y-16731960D01*
X20907920Y-16731960D02*
X20888872Y-16741484D01*
X20888872Y-16741484D02*
X20841253Y-16741484D01*
X20841253Y-16741484D02*
X20822206Y-16731960D01*
X20822206Y-16731960D02*
X20812682Y-16722436D01*
X20993634Y-16541484D02*
X21126968Y-16541484D01*
X21126968Y-16541484D02*
X21041253Y-16741484D01*
X21193634Y-16541484D02*
X21193634Y-16579579D01*
X21269825Y-16541484D02*
X21269825Y-16579579D01*
X21565063Y-16817674D02*
X21555539Y-16808150D01*
X21555539Y-16808150D02*
X21536491Y-16779579D01*
X21536491Y-16779579D02*
X21526968Y-16760531D01*
X21526968Y-16760531D02*
X21517444Y-16731960D01*
X21517444Y-16731960D02*
X21507920Y-16684341D01*
X21507920Y-16684341D02*
X21507920Y-16646246D01*
X21507920Y-16646246D02*
X21517444Y-16598627D01*
X21517444Y-16598627D02*
X21526968Y-16570055D01*
X21526968Y-16570055D02*
X21536491Y-16551008D01*
X21536491Y-16551008D02*
X21555539Y-16522436D01*
X21555539Y-16522436D02*
X21565063Y-16512912D01*
X21736491Y-16541484D02*
X21641253Y-16541484D01*
X21641253Y-16541484D02*
X21631730Y-16636722D01*
X21631730Y-16636722D02*
X21641253Y-16627198D01*
X21641253Y-16627198D02*
X21660301Y-16617674D01*
X21660301Y-16617674D02*
X21707920Y-16617674D01*
X21707920Y-16617674D02*
X21726968Y-16627198D01*
X21726968Y-16627198D02*
X21736491Y-16636722D01*
X21736491Y-16636722D02*
X21746015Y-16655769D01*
X21746015Y-16655769D02*
X21746015Y-16703388D01*
X21746015Y-16703388D02*
X21736491Y-16722436D01*
X21736491Y-16722436D02*
X21726968Y-16731960D01*
X21726968Y-16731960D02*
X21707920Y-16741484D01*
X21707920Y-16741484D02*
X21660301Y-16741484D01*
X21660301Y-16741484D02*
X21641253Y-16731960D01*
X21641253Y-16731960D02*
X21631730Y-16722436D01*
X21917444Y-16608150D02*
X21917444Y-16741484D01*
X21869825Y-16531960D02*
X21822206Y-16674817D01*
X21822206Y-16674817D02*
X21946015Y-16674817D01*
X22174587Y-16741484D02*
X22174587Y-16541484D01*
X22260301Y-16741484D02*
X22260301Y-16636722D01*
X22260301Y-16636722D02*
X22250777Y-16617674D01*
X22250777Y-16617674D02*
X22231730Y-16608150D01*
X22231730Y-16608150D02*
X22203158Y-16608150D01*
X22203158Y-16608150D02*
X22184111Y-16617674D01*
X22184111Y-16617674D02*
X22174587Y-16627198D01*
X22384110Y-16741484D02*
X22365063Y-16731960D01*
X22365063Y-16731960D02*
X22355539Y-16722436D01*
X22355539Y-16722436D02*
X22346015Y-16703388D01*
X22346015Y-16703388D02*
X22346015Y-16646246D01*
X22346015Y-16646246D02*
X22355539Y-16627198D01*
X22355539Y-16627198D02*
X22365063Y-16617674D01*
X22365063Y-16617674D02*
X22384110Y-16608150D01*
X22384110Y-16608150D02*
X22412682Y-16608150D01*
X22412682Y-16608150D02*
X22431730Y-16617674D01*
X22431730Y-16617674D02*
X22441253Y-16627198D01*
X22441253Y-16627198D02*
X22450777Y-16646246D01*
X22450777Y-16646246D02*
X22450777Y-16703388D01*
X22450777Y-16703388D02*
X22441253Y-16722436D01*
X22441253Y-16722436D02*
X22431730Y-16731960D01*
X22431730Y-16731960D02*
X22412682Y-16741484D01*
X22412682Y-16741484D02*
X22384110Y-16741484D01*
X22565063Y-16741484D02*
X22546015Y-16731960D01*
X22546015Y-16731960D02*
X22536491Y-16712912D01*
X22536491Y-16712912D02*
X22536491Y-16541484D01*
X22717444Y-16731960D02*
X22698396Y-16741484D01*
X22698396Y-16741484D02*
X22660301Y-16741484D01*
X22660301Y-16741484D02*
X22641253Y-16731960D01*
X22641253Y-16731960D02*
X22631730Y-16712912D01*
X22631730Y-16712912D02*
X22631730Y-16636722D01*
X22631730Y-16636722D02*
X22641253Y-16617674D01*
X22641253Y-16617674D02*
X22660301Y-16608150D01*
X22660301Y-16608150D02*
X22698396Y-16608150D01*
X22698396Y-16608150D02*
X22717444Y-16617674D01*
X22717444Y-16617674D02*
X22726968Y-16636722D01*
X22726968Y-16636722D02*
X22726968Y-16655769D01*
X22726968Y-16655769D02*
X22631730Y-16674817D01*
X22803158Y-16731960D02*
X22822206Y-16741484D01*
X22822206Y-16741484D02*
X22860301Y-16741484D01*
X22860301Y-16741484D02*
X22879349Y-16731960D01*
X22879349Y-16731960D02*
X22888872Y-16712912D01*
X22888872Y-16712912D02*
X22888872Y-16703388D01*
X22888872Y-16703388D02*
X22879349Y-16684341D01*
X22879349Y-16684341D02*
X22860301Y-16674817D01*
X22860301Y-16674817D02*
X22831730Y-16674817D01*
X22831730Y-16674817D02*
X22812682Y-16665293D01*
X22812682Y-16665293D02*
X22803158Y-16646246D01*
X22803158Y-16646246D02*
X22803158Y-16636722D01*
X22803158Y-16636722D02*
X22812682Y-16617674D01*
X22812682Y-16617674D02*
X22831730Y-16608150D01*
X22831730Y-16608150D02*
X22860301Y-16608150D01*
X22860301Y-16608150D02*
X22879349Y-16617674D01*
X22955539Y-16817674D02*
X22965063Y-16808150D01*
X22965063Y-16808150D02*
X22984111Y-16779579D01*
X22984111Y-16779579D02*
X22993634Y-16760531D01*
X22993634Y-16760531D02*
X23003158Y-16731960D01*
X23003158Y-16731960D02*
X23012682Y-16684341D01*
X23012682Y-16684341D02*
X23012682Y-16646246D01*
X23012682Y-16646246D02*
X23003158Y-16598627D01*
X23003158Y-16598627D02*
X22993634Y-16570055D01*
X22993634Y-16570055D02*
X22984111Y-16551008D01*
X22984111Y-16551008D02*
X22965063Y-16522436D01*
X22965063Y-16522436D02*
X22955539Y-16512912D01*
M02*
