%TF.GenerationSoftware,KiCad,Pcbnew,8.0.5*%
%TF.CreationDate,2024-09-28T22:07:55-04:00*%
%TF.ProjectId,Fluke_LCD,466c756b-655f-44c4-9344-2e6b69636164,rev?*%
%TF.SameCoordinates,Original*%
%TF.FileFunction,Soldermask,Bot*%
%TF.FilePolarity,Negative*%
%FSLAX46Y46*%
G04 Gerber Fmt 4.6, Leading zero omitted, Abs format (unit mm)*
G04 Created by KiCad (PCBNEW 8.0.5) date 2024-09-28 22:07:55*
%MOMM*%
%LPD*%
G01*
G04 APERTURE LIST*
G04 Aperture macros list*
%AMRoundRect*
0 Rectangle with rounded corners*
0 $1 Rounding radius*
0 $2 $3 $4 $5 $6 $7 $8 $9 X,Y pos of 4 corners*
0 Add a 4 corners polygon primitive as box body*
4,1,4,$2,$3,$4,$5,$6,$7,$8,$9,$2,$3,0*
0 Add four circle primitives for the rounded corners*
1,1,$1+$1,$2,$3*
1,1,$1+$1,$4,$5*
1,1,$1+$1,$6,$7*
1,1,$1+$1,$8,$9*
0 Add four rect primitives between the rounded corners*
20,1,$1+$1,$2,$3,$4,$5,0*
20,1,$1+$1,$4,$5,$6,$7,0*
20,1,$1+$1,$6,$7,$8,$9,0*
20,1,$1+$1,$8,$9,$2,$3,0*%
G04 Aperture macros list end*
%ADD10RoundRect,0.375000X-0.375000X-1.625000X0.375000X-1.625000X0.375000X1.625000X-0.375000X1.625000X0*%
%ADD11C,0.800000*%
G04 APERTURE END LIST*
D10*
%TO.C,J1*%
X238345000Y-157910000D03*
X235938182Y-157900000D03*
X233530000Y-157910000D03*
X231124546Y-157910000D03*
X228710000Y-157900000D03*
X226310000Y-157910000D03*
X223904092Y-157900000D03*
X221497274Y-157900000D03*
X219090000Y-157900000D03*
X216683638Y-157900000D03*
X214276820Y-157900000D03*
X211870000Y-157900000D03*
X209463184Y-157900000D03*
X207050000Y-157900000D03*
X204649548Y-157900000D03*
X202240000Y-157900000D03*
X199830000Y-157900000D03*
X197429094Y-157900000D03*
X195020000Y-157900000D03*
X192610000Y-157900000D03*
X190208640Y-157900000D03*
X187800000Y-157900000D03*
X185390000Y-157900000D03*
%TD*%
D11*
X229877500Y-152560000D03*
X235450000Y-136650000D03*
X233560000Y-140380000D03*
X220720000Y-134810000D03*
X235840000Y-150670000D03*
X231830000Y-133390000D03*
X215390000Y-155580000D03*
X186510000Y-155450000D03*
X188930000Y-155550000D03*
X191320000Y-155520000D03*
X193720000Y-155560000D03*
X196140000Y-155580000D03*
X198540000Y-155550000D03*
X200960000Y-155570000D03*
X203360000Y-155550000D03*
X205760000Y-155560000D03*
X208180000Y-155570000D03*
X210590000Y-155560000D03*
X212980000Y-155580000D03*
X217810000Y-155560000D03*
X220210000Y-155560000D03*
X222620000Y-155560000D03*
X225030000Y-155560000D03*
X227430000Y-155570000D03*
X229830000Y-155550000D03*
X232230000Y-155560000D03*
X234650000Y-155560000D03*
X237600000Y-146040000D03*
X185310000Y-154940000D03*
X236930000Y-142400000D03*
X236930000Y-144990000D03*
X197000000Y-149490000D03*
X197000000Y-141620000D03*
X204080000Y-136310000D03*
X204080000Y-140380000D03*
X202850000Y-150620000D03*
X200710000Y-146470000D03*
X202520000Y-142410000D03*
X206630000Y-140330000D03*
X207820000Y-149490000D03*
X212530000Y-150630000D03*
X215080000Y-136270000D03*
X215080000Y-140320000D03*
X211710000Y-146420000D03*
X213570000Y-142360000D03*
X217670000Y-140360000D03*
X218870000Y-149500000D03*
X226130000Y-140360000D03*
X223800000Y-150570000D03*
X226130000Y-136310000D03*
X224890000Y-142400000D03*
X222700000Y-146460000D03*
X229790000Y-149490000D03*
X228720000Y-140370000D03*
M02*
