%TF.GenerationSoftware,KiCad,Pcbnew,8.0.5*%
%TF.CreationDate,2024-09-28T22:07:55-04:00*%
%TF.ProjectId,Fluke_LCD,466c756b-655f-44c4-9344-2e6b69636164,rev?*%
%TF.SameCoordinates,Original*%
%TF.FileFunction,Legend,Top*%
%TF.FilePolarity,Positive*%
%FSLAX46Y46*%
G04 Gerber Fmt 4.6, Leading zero omitted, Abs format (unit mm)*
G04 Created by KiCad (PCBNEW 8.0.5) date 2024-09-28 22:07:55*
%MOMM*%
%LPD*%
G01*
G04 APERTURE LIST*
%ADD10C,0.120000*%
G04 APERTURE END LIST*
D10*
%TO.C,D15*%
X212493000Y-143540000D02*
X212493000Y-146400000D01*
X214413000Y-143540000D02*
X212493000Y-143540000D01*
X214413000Y-146400000D02*
X214413000Y-143540000D01*
%TO.C,D7*%
X198073000Y-147534000D02*
X198073000Y-149454000D01*
X198073000Y-149454000D02*
X200933000Y-149454000D01*
X200933000Y-147534000D02*
X198073000Y-147534000D01*
%TO.C,D41*%
X190930000Y-137495000D02*
X190930000Y-140355000D01*
X192850000Y-137495000D02*
X190930000Y-137495000D01*
X192850000Y-140355000D02*
X192850000Y-137495000D01*
%TO.C,D13*%
X209008000Y-147474000D02*
X209008000Y-149394000D01*
X209008000Y-149394000D02*
X211868000Y-149394000D01*
X211868000Y-147474000D02*
X209008000Y-147474000D01*
%TO.C,D22*%
X223493000Y-137481000D02*
X223493000Y-140341000D01*
X225413000Y-137481000D02*
X223493000Y-137481000D01*
X225413000Y-140341000D02*
X225413000Y-137481000D01*
%TO.C,R6*%
X191793000Y-153791064D02*
X191793000Y-153336936D01*
X193263000Y-153791064D02*
X193263000Y-153336936D01*
%TO.C,D3*%
X201513000Y-137490000D02*
X201513000Y-140350000D01*
X203433000Y-137490000D02*
X201513000Y-137490000D01*
X203433000Y-140350000D02*
X203433000Y-137490000D01*
%TO.C,D39*%
X196238000Y-132434000D02*
X196238000Y-134354000D01*
X196238000Y-134354000D02*
X199098000Y-134354000D01*
X199098000Y-132434000D02*
X196238000Y-132434000D01*
%TO.C,D23*%
X223493000Y-143577000D02*
X223493000Y-146437000D01*
X225413000Y-143577000D02*
X223493000Y-143577000D01*
X225413000Y-146437000D02*
X225413000Y-143577000D01*
%TO.C,R38*%
X230303000Y-153791064D02*
X230303000Y-153336936D01*
X231773000Y-153791064D02*
X231773000Y-153336936D01*
%TO.C,R34*%
X225483000Y-153791064D02*
X225483000Y-153336936D01*
X226953000Y-153791064D02*
X226953000Y-153336936D01*
%TO.C,D19*%
X220040000Y-135290000D02*
X220040000Y-137210000D01*
X220040000Y-137210000D02*
X222900000Y-137210000D01*
X222900000Y-135290000D02*
X220040000Y-135290000D01*
%TO.C,D28*%
X231044000Y-141430000D02*
X231044000Y-143350000D01*
X231044000Y-143350000D02*
X233904000Y-143350000D01*
X233904000Y-141430000D02*
X231044000Y-141430000D01*
%TO.C,D34*%
X217488000Y-132434000D02*
X217488000Y-134354000D01*
X217488000Y-134354000D02*
X220348000Y-134354000D01*
X220348000Y-132434000D02*
X217488000Y-132434000D01*
%TO.C,D44*%
X192588000Y-148534000D02*
X192588000Y-150454000D01*
X192588000Y-150454000D02*
X195448000Y-150454000D01*
X195448000Y-148534000D02*
X192588000Y-148534000D01*
%TO.C,D31*%
X234493000Y-143577000D02*
X234493000Y-146437000D01*
X236413000Y-143577000D02*
X234493000Y-143577000D01*
X236413000Y-146437000D02*
X236413000Y-143577000D01*
%TO.C,D4*%
X198073000Y-141438000D02*
X198073000Y-143358000D01*
X198073000Y-143358000D02*
X200933000Y-143358000D01*
X200933000Y-141438000D02*
X198073000Y-141438000D01*
%TO.C,D43*%
X190930000Y-143585000D02*
X190930000Y-146445000D01*
X192850000Y-143585000D02*
X190930000Y-143585000D01*
X192850000Y-146445000D02*
X192850000Y-143585000D01*
%TO.C,R40*%
X232713000Y-153791064D02*
X232713000Y-153336936D01*
X234183000Y-153791064D02*
X234183000Y-153336936D01*
%TO.C,D11*%
X209040000Y-135280000D02*
X209040000Y-137200000D01*
X209040000Y-137200000D02*
X211900000Y-137200000D01*
X211900000Y-135280000D02*
X209040000Y-135280000D01*
%TO.C,D27*%
X231040000Y-135310000D02*
X231040000Y-137230000D01*
X231040000Y-137230000D02*
X233900000Y-137230000D01*
X233900000Y-135310000D02*
X231040000Y-135310000D01*
%TO.C,D33*%
X221988000Y-132434000D02*
X221988000Y-134354000D01*
X221988000Y-134354000D02*
X224848000Y-134354000D01*
X224848000Y-132434000D02*
X221988000Y-132434000D01*
%TO.C,R18*%
X206223000Y-153791064D02*
X206223000Y-153336936D01*
X207693000Y-153791064D02*
X207693000Y-153336936D01*
%TO.C,R12*%
X199013000Y-153791064D02*
X199013000Y-153336936D01*
X200483000Y-153791064D02*
X200483000Y-153336936D01*
%TO.C,R36*%
X227893000Y-153791064D02*
X227893000Y-153336936D01*
X229363000Y-153791064D02*
X229363000Y-153336936D01*
%TO.C,D36*%
X205288000Y-132454000D02*
X205288000Y-134374000D01*
X205288000Y-134374000D02*
X208148000Y-134374000D01*
X208148000Y-132454000D02*
X205288000Y-132454000D01*
%TO.C,D9*%
X207413000Y-137444000D02*
X207413000Y-140304000D01*
X209333000Y-137444000D02*
X207413000Y-137444000D01*
X209333000Y-140304000D02*
X209333000Y-137444000D01*
%TO.C,D42*%
X187188000Y-141474000D02*
X187188000Y-143394000D01*
X187188000Y-143394000D02*
X190048000Y-143394000D01*
X190048000Y-141474000D02*
X187188000Y-141474000D01*
%TO.C,D18*%
X218413000Y-143577000D02*
X218413000Y-146437000D01*
X220333000Y-143577000D02*
X218413000Y-143577000D01*
X220333000Y-146437000D02*
X220333000Y-143577000D01*
%TO.C,R8*%
X194203000Y-153791064D02*
X194203000Y-153336936D01*
X195673000Y-153791064D02*
X195673000Y-153336936D01*
%TO.C,D6*%
X201513000Y-143586000D02*
X201513000Y-146446000D01*
X203433000Y-143586000D02*
X201513000Y-143586000D01*
X203433000Y-146446000D02*
X203433000Y-143586000D01*
%TO.C,R32*%
X223083000Y-153791064D02*
X223083000Y-153336936D01*
X224553000Y-153791064D02*
X224553000Y-153336936D01*
%TO.C,D24*%
X225588000Y-148534000D02*
X225588000Y-150454000D01*
X225588000Y-150454000D02*
X228448000Y-150454000D01*
X228448000Y-148534000D02*
X225588000Y-148534000D01*
%TO.C,D40*%
X190488000Y-132434000D02*
X190488000Y-134354000D01*
X190488000Y-134354000D02*
X193348000Y-134354000D01*
X193348000Y-132434000D02*
X190488000Y-132434000D01*
%TO.C,R1*%
X215863000Y-153791064D02*
X215863000Y-153336936D01*
X217333000Y-153791064D02*
X217333000Y-153336936D01*
%TO.C,D32*%
X227288000Y-132434000D02*
X227288000Y-134354000D01*
X227288000Y-134354000D02*
X230148000Y-134354000D01*
X230148000Y-132434000D02*
X227288000Y-132434000D01*
%TO.C,D2*%
X198073000Y-135342000D02*
X198073000Y-137262000D01*
X198073000Y-137262000D02*
X200933000Y-137262000D01*
X200933000Y-135342000D02*
X198073000Y-135342000D01*
%TO.C,R10*%
X196603000Y-153791064D02*
X196603000Y-153336936D01*
X198073000Y-153791064D02*
X198073000Y-153336936D01*
%TO.C,D35*%
X212938000Y-132434000D02*
X212938000Y-134354000D01*
X212938000Y-134354000D02*
X215798000Y-134354000D01*
X215798000Y-132434000D02*
X212938000Y-132434000D01*
%TO.C,D20*%
X220052500Y-141430000D02*
X220052500Y-143350000D01*
X220052500Y-143350000D02*
X222912500Y-143350000D01*
X222912500Y-141430000D02*
X220052500Y-141430000D01*
%TO.C,D21*%
X220053000Y-147534000D02*
X220053000Y-149454000D01*
X220053000Y-149454000D02*
X222913000Y-149454000D01*
X222913000Y-147534000D02*
X220053000Y-147534000D01*
%TO.C,R42*%
X235113000Y-153791064D02*
X235113000Y-153336936D01*
X236583000Y-153791064D02*
X236583000Y-153336936D01*
%TO.C,R28*%
X218263000Y-153791064D02*
X218263000Y-153336936D01*
X219733000Y-153791064D02*
X219733000Y-153336936D01*
%TO.C,D8*%
X203588000Y-148534000D02*
X203588000Y-150454000D01*
X203588000Y-150454000D02*
X206448000Y-150454000D01*
X206448000Y-148534000D02*
X203588000Y-148534000D01*
%TO.C,D14*%
X212493000Y-137444000D02*
X212493000Y-140304000D01*
X214413000Y-137444000D02*
X212493000Y-137444000D01*
X214413000Y-140304000D02*
X214413000Y-137444000D01*
%TO.C,D26*%
X229413000Y-143577000D02*
X229413000Y-146437000D01*
X231333000Y-143577000D02*
X229413000Y-143577000D01*
X231333000Y-146437000D02*
X231333000Y-143577000D01*
%TO.C,R20*%
X208643000Y-153791064D02*
X208643000Y-153336936D01*
X210113000Y-153791064D02*
X210113000Y-153336936D01*
%TO.C,R14*%
X201423000Y-153791064D02*
X201423000Y-153336936D01*
X202893000Y-153791064D02*
X202893000Y-153336936D01*
%TO.C,D5*%
X196433000Y-143586000D02*
X196433000Y-146446000D01*
X198353000Y-143586000D02*
X196433000Y-143586000D01*
X198353000Y-146446000D02*
X198353000Y-143586000D01*
%TO.C,R16*%
X203833000Y-153791064D02*
X203833000Y-153336936D01*
X205303000Y-153791064D02*
X205303000Y-153336936D01*
%TO.C,R22*%
X211053000Y-153791064D02*
X211053000Y-153336936D01*
X212523000Y-153791064D02*
X212523000Y-153336936D01*
%TO.C,D25*%
X229413000Y-137481000D02*
X229413000Y-140341000D01*
X231333000Y-137481000D02*
X229413000Y-137481000D01*
X231333000Y-140341000D02*
X231333000Y-137481000D01*
%TO.C,D16*%
X214488000Y-148534000D02*
X214488000Y-150454000D01*
X214488000Y-150454000D02*
X217348000Y-150454000D01*
X217348000Y-148534000D02*
X214488000Y-148534000D01*
%TO.C,D17*%
X218400000Y-137450000D02*
X218400000Y-140310000D01*
X220320000Y-137450000D02*
X218400000Y-137450000D01*
X220320000Y-140310000D02*
X220320000Y-137450000D01*
%TO.C,D30*%
X234493000Y-137481000D02*
X234493000Y-140341000D01*
X236413000Y-137481000D02*
X234493000Y-137481000D01*
X236413000Y-140341000D02*
X236413000Y-137481000D01*
%TO.C,D12*%
X209040000Y-141380000D02*
X209040000Y-143300000D01*
X209040000Y-143300000D02*
X211900000Y-143300000D01*
X211900000Y-141380000D02*
X209040000Y-141380000D01*
%TO.C,D1*%
X196433000Y-137490000D02*
X196433000Y-140350000D01*
X198353000Y-137490000D02*
X196433000Y-137490000D01*
X198353000Y-140350000D02*
X198353000Y-137490000D01*
%TO.C,R24*%
X213453000Y-153791064D02*
X213453000Y-153336936D01*
X214923000Y-153791064D02*
X214923000Y-153336936D01*
%TO.C,D38*%
X200738000Y-132434000D02*
X200738000Y-134354000D01*
X200738000Y-134354000D02*
X203598000Y-134354000D01*
X203598000Y-132434000D02*
X200738000Y-132434000D01*
%TO.C,R2*%
X186983000Y-153791064D02*
X186983000Y-153336936D01*
X188453000Y-153791064D02*
X188453000Y-153336936D01*
%TO.C,R30*%
X220673000Y-153791064D02*
X220673000Y-153336936D01*
X222143000Y-153791064D02*
X222143000Y-153336936D01*
%TO.C,D29*%
X231044000Y-147516000D02*
X231044000Y-149436000D01*
X231044000Y-149436000D02*
X233904000Y-149436000D01*
X233904000Y-147516000D02*
X231044000Y-147516000D01*
%TO.C,D10*%
X207413000Y-143549000D02*
X207413000Y-146409000D01*
X209333000Y-143549000D02*
X207413000Y-143549000D01*
X209333000Y-146409000D02*
X209333000Y-143549000D01*
%TO.C,R4*%
X189383000Y-153791064D02*
X189383000Y-153336936D01*
X190853000Y-153791064D02*
X190853000Y-153336936D01*
%TD*%
M02*
