%TF.GenerationSoftware,KiCad,Pcbnew,7.0.7*%
%TF.CreationDate,2024-09-12T05:12:33-04:00*%
%TF.ProjectId,Fluke_LCD,466c756b-655f-44c4-9344-2e6b69636164,rev?*%
%TF.SameCoordinates,Original*%
%TF.FileFunction,Copper,L2,Bot*%
%TF.FilePolarity,Positive*%
%FSLAX46Y46*%
G04 Gerber Fmt 4.6, Leading zero omitted, Abs format (unit mm)*
G04 Created by KiCad (PCBNEW 7.0.7) date 2024-09-12 05:12:33*
%MOMM*%
%LPD*%
G01*
G04 APERTURE LIST*
%TA.AperFunction,ComponentPad*%
%ADD10R,0.850000X0.850000*%
%TD*%
%TA.AperFunction,ComponentPad*%
%ADD11O,0.850000X0.850000*%
%TD*%
%TA.AperFunction,ViaPad*%
%ADD12C,0.500000*%
%TD*%
%TA.AperFunction,ViaPad*%
%ADD13C,0.300000*%
%TD*%
%TA.AperFunction,Conductor*%
%ADD14C,0.250000*%
%TD*%
G04 APERTURE END LIST*
D10*
%TO.P,J1,1,Pin_1*%
%TO.N,/TopGround*%
X192700000Y-53100000D03*
D11*
%TO.P,J1,2,Pin_2*%
%TO.N,Net-(J1-Pin_2)*%
X191700000Y-53100000D03*
%TO.P,J1,3,Pin_3*%
%TO.N,Net-(J1-Pin_3)*%
X190700000Y-53100000D03*
%TO.P,J1,4,Pin_4*%
%TO.N,Net-(J1-Pin_4)*%
X189700000Y-53100000D03*
%TO.P,J1,5,Pin_5*%
%TO.N,Net-(J1-Pin_5)*%
X188700000Y-53100000D03*
%TO.P,J1,6,Pin_6*%
%TO.N,Net-(J1-Pin_6)*%
X187700000Y-53100000D03*
%TO.P,J1,7,Pin_7*%
%TO.N,Net-(J1-Pin_7)*%
X186700000Y-53100000D03*
%TO.P,J1,8,Pin_8*%
%TO.N,Net-(J1-Pin_8)*%
X185700000Y-53100000D03*
%TO.P,J1,9,Pin_9*%
%TO.N,Net-(J1-Pin_9)*%
X184700000Y-53100000D03*
%TO.P,J1,10,Pin_10*%
%TO.N,Net-(J1-Pin_10)*%
X183700000Y-53100000D03*
%TO.P,J1,11,Pin_11*%
%TO.N,Net-(J1-Pin_11)*%
X182700000Y-53100000D03*
%TO.P,J1,12,Pin_12*%
%TO.N,Net-(J1-Pin_12)*%
X181700000Y-53100000D03*
%TO.P,J1,13,Pin_13*%
%TO.N,Net-(J1-Pin_13)*%
X180700000Y-53100000D03*
%TO.P,J1,14,Pin_14*%
%TO.N,Net-(J1-Pin_14)*%
X179700000Y-53100000D03*
%TO.P,J1,15,Pin_15*%
%TO.N,Net-(J1-Pin_15)*%
X178700000Y-53100000D03*
%TO.P,J1,16,Pin_16*%
%TO.N,Net-(J1-Pin_16)*%
X177700000Y-53100000D03*
%TO.P,J1,17,Pin_17*%
%TO.N,Net-(J1-Pin_17)*%
X176700000Y-53100000D03*
%TO.P,J1,18,Pin_18*%
%TO.N,Net-(J1-Pin_18)*%
X175700000Y-53100000D03*
%TO.P,J1,19,Pin_19*%
%TO.N,Net-(J1-Pin_19)*%
X174700000Y-53100000D03*
%TO.P,J1,20,Pin_20*%
%TO.N,Net-(J1-Pin_20)*%
X173700000Y-53100000D03*
%TO.P,J1,21,Pin_21*%
%TO.N,Net-(J1-Pin_21)*%
X172700000Y-53100000D03*
%TO.P,J1,22,Pin_22*%
%TO.N,Net-(J1-Pin_22)*%
X171700000Y-53100000D03*
%TD*%
D12*
%TO.N,Net-(D5-A)*%
X165473409Y-72026591D03*
X163963000Y-71637000D03*
%TO.N,Net-(D10-A)*%
X177800000Y-77000000D03*
X177800000Y-73750000D03*
D13*
%TO.N,Net-(D18-A)*%
X191700000Y-71628000D03*
D12*
X190900000Y-77000000D03*
%TO.N,Net-(D27-A)*%
X214500000Y-73000000D03*
X213900000Y-67000000D03*
%TO.N,Net-(D33-A)*%
X203250000Y-56750000D03*
X207389091Y-56110909D03*
X201259500Y-57250000D03*
X212500000Y-58500000D03*
%TO.N,Net-(J1-Pin_10)*%
X188250000Y-84000000D03*
%TO.N,Net-(J1-Pin_22)*%
X162500000Y-57500000D03*
X162500000Y-54900000D03*
X161300000Y-67700000D03*
X163970710Y-53100000D03*
X161300000Y-79100000D03*
X161300000Y-76800000D03*
X161700000Y-84100000D03*
X161300000Y-74700000D03*
%TO.N,Net-(J1-Pin_21)*%
X152800000Y-84100000D03*
%TO.N,Net-(J1-Pin_20)*%
X155800000Y-84100000D03*
%TO.N,Net-(J1-Pin_19)*%
X171500000Y-56250000D03*
X158800000Y-84000000D03*
X171250000Y-59100000D03*
%TO.N,Net-(J1-Pin_18)*%
X172233628Y-56733628D03*
X167400000Y-84100000D03*
X172000000Y-59100000D03*
%TO.N,Net-(J1-Pin_17)*%
X170400000Y-84100000D03*
X172750000Y-59099833D03*
X173002971Y-56767755D03*
%TO.N,Net-(J1-Pin_16)*%
X173750000Y-59100000D03*
X174000000Y-56774500D03*
X173400000Y-84100000D03*
%TO.N,Net-(J1-Pin_15)*%
X176400000Y-84100000D03*
X175750000Y-56975500D03*
X175500000Y-59100000D03*
%TO.N,Net-(J1-Pin_14)*%
X179400000Y-59250000D03*
X179400000Y-84100000D03*
X178209633Y-57475500D03*
%TO.N,Net-(J1-Pin_13)*%
X178500000Y-56750000D03*
X182200000Y-82700000D03*
X180250000Y-54000000D03*
X178500000Y-59000000D03*
%TO.N,Net-(J1-Pin_12)*%
X179101832Y-57104086D03*
X180300000Y-59500000D03*
X182400000Y-84100000D03*
%TO.N,Net-(J1-Pin_11)*%
X185300000Y-84000000D03*
%TO.N,Net-(J1-Pin_9)*%
X191250000Y-84100000D03*
%TO.N,Net-(J1-Pin_8)*%
X197100000Y-84100000D03*
%TO.N,Net-(J1-Pin_7)*%
X200000000Y-84100000D03*
%TO.N,Net-(J1-Pin_6)*%
X203100000Y-84100000D03*
%TO.N,Net-(J1-Pin_5)*%
X206000000Y-84100000D03*
%TO.N,Net-(J1-Pin_4)*%
X209000000Y-84100000D03*
%TO.N,Net-(J1-Pin_3)*%
X212000000Y-84100000D03*
%TO.N,Net-(J1-Pin_2)*%
X215100000Y-84000000D03*
%TO.N,/BottomGround*%
X154094500Y-61738000D03*
X157250000Y-72589511D03*
X153400000Y-66750000D03*
X199475500Y-63000000D03*
X213050000Y-62250000D03*
X156775000Y-59025000D03*
%TO.N,Net-(D28-A)*%
X211836000Y-68864000D03*
X212000000Y-71200000D03*
%TO.N,Net-(D2-A)*%
X167000000Y-60250000D03*
X169750000Y-77000000D03*
%TO.N,Net-(D4-A)*%
X166500000Y-69100000D03*
X166500000Y-71600000D03*
%TO.N,Net-(D8-A)*%
X174600000Y-73700000D03*
X174900000Y-77000000D03*
%TO.N,Net-(D11-A)*%
X183300000Y-66800000D03*
X185700000Y-75900000D03*
%TO.N,Net-(D12-A)*%
X182800000Y-73200000D03*
X182800000Y-75900000D03*
%TO.N,Net-(D16-A)*%
X189000000Y-75000000D03*
X189000000Y-76500000D03*
%TO.N,Net-(D19-A)*%
X197300000Y-77000000D03*
X197000000Y-66000000D03*
%TO.N,Net-(D20-A)*%
X198100000Y-76000000D03*
X198100000Y-73100000D03*
%TO.N,Net-(D24-A)*%
X204112500Y-74875500D03*
X202900000Y-76100000D03*
%TO.N,/kHz{slash}Hz{slash}dB*%
X163100000Y-76750000D03*
X181000000Y-57500000D03*
X166750000Y-57750000D03*
X170000000Y-57500000D03*
%TD*%
D14*
%TO.N,Net-(J1-Pin_9)*%
X184700000Y-64358576D02*
X184700000Y-53100000D01*
X182695363Y-66363213D02*
X184700000Y-64358576D01*
X182695363Y-67706497D02*
X182695363Y-66363213D01*
X184250000Y-76000000D02*
X184250000Y-69261134D01*
X191250000Y-83000000D02*
X184250000Y-76000000D01*
X191250000Y-84100000D02*
X191250000Y-83000000D01*
X184250000Y-69261134D02*
X182695363Y-67706497D01*
%TO.N,Net-(J1-Pin_10)*%
X183044620Y-65240077D02*
X183093145Y-65179230D01*
X182295999Y-66003999D02*
X182832456Y-65467541D01*
X182189657Y-66130332D02*
X182208077Y-66102766D01*
X182082653Y-66405577D02*
X182089121Y-66373060D01*
X182091501Y-67654019D02*
X182083946Y-67625827D01*
X182150410Y-67786258D02*
X182135815Y-67760982D01*
X182915106Y-68593612D02*
X182870857Y-68535944D01*
X183364002Y-69726540D02*
X183354515Y-69654474D01*
X183375754Y-73069774D02*
X183375754Y-70016722D01*
X183501890Y-74365355D02*
X183460917Y-74132991D01*
X183500000Y-75534505D02*
X183500000Y-74370534D01*
X188250000Y-81450000D02*
X184324129Y-77524129D01*
X183698957Y-63528785D02*
G75*
G03*
X183700000Y-63373109I-11628657J155785D01*
G01*
X183628404Y-64067766D02*
G75*
G03*
X183680481Y-63761310I-2702904J616966D01*
G01*
X183542349Y-64366466D02*
G75*
G03*
X183628408Y-64067767I-2616749J915666D01*
G01*
X182673966Y-68322456D02*
X182225973Y-67874463D01*
X183423394Y-64653654D02*
G75*
G03*
X183542350Y-64366466I-2497594J1202754D01*
G01*
X188250000Y-84000000D02*
X188250000Y-81450000D01*
X183273027Y-64925715D02*
G75*
G03*
X183423391Y-64653652I-2347527J1475015D01*
G01*
X183093145Y-65179230D02*
G75*
G03*
X183273025Y-64925714I-2167545J1728530D01*
G01*
X182941792Y-65356717D02*
G75*
G03*
X183044620Y-65240077I-1129992J1099817D01*
G01*
X182296000Y-66004000D02*
G75*
G03*
X182249525Y-66051320I2587600J-2587800D01*
G01*
X183680481Y-63761310D02*
X183689196Y-63683971D01*
X182127441Y-66246747D02*
G75*
G03*
X182089121Y-66373060I621959J-257653D01*
G01*
X182189658Y-66130333D02*
G75*
G03*
X182127436Y-66246745I559842J-374067D01*
G01*
X182082659Y-66405578D02*
G75*
G03*
X182075586Y-66471264I364041J-72422D01*
G01*
X183700000Y-63373109D02*
X183700000Y-53100000D01*
X182075586Y-66471264D02*
G75*
G03*
X182074988Y-66537587I3665214J-66236D01*
G01*
X182075698Y-67568425D02*
G75*
G03*
X182083947Y-67625827I243702J5725D01*
G01*
X182249520Y-66051315D02*
G75*
G03*
X182208077Y-66102766I266880J-257385D01*
G01*
X182091512Y-67654016D02*
G75*
G03*
X182135816Y-67760982I428488J114816D01*
G01*
X182150409Y-67786258D02*
G75*
G03*
X182185169Y-67832681I211391J122058D01*
G01*
X182775986Y-68426066D02*
G75*
G03*
X182673965Y-68322457I-6759186J-6553534D01*
G01*
X182870856Y-68535945D02*
G75*
G03*
X182775986Y-68426066I-997856J-765655D01*
G01*
X183398983Y-73662558D02*
X183388634Y-73544279D01*
X183076306Y-68834879D02*
G75*
G03*
X182915105Y-68593613I-1921306J-1109221D01*
G01*
X183204642Y-69095119D02*
G75*
G03*
X183076308Y-68834877I-2049642J-848981D01*
G01*
X183297910Y-69369885D02*
G75*
G03*
X183204642Y-69095119I-2143010J-574215D01*
G01*
X182075013Y-67510028D02*
X182074988Y-66537587D01*
X183374619Y-69871320D02*
G75*
G03*
X183364001Y-69726540I-1259419J-19580D01*
G01*
X183375754Y-70016722D02*
G75*
G03*
X183374623Y-69871320I-9355254J-78D01*
G01*
X182185169Y-67832681D02*
G75*
G03*
X182225973Y-67874463I1787931J1705281D01*
G01*
X183375755Y-73069774D02*
G75*
G03*
X183377020Y-73307253I22273945J-126D01*
G01*
X183377023Y-73307253D02*
G75*
G03*
X183388635Y-73544279I3097677J32953D01*
G01*
X183398984Y-73662558D02*
G75*
G03*
X183460917Y-74132991I5417716J473958D01*
G01*
X182832456Y-65467541D02*
G75*
G03*
X182941793Y-65356718I-8165956J8165741D01*
G01*
X183501101Y-74367957D02*
G75*
G03*
X183501889Y-74365355I-2101J2057D01*
G01*
X183500010Y-75534505D02*
G75*
G03*
X184324129Y-77524129I2813790J5D01*
G01*
X183501056Y-74367912D02*
G75*
G03*
X183500000Y-74370534I2644J-2588D01*
G01*
X183354520Y-69654473D02*
G75*
G03*
X183297910Y-69369885I-2199620J-289627D01*
G01*
X182075014Y-67510028D02*
G75*
G03*
X182075701Y-67568425I2485886J28D01*
G01*
X183689197Y-63683971D02*
G75*
G03*
X183698957Y-63528785I-1564097J176271D01*
G01*
%TO.N,Net-(D5-A)*%
X165473409Y-72026591D02*
X165473409Y-72006812D01*
X165473409Y-72006812D02*
X165222021Y-71755424D01*
X164737382Y-71637000D02*
X163963000Y-71637000D01*
X165222021Y-71755425D02*
G75*
G03*
X164737382Y-71637001I-491021J-958575D01*
G01*
%TO.N,Net-(D10-A)*%
X177800000Y-77000000D02*
X177800000Y-73750000D01*
%TO.N,Net-(D18-A)*%
X190900000Y-71921622D02*
X190900000Y-77000000D01*
X191193622Y-71628000D02*
X191700000Y-71628000D01*
X190985993Y-71713993D02*
G75*
G03*
X190900000Y-71921622I207607J-207607D01*
G01*
X191193622Y-71628010D02*
G75*
G03*
X190986001Y-71714001I-22J-293590D01*
G01*
%TO.N,Net-(D27-A)*%
X214500000Y-73000000D02*
X214500000Y-68024264D01*
X214200000Y-67300000D02*
X213900000Y-67000000D01*
X214500014Y-68024264D02*
G75*
G03*
X214199999Y-67300001I-1024314J-36D01*
G01*
%TO.N,Net-(D33-A)*%
X201759500Y-56750000D02*
X201259500Y-57250000D01*
X211235876Y-58500000D02*
X212500000Y-58500000D01*
X207389091Y-56110909D02*
X207408801Y-56130619D01*
X207408801Y-56130619D02*
X207436364Y-56130619D01*
X208033516Y-56561764D02*
X209077881Y-57606129D01*
X203250000Y-56750000D02*
X201759500Y-56750000D01*
X208033513Y-56561767D02*
G75*
G03*
X207436364Y-56130620I-1665413J-1677533D01*
G01*
X209077886Y-57606124D02*
G75*
G03*
X211235876Y-58500000I2158014J2158024D01*
G01*
%TO.N,Net-(J1-Pin_22)*%
X161300000Y-80417157D02*
X161300000Y-79100000D01*
X162500000Y-54735355D02*
X162500000Y-54900000D01*
X161300000Y-76800000D02*
X161300000Y-74700000D01*
X162500000Y-57500000D02*
X161900000Y-58100000D01*
X161300000Y-59548528D02*
X161300000Y-67700000D01*
X161700000Y-81382842D02*
X161700000Y-84100000D01*
X162616421Y-54454288D02*
X163970710Y-53100000D01*
X161300018Y-80417157D02*
G75*
G03*
X161500000Y-80900000I682782J-43D01*
G01*
X161899971Y-58099971D02*
G75*
G03*
X161300000Y-59548528I1448629J-1448529D01*
G01*
X162616392Y-54454259D02*
G75*
G03*
X162500000Y-54735355I281108J-281041D01*
G01*
X161699982Y-81382842D02*
G75*
G03*
X161500000Y-80900000I-682782J42D01*
G01*
%TO.N,Net-(J1-Pin_21)*%
X152800000Y-84100000D02*
X152800000Y-66419810D01*
X172700000Y-53458578D02*
X172700000Y-53100000D01*
X163505166Y-55393792D02*
X153026876Y-65872082D01*
X167352922Y-53800000D02*
X172358578Y-53800000D01*
X153026872Y-65872078D02*
G75*
G03*
X152800000Y-66419810I547728J-547722D01*
G01*
X172600006Y-53700006D02*
G75*
G03*
X172700000Y-53458578I-241406J241406D01*
G01*
X167352922Y-53800001D02*
G75*
G03*
X163505166Y-55393792I-22J-5441499D01*
G01*
X172358578Y-53799991D02*
G75*
G03*
X172600000Y-53700000I22J341391D01*
G01*
%TO.N,Net-(J1-Pin_20)*%
X155800000Y-81253963D02*
X155800000Y-84100000D01*
X173017157Y-54200000D02*
X171099479Y-54200000D01*
X173700000Y-53517157D02*
X173700000Y-53100000D01*
X157393792Y-77406207D02*
X161081207Y-73718792D01*
X164268792Y-58830166D02*
X167342955Y-55756002D01*
X162675000Y-69871036D02*
X162675000Y-62677922D01*
X164268791Y-58830165D02*
G75*
G03*
X162675000Y-62677922I3847709J-3847735D01*
G01*
X171099479Y-54199977D02*
G75*
G03*
X167342955Y-55756002I21J-5312523D01*
G01*
X173017157Y-54199953D02*
G75*
G03*
X173500000Y-54000000I43J682853D01*
G01*
X157393821Y-77406236D02*
G75*
G03*
X155800000Y-81253963I3847679J-3847764D01*
G01*
X161081200Y-73718785D02*
G75*
G03*
X162675000Y-69871036I-3847800J3847785D01*
G01*
X173500033Y-54000033D02*
G75*
G03*
X173700000Y-53517157I-482933J482833D01*
G01*
%TO.N,Net-(J1-Pin_19)*%
X171500000Y-56250000D02*
X171850004Y-55899996D01*
X161628592Y-77621408D02*
X158800000Y-80450000D01*
X165700000Y-60398958D02*
X165700000Y-71511426D01*
X172350004Y-55899996D02*
X174700000Y-53550000D01*
X166198559Y-74922849D02*
X163500000Y-77621408D01*
X171250000Y-59100000D02*
X166998958Y-59100000D01*
X174700000Y-53550000D02*
X174700000Y-53100000D01*
X163500000Y-77621408D02*
X161628592Y-77621408D01*
X158800000Y-80450000D02*
X158800000Y-84000000D01*
X165975000Y-71786426D02*
X165975000Y-71817463D01*
X165975000Y-71817463D02*
X166198559Y-72041022D01*
X165700000Y-71511426D02*
X165975000Y-71786426D01*
X166198559Y-72041022D02*
X166198559Y-74922849D01*
X171850004Y-55899996D02*
X172350004Y-55899996D01*
X166998958Y-59100000D02*
X165700000Y-60398958D01*
%TO.N,Net-(J1-Pin_18)*%
X173315686Y-55750000D02*
X174684313Y-55750000D01*
X173217256Y-55750000D02*
X173315686Y-55750000D01*
X169031207Y-82468792D02*
X167400000Y-84100000D01*
X175664370Y-54302485D02*
X175698087Y-54046336D01*
X172233628Y-56733628D02*
X173217256Y-55750000D01*
X175212193Y-55219455D02*
X175369468Y-55014483D01*
X175700000Y-53917157D02*
X175700000Y-53100000D01*
X172000000Y-59100000D02*
X172000000Y-60921093D01*
X175122182Y-55312131D02*
X175212193Y-55219455D01*
X172000000Y-60921093D02*
X170625000Y-62296093D01*
X174684313Y-55750000D02*
X175122182Y-55312131D01*
X175698087Y-54046336D02*
X175700000Y-53917157D01*
X170625000Y-62296093D02*
X170625000Y-78621036D01*
X175498643Y-54790735D02*
X175597507Y-54552041D01*
X175597507Y-54552041D02*
X175664370Y-54302485D01*
X175369468Y-55014483D02*
X175498643Y-54790735D01*
X169031179Y-82468764D02*
G75*
G03*
X170625000Y-78621036I-3847679J3847764D01*
G01*
%TO.N,Net-(J1-Pin_17)*%
X172750000Y-80177060D02*
X172500000Y-80427060D01*
X171684703Y-82788049D02*
X171628874Y-82856076D01*
X173002971Y-56767755D02*
X173520726Y-56250000D01*
X174749999Y-56250000D02*
X176700000Y-54299999D01*
X173520726Y-56250000D02*
X174749999Y-56250000D01*
X172750000Y-59099833D02*
X172750000Y-80177060D01*
X176700000Y-54299999D02*
X176700000Y-53100000D01*
X171387764Y-83112235D02*
X170400000Y-84100000D01*
X172489350Y-80778682D02*
X172480725Y-80866261D01*
X171387764Y-83112235D02*
G75*
G03*
X171511519Y-82987056I-10910364J10909935D01*
G01*
X171511515Y-82987052D02*
G75*
G03*
X171628873Y-82856076I-1450615J1417852D01*
G01*
X172225249Y-81886194D02*
G75*
G03*
X172343703Y-81555138I-3310649J1371294D01*
G01*
X172498989Y-80603083D02*
G75*
G03*
X172500000Y-80427060I-15337989J176083D01*
G01*
X172074918Y-82204048D02*
G75*
G03*
X172225251Y-81886195I-3160018J1689048D01*
G01*
X171894156Y-82505634D02*
G75*
G03*
X172074919Y-82204048I-2979556J1990834D01*
G01*
X172343706Y-81555139D02*
G75*
G03*
X172429136Y-81214066I-3428706J1040039D01*
G01*
X172489347Y-80778682D02*
G75*
G03*
X172498988Y-80603083I-2020147J198982D01*
G01*
X172429134Y-81214066D02*
G75*
G03*
X172480725Y-80866261I-3514634J699066D01*
G01*
X171684701Y-82788047D02*
G75*
G03*
X171894155Y-82505634I-2769701J2273047D01*
G01*
%TO.N,Net-(J1-Pin_16)*%
X177700000Y-53482843D02*
X177700000Y-53100000D01*
X173750000Y-60409952D02*
X173638615Y-60521337D01*
X174000000Y-56774500D02*
X174791185Y-56774500D01*
X173400000Y-61377524D02*
X173400000Y-84100000D01*
X174791185Y-56774500D02*
X177429289Y-54136396D01*
X173750000Y-59100000D02*
X173750000Y-60409952D01*
X173638623Y-60521342D02*
G75*
G03*
X173400001Y-61377524I1435977J-861558D01*
G01*
X177429275Y-54136382D02*
G75*
G03*
X177700000Y-53482843I-653575J653582D01*
G01*
%TO.N,Net-(J1-Pin_15)*%
X175630329Y-56501042D02*
X178582842Y-53548529D01*
X176400000Y-84100000D02*
X176400000Y-60636396D01*
X175630329Y-56855829D02*
X175750000Y-56975500D01*
X178700000Y-53265686D02*
X178700000Y-53100000D01*
X175950000Y-59550000D02*
X175500000Y-59100000D01*
X175630329Y-56501042D02*
X175630329Y-56855829D01*
X176400001Y-60636396D02*
G75*
G03*
X175950000Y-59550000I-1536401J-4D01*
G01*
X178582849Y-53548536D02*
G75*
G03*
X178700000Y-53265686I-282849J282836D01*
G01*
%TO.N,Net-(J1-Pin_14)*%
X177750000Y-57015867D02*
X177750000Y-55050000D01*
X179400000Y-59250000D02*
X179400000Y-84100000D01*
X178209633Y-57475500D02*
X177750000Y-57015867D01*
X177750000Y-55050000D02*
X179700000Y-53100000D01*
%TO.N,Net-(J1-Pin_13)*%
X181000000Y-58949479D02*
X181000000Y-58987109D01*
X180250000Y-54271679D02*
X178759216Y-55762463D01*
X180250000Y-54000000D02*
X180250000Y-54271679D01*
X178625728Y-56624272D02*
X178500000Y-56750000D01*
X179372355Y-58127645D02*
X180043163Y-58127645D01*
X180656716Y-58455675D02*
X180893565Y-58692524D01*
X181600000Y-82100000D02*
X182200000Y-82700000D01*
X181000000Y-58987109D02*
X181000000Y-80651471D01*
X178500000Y-59000000D02*
X179372355Y-58127645D01*
X180250000Y-54000000D02*
X180250000Y-54051947D01*
X178625728Y-56146806D02*
X178625728Y-56624272D01*
X180656723Y-58455668D02*
G75*
G03*
X180043163Y-58127646I-863023J-876432D01*
G01*
X181000012Y-80651471D02*
G75*
G03*
X181600000Y-82100000I2048488J-29D01*
G01*
X181000011Y-58949479D02*
G75*
G03*
X180893565Y-58692524I-363411J-21D01*
G01*
X178759235Y-55762475D02*
G75*
G03*
X178625728Y-56146806I827265J-502725D01*
G01*
%TO.N,Net-(J1-Pin_12)*%
X181350000Y-83050000D02*
X182400000Y-84100000D01*
X180300000Y-59500000D02*
X180300000Y-80515075D01*
X179101832Y-57104086D02*
X179195913Y-57104086D01*
X179195913Y-57104086D02*
X180711091Y-55588908D01*
X181700000Y-53300000D02*
X181700000Y-53100000D01*
X181399999Y-53799999D02*
X181558578Y-53641421D01*
X181100000Y-54650000D02*
X181100000Y-54524264D01*
X181558590Y-53641433D02*
G75*
G03*
X181700000Y-53300000I-341490J341433D01*
G01*
X180711088Y-55588905D02*
G75*
G03*
X181100000Y-54650000I-938888J938905D01*
G01*
X181400011Y-53800011D02*
G75*
G03*
X181100000Y-54524264I724289J-724289D01*
G01*
X180300028Y-80515075D02*
G75*
G03*
X181350001Y-83049999I3585172J75D01*
G01*
%TO.N,Net-(J1-Pin_11)*%
X182278394Y-77278394D02*
X183991852Y-78991852D01*
X181783263Y-75430158D02*
X181791631Y-75438526D01*
X182187500Y-53612500D02*
X182700000Y-53100000D01*
X181675000Y-74873959D02*
X181675000Y-54849784D01*
X185300000Y-84000000D02*
X185300000Y-82150000D01*
X181800000Y-75458729D02*
X181800000Y-76123447D01*
X181675006Y-74873959D02*
G75*
G03*
X181783263Y-75430158I1515094J6259D01*
G01*
X185299998Y-82150000D02*
G75*
G03*
X183991852Y-78991852I-4466298J0D01*
G01*
X181799970Y-75458729D02*
G75*
G03*
X181791631Y-75438526I-28570J29D01*
G01*
X182187505Y-53612505D02*
G75*
G03*
X181675000Y-54849784I1237295J-1237295D01*
G01*
X181800025Y-76123447D02*
G75*
G03*
X182278394Y-77278394I1633275J-53D01*
G01*
%TO.N,Net-(J1-Pin_8)*%
X185700000Y-72612763D02*
X185700000Y-53100000D01*
X197100000Y-80936396D02*
X197100000Y-84100000D01*
X192487236Y-79400000D02*
X195563603Y-79400000D01*
X187293792Y-76460519D02*
X188639480Y-77806207D01*
X197100001Y-80936396D02*
G75*
G03*
X196650000Y-79850000I-1536401J-4D01*
G01*
X188639451Y-77806236D02*
G75*
G03*
X192487236Y-79400000I3847749J3847836D01*
G01*
X185700041Y-72612763D02*
G75*
G03*
X187293792Y-76460519I5441559J-37D01*
G01*
X196649999Y-79850001D02*
G75*
G03*
X195563603Y-79400000I-1086399J-1086399D01*
G01*
%TO.N,Net-(J1-Pin_7)*%
X189156808Y-77724954D02*
X189065856Y-77648638D01*
X198020233Y-79030614D02*
X197731499Y-79030614D01*
X188721202Y-77322243D02*
X188549479Y-77150520D01*
X200000000Y-81880434D02*
X200000000Y-84100000D01*
X188293792Y-76533236D02*
X188293792Y-75767850D01*
X186700000Y-71920095D02*
X186700000Y-53100000D01*
X199165307Y-79865307D02*
X198550086Y-79250086D01*
X190807002Y-78588192D02*
X191949921Y-78588192D01*
X192944114Y-79000000D02*
X197657590Y-79000000D01*
X189933433Y-78268737D02*
G75*
G03*
X190354309Y-78487832I2719367J4710037D01*
G01*
X186700011Y-71920095D02*
G75*
G03*
X187496896Y-73843973I2720789J-5D01*
G01*
X188293821Y-75767850D02*
G75*
G03*
X187496895Y-73843974I-2720821J-50D01*
G01*
X188721203Y-77322242D02*
G75*
G03*
X188890031Y-77489259I15579297J15579342D01*
G01*
X190354308Y-78487836D02*
G75*
G03*
X190807002Y-78588192I452692J970836D01*
G01*
X199999981Y-81880434D02*
G75*
G03*
X199165306Y-79865308I-2849781J34D01*
G01*
X188293777Y-76533236D02*
G75*
G03*
X188549479Y-77150520I873023J36D01*
G01*
X198550061Y-79250111D02*
G75*
G03*
X198020233Y-79030614I-529861J-529789D01*
G01*
X192447009Y-78794105D02*
G75*
G03*
X191949921Y-78588192I-497109J-497095D01*
G01*
X188890029Y-77489261D02*
G75*
G03*
X189065856Y-77648638I2170771J2218161D01*
G01*
X197694558Y-79015294D02*
G75*
G03*
X197657590Y-79000000I-36958J-37006D01*
G01*
X189156809Y-77724952D02*
G75*
G03*
X189533248Y-78013801I3496191J4166652D01*
G01*
X192447011Y-78794103D02*
G75*
G03*
X192944114Y-79000000I497089J497103D01*
G01*
X197694534Y-79015318D02*
G75*
G03*
X197731499Y-79030614I36966J37018D01*
G01*
X189533246Y-78013805D02*
G75*
G03*
X189933430Y-78268741I3119654J4455505D01*
G01*
%TO.N,Net-(J1-Pin_6)*%
X187700000Y-57043871D02*
X187700000Y-53100000D01*
X193876743Y-78600000D02*
X197854415Y-78600000D01*
X203100000Y-84100000D02*
X203100000Y-82886396D01*
X190200000Y-76975735D02*
X190200000Y-63079404D01*
X202241852Y-80814644D02*
X201563604Y-80136396D01*
X191224264Y-78000000D02*
X192428214Y-78000000D01*
X203100002Y-82886396D02*
G75*
G03*
X202241852Y-80814644I-2929902J-4D01*
G01*
X187700031Y-57043871D02*
G75*
G03*
X188950001Y-60061637I4267769J-29D01*
G01*
X190199986Y-63079404D02*
G75*
G03*
X188949999Y-60061639I-4267786J4D01*
G01*
X193152479Y-78300000D02*
G75*
G03*
X192428214Y-78000000I-724279J-724300D01*
G01*
X193152450Y-78300029D02*
G75*
G03*
X193876743Y-78600000I724250J724329D01*
G01*
X190500011Y-77699989D02*
G75*
G03*
X191224264Y-78000000I724289J724289D01*
G01*
X190199986Y-76975735D02*
G75*
G03*
X190500001Y-77699999I1024314J35D01*
G01*
X201563599Y-80136401D02*
G75*
G03*
X197854415Y-78600000I-3709199J-3709199D01*
G01*
%TO.N,Net-(J1-Pin_5)*%
X190051311Y-59163475D02*
X189974994Y-59072522D01*
X193718792Y-75404261D02*
X193718792Y-76597549D01*
X192125000Y-63628035D02*
X192125000Y-71319018D01*
X205181497Y-80966421D02*
X203906229Y-79691153D01*
X193476309Y-75024873D02*
X193399991Y-74933919D01*
X206000000Y-84100000D02*
X206000000Y-82942462D01*
X188700000Y-55457622D02*
X188700000Y-53100000D01*
X190377756Y-59508086D02*
X190447242Y-59577572D01*
X192137877Y-71793527D02*
X192148223Y-71911805D01*
X188723224Y-56050409D02*
X188712877Y-55932130D01*
X190773661Y-59922208D02*
X190849978Y-60013161D01*
X195218603Y-78097361D02*
X200058473Y-78097361D01*
X192112109Y-63153530D02*
X192101761Y-63035251D01*
X192312850Y-72845490D02*
G75*
G03*
X192455529Y-73298025I5253450J1407590D01*
G01*
X188785155Y-56520845D02*
G75*
G03*
X188887850Y-56984093I5356045J944345D01*
G01*
X192124999Y-63628035D02*
G75*
G03*
X192123728Y-63390557I-22203399J-65D01*
G01*
X193718756Y-76597549D02*
G75*
G03*
X194158076Y-77658076I1499844J49D01*
G01*
X192039828Y-62564818D02*
G75*
G03*
X191937129Y-62101573I-5356428J-944482D01*
G01*
X193476312Y-75024871D02*
G75*
G03*
X193635714Y-75200676I2367988J1986871D01*
G01*
X192123727Y-63390557D02*
G75*
G03*
X192112108Y-63153530I-3099727J-33143D01*
G01*
X188700000Y-55457622D02*
G75*
G03*
X188701264Y-55695102I22309600J22D01*
G01*
X188701262Y-55695102D02*
G75*
G03*
X188712877Y-55932130I3097738J33002D01*
G01*
X193111145Y-74557472D02*
G75*
G03*
X193399991Y-74933919I4455655J3119772D01*
G01*
X189686145Y-58696075D02*
G75*
G03*
X189974994Y-59072522I4455355J3119575D01*
G01*
X192637105Y-73736403D02*
G75*
G03*
X192856199Y-74157287I4929095J2298403D01*
G01*
X190773657Y-59922211D02*
G75*
G03*
X190614271Y-59746391I-2374257J-1992189D01*
G01*
X189431204Y-58295888D02*
G75*
G03*
X189686143Y-58696076I4710596J2719588D01*
G01*
X192101764Y-63035251D02*
G75*
G03*
X192039826Y-62564818I-5418764J-474149D01*
G01*
X189030532Y-57436627D02*
G75*
G03*
X189212107Y-57875005I5111368J1860327D01*
G01*
X191138826Y-60389603D02*
G75*
G03*
X190849977Y-60013162I-4455326J-3119597D01*
G01*
X188887848Y-56984094D02*
G75*
G03*
X189030530Y-57436628I5253952J1407794D01*
G01*
X189212108Y-57875005D02*
G75*
G03*
X189431202Y-58295890I4929292J2298505D01*
G01*
X192148225Y-71911805D02*
G75*
G03*
X192210155Y-72382242I5418475J474005D01*
G01*
X191393770Y-60789787D02*
G75*
G03*
X191138827Y-60389602I-4710070J-2719313D01*
G01*
X191612867Y-61210667D02*
G75*
G03*
X191393772Y-60789786I-4929667J-2298733D01*
G01*
X194158064Y-77658088D02*
G75*
G03*
X195218603Y-78097361I1060536J1060588D01*
G01*
X190614270Y-59746392D02*
G75*
G03*
X190447241Y-59577573I-15938470J-15602408D01*
G01*
X192126263Y-71556499D02*
G75*
G03*
X192137878Y-71793527I3097737J32999D01*
G01*
X192125000Y-71319018D02*
G75*
G03*
X192126264Y-71556499I22309600J18D01*
G01*
X190051314Y-59163473D02*
G75*
G03*
X190210714Y-59339280I2368686J1987473D01*
G01*
X191937125Y-62101574D02*
G75*
G03*
X191794446Y-61649042I-5253525J-1407626D01*
G01*
X203906240Y-79691142D02*
G75*
G03*
X200058473Y-78097361I-3847740J-3847758D01*
G01*
X192210155Y-72382242D02*
G75*
G03*
X192312851Y-72845490I5355545J944242D01*
G01*
X192455528Y-73298025D02*
G75*
G03*
X192637107Y-73736403I5111272J1860325D01*
G01*
X190210715Y-59339279D02*
G75*
G03*
X190377757Y-59508085I16152785J15816879D01*
G01*
X192856201Y-74157286D02*
G75*
G03*
X193111141Y-74557475I4710599J2719586D01*
G01*
X191794449Y-61649041D02*
G75*
G03*
X191612866Y-61210667I-5111449J-1860459D01*
G01*
X188723225Y-56050409D02*
G75*
G03*
X188785156Y-56520845I5418375J474009D01*
G01*
X193718815Y-75404261D02*
G75*
G03*
X193635712Y-75200677I-291015J-39D01*
G01*
X206000039Y-82942462D02*
G75*
G03*
X205181496Y-80966422I-2794539J-38D01*
G01*
%TO.N,Net-(J1-Pin_4)*%
X189700000Y-56010680D02*
X189700000Y-53100000D01*
X191293792Y-59858436D02*
X194781207Y-63345851D01*
X209000000Y-84100000D02*
X209000000Y-82020799D01*
X196799998Y-77625000D02*
X204604200Y-77625000D01*
X196375000Y-67193607D02*
X196375000Y-77199999D01*
X196499479Y-77500520D02*
G75*
G03*
X196799998Y-77625000I300521J300520D01*
G01*
X207712500Y-78912500D02*
G75*
G03*
X204604200Y-77625000I-3108300J-3108300D01*
G01*
X189700029Y-56010680D02*
G75*
G03*
X191293792Y-59858436I5441571J-20D01*
G01*
X196374979Y-67193607D02*
G75*
G03*
X194781206Y-63345852I-5441579J7D01*
G01*
X196375000Y-77199999D02*
G75*
G03*
X196499479Y-77500520I425000J-1D01*
G01*
X209000000Y-82020799D02*
G75*
G03*
X207712500Y-78912500I-4395800J-1D01*
G01*
%TO.N,Net-(J1-Pin_3)*%
X190700000Y-56444995D02*
X190700000Y-53100000D01*
X212000000Y-82049479D02*
X212000000Y-84100000D01*
X192293792Y-60292751D02*
X210550063Y-78549022D01*
X212000012Y-82049479D02*
G75*
G03*
X210550062Y-78549023I-4950412J-21D01*
G01*
X190700019Y-56444995D02*
G75*
G03*
X192293793Y-60292750I5441581J-5D01*
G01*
%TO.N,Net-(J1-Pin_2)*%
X192931440Y-57814481D02*
X213679790Y-78562831D01*
X191700000Y-54841520D02*
X191700000Y-53100000D01*
X215100000Y-81991520D02*
X215100000Y-84000000D01*
X191699985Y-54841520D02*
G75*
G03*
X192931440Y-57814481I4204415J20D01*
G01*
X215099985Y-81991520D02*
G75*
G03*
X213679790Y-78562831I-4848885J20D01*
G01*
%TO.N,/BottomGround*%
X202700720Y-63297116D02*
X202701802Y-63297116D01*
X154094500Y-61721750D02*
X154094500Y-61738000D01*
X153402469Y-68057433D02*
X153402469Y-66752469D01*
X155303214Y-71500000D02*
X154501522Y-70698308D01*
X157250000Y-72589511D02*
X156160489Y-71500000D01*
X199475500Y-63000000D02*
X199954879Y-63479379D01*
X212775000Y-61975000D02*
X213050000Y-62250000D01*
X202703649Y-63296350D02*
X203501442Y-62498558D01*
X199954879Y-63479379D02*
X202271603Y-63479379D01*
X153402469Y-66752469D02*
X153400000Y-66750000D01*
X205429331Y-61700000D02*
X212111091Y-61700000D01*
X156160489Y-71500000D02*
X155303214Y-71500000D01*
X156775000Y-59025000D02*
X154105990Y-61694009D01*
X212775003Y-61974997D02*
G75*
G03*
X212111091Y-61700000I-663903J-663903D01*
G01*
X154106013Y-61694033D02*
G75*
G03*
X154094500Y-61721750I27487J-27667D01*
G01*
X153402463Y-68057433D02*
G75*
G03*
X154501522Y-70698308I4258737J223233D01*
G01*
X202271601Y-63479364D02*
G75*
G03*
X202700720Y-63297116I-119401J877464D01*
G01*
X202701802Y-63297115D02*
G75*
G03*
X202703649Y-63296350I-2J2615D01*
G01*
X205429331Y-61700009D02*
G75*
G03*
X203501442Y-62498558I-31J-2726391D01*
G01*
%TO.N,Net-(D28-A)*%
X211836000Y-68864000D02*
X211836000Y-70920034D01*
X211918000Y-71118000D02*
X212000000Y-71200000D01*
X211835986Y-70920034D02*
G75*
G03*
X211918000Y-71118000I280014J34D01*
G01*
%TO.N,Net-(D2-A)*%
X169750000Y-77000000D02*
X169750000Y-61750000D01*
X169750000Y-61750000D02*
X168250000Y-60250000D01*
X168250000Y-60250000D02*
X167000000Y-60250000D01*
%TO.N,Net-(D4-A)*%
X166312500Y-71412500D02*
X166500000Y-71600000D01*
X166127207Y-69472793D02*
X166127207Y-71043822D01*
X166500000Y-69100000D02*
X166127207Y-69472793D01*
X166127176Y-71043827D02*
G75*
G03*
X166312500Y-71412500I664724J103227D01*
G01*
%TO.N,Net-(D8-A)*%
X174600000Y-73700000D02*
X174750000Y-73850000D01*
X174900000Y-74212132D02*
X174900000Y-77000000D01*
X174899986Y-74212132D02*
G75*
G03*
X174749999Y-73850001I-512086J32D01*
G01*
%TO.N,Net-(D11-A)*%
X184073013Y-68075909D02*
X183477800Y-67480696D01*
X183300000Y-66800000D02*
X183300000Y-67051448D01*
X185700000Y-75750000D02*
X185700000Y-75900000D01*
X185350000Y-75250000D02*
X185593933Y-75493933D01*
X185000000Y-74405025D02*
X185000000Y-70484924D01*
X184999977Y-70484924D02*
G75*
G03*
X184073013Y-68075909I-3601777J-3076D01*
G01*
X185700009Y-75750000D02*
G75*
G03*
X185593933Y-75493933I-362109J0D01*
G01*
X184999990Y-74405025D02*
G75*
G03*
X185350000Y-75250000I1195010J25D01*
G01*
X183300023Y-67051448D02*
G75*
G03*
X183477800Y-67480696I606977J-52D01*
G01*
%TO.N,Net-(D12-A)*%
X182800000Y-73200000D02*
X182800000Y-75900000D01*
%TO.N,Net-(D16-A)*%
X189000000Y-76500000D02*
X189000000Y-75000000D01*
%TO.N,Net-(D19-A)*%
X197050000Y-76750000D02*
X197300000Y-77000000D01*
X197000000Y-66000000D02*
X196800000Y-66200000D01*
X196800000Y-66200000D02*
X196800000Y-76146446D01*
X196799981Y-76146446D02*
G75*
G03*
X197050000Y-76750000I853619J46D01*
G01*
%TO.N,Net-(D20-A)*%
X198100000Y-73100000D02*
X198100000Y-76000000D01*
%TO.N,Net-(D24-A)*%
X204112500Y-74887500D02*
X202900000Y-76100000D01*
X204112500Y-74875500D02*
X204112500Y-74887500D01*
%TO.N,/kHz{slash}Hz{slash}dB*%
X166750000Y-57750000D02*
X165953422Y-57750000D01*
X170000000Y-57500000D02*
X169750000Y-57750000D01*
X179229293Y-57612864D02*
X180887136Y-57612864D01*
X170000000Y-57500000D02*
X170500000Y-58000000D01*
X169750000Y-57750000D02*
X166750000Y-57750000D01*
X178842157Y-58000000D02*
X179229293Y-57612864D01*
X165953422Y-57750000D02*
X164488406Y-59215016D01*
X163100000Y-62792031D02*
X163100000Y-76750000D01*
X170500000Y-58000000D02*
X178842157Y-58000000D01*
X180887136Y-57612864D02*
X181000000Y-57500000D01*
X164488428Y-59215036D02*
G75*
G03*
X163100000Y-62792031I3922672J-3580564D01*
G01*
%TD*%
%TA.AperFunction,Conductor*%
%TO.N,Net-(J1-Pin_9)*%
G36*
X185082101Y-53258244D02*
G01*
X185088418Y-53264589D01*
X185088502Y-53273288D01*
X184827903Y-53942545D01*
X184821707Y-53949011D01*
X184817000Y-53950000D01*
X184583000Y-53950000D01*
X184574727Y-53946573D01*
X184572097Y-53942545D01*
X184311497Y-53273288D01*
X184311689Y-53264336D01*
X184317897Y-53258244D01*
X184695501Y-53100874D01*
X184704453Y-53100856D01*
X185082101Y-53258244D01*
G37*
%TD.AperFunction*%
%TD*%
%TA.AperFunction,Conductor*%
%TO.N,Net-(J1-Pin_9)*%
G36*
X191374244Y-83603427D02*
G01*
X191377289Y-83608734D01*
X191478392Y-83994495D01*
X191477174Y-84003366D01*
X191471591Y-84008254D01*
X191254517Y-84099109D01*
X191245563Y-84099142D01*
X191245483Y-84099109D01*
X191028408Y-84008254D01*
X191022099Y-84001898D01*
X191021607Y-83994495D01*
X191122711Y-83608734D01*
X191128124Y-83601600D01*
X191134029Y-83600000D01*
X191365971Y-83600000D01*
X191374244Y-83603427D01*
G37*
%TD.AperFunction*%
%TD*%
%TA.AperFunction,Conductor*%
%TO.N,Net-(J1-Pin_10)*%
G36*
X188374244Y-83503427D02*
G01*
X188377289Y-83508734D01*
X188478392Y-83894495D01*
X188477174Y-83903366D01*
X188471591Y-83908254D01*
X188254516Y-83999109D01*
X188245562Y-83999142D01*
X188245482Y-83999109D01*
X188028408Y-83908254D01*
X188022099Y-83901898D01*
X188021607Y-83894495D01*
X188122711Y-83508734D01*
X188128124Y-83501600D01*
X188134029Y-83500000D01*
X188365971Y-83500000D01*
X188374244Y-83503427D01*
G37*
%TD.AperFunction*%
%TD*%
%TA.AperFunction,Conductor*%
%TO.N,Net-(J1-Pin_10)*%
G36*
X184082101Y-53258244D02*
G01*
X184088418Y-53264589D01*
X184088502Y-53273288D01*
X183827903Y-53942545D01*
X183821707Y-53949011D01*
X183817000Y-53950000D01*
X183583000Y-53950000D01*
X183574727Y-53946573D01*
X183572097Y-53942545D01*
X183311497Y-53273288D01*
X183311689Y-53264336D01*
X183317897Y-53258244D01*
X183695501Y-53100874D01*
X183704453Y-53100856D01*
X184082101Y-53258244D01*
G37*
%TD.AperFunction*%
%TD*%
%TA.AperFunction,Conductor*%
%TO.N,Net-(D5-A)*%
G36*
X165197842Y-71605872D02*
G01*
X165559500Y-71790724D01*
X165565307Y-71797541D01*
X165565002Y-71805576D01*
X165476211Y-72022376D01*
X165469904Y-72028733D01*
X165469833Y-72028763D01*
X165252715Y-72118036D01*
X165243761Y-72118013D01*
X165237689Y-72112217D01*
X165195203Y-72022376D01*
X165109602Y-71841367D01*
X165109065Y-71832715D01*
X165181402Y-71612635D01*
X165187240Y-71605847D01*
X165196169Y-71605175D01*
X165197842Y-71605872D01*
G37*
%TD.AperFunction*%
%TD*%
%TA.AperFunction,Conductor*%
%TO.N,Net-(D5-A)*%
G36*
X164454267Y-71509711D02*
G01*
X164461400Y-71515123D01*
X164463000Y-71521028D01*
X164463000Y-71752971D01*
X164459573Y-71761244D01*
X164454266Y-71764289D01*
X164068504Y-71865392D01*
X164059633Y-71864174D01*
X164054745Y-71858591D01*
X163963889Y-71641515D01*
X163963857Y-71632563D01*
X164054746Y-71415406D01*
X164061101Y-71409099D01*
X164068504Y-71408607D01*
X164454267Y-71509711D01*
G37*
%TD.AperFunction*%
%TD*%
%TA.AperFunction,Conductor*%
%TO.N,Net-(D10-A)*%
G36*
X177924244Y-76503427D02*
G01*
X177927289Y-76508734D01*
X178028392Y-76894495D01*
X178027174Y-76903366D01*
X178021591Y-76908254D01*
X177804517Y-76999109D01*
X177795563Y-76999142D01*
X177795483Y-76999109D01*
X177578408Y-76908254D01*
X177572099Y-76901898D01*
X177571607Y-76894495D01*
X177672711Y-76508734D01*
X177678124Y-76501600D01*
X177684029Y-76500000D01*
X177915971Y-76500000D01*
X177924244Y-76503427D01*
G37*
%TD.AperFunction*%
%TD*%
%TA.AperFunction,Conductor*%
%TO.N,Net-(D10-A)*%
G36*
X177804492Y-73750880D02*
G01*
X178021591Y-73841745D01*
X178027900Y-73848101D01*
X178028392Y-73855504D01*
X177927289Y-74241266D01*
X177921876Y-74248400D01*
X177915971Y-74250000D01*
X177684029Y-74250000D01*
X177675756Y-74246573D01*
X177672711Y-74241266D01*
X177571607Y-73855504D01*
X177572825Y-73846633D01*
X177578406Y-73841746D01*
X177795484Y-73750889D01*
X177804436Y-73750857D01*
X177804492Y-73750880D01*
G37*
%TD.AperFunction*%
%TD*%
%TA.AperFunction,Conductor*%
%TO.N,Net-(D18-A)*%
G36*
X191024244Y-76503427D02*
G01*
X191027289Y-76508734D01*
X191128392Y-76894495D01*
X191127174Y-76903366D01*
X191121591Y-76908254D01*
X190904517Y-76999109D01*
X190895563Y-76999142D01*
X190895483Y-76999109D01*
X190678408Y-76908254D01*
X190672099Y-76901898D01*
X190671607Y-76894495D01*
X190772711Y-76508734D01*
X190778124Y-76501600D01*
X190784029Y-76500000D01*
X191015971Y-76500000D01*
X191024244Y-76503427D01*
G37*
%TD.AperFunction*%
%TD*%
%TA.AperFunction,Conductor*%
%TO.N,Net-(D18-A)*%
G36*
X191695941Y-71481776D02*
G01*
X191700044Y-71489736D01*
X191700084Y-71490630D01*
X191701000Y-71628000D01*
X191700084Y-71765369D01*
X191696602Y-71773619D01*
X191688306Y-71776991D01*
X191687412Y-71776951D01*
X191410728Y-71753894D01*
X191402768Y-71749792D01*
X191400000Y-71742234D01*
X191400000Y-71513766D01*
X191403427Y-71505493D01*
X191410728Y-71502106D01*
X191687414Y-71479048D01*
X191695941Y-71481776D01*
G37*
%TD.AperFunction*%
%TD*%
%TA.AperFunction,Conductor*%
%TO.N,Net-(D27-A)*%
G36*
X214624244Y-72503427D02*
G01*
X214627289Y-72508734D01*
X214728392Y-72894495D01*
X214727174Y-72903366D01*
X214721591Y-72908254D01*
X214504517Y-72999109D01*
X214495563Y-72999142D01*
X214495483Y-72999109D01*
X214278408Y-72908254D01*
X214272099Y-72901898D01*
X214271607Y-72894495D01*
X214372711Y-72508734D01*
X214378124Y-72501600D01*
X214384029Y-72500000D01*
X214615971Y-72500000D01*
X214624244Y-72503427D01*
G37*
%TD.AperFunction*%
%TD*%
%TA.AperFunction,Conductor*%
%TO.N,Net-(D27-A)*%
G36*
X214129999Y-66908429D02*
G01*
X214135882Y-66913864D01*
X214286268Y-67205769D01*
X214287010Y-67214693D01*
X214283960Y-67219576D01*
X214115729Y-67380719D01*
X214107384Y-67383967D01*
X214102327Y-67382696D01*
X213813934Y-67235860D01*
X213808117Y-67229053D01*
X213808416Y-67220998D01*
X213897452Y-67003806D01*
X213903758Y-66997454D01*
X214121047Y-66908396D01*
X214129999Y-66908429D01*
G37*
%TD.AperFunction*%
%TD*%
%TA.AperFunction,Conductor*%
%TO.N,Net-(D33-A)*%
G36*
X201531048Y-56814441D02*
G01*
X201695058Y-56978451D01*
X201698485Y-56986724D01*
X201696885Y-56992629D01*
X201495601Y-57336894D01*
X201488467Y-57342307D01*
X201481064Y-57341815D01*
X201263324Y-57252564D01*
X201256968Y-57246255D01*
X201256935Y-57246175D01*
X201167684Y-57028435D01*
X201167717Y-57019481D01*
X201172603Y-57013899D01*
X201516873Y-56812613D01*
X201525741Y-56811396D01*
X201531048Y-56814441D01*
G37*
%TD.AperFunction*%
%TD*%
%TA.AperFunction,Conductor*%
%TO.N,Net-(D33-A)*%
G36*
X212403366Y-58272825D02*
G01*
X212408254Y-58278408D01*
X212499109Y-58495482D01*
X212499142Y-58504436D01*
X212499109Y-58504516D01*
X212408254Y-58721591D01*
X212401898Y-58727900D01*
X212394495Y-58728392D01*
X212095665Y-58650072D01*
X212008732Y-58627288D01*
X212001599Y-58621876D01*
X212000000Y-58615974D01*
X212000000Y-58384025D01*
X212003426Y-58375755D01*
X212008729Y-58372712D01*
X212394495Y-58271607D01*
X212403366Y-58272825D01*
G37*
%TD.AperFunction*%
%TD*%
%TA.AperFunction,Conductor*%
%TO.N,Net-(D33-A)*%
G36*
X203153366Y-56522825D02*
G01*
X203158254Y-56528408D01*
X203249109Y-56745483D01*
X203249142Y-56754437D01*
X203249109Y-56754517D01*
X203158254Y-56971591D01*
X203151898Y-56977900D01*
X203144495Y-56978392D01*
X202758734Y-56877289D01*
X202751600Y-56871876D01*
X202750000Y-56865971D01*
X202750000Y-56634028D01*
X202753427Y-56625755D01*
X202758731Y-56622711D01*
X203144495Y-56521607D01*
X203153366Y-56522825D01*
G37*
%TD.AperFunction*%
%TD*%
%TA.AperFunction,Conductor*%
%TO.N,Net-(D33-A)*%
G36*
X207573794Y-55942749D02*
G01*
X207574081Y-55943049D01*
X207730184Y-56112521D01*
X207846489Y-56238786D01*
X207849573Y-56247193D01*
X207847369Y-56253562D01*
X207711294Y-56442029D01*
X207703673Y-56446730D01*
X207698885Y-56446509D01*
X207306408Y-56345230D01*
X207299253Y-56339845D01*
X207298002Y-56330978D01*
X207298498Y-56329481D01*
X207387382Y-56112517D01*
X207389964Y-56108653D01*
X207557250Y-55942682D01*
X207565534Y-55939289D01*
X207573794Y-55942749D01*
G37*
%TD.AperFunction*%
%TD*%
%TA.AperFunction,Conductor*%
%TO.N,Net-(J1-Pin_22)*%
G36*
X161521591Y-79191745D02*
G01*
X161527900Y-79198101D01*
X161528392Y-79205504D01*
X161427289Y-79591266D01*
X161421876Y-79598400D01*
X161415971Y-79600000D01*
X161184029Y-79600000D01*
X161175756Y-79596573D01*
X161172711Y-79591266D01*
X161071607Y-79205504D01*
X161072825Y-79196633D01*
X161078406Y-79191746D01*
X161295484Y-79100889D01*
X161304437Y-79100857D01*
X161521591Y-79191745D01*
G37*
%TD.AperFunction*%
%TD*%
%TA.AperFunction,Conductor*%
%TO.N,Net-(J1-Pin_22)*%
G36*
X161424244Y-76303427D02*
G01*
X161427289Y-76308734D01*
X161528392Y-76694495D01*
X161527174Y-76703366D01*
X161521591Y-76708254D01*
X161304517Y-76799109D01*
X161295563Y-76799142D01*
X161295483Y-76799109D01*
X161078408Y-76708254D01*
X161072099Y-76701898D01*
X161071607Y-76694495D01*
X161172711Y-76308734D01*
X161178124Y-76301600D01*
X161184029Y-76300000D01*
X161415971Y-76300000D01*
X161424244Y-76303427D01*
G37*
%TD.AperFunction*%
%TD*%
%TA.AperFunction,Conductor*%
%TO.N,Net-(J1-Pin_22)*%
G36*
X161521591Y-74791745D02*
G01*
X161527900Y-74798101D01*
X161528392Y-74805504D01*
X161427289Y-75191266D01*
X161421876Y-75198400D01*
X161415971Y-75200000D01*
X161184029Y-75200000D01*
X161175756Y-75196573D01*
X161172711Y-75191266D01*
X161071607Y-74805504D01*
X161072825Y-74796633D01*
X161078406Y-74791746D01*
X161295484Y-74700889D01*
X161304437Y-74700857D01*
X161521591Y-74791745D01*
G37*
%TD.AperFunction*%
%TD*%
%TA.AperFunction,Conductor*%
%TO.N,Net-(J1-Pin_22)*%
G36*
X162278434Y-57408183D02*
G01*
X162496175Y-57497435D01*
X162502531Y-57503744D01*
X162502564Y-57503824D01*
X162591815Y-57721564D01*
X162591782Y-57730518D01*
X162586894Y-57736101D01*
X162242629Y-57937385D01*
X162233758Y-57938603D01*
X162228451Y-57935558D01*
X162064441Y-57771548D01*
X162061014Y-57763275D01*
X162062612Y-57757374D01*
X162263899Y-57413103D01*
X162271032Y-57407692D01*
X162278434Y-57408183D01*
G37*
%TD.AperFunction*%
%TD*%
%TA.AperFunction,Conductor*%
%TO.N,Net-(J1-Pin_22)*%
G36*
X161424244Y-67203427D02*
G01*
X161427289Y-67208734D01*
X161528392Y-67594495D01*
X161527174Y-67603366D01*
X161521591Y-67608254D01*
X161304517Y-67699109D01*
X161295563Y-67699142D01*
X161295483Y-67699109D01*
X161078408Y-67608254D01*
X161072099Y-67601898D01*
X161071607Y-67594495D01*
X161172711Y-67208734D01*
X161178124Y-67201600D01*
X161184029Y-67200000D01*
X161415971Y-67200000D01*
X161424244Y-67203427D01*
G37*
%TD.AperFunction*%
%TD*%
%TA.AperFunction,Conductor*%
%TO.N,Net-(J1-Pin_22)*%
G36*
X161824244Y-83603427D02*
G01*
X161827289Y-83608734D01*
X161928392Y-83994495D01*
X161927174Y-84003366D01*
X161921591Y-84008254D01*
X161704517Y-84099109D01*
X161695563Y-84099142D01*
X161695483Y-84099109D01*
X161478408Y-84008254D01*
X161472099Y-84001898D01*
X161471607Y-83994495D01*
X161572711Y-83608734D01*
X161578124Y-83601600D01*
X161584029Y-83600000D01*
X161815971Y-83600000D01*
X161824244Y-83603427D01*
G37*
%TD.AperFunction*%
%TD*%
%TA.AperFunction,Conductor*%
%TO.N,Net-(J1-Pin_22)*%
G36*
X163749144Y-53008183D02*
G01*
X163966885Y-53097435D01*
X163973241Y-53103744D01*
X163973274Y-53103824D01*
X164062525Y-53321564D01*
X164062492Y-53330518D01*
X164057604Y-53336101D01*
X163713339Y-53537385D01*
X163704468Y-53538603D01*
X163699161Y-53535558D01*
X163535151Y-53371548D01*
X163531724Y-53363275D01*
X163533322Y-53357374D01*
X163734609Y-53013103D01*
X163741742Y-53007692D01*
X163749144Y-53008183D01*
G37*
%TD.AperFunction*%
%TD*%
%TA.AperFunction,Conductor*%
%TO.N,Net-(J1-Pin_22)*%
G36*
X162558381Y-54352686D02*
G01*
X162560559Y-54354400D01*
X162723687Y-54517528D01*
X162727092Y-54525087D01*
X162749243Y-54887620D01*
X162746327Y-54896087D01*
X162738279Y-54900012D01*
X162737598Y-54900034D01*
X162501660Y-54900700D01*
X162497110Y-54899793D01*
X162281596Y-54809588D01*
X162275287Y-54803232D01*
X162275320Y-54794278D01*
X162276118Y-54792713D01*
X162542301Y-54356576D01*
X162549534Y-54351301D01*
X162558381Y-54352686D01*
G37*
%TD.AperFunction*%
%TD*%
%TA.AperFunction,Conductor*%
%TO.N,Net-(J1-Pin_21)*%
G36*
X152924244Y-83603427D02*
G01*
X152927289Y-83608734D01*
X153028392Y-83994495D01*
X153027174Y-84003366D01*
X153021591Y-84008254D01*
X152804517Y-84099109D01*
X152795563Y-84099142D01*
X152795483Y-84099109D01*
X152578408Y-84008254D01*
X152572099Y-84001898D01*
X152571607Y-83994495D01*
X152672711Y-83608734D01*
X152678124Y-83601600D01*
X152684029Y-83600000D01*
X152915971Y-83600000D01*
X152924244Y-83603427D01*
G37*
%TD.AperFunction*%
%TD*%
%TA.AperFunction,Conductor*%
%TO.N,Net-(J1-Pin_21)*%
G36*
X172704414Y-53103411D02*
G01*
X172704428Y-53103425D01*
X172991732Y-53391702D01*
X172995145Y-53399981D01*
X172991704Y-53408248D01*
X172991175Y-53408744D01*
X172424529Y-53907502D01*
X172416055Y-53910395D01*
X172408016Y-53906449D01*
X172405101Y-53898915D01*
X172401331Y-53674277D01*
X172401330Y-53674272D01*
X172401330Y-53674265D01*
X172278859Y-53117546D01*
X172278687Y-53113511D01*
X172279127Y-53110170D01*
X172283603Y-53102416D01*
X172290721Y-53099999D01*
X172696141Y-53099984D01*
X172704414Y-53103411D01*
G37*
%TD.AperFunction*%
%TD*%
%TA.AperFunction,Conductor*%
%TO.N,Net-(J1-Pin_20)*%
G36*
X155924244Y-83603427D02*
G01*
X155927289Y-83608734D01*
X156028392Y-83994495D01*
X156027174Y-84003366D01*
X156021591Y-84008254D01*
X155804517Y-84099109D01*
X155795563Y-84099142D01*
X155795483Y-84099109D01*
X155578408Y-84008254D01*
X155572099Y-84001898D01*
X155571607Y-83994495D01*
X155672711Y-83608734D01*
X155678124Y-83601600D01*
X155684029Y-83600000D01*
X155915971Y-83600000D01*
X155924244Y-83603427D01*
G37*
%TD.AperFunction*%
%TD*%
%TA.AperFunction,Conductor*%
%TO.N,Net-(J1-Pin_20)*%
G36*
X174080341Y-53257508D02*
G01*
X174086659Y-53263855D01*
X174086638Y-53272809D01*
X174085961Y-53274175D01*
X173675524Y-53982139D01*
X173668410Y-53987578D01*
X173659534Y-53986393D01*
X173658911Y-53986005D01*
X173573362Y-53928853D01*
X173465093Y-53856524D01*
X173460270Y-53849744D01*
X173310355Y-53274175D01*
X173309915Y-53272484D01*
X173311146Y-53263616D01*
X173316743Y-53258735D01*
X173696059Y-53101037D01*
X173705012Y-53101027D01*
X174080341Y-53257508D01*
G37*
%TD.AperFunction*%
%TD*%
%TA.AperFunction,Conductor*%
%TO.N,Net-(J1-Pin_19)*%
G36*
X171853614Y-55789065D02*
G01*
X171855025Y-55794636D01*
X171855025Y-56022811D01*
X171854237Y-56027032D01*
X171735285Y-56334515D01*
X171729104Y-56340995D01*
X171720152Y-56341206D01*
X171719912Y-56341110D01*
X171503513Y-56251861D01*
X171497171Y-56245539D01*
X171408313Y-56028752D01*
X171408347Y-56019798D01*
X171413567Y-56014027D01*
X171837755Y-55784346D01*
X171846661Y-55783422D01*
X171853614Y-55789065D01*
G37*
%TD.AperFunction*%
%TD*%
%TA.AperFunction,Conductor*%
%TO.N,Net-(J1-Pin_19)*%
G36*
X171153366Y-58872825D02*
G01*
X171158254Y-58878408D01*
X171249109Y-59095482D01*
X171249142Y-59104436D01*
X171249109Y-59104516D01*
X171158254Y-59321591D01*
X171151898Y-59327900D01*
X171144495Y-59328392D01*
X170758734Y-59227289D01*
X170751600Y-59221876D01*
X170750000Y-59215971D01*
X170750000Y-58984028D01*
X170753427Y-58975755D01*
X170758731Y-58972711D01*
X171144495Y-58871607D01*
X171153366Y-58872825D01*
G37*
%TD.AperFunction*%
%TD*%
%TA.AperFunction,Conductor*%
%TO.N,Net-(J1-Pin_19)*%
G36*
X174704110Y-53102714D02*
G01*
X174704144Y-53102747D01*
X174992491Y-53392453D01*
X174995898Y-53400735D01*
X174992678Y-53408768D01*
X174513813Y-53912533D01*
X174505629Y-53916168D01*
X174497272Y-53912952D01*
X174497060Y-53912745D01*
X174331798Y-53747483D01*
X174328412Y-53740184D01*
X174277224Y-53126658D01*
X174277282Y-53124179D01*
X174279130Y-53110144D01*
X174283608Y-53102390D01*
X174290708Y-53099973D01*
X174695832Y-53099301D01*
X174704110Y-53102714D01*
G37*
%TD.AperFunction*%
%TD*%
%TA.AperFunction,Conductor*%
%TO.N,Net-(J1-Pin_19)*%
G36*
X158924244Y-83503427D02*
G01*
X158927289Y-83508734D01*
X159028392Y-83894495D01*
X159027174Y-83903366D01*
X159021591Y-83908254D01*
X158804517Y-83999109D01*
X158795563Y-83999142D01*
X158795483Y-83999109D01*
X158578408Y-83908254D01*
X158572099Y-83901898D01*
X158571607Y-83894495D01*
X158672711Y-83508734D01*
X158678124Y-83501600D01*
X158684029Y-83500000D01*
X158915971Y-83500000D01*
X158924244Y-83503427D01*
G37*
%TD.AperFunction*%
%TD*%
%TA.AperFunction,Conductor*%
%TO.N,Net-(J1-Pin_18)*%
G36*
X167671548Y-83664441D02*
G01*
X167835558Y-83828451D01*
X167838985Y-83836724D01*
X167837385Y-83842629D01*
X167636101Y-84186894D01*
X167628967Y-84192307D01*
X167621564Y-84191815D01*
X167403824Y-84102564D01*
X167397468Y-84096255D01*
X167397435Y-84096175D01*
X167308184Y-83878435D01*
X167308217Y-83869481D01*
X167313103Y-83863899D01*
X167657373Y-83662613D01*
X167666241Y-83661396D01*
X167671548Y-83664441D01*
G37*
%TD.AperFunction*%
%TD*%
%TA.AperFunction,Conductor*%
%TO.N,Net-(J1-Pin_18)*%
G36*
X172505176Y-56298069D02*
G01*
X172669186Y-56462079D01*
X172672613Y-56470352D01*
X172671013Y-56476257D01*
X172469729Y-56820522D01*
X172462595Y-56825935D01*
X172455192Y-56825443D01*
X172237452Y-56736192D01*
X172231096Y-56729883D01*
X172231063Y-56729803D01*
X172141812Y-56512063D01*
X172141845Y-56503109D01*
X172146731Y-56497527D01*
X172491001Y-56296241D01*
X172499869Y-56295024D01*
X172505176Y-56298069D01*
G37*
%TD.AperFunction*%
%TD*%
%TA.AperFunction,Conductor*%
%TO.N,Net-(J1-Pin_18)*%
G36*
X176082104Y-53258245D02*
G01*
X176088421Y-53264590D01*
X176088506Y-53273286D01*
X175827447Y-53944269D01*
X175821253Y-53950737D01*
X175816370Y-53951726D01*
X175582397Y-53948261D01*
X175574175Y-53944712D01*
X175571670Y-53940813D01*
X175311502Y-53273290D01*
X175311690Y-53264338D01*
X175317900Y-53258243D01*
X175695514Y-53100875D01*
X175704467Y-53100857D01*
X176082104Y-53258245D01*
G37*
%TD.AperFunction*%
%TD*%
%TA.AperFunction,Conductor*%
%TO.N,Net-(J1-Pin_18)*%
G36*
X172221591Y-59191745D02*
G01*
X172227900Y-59198101D01*
X172228392Y-59205504D01*
X172127289Y-59591266D01*
X172121876Y-59598400D01*
X172115971Y-59600000D01*
X171884029Y-59600000D01*
X171875756Y-59596573D01*
X171872711Y-59591266D01*
X171771607Y-59205504D01*
X171772825Y-59196633D01*
X171778406Y-59191746D01*
X171995484Y-59100889D01*
X172004437Y-59100857D01*
X172221591Y-59191745D01*
G37*
%TD.AperFunction*%
%TD*%
%TA.AperFunction,Conductor*%
%TO.N,Net-(J1-Pin_17)*%
G36*
X173274519Y-56332196D02*
G01*
X173438529Y-56496206D01*
X173441956Y-56504479D01*
X173440356Y-56510384D01*
X173239072Y-56854649D01*
X173231938Y-56860062D01*
X173224535Y-56859570D01*
X173006795Y-56770319D01*
X173000439Y-56764010D01*
X173000406Y-56763930D01*
X172911155Y-56546190D01*
X172911188Y-56537236D01*
X172916074Y-56531654D01*
X173260344Y-56330368D01*
X173269212Y-56329151D01*
X173274519Y-56332196D01*
G37*
%TD.AperFunction*%
%TD*%
%TA.AperFunction,Conductor*%
%TO.N,Net-(J1-Pin_17)*%
G36*
X172971591Y-59191578D02*
G01*
X172977900Y-59197934D01*
X172978392Y-59205337D01*
X172877289Y-59591099D01*
X172871876Y-59598233D01*
X172865971Y-59599833D01*
X172634029Y-59599833D01*
X172625756Y-59596406D01*
X172622711Y-59591099D01*
X172521607Y-59205337D01*
X172522825Y-59196466D01*
X172528406Y-59191579D01*
X172745484Y-59100722D01*
X172754437Y-59100690D01*
X172971591Y-59191578D01*
G37*
%TD.AperFunction*%
%TD*%
%TA.AperFunction,Conductor*%
%TO.N,Net-(J1-Pin_17)*%
G36*
X177082101Y-53258244D02*
G01*
X177088418Y-53264589D01*
X177088502Y-53273288D01*
X176827903Y-53942545D01*
X176821707Y-53949011D01*
X176817000Y-53950000D01*
X176583000Y-53950000D01*
X176574727Y-53946573D01*
X176572097Y-53942545D01*
X176311497Y-53273288D01*
X176311689Y-53264336D01*
X176317897Y-53258244D01*
X176695501Y-53100874D01*
X176704453Y-53100856D01*
X177082101Y-53258244D01*
G37*
%TD.AperFunction*%
%TD*%
%TA.AperFunction,Conductor*%
%TO.N,Net-(J1-Pin_17)*%
G36*
X170671548Y-83664441D02*
G01*
X170835557Y-83828451D01*
X170838984Y-83836724D01*
X170837384Y-83842629D01*
X170636101Y-84186894D01*
X170628967Y-84192307D01*
X170621564Y-84191815D01*
X170403824Y-84102564D01*
X170397468Y-84096255D01*
X170397435Y-84096175D01*
X170308184Y-83878435D01*
X170308217Y-83869481D01*
X170313103Y-83863899D01*
X170657373Y-83662613D01*
X170666241Y-83661396D01*
X170671548Y-83664441D01*
G37*
%TD.AperFunction*%
%TD*%
%TA.AperFunction,Conductor*%
%TO.N,Net-(J1-Pin_16)*%
G36*
X174491267Y-56647211D02*
G01*
X174498400Y-56652623D01*
X174500000Y-56658528D01*
X174500000Y-56890471D01*
X174496573Y-56898744D01*
X174491266Y-56901789D01*
X174105504Y-57002892D01*
X174096633Y-57001674D01*
X174091745Y-56996091D01*
X174051001Y-56898744D01*
X174000889Y-56779015D01*
X174000857Y-56770062D01*
X174091746Y-56552906D01*
X174098101Y-56546599D01*
X174105504Y-56546107D01*
X174491267Y-56647211D01*
G37*
%TD.AperFunction*%
%TD*%
%TA.AperFunction,Conductor*%
%TO.N,Net-(J1-Pin_16)*%
G36*
X173524244Y-83603427D02*
G01*
X173527289Y-83608734D01*
X173628392Y-83994495D01*
X173627174Y-84003366D01*
X173621591Y-84008254D01*
X173404517Y-84099109D01*
X173395563Y-84099142D01*
X173395483Y-84099109D01*
X173178408Y-84008254D01*
X173172099Y-84001898D01*
X173171607Y-83994495D01*
X173272711Y-83608734D01*
X173278124Y-83601600D01*
X173284029Y-83600000D01*
X173515971Y-83600000D01*
X173524244Y-83603427D01*
G37*
%TD.AperFunction*%
%TD*%
%TA.AperFunction,Conductor*%
%TO.N,Net-(J1-Pin_16)*%
G36*
X173971591Y-59191745D02*
G01*
X173977900Y-59198101D01*
X173978392Y-59205504D01*
X173877289Y-59591266D01*
X173871876Y-59598400D01*
X173865971Y-59600000D01*
X173634029Y-59600000D01*
X173625756Y-59596573D01*
X173622711Y-59591266D01*
X173521607Y-59205504D01*
X173522825Y-59196633D01*
X173528406Y-59191746D01*
X173745484Y-59100889D01*
X173754437Y-59100857D01*
X173971591Y-59191745D01*
G37*
%TD.AperFunction*%
%TD*%
%TA.AperFunction,Conductor*%
%TO.N,Net-(J1-Pin_16)*%
G36*
X177943776Y-53200572D02*
G01*
X178080646Y-53257636D01*
X178086964Y-53263983D01*
X178086943Y-53272937D01*
X178086409Y-53274049D01*
X177693798Y-53991959D01*
X177686822Y-53997573D01*
X177677919Y-53996610D01*
X177677033Y-53996073D01*
X177483364Y-53866665D01*
X177478617Y-53860162D01*
X177310224Y-53272663D01*
X177311239Y-53263767D01*
X177316978Y-53258637D01*
X177696059Y-53101037D01*
X177705012Y-53101027D01*
X177943776Y-53200572D01*
G37*
%TD.AperFunction*%
%TD*%
%TA.AperFunction,Conductor*%
%TO.N,Net-(J1-Pin_15)*%
G36*
X176524244Y-83603427D02*
G01*
X176527289Y-83608734D01*
X176628392Y-83994495D01*
X176627174Y-84003366D01*
X176621591Y-84008254D01*
X176404517Y-84099109D01*
X176395563Y-84099142D01*
X176395483Y-84099109D01*
X176178408Y-84008254D01*
X176172099Y-84001898D01*
X176171607Y-83994495D01*
X176272711Y-83608734D01*
X176278124Y-83601600D01*
X176284029Y-83600000D01*
X176515971Y-83600000D01*
X176524244Y-83603427D01*
G37*
%TD.AperFunction*%
%TD*%
%TA.AperFunction,Conductor*%
%TO.N,Net-(J1-Pin_15)*%
G36*
X175730518Y-59008217D02*
G01*
X175736101Y-59013105D01*
X175937385Y-59357371D01*
X175938603Y-59366241D01*
X175935558Y-59371548D01*
X175771548Y-59535558D01*
X175763275Y-59538985D01*
X175757371Y-59537385D01*
X175413105Y-59336101D01*
X175407692Y-59328967D01*
X175408183Y-59321565D01*
X175497436Y-59103822D01*
X175503743Y-59097468D01*
X175721565Y-59008184D01*
X175730518Y-59008217D01*
G37*
%TD.AperFunction*%
%TD*%
%TA.AperFunction,Conductor*%
%TO.N,Net-(J1-Pin_15)*%
G36*
X175757039Y-56513993D02*
G01*
X175758750Y-56516165D01*
X175973862Y-56868197D01*
X175975251Y-56877044D01*
X175969979Y-56884282D01*
X175968395Y-56885091D01*
X175752189Y-56975583D01*
X175747625Y-56976490D01*
X175511787Y-56975547D01*
X175503528Y-56972087D01*
X175500134Y-56963800D01*
X175500135Y-56963713D01*
X175501036Y-56885091D01*
X175505196Y-56522130D01*
X175508717Y-56513899D01*
X175516895Y-56510566D01*
X175748766Y-56510566D01*
X175757039Y-56513993D01*
G37*
%TD.AperFunction*%
%TD*%
%TA.AperFunction,Conductor*%
%TO.N,Net-(J1-Pin_15)*%
G36*
X178704110Y-53102714D02*
G01*
X178704144Y-53102747D01*
X178991561Y-53391519D01*
X178994968Y-53399801D01*
X178991522Y-53408066D01*
X178990816Y-53408713D01*
X178412042Y-53897384D01*
X178403510Y-53900103D01*
X178396221Y-53896717D01*
X178230851Y-53731347D01*
X178227424Y-53723074D01*
X178227457Y-53722201D01*
X178267430Y-53199059D01*
X178267453Y-53198839D01*
X178279130Y-53110145D01*
X178283608Y-53102391D01*
X178290708Y-53099973D01*
X178695832Y-53099301D01*
X178704110Y-53102714D01*
G37*
%TD.AperFunction*%
%TD*%
%TA.AperFunction,Conductor*%
%TO.N,Net-(J1-Pin_14)*%
G36*
X179621591Y-59341745D02*
G01*
X179627900Y-59348101D01*
X179628392Y-59355504D01*
X179527289Y-59741266D01*
X179521876Y-59748400D01*
X179515971Y-59750000D01*
X179284029Y-59750000D01*
X179275756Y-59746573D01*
X179272711Y-59741266D01*
X179171607Y-59355504D01*
X179172825Y-59346633D01*
X179178406Y-59341746D01*
X179395484Y-59250889D01*
X179404437Y-59250857D01*
X179621591Y-59341745D01*
G37*
%TD.AperFunction*%
%TD*%
%TA.AperFunction,Conductor*%
%TO.N,Net-(J1-Pin_14)*%
G36*
X179524244Y-83603427D02*
G01*
X179527289Y-83608734D01*
X179628392Y-83994495D01*
X179627174Y-84003366D01*
X179621591Y-84008254D01*
X179404516Y-84099109D01*
X179395562Y-84099142D01*
X179395482Y-84099109D01*
X179178408Y-84008254D01*
X179172099Y-84001898D01*
X179171607Y-83994495D01*
X179272711Y-83608734D01*
X179278124Y-83601600D01*
X179284029Y-83600000D01*
X179515971Y-83600000D01*
X179524244Y-83603427D01*
G37*
%TD.AperFunction*%
%TD*%
%TA.AperFunction,Conductor*%
%TO.N,Net-(J1-Pin_14)*%
G36*
X177952258Y-57038113D02*
G01*
X178296527Y-57239398D01*
X178301940Y-57246532D01*
X178301448Y-57253935D01*
X178212197Y-57471675D01*
X178205888Y-57478031D01*
X178205808Y-57478064D01*
X177988068Y-57567315D01*
X177979114Y-57567282D01*
X177973531Y-57562394D01*
X177772246Y-57218126D01*
X177771029Y-57209258D01*
X177774072Y-57203953D01*
X177938085Y-57039940D01*
X177946357Y-57036514D01*
X177952258Y-57038113D01*
G37*
%TD.AperFunction*%
%TD*%
%TA.AperFunction,Conductor*%
%TO.N,Net-(J1-Pin_14)*%
G36*
X179317917Y-52941709D02*
G01*
X179696199Y-53097437D01*
X179702543Y-53103753D01*
X179702563Y-53103801D01*
X179858289Y-53482081D01*
X179858270Y-53491036D01*
X179852177Y-53497246D01*
X179194671Y-53786209D01*
X179185719Y-53786401D01*
X179181691Y-53783771D01*
X179016228Y-53618308D01*
X179012801Y-53610035D01*
X179013789Y-53605331D01*
X179021435Y-53587933D01*
X179024591Y-53583709D01*
X179093547Y-53525489D01*
X179096582Y-53522707D01*
X179098008Y-53520673D01*
X179100456Y-53518120D01*
X179110451Y-53510451D01*
X179202698Y-53390233D01*
X179260687Y-53250236D01*
X179280466Y-53100000D01*
X179270612Y-53025158D01*
X179271500Y-53018935D01*
X179302753Y-52947820D01*
X179309219Y-52941626D01*
X179317917Y-52941709D01*
G37*
%TD.AperFunction*%
%TD*%
%TA.AperFunction,Conductor*%
%TO.N,Net-(J1-Pin_13)*%
G36*
X180254096Y-54002709D02*
G01*
X180377339Y-54126942D01*
X180419775Y-54169719D01*
X180423169Y-54178006D01*
X180420943Y-54184825D01*
X180184990Y-54510408D01*
X180177360Y-54515096D01*
X180168650Y-54513016D01*
X180167243Y-54511815D01*
X180003589Y-54348161D01*
X180000162Y-54339895D01*
X180000005Y-54011671D01*
X180003428Y-54003398D01*
X180011671Y-53999967D01*
X180245815Y-53999306D01*
X180254096Y-54002709D01*
G37*
%TD.AperFunction*%
%TD*%
%TA.AperFunction,Conductor*%
%TO.N,Net-(J1-Pin_13)*%
G36*
X181942625Y-82262613D02*
G01*
X182286894Y-82463898D01*
X182292307Y-82471032D01*
X182291815Y-82478435D01*
X182202564Y-82696175D01*
X182196255Y-82702531D01*
X182196175Y-82702564D01*
X181978435Y-82791815D01*
X181969481Y-82791782D01*
X181963898Y-82786894D01*
X181762613Y-82442626D01*
X181761396Y-82433758D01*
X181764439Y-82428453D01*
X181928452Y-82264440D01*
X181936724Y-82261014D01*
X181942625Y-82262613D01*
G37*
%TD.AperFunction*%
%TD*%
%TA.AperFunction,Conductor*%
%TO.N,Net-(J1-Pin_13)*%
G36*
X178771548Y-58564441D02*
G01*
X178935558Y-58728451D01*
X178938985Y-58736724D01*
X178937385Y-58742629D01*
X178736101Y-59086894D01*
X178728967Y-59092307D01*
X178721564Y-59091815D01*
X178503824Y-59002564D01*
X178497468Y-58996255D01*
X178497435Y-58996175D01*
X178408184Y-58778435D01*
X178408217Y-58769481D01*
X178413103Y-58763899D01*
X178757373Y-58562613D01*
X178766241Y-58561396D01*
X178771548Y-58564441D01*
G37*
%TD.AperFunction*%
%TD*%
%TA.AperFunction,Conductor*%
%TO.N,Net-(J1-Pin_13)*%
G36*
X178747282Y-56292540D02*
G01*
X178750709Y-56300813D01*
X178750709Y-56300831D01*
X178750018Y-56738364D01*
X178746578Y-56746632D01*
X178738365Y-56750046D01*
X178502374Y-56750990D01*
X178497810Y-56750083D01*
X178281820Y-56659682D01*
X178275511Y-56653326D01*
X178275544Y-56644372D01*
X178276453Y-56642627D01*
X178497281Y-56294545D01*
X178504608Y-56289395D01*
X178507162Y-56289113D01*
X178739009Y-56289113D01*
X178747282Y-56292540D01*
G37*
%TD.AperFunction*%
%TD*%
%TA.AperFunction,Conductor*%
%TO.N,Net-(J1-Pin_12)*%
G36*
X182142625Y-83662613D02*
G01*
X182486894Y-83863898D01*
X182492307Y-83871032D01*
X182491815Y-83878435D01*
X182402564Y-84096175D01*
X182396255Y-84102531D01*
X182396175Y-84102564D01*
X182178435Y-84191815D01*
X182169481Y-84191782D01*
X182163898Y-84186894D01*
X181962613Y-83842626D01*
X181961396Y-83833758D01*
X181964439Y-83828453D01*
X182128452Y-83664440D01*
X182136724Y-83661014D01*
X182142625Y-83662613D01*
G37*
%TD.AperFunction*%
%TD*%
%TA.AperFunction,Conductor*%
%TO.N,Net-(J1-Pin_12)*%
G36*
X180521591Y-59591745D02*
G01*
X180527900Y-59598101D01*
X180528392Y-59605504D01*
X180427289Y-59991266D01*
X180421876Y-59998400D01*
X180415971Y-60000000D01*
X180184029Y-60000000D01*
X180175756Y-59996573D01*
X180172711Y-59991266D01*
X180071607Y-59605504D01*
X180072825Y-59596633D01*
X180078406Y-59591746D01*
X180295484Y-59500889D01*
X180304437Y-59500857D01*
X180521591Y-59591745D01*
G37*
%TD.AperFunction*%
%TD*%
%TA.AperFunction,Conductor*%
%TO.N,Net-(J1-Pin_12)*%
G36*
X179406522Y-56721503D02*
G01*
X179410073Y-56723935D01*
X179574118Y-56887980D01*
X179577545Y-56896253D01*
X179575046Y-56903480D01*
X179286723Y-57270532D01*
X179278917Y-57274921D01*
X179270295Y-57272506D01*
X179269288Y-57271616D01*
X179102809Y-57106463D01*
X179100224Y-57102596D01*
X179010683Y-56884148D01*
X179010716Y-56875194D01*
X179017072Y-56868885D01*
X179017176Y-56868843D01*
X179397569Y-56721300D01*
X179406522Y-56721503D01*
G37*
%TD.AperFunction*%
%TD*%
%TA.AperFunction,Conductor*%
%TO.N,Net-(J1-Pin_12)*%
G36*
X181704110Y-53102714D02*
G01*
X181704144Y-53102747D01*
X181992083Y-53392043D01*
X181995490Y-53400325D01*
X181992044Y-53408590D01*
X181991860Y-53408768D01*
X181496656Y-53880510D01*
X181488302Y-53883736D01*
X181480313Y-53880312D01*
X181314752Y-53714749D01*
X181311346Y-53707176D01*
X181276774Y-53129643D01*
X181276852Y-53127448D01*
X181279130Y-53110144D01*
X181283608Y-53102390D01*
X181290708Y-53099973D01*
X181695832Y-53099301D01*
X181704110Y-53102714D01*
G37*
%TD.AperFunction*%
%TD*%
%TA.AperFunction,Conductor*%
%TO.N,Net-(J1-Pin_11)*%
G36*
X182318691Y-52942028D02*
G01*
X182696186Y-53097425D01*
X182702531Y-53103742D01*
X182702550Y-53103789D01*
X182857952Y-53481262D01*
X182857933Y-53490217D01*
X182851587Y-53496535D01*
X182851029Y-53496748D01*
X182284297Y-53696858D01*
X182275354Y-53696382D01*
X182272283Y-53694250D01*
X182104202Y-53532182D01*
X182100626Y-53523974D01*
X182103902Y-53515640D01*
X182105196Y-53514483D01*
X182110451Y-53510451D01*
X182202698Y-53390233D01*
X182260687Y-53250236D01*
X182280466Y-53100000D01*
X182272443Y-53039063D01*
X182273022Y-53033618D01*
X182303228Y-52948919D01*
X182309234Y-52942279D01*
X182318177Y-52941831D01*
X182318691Y-52942028D01*
G37*
%TD.AperFunction*%
%TD*%
%TA.AperFunction,Conductor*%
%TO.N,Net-(J1-Pin_11)*%
G36*
X185424244Y-83503427D02*
G01*
X185427289Y-83508734D01*
X185528392Y-83894495D01*
X185527174Y-83903366D01*
X185521591Y-83908254D01*
X185304517Y-83999109D01*
X185295563Y-83999142D01*
X185295483Y-83999109D01*
X185078408Y-83908254D01*
X185072099Y-83901898D01*
X185071607Y-83894495D01*
X185172711Y-83508734D01*
X185178124Y-83501600D01*
X185184029Y-83500000D01*
X185415971Y-83500000D01*
X185424244Y-83503427D01*
G37*
%TD.AperFunction*%
%TD*%
%TA.AperFunction,Conductor*%
%TO.N,Net-(J1-Pin_8)*%
G36*
X186082101Y-53258244D02*
G01*
X186088418Y-53264589D01*
X186088502Y-53273288D01*
X185827903Y-53942545D01*
X185821707Y-53949011D01*
X185817000Y-53950000D01*
X185583000Y-53950000D01*
X185574727Y-53946573D01*
X185572097Y-53942545D01*
X185311497Y-53273288D01*
X185311689Y-53264336D01*
X185317897Y-53258244D01*
X185695501Y-53100874D01*
X185704453Y-53100856D01*
X186082101Y-53258244D01*
G37*
%TD.AperFunction*%
%TD*%
%TA.AperFunction,Conductor*%
%TO.N,Net-(J1-Pin_8)*%
G36*
X197224244Y-83603427D02*
G01*
X197227289Y-83608734D01*
X197328392Y-83994495D01*
X197327174Y-84003366D01*
X197321591Y-84008254D01*
X197104517Y-84099109D01*
X197095563Y-84099142D01*
X197095483Y-84099109D01*
X196878408Y-84008254D01*
X196872099Y-84001898D01*
X196871607Y-83994495D01*
X196972711Y-83608734D01*
X196978124Y-83601600D01*
X196984029Y-83600000D01*
X197215971Y-83600000D01*
X197224244Y-83603427D01*
G37*
%TD.AperFunction*%
%TD*%
%TA.AperFunction,Conductor*%
%TO.N,Net-(J1-Pin_7)*%
G36*
X200124244Y-83603427D02*
G01*
X200127289Y-83608734D01*
X200228392Y-83994495D01*
X200227174Y-84003366D01*
X200221591Y-84008254D01*
X200004517Y-84099109D01*
X199995563Y-84099142D01*
X199995483Y-84099109D01*
X199778408Y-84008254D01*
X199772099Y-84001898D01*
X199771607Y-83994495D01*
X199872711Y-83608734D01*
X199878124Y-83601600D01*
X199884029Y-83600000D01*
X200115971Y-83600000D01*
X200124244Y-83603427D01*
G37*
%TD.AperFunction*%
%TD*%
%TA.AperFunction,Conductor*%
%TO.N,Net-(J1-Pin_7)*%
G36*
X187082101Y-53258244D02*
G01*
X187088418Y-53264589D01*
X187088502Y-53273288D01*
X186827903Y-53942545D01*
X186821707Y-53949011D01*
X186817000Y-53950000D01*
X186583000Y-53950000D01*
X186574727Y-53946573D01*
X186572097Y-53942545D01*
X186311497Y-53273288D01*
X186311689Y-53264336D01*
X186317897Y-53258244D01*
X186695501Y-53100874D01*
X186704453Y-53100856D01*
X187082101Y-53258244D01*
G37*
%TD.AperFunction*%
%TD*%
%TA.AperFunction,Conductor*%
%TO.N,Net-(J1-Pin_6)*%
G36*
X188082101Y-53258244D02*
G01*
X188088418Y-53264589D01*
X188088502Y-53273288D01*
X187827903Y-53942545D01*
X187821707Y-53949011D01*
X187817000Y-53950000D01*
X187583000Y-53950000D01*
X187574727Y-53946573D01*
X187572097Y-53942545D01*
X187311497Y-53273288D01*
X187311689Y-53264336D01*
X187317897Y-53258244D01*
X187695501Y-53100874D01*
X187704453Y-53100856D01*
X188082101Y-53258244D01*
G37*
%TD.AperFunction*%
%TD*%
%TA.AperFunction,Conductor*%
%TO.N,Net-(J1-Pin_6)*%
G36*
X203224244Y-83603427D02*
G01*
X203227289Y-83608734D01*
X203328392Y-83994495D01*
X203327174Y-84003366D01*
X203321591Y-84008254D01*
X203104517Y-84099109D01*
X203095563Y-84099142D01*
X203095483Y-84099109D01*
X202878408Y-84008254D01*
X202872099Y-84001898D01*
X202871607Y-83994495D01*
X202972711Y-83608734D01*
X202978124Y-83601600D01*
X202984029Y-83600000D01*
X203215971Y-83600000D01*
X203224244Y-83603427D01*
G37*
%TD.AperFunction*%
%TD*%
%TA.AperFunction,Conductor*%
%TO.N,Net-(J1-Pin_5)*%
G36*
X206124244Y-83603427D02*
G01*
X206127289Y-83608734D01*
X206228392Y-83994495D01*
X206227174Y-84003366D01*
X206221591Y-84008254D01*
X206004517Y-84099109D01*
X205995563Y-84099142D01*
X205995483Y-84099109D01*
X205778408Y-84008254D01*
X205772099Y-84001898D01*
X205771607Y-83994495D01*
X205872711Y-83608734D01*
X205878124Y-83601600D01*
X205884029Y-83600000D01*
X206115971Y-83600000D01*
X206124244Y-83603427D01*
G37*
%TD.AperFunction*%
%TD*%
%TA.AperFunction,Conductor*%
%TO.N,Net-(J1-Pin_5)*%
G36*
X189082101Y-53258244D02*
G01*
X189088418Y-53264589D01*
X189088502Y-53273288D01*
X188827903Y-53942545D01*
X188821707Y-53949011D01*
X188817000Y-53950000D01*
X188583000Y-53950000D01*
X188574727Y-53946573D01*
X188572097Y-53942545D01*
X188311497Y-53273288D01*
X188311689Y-53264336D01*
X188317897Y-53258244D01*
X188695501Y-53100874D01*
X188704453Y-53100856D01*
X189082101Y-53258244D01*
G37*
%TD.AperFunction*%
%TD*%
%TA.AperFunction,Conductor*%
%TO.N,Net-(J1-Pin_4)*%
G36*
X190082101Y-53258244D02*
G01*
X190088418Y-53264589D01*
X190088502Y-53273288D01*
X189827903Y-53942545D01*
X189821707Y-53949011D01*
X189817000Y-53950000D01*
X189583000Y-53950000D01*
X189574727Y-53946573D01*
X189572097Y-53942545D01*
X189311497Y-53273288D01*
X189311689Y-53264336D01*
X189317897Y-53258244D01*
X189695501Y-53100874D01*
X189704453Y-53100856D01*
X190082101Y-53258244D01*
G37*
%TD.AperFunction*%
%TD*%
%TA.AperFunction,Conductor*%
%TO.N,Net-(J1-Pin_4)*%
G36*
X209124244Y-83603427D02*
G01*
X209127289Y-83608734D01*
X209228392Y-83994495D01*
X209227174Y-84003366D01*
X209221591Y-84008254D01*
X209004516Y-84099109D01*
X208995562Y-84099142D01*
X208995482Y-84099109D01*
X208778408Y-84008254D01*
X208772099Y-84001898D01*
X208771607Y-83994495D01*
X208872711Y-83608734D01*
X208878124Y-83601600D01*
X208884029Y-83600000D01*
X209115971Y-83600000D01*
X209124244Y-83603427D01*
G37*
%TD.AperFunction*%
%TD*%
%TA.AperFunction,Conductor*%
%TO.N,Net-(J1-Pin_3)*%
G36*
X191082101Y-53258244D02*
G01*
X191088418Y-53264589D01*
X191088502Y-53273288D01*
X190827903Y-53942545D01*
X190821707Y-53949011D01*
X190817000Y-53950000D01*
X190583000Y-53950000D01*
X190574727Y-53946573D01*
X190572097Y-53942545D01*
X190311497Y-53273288D01*
X190311689Y-53264336D01*
X190317897Y-53258244D01*
X190695501Y-53100874D01*
X190704453Y-53100856D01*
X191082101Y-53258244D01*
G37*
%TD.AperFunction*%
%TD*%
%TA.AperFunction,Conductor*%
%TO.N,Net-(J1-Pin_3)*%
G36*
X212124244Y-83603427D02*
G01*
X212127289Y-83608734D01*
X212228392Y-83994495D01*
X212227174Y-84003366D01*
X212221591Y-84008254D01*
X212004516Y-84099109D01*
X211995562Y-84099142D01*
X211995482Y-84099109D01*
X211778408Y-84008254D01*
X211772099Y-84001898D01*
X211771607Y-83994495D01*
X211872711Y-83608734D01*
X211878124Y-83601600D01*
X211884029Y-83600000D01*
X212115971Y-83600000D01*
X212124244Y-83603427D01*
G37*
%TD.AperFunction*%
%TD*%
%TA.AperFunction,Conductor*%
%TO.N,Net-(J1-Pin_2)*%
G36*
X192082101Y-53258244D02*
G01*
X192088418Y-53264589D01*
X192088502Y-53273288D01*
X191827903Y-53942545D01*
X191821707Y-53949011D01*
X191817000Y-53950000D01*
X191583000Y-53950000D01*
X191574727Y-53946573D01*
X191572097Y-53942545D01*
X191311497Y-53273288D01*
X191311689Y-53264336D01*
X191317897Y-53258244D01*
X191695501Y-53100874D01*
X191704453Y-53100856D01*
X192082101Y-53258244D01*
G37*
%TD.AperFunction*%
%TD*%
%TA.AperFunction,Conductor*%
%TO.N,Net-(J1-Pin_2)*%
G36*
X215224244Y-83503427D02*
G01*
X215227289Y-83508734D01*
X215328392Y-83894495D01*
X215327174Y-83903366D01*
X215321591Y-83908254D01*
X215104516Y-83999109D01*
X215095562Y-83999142D01*
X215095482Y-83999109D01*
X214878408Y-83908254D01*
X214872099Y-83901898D01*
X214871607Y-83894495D01*
X214972711Y-83508734D01*
X214978124Y-83501600D01*
X214984029Y-83500000D01*
X215215971Y-83500000D01*
X215224244Y-83503427D01*
G37*
%TD.AperFunction*%
%TD*%
%TA.AperFunction,Conductor*%
%TO.N,/BottomGround*%
G36*
X153570232Y-66820249D02*
G01*
X153621642Y-66841767D01*
X153627951Y-66848123D01*
X153628459Y-66855465D01*
X153529723Y-67240714D01*
X153524349Y-67247877D01*
X153518389Y-67249509D01*
X153286442Y-67249509D01*
X153278169Y-67246082D01*
X153275142Y-67240843D01*
X153171682Y-66855548D01*
X153172846Y-66846669D01*
X153178462Y-66841722D01*
X153395484Y-66750889D01*
X153404437Y-66750857D01*
X153570232Y-66820249D01*
G37*
%TD.AperFunction*%
%TD*%
%TA.AperFunction,Conductor*%
%TO.N,/BottomGround*%
G36*
X156992625Y-72152124D02*
G01*
X157336894Y-72353409D01*
X157342307Y-72360543D01*
X157341815Y-72367946D01*
X157252564Y-72585686D01*
X157246255Y-72592042D01*
X157246175Y-72592075D01*
X157028435Y-72681326D01*
X157019481Y-72681293D01*
X157013898Y-72676405D01*
X156812613Y-72332137D01*
X156811396Y-72323269D01*
X156814439Y-72317964D01*
X156978452Y-72153951D01*
X156986724Y-72150525D01*
X156992625Y-72152124D01*
G37*
%TD.AperFunction*%
%TD*%
%TA.AperFunction,Conductor*%
%TO.N,/BottomGround*%
G36*
X199706018Y-62908217D02*
G01*
X199711601Y-62913105D01*
X199912885Y-63257371D01*
X199914103Y-63266241D01*
X199911058Y-63271548D01*
X199747048Y-63435558D01*
X199738775Y-63438985D01*
X199732871Y-63437385D01*
X199388605Y-63236101D01*
X199383192Y-63228967D01*
X199383683Y-63221565D01*
X199472936Y-63003822D01*
X199479243Y-62997468D01*
X199697065Y-62908184D01*
X199706018Y-62908217D01*
G37*
%TD.AperFunction*%
%TD*%
%TA.AperFunction,Conductor*%
%TO.N,/BottomGround*%
G36*
X212787400Y-61812536D02*
G01*
X213136808Y-62013922D01*
X213142265Y-62021022D01*
X213141793Y-62028494D01*
X213052686Y-62246024D01*
X213046379Y-62252381D01*
X213046301Y-62252413D01*
X212828734Y-62341688D01*
X212819779Y-62341658D01*
X212814015Y-62336457D01*
X212642404Y-62021147D01*
X212641459Y-62012242D01*
X212642950Y-62009059D01*
X212771830Y-61816172D01*
X212779275Y-61811198D01*
X212787400Y-61812536D01*
G37*
%TD.AperFunction*%
%TD*%
%TA.AperFunction,Conductor*%
%TO.N,/BottomGround*%
G36*
X154346914Y-61289772D02*
G01*
X154510934Y-61453792D01*
X154514361Y-61462065D01*
X154513074Y-61467399D01*
X154330371Y-61824101D01*
X154323550Y-61829902D01*
X154315521Y-61829593D01*
X154098322Y-61740563D01*
X154091968Y-61734255D01*
X154002487Y-61515954D01*
X154002520Y-61507002D01*
X154006892Y-61501738D01*
X154332222Y-61288262D01*
X154341019Y-61286589D01*
X154346914Y-61289772D01*
G37*
%TD.AperFunction*%
%TD*%
%TA.AperFunction,Conductor*%
%TO.N,/BottomGround*%
G36*
X156553434Y-58933183D02*
G01*
X156771175Y-59022435D01*
X156777531Y-59028744D01*
X156777564Y-59028824D01*
X156866815Y-59246564D01*
X156866782Y-59255518D01*
X156861894Y-59261101D01*
X156517629Y-59462385D01*
X156508758Y-59463603D01*
X156503451Y-59460558D01*
X156339441Y-59296548D01*
X156336014Y-59288275D01*
X156337612Y-59282374D01*
X156538899Y-58938103D01*
X156546032Y-58932692D01*
X156553434Y-58933183D01*
G37*
%TD.AperFunction*%
%TD*%
%TA.AperFunction,Conductor*%
%TO.N,Net-(D28-A)*%
G36*
X212057591Y-68955745D02*
G01*
X212063900Y-68962101D01*
X212064392Y-68969504D01*
X211963289Y-69355266D01*
X211957876Y-69362400D01*
X211951971Y-69364000D01*
X211720029Y-69364000D01*
X211711756Y-69360573D01*
X211708711Y-69355266D01*
X211607607Y-68969504D01*
X211608825Y-68960633D01*
X211614406Y-68955746D01*
X211831484Y-68864889D01*
X211840437Y-68864857D01*
X212057591Y-68955745D01*
G37*
%TD.AperFunction*%
%TD*%
%TA.AperFunction,Conductor*%
%TO.N,Net-(D28-A)*%
G36*
X211963608Y-70753702D02*
G01*
X211964513Y-70754719D01*
X212170338Y-71015078D01*
X212172781Y-71023693D01*
X212169456Y-71030584D01*
X212003450Y-71197530D01*
X211995187Y-71200980D01*
X211995107Y-71200980D01*
X211760685Y-71200042D01*
X211752426Y-71196582D01*
X211749076Y-71189354D01*
X211712102Y-70762985D01*
X211714801Y-70754448D01*
X211722747Y-70750319D01*
X211723758Y-70750275D01*
X211955335Y-70750275D01*
X211963608Y-70753702D01*
G37*
%TD.AperFunction*%
%TD*%
%TA.AperFunction,Conductor*%
%TO.N,Net-(D2-A)*%
G36*
X169874244Y-76503427D02*
G01*
X169877289Y-76508734D01*
X169978392Y-76894495D01*
X169977174Y-76903366D01*
X169971591Y-76908254D01*
X169754517Y-76999109D01*
X169745563Y-76999142D01*
X169745483Y-76999109D01*
X169528408Y-76908254D01*
X169522099Y-76901898D01*
X169521607Y-76894495D01*
X169622711Y-76508734D01*
X169628124Y-76501600D01*
X169634029Y-76500000D01*
X169865971Y-76500000D01*
X169874244Y-76503427D01*
G37*
%TD.AperFunction*%
%TD*%
%TA.AperFunction,Conductor*%
%TO.N,Net-(D2-A)*%
G36*
X167491267Y-60122711D02*
G01*
X167498400Y-60128123D01*
X167500000Y-60134028D01*
X167500000Y-60365971D01*
X167496573Y-60374244D01*
X167491266Y-60377289D01*
X167105504Y-60478392D01*
X167096633Y-60477174D01*
X167091745Y-60471591D01*
X167000889Y-60254515D01*
X167000857Y-60245563D01*
X167091746Y-60028406D01*
X167098101Y-60022099D01*
X167105504Y-60021607D01*
X167491267Y-60122711D01*
G37*
%TD.AperFunction*%
%TD*%
%TA.AperFunction,Conductor*%
%TO.N,Net-(D4-A)*%
G36*
X166305638Y-71191812D02*
G01*
X166306933Y-71192496D01*
X166587159Y-71363826D01*
X166592430Y-71371065D01*
X166591878Y-71378256D01*
X166502213Y-71596410D01*
X166495898Y-71602759D01*
X166495825Y-71602789D01*
X166279232Y-71691492D01*
X166270277Y-71691456D01*
X166264253Y-71685734D01*
X166172158Y-71494173D01*
X166073764Y-71289509D01*
X166073269Y-71280569D01*
X166079241Y-71273896D01*
X166080161Y-71273501D01*
X166296688Y-71191536D01*
X166305638Y-71191812D01*
G37*
%TD.AperFunction*%
%TD*%
%TA.AperFunction,Conductor*%
%TO.N,Net-(D4-A)*%
G36*
X166278434Y-69008183D02*
G01*
X166496175Y-69097435D01*
X166502531Y-69103744D01*
X166502564Y-69103824D01*
X166591815Y-69321564D01*
X166591782Y-69330518D01*
X166586894Y-69336101D01*
X166242629Y-69537385D01*
X166233758Y-69538603D01*
X166228451Y-69535558D01*
X166064441Y-69371548D01*
X166061014Y-69363275D01*
X166062612Y-69357374D01*
X166263899Y-69013103D01*
X166271032Y-69007692D01*
X166278434Y-69008183D01*
G37*
%TD.AperFunction*%
%TD*%
%TA.AperFunction,Conductor*%
%TO.N,Net-(D8-A)*%
G36*
X175024244Y-76503427D02*
G01*
X175027289Y-76508734D01*
X175128392Y-76894495D01*
X175127174Y-76903366D01*
X175121591Y-76908254D01*
X174904517Y-76999109D01*
X174895563Y-76999142D01*
X174895483Y-76999109D01*
X174678408Y-76908254D01*
X174672099Y-76901898D01*
X174671607Y-76894495D01*
X174772711Y-76508734D01*
X174778124Y-76501600D01*
X174784029Y-76500000D01*
X175015971Y-76500000D01*
X175024244Y-76503427D01*
G37*
%TD.AperFunction*%
%TD*%
%TA.AperFunction,Conductor*%
%TO.N,Net-(D8-A)*%
G36*
X174828825Y-73608910D02*
G01*
X174835132Y-73615267D01*
X174835239Y-73615537D01*
X175002267Y-74054008D01*
X175002009Y-74062959D01*
X174995498Y-74069107D01*
X174994361Y-74069474D01*
X174770860Y-74129351D01*
X174761982Y-74128182D01*
X174760858Y-74127444D01*
X174434070Y-73884830D01*
X174429470Y-73877147D01*
X174431650Y-73868462D01*
X174432735Y-73867198D01*
X174598072Y-73700715D01*
X174601935Y-73698136D01*
X174819870Y-73608875D01*
X174828825Y-73608910D01*
G37*
%TD.AperFunction*%
%TD*%
%TA.AperFunction,Conductor*%
%TO.N,Net-(D11-A)*%
G36*
X183496352Y-66881233D02*
G01*
X183521916Y-66891895D01*
X183528232Y-66898242D01*
X183528830Y-66905245D01*
X183457175Y-67225857D01*
X183452026Y-67233183D01*
X183451607Y-67233438D01*
X183251549Y-67348932D01*
X183242670Y-67350100D01*
X183235566Y-67344649D01*
X183234728Y-67342864D01*
X183194182Y-67233438D01*
X183072928Y-66906191D01*
X183073267Y-66897244D01*
X183079376Y-66891336D01*
X183294993Y-66801021D01*
X183303943Y-66800987D01*
X183496352Y-66881233D01*
G37*
%TD.AperFunction*%
%TD*%
%TA.AperFunction,Conductor*%
%TO.N,Net-(D11-A)*%
G36*
X185637272Y-75364133D02*
G01*
X185638732Y-75365914D01*
X185901030Y-75759413D01*
X185923101Y-75792524D01*
X185924839Y-75801308D01*
X185919855Y-75808748D01*
X185917883Y-75809806D01*
X185702889Y-75899793D01*
X185698339Y-75900700D01*
X185461795Y-75900033D01*
X185453532Y-75896583D01*
X185450128Y-75888300D01*
X185450129Y-75888205D01*
X185451047Y-75804329D01*
X185453989Y-75535587D01*
X185457414Y-75527445D01*
X185620727Y-75364132D01*
X185628999Y-75360706D01*
X185637272Y-75364133D01*
G37*
%TD.AperFunction*%
%TD*%
%TA.AperFunction,Conductor*%
%TO.N,Net-(D12-A)*%
G36*
X183021591Y-73291745D02*
G01*
X183027900Y-73298101D01*
X183028392Y-73305504D01*
X182927289Y-73691266D01*
X182921876Y-73698400D01*
X182915971Y-73700000D01*
X182684029Y-73700000D01*
X182675756Y-73696573D01*
X182672711Y-73691266D01*
X182571607Y-73305504D01*
X182572825Y-73296633D01*
X182578406Y-73291746D01*
X182795484Y-73200889D01*
X182804437Y-73200857D01*
X183021591Y-73291745D01*
G37*
%TD.AperFunction*%
%TD*%
%TA.AperFunction,Conductor*%
%TO.N,Net-(D12-A)*%
G36*
X182924244Y-75403427D02*
G01*
X182927289Y-75408734D01*
X183028392Y-75794495D01*
X183027174Y-75803366D01*
X183021591Y-75808254D01*
X182804517Y-75899109D01*
X182795563Y-75899142D01*
X182795483Y-75899109D01*
X182578408Y-75808254D01*
X182572099Y-75801898D01*
X182571607Y-75794495D01*
X182672711Y-75408734D01*
X182678124Y-75401600D01*
X182684029Y-75400000D01*
X182915971Y-75400000D01*
X182924244Y-75403427D01*
G37*
%TD.AperFunction*%
%TD*%
%TA.AperFunction,Conductor*%
%TO.N,Net-(D16-A)*%
G36*
X189221591Y-75091745D02*
G01*
X189227900Y-75098101D01*
X189228392Y-75105504D01*
X189127289Y-75491266D01*
X189121876Y-75498400D01*
X189115971Y-75500000D01*
X188884029Y-75500000D01*
X188875756Y-75496573D01*
X188872711Y-75491266D01*
X188771607Y-75105504D01*
X188772825Y-75096633D01*
X188778406Y-75091746D01*
X188995484Y-75000889D01*
X189004437Y-75000857D01*
X189221591Y-75091745D01*
G37*
%TD.AperFunction*%
%TD*%
%TA.AperFunction,Conductor*%
%TO.N,Net-(D16-A)*%
G36*
X189124244Y-76003427D02*
G01*
X189127289Y-76008734D01*
X189228392Y-76394495D01*
X189227174Y-76403366D01*
X189221591Y-76408254D01*
X189004517Y-76499109D01*
X188995563Y-76499142D01*
X188995483Y-76499109D01*
X188778408Y-76408254D01*
X188772099Y-76401898D01*
X188771607Y-76394495D01*
X188872711Y-76008734D01*
X188878124Y-76001600D01*
X188884029Y-76000000D01*
X189115971Y-76000000D01*
X189124244Y-76003427D01*
G37*
%TD.AperFunction*%
%TD*%
%TA.AperFunction,Conductor*%
%TO.N,Net-(D19-A)*%
G36*
X197101916Y-76623006D02*
G01*
X197385921Y-76764183D01*
X197391804Y-76770934D01*
X197391537Y-76779102D01*
X197302413Y-76996301D01*
X197296102Y-77002653D01*
X197296024Y-77002686D01*
X197078780Y-77091676D01*
X197069825Y-77091641D01*
X197064040Y-77086389D01*
X197019044Y-77002686D01*
X196893016Y-76768244D01*
X196892118Y-76759336D01*
X196896820Y-76752980D01*
X197090213Y-76623755D01*
X197098993Y-76622009D01*
X197101916Y-76623006D01*
G37*
%TD.AperFunction*%
%TD*%
%TA.AperFunction,Conductor*%
%TO.N,Net-(D19-A)*%
G36*
X197003393Y-66002412D02*
G01*
X197077669Y-66077108D01*
X197168357Y-66168310D01*
X197171761Y-66176593D01*
X197168311Y-66184856D01*
X197168140Y-66185022D01*
X197001613Y-66344011D01*
X196928590Y-66413731D01*
X196928392Y-66413920D01*
X196920313Y-66417158D01*
X196688991Y-66417158D01*
X196680718Y-66413731D01*
X196677291Y-66405458D01*
X196677476Y-66403388D01*
X196716765Y-66184856D01*
X196748275Y-66009589D01*
X196753111Y-66002054D01*
X196759742Y-65999961D01*
X196995108Y-65999019D01*
X197003393Y-66002412D01*
G37*
%TD.AperFunction*%
%TD*%
%TA.AperFunction,Conductor*%
%TO.N,Net-(D20-A)*%
G36*
X198224244Y-75503427D02*
G01*
X198227289Y-75508734D01*
X198328392Y-75894495D01*
X198327174Y-75903366D01*
X198321591Y-75908254D01*
X198104517Y-75999109D01*
X198095563Y-75999142D01*
X198095483Y-75999109D01*
X197878408Y-75908254D01*
X197872099Y-75901898D01*
X197871607Y-75894495D01*
X197972711Y-75508734D01*
X197978124Y-75501600D01*
X197984029Y-75500000D01*
X198215971Y-75500000D01*
X198224244Y-75503427D01*
G37*
%TD.AperFunction*%
%TD*%
%TA.AperFunction,Conductor*%
%TO.N,Net-(D20-A)*%
G36*
X198321591Y-73191745D02*
G01*
X198327900Y-73198101D01*
X198328392Y-73205504D01*
X198227289Y-73591266D01*
X198221876Y-73598400D01*
X198215971Y-73600000D01*
X197984029Y-73600000D01*
X197975756Y-73596573D01*
X197972711Y-73591266D01*
X197871607Y-73205504D01*
X197872825Y-73196633D01*
X197878406Y-73191746D01*
X198095484Y-73100889D01*
X198104437Y-73100857D01*
X198321591Y-73191745D01*
G37*
%TD.AperFunction*%
%TD*%
%TA.AperFunction,Conductor*%
%TO.N,Net-(D24-A)*%
G36*
X203891132Y-74783764D02*
G01*
X204108675Y-74872935D01*
X204115031Y-74879244D01*
X204115064Y-74879324D01*
X204204387Y-75097240D01*
X204204354Y-75106194D01*
X204199655Y-75111665D01*
X203862385Y-75317454D01*
X203853538Y-75318837D01*
X203848018Y-75315739D01*
X203684000Y-75151721D01*
X203680573Y-75143448D01*
X203682053Y-75137752D01*
X203699641Y-75106194D01*
X203876478Y-74788893D01*
X203883497Y-74783337D01*
X203891132Y-74783764D01*
G37*
%TD.AperFunction*%
%TD*%
%TA.AperFunction,Conductor*%
%TO.N,Net-(D24-A)*%
G36*
X203171548Y-75664441D02*
G01*
X203335558Y-75828451D01*
X203338985Y-75836724D01*
X203337385Y-75842629D01*
X203136101Y-76186894D01*
X203128967Y-76192307D01*
X203121564Y-76191815D01*
X202903824Y-76102564D01*
X202897468Y-76096255D01*
X202897435Y-76096175D01*
X202808184Y-75878435D01*
X202808217Y-75869481D01*
X202813103Y-75863899D01*
X203157373Y-75662613D01*
X203166241Y-75661396D01*
X203171548Y-75664441D01*
G37*
%TD.AperFunction*%
%TD*%
%TA.AperFunction,Conductor*%
%TO.N,/kHz{slash}Hz{slash}dB*%
G36*
X166653366Y-57522825D02*
G01*
X166658254Y-57528408D01*
X166749109Y-57745483D01*
X166749142Y-57754437D01*
X166749109Y-57754517D01*
X166658254Y-57971591D01*
X166651898Y-57977900D01*
X166644495Y-57978392D01*
X166258734Y-57877289D01*
X166251600Y-57871876D01*
X166250000Y-57865971D01*
X166250000Y-57634028D01*
X166253427Y-57625755D01*
X166258731Y-57622711D01*
X166644495Y-57521607D01*
X166653366Y-57522825D01*
G37*
%TD.AperFunction*%
%TD*%
%TA.AperFunction,Conductor*%
%TO.N,/kHz{slash}Hz{slash}dB*%
G36*
X169831536Y-57331683D02*
G01*
X169832900Y-57332846D01*
X169999321Y-57498331D01*
X170001897Y-57502190D01*
X170090745Y-57718952D01*
X170090712Y-57727906D01*
X170084356Y-57734215D01*
X170083205Y-57734618D01*
X169618538Y-57870614D01*
X169609636Y-57869649D01*
X169604023Y-57862671D01*
X169603552Y-57859385D01*
X169603552Y-57628807D01*
X169605793Y-57621921D01*
X169692948Y-57502190D01*
X169815192Y-57334255D01*
X169822830Y-57329584D01*
X169831536Y-57331683D01*
G37*
%TD.AperFunction*%
%TD*%
%TA.AperFunction,Conductor*%
%TO.N,/kHz{slash}Hz{slash}dB*%
G36*
X180908796Y-57279972D02*
G01*
X180909492Y-57281366D01*
X181000083Y-57497810D01*
X181000990Y-57502374D01*
X181000047Y-57738041D01*
X180996587Y-57746300D01*
X180988300Y-57749694D01*
X180988045Y-57749690D01*
X180541916Y-57738158D01*
X180533734Y-57734519D01*
X180530518Y-57726462D01*
X180530518Y-57494572D01*
X180533945Y-57486299D01*
X180536307Y-57484475D01*
X180892788Y-57275785D01*
X180901659Y-57274564D01*
X180908796Y-57279972D01*
G37*
%TD.AperFunction*%
%TD*%
%TA.AperFunction,Conductor*%
%TO.N,/kHz{slash}Hz{slash}dB*%
G36*
X170230518Y-57408217D02*
G01*
X170236101Y-57413105D01*
X170437385Y-57757371D01*
X170438603Y-57766241D01*
X170435558Y-57771548D01*
X170271548Y-57935558D01*
X170263275Y-57938985D01*
X170257371Y-57937385D01*
X169913105Y-57736101D01*
X169907692Y-57728967D01*
X169908183Y-57721565D01*
X169997436Y-57503822D01*
X170003743Y-57497468D01*
X170221565Y-57408184D01*
X170230518Y-57408217D01*
G37*
%TD.AperFunction*%
%TD*%
%TA.AperFunction,Conductor*%
%TO.N,/kHz{slash}Hz{slash}dB*%
G36*
X167241267Y-57622711D02*
G01*
X167248400Y-57628123D01*
X167250000Y-57634028D01*
X167250000Y-57865971D01*
X167246573Y-57874244D01*
X167241266Y-57877289D01*
X166855504Y-57978392D01*
X166846633Y-57977174D01*
X166841745Y-57971591D01*
X166750889Y-57754515D01*
X166750857Y-57745563D01*
X166841746Y-57528406D01*
X166848101Y-57522099D01*
X166855504Y-57521607D01*
X167241267Y-57622711D01*
G37*
%TD.AperFunction*%
%TD*%
%TA.AperFunction,Conductor*%
%TO.N,/kHz{slash}Hz{slash}dB*%
G36*
X163224244Y-76253427D02*
G01*
X163227289Y-76258734D01*
X163328392Y-76644495D01*
X163327174Y-76653366D01*
X163321591Y-76658254D01*
X163104517Y-76749109D01*
X163095563Y-76749142D01*
X163095483Y-76749109D01*
X162878408Y-76658254D01*
X162872099Y-76651898D01*
X162871607Y-76644495D01*
X162972711Y-76258734D01*
X162978124Y-76251600D01*
X162984029Y-76250000D01*
X163215971Y-76250000D01*
X163224244Y-76253427D01*
G37*
%TD.AperFunction*%
%TD*%
M02*
