%TF.GenerationSoftware,KiCad,Pcbnew,7.0.7*%
%TF.CreationDate,2024-09-12T05:12:30-04:00*%
%TF.ProjectId,Fluke_LCD,466c756b-655f-44c4-9344-2e6b69636164,rev?*%
%TF.SameCoordinates,Original*%
%TF.FileFunction,Drillmap*%
%TF.FilePolarity,Positive*%
%FSLAX45Y45*%
G04 Gerber Fmt 4.5, Leading zero omitted, Abs format (unit mm)*
G04 Created by KiCad (PCBNEW 7.0.7) date 2024-09-12 05:12:30*
%MOMM*%
%LPD*%
G01*
G04 APERTURE LIST*
%ADD10C,0.200000*%
G04 APERTURE END LIST*
D10*
X15189200Y-5207000D02*
X21615400Y-5207000D01*
X21615400Y-8610600D01*
X15189200Y-8610600D01*
X15189200Y-5207000D01*
X15439977Y-8932084D02*
X15439977Y-8732084D01*
X15439977Y-8732084D02*
X15487596Y-8732084D01*
X15487596Y-8732084D02*
X15516167Y-8741608D01*
X15516167Y-8741608D02*
X15535215Y-8760655D01*
X15535215Y-8760655D02*
X15544739Y-8779703D01*
X15544739Y-8779703D02*
X15554262Y-8817798D01*
X15554262Y-8817798D02*
X15554262Y-8846370D01*
X15554262Y-8846370D02*
X15544739Y-8884465D01*
X15544739Y-8884465D02*
X15535215Y-8903512D01*
X15535215Y-8903512D02*
X15516167Y-8922560D01*
X15516167Y-8922560D02*
X15487596Y-8932084D01*
X15487596Y-8932084D02*
X15439977Y-8932084D01*
X15639977Y-8932084D02*
X15639977Y-8798750D01*
X15639977Y-8836846D02*
X15649501Y-8817798D01*
X15649501Y-8817798D02*
X15659024Y-8808274D01*
X15659024Y-8808274D02*
X15678072Y-8798750D01*
X15678072Y-8798750D02*
X15697120Y-8798750D01*
X15763786Y-8932084D02*
X15763786Y-8798750D01*
X15763786Y-8732084D02*
X15754262Y-8741608D01*
X15754262Y-8741608D02*
X15763786Y-8751131D01*
X15763786Y-8751131D02*
X15773310Y-8741608D01*
X15773310Y-8741608D02*
X15763786Y-8732084D01*
X15763786Y-8732084D02*
X15763786Y-8751131D01*
X15887596Y-8932084D02*
X15868548Y-8922560D01*
X15868548Y-8922560D02*
X15859024Y-8903512D01*
X15859024Y-8903512D02*
X15859024Y-8732084D01*
X15992358Y-8932084D02*
X15973310Y-8922560D01*
X15973310Y-8922560D02*
X15963786Y-8903512D01*
X15963786Y-8903512D02*
X15963786Y-8732084D01*
X16220929Y-8932084D02*
X16220929Y-8732084D01*
X16220929Y-8732084D02*
X16287596Y-8874941D01*
X16287596Y-8874941D02*
X16354262Y-8732084D01*
X16354262Y-8732084D02*
X16354262Y-8932084D01*
X16535215Y-8932084D02*
X16535215Y-8827322D01*
X16535215Y-8827322D02*
X16525691Y-8808274D01*
X16525691Y-8808274D02*
X16506643Y-8798750D01*
X16506643Y-8798750D02*
X16468548Y-8798750D01*
X16468548Y-8798750D02*
X16449501Y-8808274D01*
X16535215Y-8922560D02*
X16516167Y-8932084D01*
X16516167Y-8932084D02*
X16468548Y-8932084D01*
X16468548Y-8932084D02*
X16449501Y-8922560D01*
X16449501Y-8922560D02*
X16439977Y-8903512D01*
X16439977Y-8903512D02*
X16439977Y-8884465D01*
X16439977Y-8884465D02*
X16449501Y-8865417D01*
X16449501Y-8865417D02*
X16468548Y-8855893D01*
X16468548Y-8855893D02*
X16516167Y-8855893D01*
X16516167Y-8855893D02*
X16535215Y-8846370D01*
X16630453Y-8798750D02*
X16630453Y-8998750D01*
X16630453Y-8808274D02*
X16649501Y-8798750D01*
X16649501Y-8798750D02*
X16687596Y-8798750D01*
X16687596Y-8798750D02*
X16706643Y-8808274D01*
X16706643Y-8808274D02*
X16716167Y-8817798D01*
X16716167Y-8817798D02*
X16725691Y-8836846D01*
X16725691Y-8836846D02*
X16725691Y-8893989D01*
X16725691Y-8893989D02*
X16716167Y-8913036D01*
X16716167Y-8913036D02*
X16706643Y-8922560D01*
X16706643Y-8922560D02*
X16687596Y-8932084D01*
X16687596Y-8932084D02*
X16649501Y-8932084D01*
X16649501Y-8932084D02*
X16630453Y-8922560D01*
X16811405Y-8913036D02*
X16820929Y-8922560D01*
X16820929Y-8922560D02*
X16811405Y-8932084D01*
X16811405Y-8932084D02*
X16801882Y-8922560D01*
X16801882Y-8922560D02*
X16811405Y-8913036D01*
X16811405Y-8913036D02*
X16811405Y-8932084D01*
X16811405Y-8808274D02*
X16820929Y-8817798D01*
X16820929Y-8817798D02*
X16811405Y-8827322D01*
X16811405Y-8827322D02*
X16801882Y-8817798D01*
X16801882Y-8817798D02*
X16811405Y-8808274D01*
X16811405Y-8808274D02*
X16811405Y-8827322D01*
M02*
