%TF.GenerationSoftware,KiCad,Pcbnew,7.0.7*%
%TF.CreationDate,2024-02-07T23:55:39-05:00*%
%TF.ProjectId,Fluke_LCD,466c756b-655f-44c4-9344-2e6b69636164,rev?*%
%TF.SameCoordinates,Original*%
%TF.FileFunction,Copper,L1,Top*%
%TF.FilePolarity,Positive*%
%FSLAX46Y46*%
G04 Gerber Fmt 4.6, Leading zero omitted, Abs format (unit mm)*
G04 Created by KiCad (PCBNEW 7.0.7) date 2024-02-07 23:55:39*
%MOMM*%
%LPD*%
G01*
G04 APERTURE LIST*
G04 Aperture macros list*
%AMRoundRect*
0 Rectangle with rounded corners*
0 $1 Rounding radius*
0 $2 $3 $4 $5 $6 $7 $8 $9 X,Y pos of 4 corners*
0 Add a 4 corners polygon primitive as box body*
4,1,4,$2,$3,$4,$5,$6,$7,$8,$9,$2,$3,0*
0 Add four circle primitives for the rounded corners*
1,1,$1+$1,$2,$3*
1,1,$1+$1,$4,$5*
1,1,$1+$1,$6,$7*
1,1,$1+$1,$8,$9*
0 Add four rect primitives between the rounded corners*
20,1,$1+$1,$2,$3,$4,$5,0*
20,1,$1+$1,$4,$5,$6,$7,0*
20,1,$1+$1,$6,$7,$8,$9,0*
20,1,$1+$1,$8,$9,$2,$3,0*%
G04 Aperture macros list end*
%TA.AperFunction,SMDPad,CuDef*%
%ADD10RoundRect,0.250000X-0.450000X0.325000X-0.450000X-0.325000X0.450000X-0.325000X0.450000X0.325000X0*%
%TD*%
%TA.AperFunction,SMDPad,CuDef*%
%ADD11RoundRect,0.250000X-0.325000X-0.450000X0.325000X-0.450000X0.325000X0.450000X-0.325000X0.450000X0*%
%TD*%
%TA.AperFunction,SMDPad,CuDef*%
%ADD12RoundRect,0.250000X0.450000X-0.325000X0.450000X0.325000X-0.450000X0.325000X-0.450000X-0.325000X0*%
%TD*%
%TA.AperFunction,SMDPad,CuDef*%
%ADD13RoundRect,0.250000X0.450000X-0.350000X0.450000X0.350000X-0.450000X0.350000X-0.450000X-0.350000X0*%
%TD*%
%TA.AperFunction,ViaPad*%
%ADD14C,0.300000*%
%TD*%
%TA.AperFunction,Conductor*%
%ADD15C,0.250000*%
%TD*%
G04 APERTURE END LIST*
D10*
%TO.P,D15,1,K*%
%TO.N,/BottomGround*%
X182880000Y-69324000D03*
%TO.P,D15,2,A*%
%TO.N,Net-(D12-A)*%
X182880000Y-71374000D03*
%TD*%
D11*
%TO.P,D7,1,K*%
%TO.N,/BottomGround*%
X164075000Y-73660000D03*
%TO.P,D7,2,A*%
%TO.N,Net-(D5-A)*%
X166125000Y-73660000D03*
%TD*%
D12*
%TO.P,D41,1,K*%
%TO.N,/BottomGround*%
X155400000Y-64100000D03*
%TO.P,D41,2,A*%
%TO.N,/HalfDigit*%
X155400000Y-62050000D03*
%TD*%
D11*
%TO.P,D13,1,K*%
%TO.N,/BottomGround*%
X179350000Y-73600000D03*
%TO.P,D13,2,A*%
%TO.N,Net-(D10-A)*%
X181400000Y-73600000D03*
%TD*%
D10*
%TO.P,D22,1,K*%
%TO.N,/BottomGround*%
X198120000Y-63482000D03*
%TO.P,D22,2,A*%
%TO.N,Net-(D19-A)*%
X198120000Y-65532000D03*
%TD*%
D13*
%TO.P,R6,1*%
%TO.N,Net-(J1-Pin_20)*%
X157300000Y-84100000D03*
%TO.P,R6,2*%
%TO.N,/HalfDigit*%
X157300000Y-82100000D03*
%TD*%
D10*
%TO.P,D3,1,K*%
%TO.N,/BottomGround*%
X167640000Y-63491000D03*
%TO.P,D3,2,A*%
%TO.N,Net-(D2-A)*%
X167640000Y-65541000D03*
%TD*%
D11*
%TO.P,D39,1,K*%
%TO.N,/TopGround*%
X164075000Y-55880000D03*
%TO.P,D39,2,A*%
%TO.N,/kHz{slash}Hz{slash}dB*%
X166125000Y-55880000D03*
%TD*%
D10*
%TO.P,D23,1,K*%
%TO.N,/BottomGround*%
X198120000Y-69578000D03*
%TO.P,D23,2,A*%
%TO.N,Net-(D20-A)*%
X198120000Y-71628000D03*
%TD*%
D13*
%TO.P,R38,1*%
%TO.N,Net-(J1-Pin_4)*%
X207450000Y-84100000D03*
%TO.P,R38,2*%
%TO.N,Net-(D27-A)*%
X207450000Y-82100000D03*
%TD*%
%TO.P,R34,1*%
%TO.N,Net-(J1-Pin_6)*%
X201550000Y-84100000D03*
%TO.P,R34,2*%
%TO.N,Net-(D26-A)*%
X201550000Y-82100000D03*
%TD*%
D11*
%TO.P,D19,1,K*%
%TO.N,/TopGround*%
X194546000Y-61468000D03*
%TO.P,D19,2,A*%
%TO.N,Net-(D19-A)*%
X196596000Y-61468000D03*
%TD*%
%TO.P,D28,1,K*%
%TO.N,/TopGround*%
X209786000Y-67564000D03*
%TO.P,D28,2,A*%
%TO.N,Net-(D28-A)*%
X211836000Y-67564000D03*
%TD*%
%TO.P,D34,1,K*%
%TO.N,/BottomGround*%
X198374000Y-55880000D03*
%TO.P,D34,2,A*%
%TO.N,Net-(D33-A)*%
X200424000Y-55880000D03*
%TD*%
%TO.P,D44,1,K*%
%TO.N,/BottomGround*%
X156455000Y-73660000D03*
%TO.P,D44,2,A*%
%TO.N,Net-(D1-A)*%
X158505000Y-73660000D03*
%TD*%
D10*
%TO.P,D31,1,K*%
%TO.N,/BottomGround*%
X213360000Y-69578000D03*
%TO.P,D31,2,A*%
%TO.N,Net-(D28-A)*%
X213360000Y-71628000D03*
%TD*%
D11*
%TO.P,D4,1,K*%
%TO.N,/TopGround*%
X164075000Y-67564000D03*
%TO.P,D4,2,A*%
%TO.N,Net-(D4-A)*%
X166125000Y-67564000D03*
%TD*%
D12*
%TO.P,D43,1,K*%
%TO.N,/TopGround*%
X155400000Y-70350000D03*
%TO.P,D43,2,A*%
%TO.N,/HalfDigit*%
X155400000Y-68300000D03*
%TD*%
D13*
%TO.P,R40,1*%
%TO.N,Net-(J1-Pin_3)*%
X210400000Y-84100000D03*
%TO.P,R40,2*%
%TO.N,Net-(D33-A)*%
X210400000Y-82100000D03*
%TD*%
D11*
%TO.P,D11,1,K*%
%TO.N,/TopGround*%
X179306000Y-61214000D03*
%TO.P,D11,2,A*%
%TO.N,Net-(D11-A)*%
X181356000Y-61214000D03*
%TD*%
%TO.P,D27,1,K*%
%TO.N,/TopGround*%
X209786000Y-61468000D03*
%TO.P,D27,2,A*%
%TO.N,Net-(D27-A)*%
X211836000Y-61468000D03*
%TD*%
%TO.P,D33,1,K*%
%TO.N,/TopGround*%
X202184000Y-55880000D03*
%TO.P,D33,2,A*%
%TO.N,Net-(D33-A)*%
X204234000Y-55880000D03*
%TD*%
D13*
%TO.P,R18,1*%
%TO.N,Net-(J1-Pin_14)*%
X177850000Y-84100000D03*
%TO.P,R18,2*%
%TO.N,Net-(D10-A)*%
X177850000Y-82100000D03*
%TD*%
%TO.P,R12,1*%
%TO.N,Net-(J1-Pin_17)*%
X169000000Y-84100000D03*
%TO.P,R12,2*%
%TO.N,Net-(D4-A)*%
X169000000Y-82100000D03*
%TD*%
%TO.P,R36,1*%
%TO.N,Net-(J1-Pin_5)*%
X204500000Y-84100000D03*
%TO.P,R36,2*%
%TO.N,Net-(D28-A)*%
X204500000Y-82100000D03*
%TD*%
D11*
%TO.P,D36,1,K*%
%TO.N,/BottomGround*%
X179315000Y-55626000D03*
%TO.P,D36,2,A*%
%TO.N,/kHz{slash}Hz{slash}dB*%
X181365000Y-55626000D03*
%TD*%
D10*
%TO.P,D9,1,K*%
%TO.N,/TopGround*%
X177800000Y-63228000D03*
%TO.P,D9,2,A*%
%TO.N,Net-(D8-A)*%
X177800000Y-65278000D03*
%TD*%
D11*
%TO.P,D42,1,K*%
%TO.N,/BottomGround*%
X158350000Y-58600000D03*
%TO.P,D42,2,A*%
%TO.N,/Low Battery {slash} Negative*%
X160400000Y-58600000D03*
%TD*%
D10*
%TO.P,D18,1,K*%
%TO.N,/TopGround*%
X193040000Y-69578000D03*
%TO.P,D18,2,A*%
%TO.N,Net-(D18-A)*%
X193040000Y-71628000D03*
%TD*%
D13*
%TO.P,R8,1*%
%TO.N,Net-(J1-Pin_19)*%
X160250000Y-84100000D03*
%TO.P,R8,2*%
%TO.N,Net-(D1-A)*%
X160250000Y-82100000D03*
%TD*%
D10*
%TO.P,D6,1,K*%
%TO.N,/BottomGround*%
X167640000Y-69587000D03*
%TO.P,D6,2,A*%
%TO.N,Net-(D4-A)*%
X167640000Y-71637000D03*
%TD*%
D13*
%TO.P,R32,1*%
%TO.N,Net-(J1-Pin_7)*%
X198600000Y-84100000D03*
%TO.P,R32,2*%
%TO.N,Net-(D24-A)*%
X198600000Y-82100000D03*
%TD*%
D11*
%TO.P,D24,1,K*%
%TO.N,/BottomGround*%
X202175000Y-73660000D03*
%TO.P,D24,2,A*%
%TO.N,Net-(D24-A)*%
X204225000Y-73660000D03*
%TD*%
D10*
%TO.P,D40,1,K*%
%TO.N,/TopGround*%
X155400000Y-53550000D03*
%TO.P,D40,2,A*%
%TO.N,/Low Battery {slash} Negative*%
X155400000Y-55600000D03*
%TD*%
D13*
%TO.P,R1,1*%
%TO.N,Net-(J1-Pin_10)*%
X189650000Y-84100000D03*
%TO.P,R1,2*%
%TO.N,Net-(D18-A)*%
X189650000Y-82100000D03*
%TD*%
D11*
%TO.P,D32,1,K*%
%TO.N,/TopGround*%
X209786000Y-55880000D03*
%TO.P,D32,2,A*%
%TO.N,Net-(D32-A)*%
X211836000Y-55880000D03*
%TD*%
%TO.P,D2,1,K*%
%TO.N,/TopGround*%
X164075000Y-61468000D03*
%TO.P,D2,2,A*%
%TO.N,Net-(D2-A)*%
X166125000Y-61468000D03*
%TD*%
D13*
%TO.P,R10,1*%
%TO.N,Net-(J1-Pin_18)*%
X166050000Y-84100000D03*
%TO.P,R10,2*%
%TO.N,Net-(D5-A)*%
X166050000Y-82100000D03*
%TD*%
D11*
%TO.P,D35,1,K*%
%TO.N,/BottomGround*%
X194564000Y-55880000D03*
%TO.P,D35,2,A*%
%TO.N,Net-(D32-A)*%
X196614000Y-55880000D03*
%TD*%
%TO.P,D20,1,K*%
%TO.N,/TopGround*%
X194555000Y-67564000D03*
%TO.P,D20,2,A*%
%TO.N,Net-(D20-A)*%
X196605000Y-67564000D03*
%TD*%
%TO.P,D21,1,K*%
%TO.N,/BottomGround*%
X194555000Y-73660000D03*
%TO.P,D21,2,A*%
%TO.N,Net-(D18-A)*%
X196605000Y-73660000D03*
%TD*%
D13*
%TO.P,R42,1*%
%TO.N,Net-(J1-Pin_2)*%
X213350000Y-84100000D03*
%TO.P,R42,2*%
%TO.N,Net-(D32-A)*%
X213350000Y-82100000D03*
%TD*%
%TO.P,R28,1*%
%TO.N,Net-(J1-Pin_9)*%
X192650000Y-84100000D03*
%TO.P,R28,2*%
%TO.N,Net-(D20-A)*%
X192650000Y-82100000D03*
%TD*%
D11*
%TO.P,D8,1,K*%
%TO.N,/BottomGround*%
X171695000Y-73660000D03*
%TO.P,D8,2,A*%
%TO.N,Net-(D8-A)*%
X173745000Y-73660000D03*
%TD*%
D10*
%TO.P,D14,1,K*%
%TO.N,/BottomGround*%
X182880000Y-63228000D03*
%TO.P,D14,2,A*%
%TO.N,Net-(D11-A)*%
X182880000Y-65278000D03*
%TD*%
%TO.P,D26,1,K*%
%TO.N,/TopGround*%
X208280000Y-69578000D03*
%TO.P,D26,2,A*%
%TO.N,Net-(D26-A)*%
X208280000Y-71628000D03*
%TD*%
D13*
%TO.P,R20,1*%
%TO.N,Net-(J1-Pin_13)*%
X180800000Y-84100000D03*
%TO.P,R20,2*%
%TO.N,Net-(D12-A)*%
X180800000Y-82100000D03*
%TD*%
%TO.P,R14,1*%
%TO.N,Net-(J1-Pin_16)*%
X171950000Y-84100000D03*
%TO.P,R14,2*%
%TO.N,Net-(D2-A)*%
X171950000Y-82100000D03*
%TD*%
D10*
%TO.P,D5,1,K*%
%TO.N,/TopGround*%
X162560000Y-69587000D03*
%TO.P,D5,2,A*%
%TO.N,Net-(D5-A)*%
X162560000Y-71637000D03*
%TD*%
D13*
%TO.P,R16,1*%
%TO.N,Net-(J1-Pin_15)*%
X174900000Y-84100000D03*
%TO.P,R16,2*%
%TO.N,Net-(D8-A)*%
X174900000Y-82100000D03*
%TD*%
%TO.P,R22,1*%
%TO.N,Net-(J1-Pin_12)*%
X183750000Y-84100000D03*
%TO.P,R22,2*%
%TO.N,Net-(D11-A)*%
X183750000Y-82100000D03*
%TD*%
D10*
%TO.P,D25,1,K*%
%TO.N,/TopGround*%
X208280000Y-63482000D03*
%TO.P,D25,2,A*%
%TO.N,Net-(D24-A)*%
X208280000Y-65532000D03*
%TD*%
D11*
%TO.P,D16,1,K*%
%TO.N,/BottomGround*%
X186935000Y-73660000D03*
%TO.P,D16,2,A*%
%TO.N,Net-(D16-A)*%
X188985000Y-73660000D03*
%TD*%
D10*
%TO.P,D17,1,K*%
%TO.N,/TopGround*%
X193040000Y-63482000D03*
%TO.P,D17,2,A*%
%TO.N,Net-(D16-A)*%
X193040000Y-65532000D03*
%TD*%
%TO.P,D30,1,K*%
%TO.N,/BottomGround*%
X213360000Y-63482000D03*
%TO.P,D30,2,A*%
%TO.N,Net-(D27-A)*%
X213360000Y-65532000D03*
%TD*%
D11*
%TO.P,D12,1,K*%
%TO.N,/TopGround*%
X179306000Y-67310000D03*
%TO.P,D12,2,A*%
%TO.N,Net-(D12-A)*%
X181356000Y-67310000D03*
%TD*%
D10*
%TO.P,D1,1,K*%
%TO.N,/TopGround*%
X162560000Y-63491000D03*
%TO.P,D1,2,A*%
%TO.N,Net-(D1-A)*%
X162560000Y-65541000D03*
%TD*%
D13*
%TO.P,R24,1*%
%TO.N,Net-(J1-Pin_11)*%
X186700000Y-84100000D03*
%TO.P,R24,2*%
%TO.N,Net-(D16-A)*%
X186700000Y-82100000D03*
%TD*%
D11*
%TO.P,D38,1,K*%
%TO.N,/BottomGround*%
X167885000Y-55880000D03*
%TO.P,D38,2,A*%
%TO.N,/kHz{slash}Hz{slash}dB*%
X169935000Y-55880000D03*
%TD*%
D13*
%TO.P,R2,1*%
%TO.N,Net-(J1-Pin_22)*%
X163100000Y-84100000D03*
%TO.P,R2,2*%
%TO.N,/kHz{slash}Hz{slash}dB*%
X163100000Y-82100000D03*
%TD*%
%TO.P,R30,1*%
%TO.N,Net-(J1-Pin_8)*%
X195650000Y-84100000D03*
%TO.P,R30,2*%
%TO.N,Net-(D19-A)*%
X195650000Y-82100000D03*
%TD*%
D11*
%TO.P,D29,1,K*%
%TO.N,/BottomGround*%
X209786000Y-73642000D03*
%TO.P,D29,2,A*%
%TO.N,Net-(D26-A)*%
X211836000Y-73642000D03*
%TD*%
D10*
%TO.P,D10,1,K*%
%TO.N,/TopGround*%
X177800000Y-69333000D03*
%TO.P,D10,2,A*%
%TO.N,Net-(D10-A)*%
X177800000Y-71383000D03*
%TD*%
D13*
%TO.P,R4,1*%
%TO.N,Net-(J1-Pin_21)*%
X154350000Y-84100000D03*
%TO.P,R4,2*%
%TO.N,/Low Battery {slash} Negative*%
X154350000Y-82100000D03*
%TD*%
D14*
%TO.N,Net-(D5-A)*%
X165762500Y-72237500D03*
X163963000Y-71637000D03*
%TO.N,Net-(D10-A)*%
X177800000Y-77000000D03*
X177800000Y-73750000D03*
%TO.N,Net-(D18-A)*%
X191700000Y-71628000D03*
X190900000Y-77000000D03*
%TO.N,Net-(D27-A)*%
X214500000Y-73000000D03*
X213900000Y-67000000D03*
%TO.N,Net-(D33-A)*%
X203200000Y-55900000D03*
X205500000Y-55900000D03*
X201259500Y-55900000D03*
X212500000Y-58500000D03*
%TO.N,/BottomGround*%
X154094500Y-61738000D03*
X156455000Y-72655000D03*
X153400000Y-66100000D03*
X199200000Y-63482000D03*
X213050000Y-62250000D03*
X157200000Y-58600000D03*
%TO.N,Net-(D28-A)*%
X211836000Y-68864000D03*
X212000000Y-71200000D03*
%TO.N,Net-(D2-A)*%
X166700000Y-60000000D03*
X170200000Y-77000000D03*
%TO.N,Net-(D4-A)*%
X166125000Y-69100000D03*
X166500000Y-71600000D03*
%TO.N,Net-(D8-A)*%
X174600000Y-73700000D03*
X174900000Y-77000000D03*
%TO.N,Net-(D11-A)*%
X182900000Y-66900000D03*
X185000000Y-75900000D03*
%TO.N,Net-(D12-A)*%
X182800000Y-73200000D03*
X182800000Y-75900000D03*
%TO.N,Net-(D16-A)*%
X189000000Y-75000000D03*
X189000000Y-77000000D03*
%TO.N,Net-(D19-A)*%
X196800000Y-77200000D03*
X196800000Y-65400000D03*
%TO.N,Net-(D20-A)*%
X197400000Y-76300000D03*
X198100000Y-73100000D03*
%TO.N,Net-(D24-A)*%
X204225000Y-74700000D03*
X202900000Y-76100000D03*
%TO.N,/kHz{slash}Hz{slash}dB*%
X163100000Y-77000000D03*
X181000000Y-57500000D03*
X166200000Y-57500000D03*
X170000000Y-57500000D03*
%TD*%
D15*
%TO.N,Net-(D5-A)*%
X166050000Y-73788033D02*
X166050000Y-82100000D01*
X165943750Y-72418750D02*
X165762500Y-72237500D01*
X163963000Y-71637000D02*
X162560000Y-71637000D01*
X166125000Y-72856326D02*
X166125000Y-73606966D01*
X166087490Y-73697490D02*
G75*
G03*
X166050000Y-73788033I90510J-90510D01*
G01*
X166087510Y-73697510D02*
G75*
G03*
X166125000Y-73606966I-90510J90510D01*
G01*
X166124989Y-72856326D02*
G75*
G03*
X165943750Y-72418750I-618789J26D01*
G01*
%TO.N,Net-(D10-A)*%
X177800000Y-73750000D02*
X177800000Y-71383000D01*
X180841500Y-71941500D02*
X181011091Y-72111091D01*
X179493161Y-71383000D02*
X177800000Y-71383000D01*
X177825000Y-82075000D02*
X177850000Y-82100000D01*
X181400000Y-73050000D02*
X181400000Y-73600000D01*
X177800000Y-82014644D02*
X177800000Y-77000000D01*
X177799982Y-82014644D02*
G75*
G03*
X177825000Y-82075000I85418J44D01*
G01*
X180841511Y-71941489D02*
G75*
G03*
X179493161Y-71383000I-1348311J-1348311D01*
G01*
X181400005Y-73050000D02*
G75*
G03*
X181011091Y-72111091I-1327805J0D01*
G01*
%TO.N,Net-(D18-A)*%
X195278578Y-71628000D02*
X193040000Y-71628000D01*
X191700000Y-71628000D02*
X193040000Y-71628000D01*
X196605000Y-72954421D02*
X196605000Y-73660000D01*
X190475735Y-78624264D02*
X190275000Y-78825000D01*
X189650000Y-80333883D02*
X189650000Y-82100000D01*
X190900000Y-77000000D02*
X190900000Y-77600000D01*
X190275005Y-78825005D02*
G75*
G03*
X189650000Y-80333883I1508895J-1508895D01*
G01*
X196604990Y-72954421D02*
G75*
G03*
X196216499Y-72016501I-1326390J21D01*
G01*
X190475730Y-78624259D02*
G75*
G03*
X190900000Y-77600000I-1024230J1024259D01*
G01*
X196216506Y-72016494D02*
G75*
G03*
X195278578Y-71628000I-937906J-937906D01*
G01*
%TO.N,Net-(D26-A)*%
X211836000Y-73412995D02*
X211836000Y-73442843D01*
X211836000Y-73060253D02*
X211836000Y-73062966D01*
X211836000Y-73016837D02*
X211836000Y-73019550D01*
X211836000Y-73615145D02*
X211836000Y-73788803D01*
X211836000Y-73011411D02*
X211836000Y-73014124D01*
X211836000Y-73788803D02*
X211836000Y-74103000D01*
X211836000Y-73087386D02*
X211836000Y-73100953D01*
X211836000Y-73201348D02*
X211836000Y-73209489D01*
X211836000Y-73100953D02*
X211836000Y-73115877D01*
X210456657Y-71628000D02*
X208280000Y-71628000D01*
X211836000Y-73115877D02*
X211836000Y-73159291D01*
X211836000Y-73410282D02*
X211836000Y-73412995D01*
X211836000Y-73327524D02*
X211836000Y-73305817D01*
X211836000Y-73062966D02*
X211836000Y-73065679D01*
X211836000Y-73034475D02*
X211836000Y-73045329D01*
X211836000Y-73218987D02*
X211836000Y-73229841D01*
X211836000Y-73023620D02*
X211836000Y-73034475D01*
X211836000Y-73056183D02*
X211836000Y-73060253D01*
X211836000Y-73381792D02*
X211836000Y-73407569D01*
X208200000Y-76000000D02*
X209384594Y-76000000D01*
X211836000Y-73007342D02*
X211836000Y-73008698D01*
X211836000Y-73073819D02*
X211836000Y-73087386D01*
X211836000Y-73209489D02*
X211836000Y-73212203D01*
X211836000Y-73174214D02*
X211836000Y-73187781D01*
X211836000Y-73327524D02*
X211836000Y-73381792D01*
X211510023Y-74889976D02*
X211117999Y-75281999D01*
X211836000Y-73499825D02*
X211836000Y-73556807D01*
X211836000Y-73045329D02*
X211836000Y-73056183D01*
X211836000Y-73407569D02*
X211836000Y-73410282D01*
X211836000Y-73229841D02*
X211836000Y-73240695D01*
X211836000Y-73262401D02*
X211836000Y-73284109D01*
X201550000Y-81275000D02*
X201550000Y-82100000D01*
X211836000Y-73218987D02*
X211836000Y-73214917D01*
X211836000Y-73240695D02*
X211836000Y-73251548D01*
X211836000Y-73014124D02*
X211836000Y-73016837D01*
X211836000Y-73556807D02*
X211836000Y-73615145D01*
X211836000Y-73212203D02*
X211836000Y-73214917D01*
X211836000Y-73008698D02*
X211836000Y-73011411D01*
X211836000Y-73442843D02*
X211836000Y-73499825D01*
X211836000Y-73019550D02*
X211836000Y-73023620D01*
X211836000Y-73294963D02*
X211836000Y-73305817D01*
X211836000Y-73187781D02*
X211836000Y-73201348D01*
X204444365Y-77555634D02*
X202133362Y-79866636D01*
X211836000Y-73065679D02*
X211836000Y-73073819D01*
X211836000Y-73159291D02*
X211836000Y-73174214D01*
X211836000Y-73284109D02*
X211836000Y-73294963D01*
X211836000Y-73251548D02*
X211836000Y-73262401D01*
X211510033Y-74889986D02*
G75*
G03*
X211836000Y-74103000I-787033J786986D01*
G01*
X208200000Y-76000009D02*
G75*
G03*
X204444366Y-77555635I0J-5311291D01*
G01*
X211835982Y-73007342D02*
G75*
G03*
X211432000Y-72032000I-1379282J42D01*
G01*
X202133368Y-79866642D02*
G75*
G03*
X201550000Y-81275000I1408332J-1408358D01*
G01*
X209384594Y-75999996D02*
G75*
G03*
X211117999Y-75281999I6J2451396D01*
G01*
X211432012Y-72031988D02*
G75*
G03*
X210456657Y-71628000I-975312J-975312D01*
G01*
%TO.N,Net-(D27-A)*%
X211836000Y-64514564D02*
X211836000Y-61468000D01*
X214500000Y-73000000D02*
X214500000Y-73350000D01*
X213360000Y-66078162D02*
X213360000Y-65996000D01*
X207927297Y-80272702D02*
X214252512Y-73947487D01*
X207450000Y-81425000D02*
X207450000Y-82100000D01*
X212853435Y-65532000D02*
X212896000Y-65532000D01*
X213630000Y-66730000D02*
X213900000Y-67000000D01*
X214252518Y-73947493D02*
G75*
G03*
X214500000Y-73350000I-597518J597493D01*
G01*
X211836015Y-64514564D02*
G75*
G03*
X212134000Y-65234000I1017385J-36D01*
G01*
X207927296Y-80272701D02*
G75*
G03*
X207450000Y-81425000I1152304J-1152299D01*
G01*
X212133990Y-65234010D02*
G75*
G03*
X212853435Y-65532000I719410J719410D01*
G01*
X213360000Y-65996000D02*
G75*
G03*
X212896000Y-65532000I-464000J0D01*
G01*
X213360016Y-66078162D02*
G75*
G03*
X213630000Y-66730000I921784J-38D01*
G01*
%TO.N,Net-(D32-A)*%
X212272000Y-55880000D02*
X212408000Y-55880000D01*
X215800000Y-60694041D02*
X215800000Y-73267588D01*
X196614000Y-55117521D02*
X196614000Y-55880000D01*
X196931521Y-54800000D02*
X211480921Y-54800000D01*
X211836000Y-55155078D02*
X211836000Y-55444000D01*
X213384465Y-56284465D02*
X214390000Y-57290000D01*
X213350000Y-79182411D02*
X213350000Y-82100000D01*
X211836000Y-55444000D02*
G75*
G03*
X212272000Y-55880000I436000J0D01*
G01*
X215799953Y-60694041D02*
G75*
G03*
X214390000Y-57290000I-4814053J41D01*
G01*
X211731994Y-54904006D02*
G75*
G03*
X211480921Y-54800000I-251094J-251094D01*
G01*
X214575003Y-76225003D02*
G75*
G03*
X215800000Y-73267588I-2957403J2957403D01*
G01*
X214574997Y-76224997D02*
G75*
G03*
X213350000Y-79182411I2957403J-2957403D01*
G01*
X196931521Y-54800010D02*
G75*
G03*
X196707001Y-54893001I-21J-317490D01*
G01*
X211836009Y-55155078D02*
G75*
G03*
X211732000Y-54904000I-355109J-22D01*
G01*
X196706994Y-54892994D02*
G75*
G03*
X196614000Y-55117521I224506J-224506D01*
G01*
X213384459Y-56284471D02*
G75*
G03*
X212408000Y-55880000I-976459J-976429D01*
G01*
%TO.N,Net-(D33-A)*%
X204199857Y-55900000D02*
X203200000Y-55900000D01*
X210400000Y-80568198D02*
X210400000Y-82100000D01*
X215250000Y-63194543D02*
X215250000Y-71932432D01*
X201225357Y-55880000D02*
X200424000Y-55880000D01*
X213656207Y-75780188D02*
X211483147Y-77953248D01*
X205490000Y-55890000D02*
X205500000Y-55900000D01*
X213875000Y-59875000D02*
X212500000Y-58500000D01*
X205465857Y-55880000D02*
X204248142Y-55880000D01*
X201259500Y-55900000D02*
X201249500Y-55890000D01*
X211483148Y-77953249D02*
G75*
G03*
X210400000Y-80568198I2614952J-2614951D01*
G01*
X204199857Y-55899982D02*
G75*
G03*
X204224000Y-55890000I43J34082D01*
G01*
X213656202Y-75780183D02*
G75*
G03*
X215250000Y-71932432I-3847802J3847783D01*
G01*
X204248142Y-55880018D02*
G75*
G03*
X204224000Y-55890000I-42J-34082D01*
G01*
X205490012Y-55889988D02*
G75*
G03*
X205465857Y-55880000I-24112J-24112D01*
G01*
X215249981Y-63194543D02*
G75*
G03*
X213874999Y-59875001I-4694481J43D01*
G01*
X201249512Y-55889988D02*
G75*
G03*
X201225357Y-55880000I-24112J-24112D01*
G01*
%TO.N,/TopGround*%
X161137415Y-63862584D02*
X159636396Y-65363603D01*
X162927999Y-67931999D02*
X163020581Y-67839418D01*
X209594500Y-55880000D02*
X209403000Y-55880000D01*
X163437500Y-54137500D02*
X163987500Y-54687500D01*
X177800000Y-62764000D02*
X177800000Y-62214364D01*
X202184000Y-57292000D02*
X202184000Y-55880000D01*
X194555000Y-67154500D02*
X194555000Y-64600000D01*
X193040000Y-62961000D02*
X193040000Y-62965070D01*
X162149452Y-63491000D02*
X162116606Y-63491000D01*
X193040000Y-63009842D02*
X193040000Y-63007351D01*
X193040000Y-63498938D02*
X193040000Y-63556761D01*
X162194613Y-63491000D02*
X162182296Y-63491000D01*
X193040000Y-63850810D02*
X193040000Y-63858613D01*
X208765420Y-61734579D02*
X208656000Y-61844000D01*
X162063236Y-63491000D02*
X162055025Y-63491000D01*
X178233500Y-69333000D02*
X177800000Y-69333000D01*
X163583069Y-63491000D02*
X163375339Y-63491000D01*
X193040000Y-63636597D02*
X193040000Y-63650395D01*
X193040000Y-63068405D02*
X193040000Y-63105038D01*
X193040000Y-63235444D02*
X193040000Y-63254637D01*
X162071447Y-63491000D02*
X162083763Y-63491000D01*
X193040000Y-63136442D02*
X193040000Y-63146408D01*
X164082322Y-63491000D02*
X164023406Y-63491000D01*
X162740640Y-63491000D02*
X162707796Y-63491000D01*
X162937702Y-63491000D02*
X163003389Y-63491000D01*
X193040000Y-63009842D02*
X193040000Y-63029445D01*
X164023406Y-63491000D02*
X163905575Y-63491000D01*
X162904858Y-63491000D02*
X162872014Y-63491000D01*
X178264000Y-63228000D02*
X178319292Y-63228000D01*
X163905575Y-63491000D02*
X163846660Y-63491000D01*
X193040000Y-63672407D02*
X193040000Y-63664193D01*
X206595908Y-57300000D02*
X202192000Y-57300000D01*
X162046815Y-63491000D02*
X162038605Y-63491000D01*
X193040000Y-63390628D02*
X193040000Y-63468384D01*
X193040000Y-63650395D02*
X193040000Y-63664193D01*
X193040000Y-63997340D02*
X193040000Y-64004814D01*
X193040000Y-64019435D02*
X193040000Y-64034056D01*
X162034500Y-63491000D02*
X162038605Y-63491000D01*
X178800364Y-61214000D02*
X178846000Y-61214000D01*
X162560000Y-68820430D02*
X162560000Y-69587000D01*
X163583069Y-63491000D02*
X163610999Y-63491000D01*
X155925000Y-70350000D02*
X155400000Y-70350000D01*
X173399707Y-54600000D02*
X173398292Y-54600000D01*
X193040000Y-63872904D02*
X193040000Y-63887195D01*
X178914262Y-59714262D02*
X173941774Y-54741774D01*
X192671597Y-62071597D02*
X186794792Y-56194792D01*
X163282352Y-63491000D02*
X163375339Y-63491000D01*
X161898438Y-53500000D02*
X154700000Y-53500000D01*
X208607999Y-67891999D02*
X208635479Y-67864520D01*
X193040000Y-63887195D02*
X193040000Y-63931303D01*
X163282352Y-63491000D02*
X163260596Y-63491000D01*
X193040000Y-63945759D02*
X193040000Y-63960215D01*
X209573500Y-67564000D02*
X209361000Y-67564000D01*
X193387999Y-67911999D02*
X193446439Y-67853560D01*
X162806326Y-63491000D02*
X162773483Y-63491000D01*
X162211033Y-63491000D02*
X162202823Y-63491000D01*
X193040000Y-64051251D02*
X193040000Y-64056152D01*
X162046815Y-63491000D02*
X162055025Y-63491000D01*
X193040000Y-68752146D02*
X193040000Y-69578000D01*
X209786000Y-64513092D02*
X209786000Y-67351500D01*
X162621580Y-63491000D02*
X162646213Y-63491000D01*
X164075000Y-54898743D02*
X164075000Y-55880000D01*
X162662635Y-63491000D02*
X162654424Y-63491000D01*
X193040000Y-64041449D02*
X193040000Y-64051251D01*
X179306000Y-67310000D02*
X179306000Y-68242158D01*
X209597500Y-61468000D02*
X209409000Y-61468000D01*
X182947036Y-54601000D02*
X173400707Y-54601000D01*
X162182296Y-63491000D02*
X162149452Y-63491000D01*
X173398292Y-54600000D02*
X164373743Y-54600000D01*
X164057322Y-67564000D02*
X163685500Y-67564000D01*
X193040000Y-63146408D02*
X193040000Y-63156374D01*
X162654424Y-63491000D02*
X162646213Y-63491000D01*
X193040000Y-62965070D02*
X193040000Y-62973210D01*
X193040000Y-64004814D02*
X193040000Y-64019435D01*
X193040000Y-63960215D02*
X193040000Y-63967771D01*
X193040000Y-63235115D02*
X193040000Y-63235444D01*
X193040000Y-63234457D02*
X193040000Y-63234786D01*
X162317775Y-63491000D02*
X162276720Y-63491000D01*
X208280000Y-68683862D02*
X208280000Y-69578000D01*
X179306000Y-60754000D02*
X179306000Y-60660000D01*
X201342000Y-58158000D02*
X202178343Y-57321656D01*
X179306000Y-67310000D02*
X179306000Y-64214707D01*
X162202823Y-63491000D02*
X162194613Y-63491000D01*
X162773483Y-63491000D02*
X162740640Y-63491000D01*
X193040000Y-62992731D02*
X193040000Y-63007351D01*
X193040000Y-64041449D02*
X193040000Y-64034056D01*
X197028133Y-59000000D02*
X199309232Y-59000000D01*
X193040000Y-62978111D02*
X193040000Y-62992731D01*
X162494310Y-63491000D02*
X162362935Y-63491000D01*
X193040000Y-63858613D02*
X193040000Y-63872904D01*
X163167608Y-63491000D02*
X163003389Y-63491000D01*
X193040000Y-63234786D02*
X193040000Y-63235115D01*
X193040000Y-63672407D02*
X193040000Y-63702634D01*
X193040000Y-63556761D02*
X193040000Y-63614584D01*
X208749178Y-56150821D02*
X208310000Y-56590000D01*
X162937702Y-63491000D02*
X162904858Y-63491000D01*
X162116606Y-63491000D02*
X162083763Y-63491000D01*
X195058500Y-61980500D02*
X194904503Y-61826503D01*
X193040000Y-63048966D02*
X193040000Y-63068405D01*
X193040000Y-63105038D02*
X193040000Y-63129296D01*
X193040000Y-63967771D02*
X193040000Y-63997340D01*
X193040000Y-63931303D02*
X193040000Y-63945759D01*
X193040000Y-63029445D02*
X193040000Y-63029527D01*
X162494310Y-63491000D02*
X162539470Y-63491000D01*
X208280000Y-62751744D02*
X208280000Y-63244546D01*
X193040000Y-63254637D02*
X193040000Y-63293351D01*
X163238840Y-63491000D02*
X163167608Y-63491000D01*
X199293595Y-62493000D02*
X196295784Y-62493000D01*
X164075000Y-61468000D02*
X164075000Y-55880000D01*
X173399707Y-54600000D02*
X173599500Y-54600000D01*
X162707796Y-63491000D02*
X162674952Y-63491000D01*
X162235665Y-63491000D02*
X162211033Y-63491000D01*
X193040000Y-63702634D02*
X193040000Y-63732861D01*
X202184000Y-57308000D02*
X202184000Y-57292000D01*
X162621580Y-63491000D02*
X162580525Y-63491000D01*
X193483847Y-64500000D02*
X198373041Y-64500000D01*
X193040000Y-63614584D02*
X193040000Y-63636597D01*
X199455475Y-63998276D02*
X199364375Y-64089375D01*
X209786000Y-56071500D02*
X209786000Y-61279500D01*
X193040000Y-63156374D02*
X193040000Y-63166340D01*
X193040000Y-63791014D02*
X193040000Y-63732861D01*
X178986500Y-69013500D02*
X178973530Y-69026469D01*
X162071447Y-63491000D02*
X162063236Y-63491000D01*
X193040000Y-63136442D02*
X193040000Y-63129296D01*
X193040000Y-63312872D02*
X193040000Y-63390628D01*
X163846660Y-63491000D02*
X163610999Y-63491000D01*
X162362935Y-63491000D02*
X162317775Y-63491000D01*
X162580525Y-63491000D02*
X162539470Y-63491000D01*
X162806326Y-63491000D02*
X162872014Y-63491000D01*
X164100000Y-67521322D02*
X164100000Y-63508677D01*
X162276720Y-63491000D02*
X162235665Y-63491000D01*
X193040000Y-63312872D02*
X193040000Y-63293351D01*
X193040000Y-63029527D02*
X193040000Y-63048966D01*
X193040000Y-63791014D02*
X193040000Y-63820912D01*
X163260596Y-63491000D02*
X163238840Y-63491000D01*
X193040000Y-62978111D02*
X193040000Y-62973210D01*
X162662635Y-63491000D02*
X162674952Y-63491000D01*
X156821230Y-69978768D02*
X158363603Y-68436396D01*
X199775000Y-63226876D02*
X199775000Y-62974404D01*
X193040000Y-63498938D02*
X193040000Y-63468384D01*
X208754907Y-63482000D02*
X208517453Y-63482000D01*
X195272999Y-59726999D02*
X194904503Y-60095496D01*
X193040000Y-63166340D02*
X193040000Y-63234457D01*
X193040000Y-63820912D02*
X193040000Y-63850810D01*
X164075000Y-61468000D02*
X164075000Y-63448322D01*
X202178341Y-57321654D02*
G75*
G03*
X202184000Y-57308000I-13641J13654D01*
G01*
X206595908Y-57300003D02*
G75*
G03*
X208310000Y-56590000I-8J2424103D01*
G01*
X164087493Y-67551493D02*
G75*
G03*
X164100000Y-67521322I-30193J30193D01*
G01*
X199309232Y-59000013D02*
G75*
G03*
X201342000Y-58158000I-32J2874813D01*
G01*
X158363605Y-68436398D02*
G75*
G03*
X159000000Y-66900000I-1536405J1536398D01*
G01*
X179305996Y-64214707D02*
G75*
G03*
X179016999Y-63517001I-986696J7D01*
G01*
X197028133Y-59000013D02*
G75*
G03*
X195272999Y-59726999I-33J-2482087D01*
G01*
X159636395Y-65363602D02*
G75*
G03*
X159000000Y-66900000I1536405J-1536398D01*
G01*
X209403000Y-55879987D02*
G75*
G03*
X208749178Y-56150821I0J-924613D01*
G01*
X202192000Y-57300000D02*
G75*
G03*
X202184000Y-57308000I0J-8000D01*
G01*
X163437489Y-54137511D02*
G75*
G03*
X161898438Y-53500000I-1539089J-1539089D01*
G01*
X178800364Y-61213986D02*
G75*
G03*
X178093000Y-61507000I36J-1000414D01*
G01*
X209361000Y-67563988D02*
G75*
G03*
X208635479Y-67864520I0J-1026012D01*
G01*
X202184000Y-57292000D02*
G75*
G03*
X202192000Y-57300000I8000J0D01*
G01*
X178233500Y-69332988D02*
G75*
G03*
X178973530Y-69026469I0J1046588D01*
G01*
X164074981Y-54898743D02*
G75*
G03*
X163987499Y-54687501I-298681J43D01*
G01*
X164074991Y-63448322D02*
G75*
G03*
X164087500Y-63478500I42709J22D01*
G01*
X193387986Y-67911986D02*
G75*
G03*
X193040000Y-68752146I840114J-840114D01*
G01*
X195058505Y-61980495D02*
G75*
G03*
X196295784Y-62493000I1237295J1237295D01*
G01*
X164082322Y-63491053D02*
G75*
G03*
X164087499Y-63478501I-22J7353D01*
G01*
X163685500Y-67563989D02*
G75*
G03*
X163020581Y-67839418I0J-940311D01*
G01*
X164100000Y-63508677D02*
G75*
G03*
X164082322Y-63491000I-17700J-23D01*
G01*
X178846000Y-61214000D02*
G75*
G03*
X179306000Y-60754000I0J460000D01*
G01*
X194545999Y-60961000D02*
G75*
G03*
X194904504Y-61826502I1224001J0D01*
G01*
X173399498Y-54600502D02*
G75*
G03*
X173400707Y-54601000I1202J1202D01*
G01*
X209597500Y-61468000D02*
G75*
G03*
X209786000Y-61279500I0J188500D01*
G01*
X209483998Y-63784002D02*
G75*
G03*
X208754907Y-63482000I-729098J-729098D01*
G01*
X209409000Y-61468012D02*
G75*
G03*
X208765420Y-61734579I0J-910188D01*
G01*
X193169986Y-64370014D02*
G75*
G03*
X193483847Y-64500000I313814J313814D01*
G01*
X164373743Y-54600019D02*
G75*
G03*
X164162501Y-54687501I-43J-298681D01*
G01*
X164162487Y-54687487D02*
G75*
G03*
X164075000Y-54898743I211213J-211213D01*
G01*
X208280000Y-63244546D02*
G75*
G03*
X208517453Y-63482000I237500J46D01*
G01*
X163987500Y-54687500D02*
G75*
G03*
X164162500Y-54687500I87500J87502D01*
G01*
X209573500Y-67564000D02*
G75*
G03*
X209786000Y-67351500I0J212500D01*
G01*
X209786003Y-64513092D02*
G75*
G03*
X209484000Y-63784000I-1031103J-8D01*
G01*
X193040020Y-64056152D02*
G75*
G03*
X193170000Y-64370000I443780J-48D01*
G01*
X164100009Y-63508677D02*
G75*
G03*
X164087500Y-63478500I-42709J-23D01*
G01*
X198373041Y-64500015D02*
G75*
G03*
X199364374Y-64089374I-41J1402015D01*
G01*
X194904505Y-60095498D02*
G75*
G03*
X194546000Y-60961000I865495J-865502D01*
G01*
X162927991Y-67931991D02*
G75*
G03*
X162560000Y-68820430I888409J-888409D01*
G01*
X155925000Y-70349987D02*
G75*
G03*
X156821230Y-69978768I0J1267487D01*
G01*
X208608011Y-67892011D02*
G75*
G03*
X208280000Y-68683862I791889J-791889D01*
G01*
X173399707Y-54600018D02*
G75*
G03*
X173399501Y-54600499I-7J-282D01*
G01*
X193040001Y-62961000D02*
G75*
G03*
X192671597Y-62071597I-1257801J0D01*
G01*
X209786000Y-56071500D02*
G75*
G03*
X209594500Y-55880000I-191500J0D01*
G01*
X179305992Y-60660000D02*
G75*
G03*
X178914262Y-59714262I-1337492J0D01*
G01*
X177800000Y-62764000D02*
G75*
G03*
X178264000Y-63228000I464000J0D01*
G01*
X173399502Y-54600498D02*
G75*
G03*
X173398292Y-54600000I-1202J-1202D01*
G01*
X199455482Y-63998283D02*
G75*
G03*
X199775000Y-63226876I-771382J771383D01*
G01*
X162034500Y-63491009D02*
G75*
G03*
X161137415Y-63862584I0J-1268691D01*
G01*
X173941764Y-54741784D02*
G75*
G03*
X173599500Y-54600000I-342264J-342216D01*
G01*
X199774998Y-62974404D02*
G75*
G03*
X199634000Y-62634000I-481398J4D01*
G01*
X178093010Y-61507010D02*
G75*
G03*
X177800000Y-62214364I707390J-707390D01*
G01*
X199634001Y-62633999D02*
G75*
G03*
X199293595Y-62493000I-340401J-340401D01*
G01*
X194145500Y-67564000D02*
G75*
G03*
X194555000Y-67154500I0J409500D01*
G01*
X178986533Y-69013533D02*
G75*
G03*
X179306000Y-68242158I-771433J771333D01*
G01*
X208655987Y-61843987D02*
G75*
G03*
X208280000Y-62751744I907713J-907713D01*
G01*
X164057322Y-67564009D02*
G75*
G03*
X164087500Y-67551500I-22J42709D01*
G01*
X179017002Y-63516998D02*
G75*
G03*
X178319292Y-63228000I-697702J-697702D01*
G01*
X186794784Y-56194800D02*
G75*
G03*
X182947036Y-54601000I-3847784J-3847800D01*
G01*
X194145500Y-67563994D02*
G75*
G03*
X193446439Y-67853560I0J-988606D01*
G01*
%TO.N,/BottomGround*%
X213360000Y-69684068D02*
X213360000Y-69704049D01*
X171695000Y-73506325D02*
X171695000Y-73491577D01*
X171695000Y-73937096D02*
X171695000Y-73973904D01*
X153400000Y-62857031D02*
X153400000Y-62871093D01*
X208237534Y-73237534D02*
X207581898Y-72581898D01*
X202637500Y-74937500D02*
X202463146Y-74763146D01*
X213360000Y-70025432D02*
X213360000Y-70077720D01*
X171695000Y-74195383D02*
X171695000Y-74190215D01*
X167640000Y-56298241D02*
X167640000Y-63115500D01*
X209786000Y-73860000D02*
X209786000Y-74078000D01*
X213360000Y-70156152D02*
X213360000Y-70149616D01*
X200727500Y-74172500D02*
X200909427Y-73990572D01*
X171695000Y-73418327D02*
X171695000Y-73447822D01*
X213360000Y-69350258D02*
X213360000Y-69332961D01*
X184100000Y-66137329D02*
X184100000Y-64033754D01*
X171695000Y-73131660D02*
X171695000Y-73139980D01*
X209343000Y-74957000D02*
X209477701Y-74822298D01*
X213360000Y-69266655D02*
X213360000Y-69289717D01*
X171695000Y-74091761D02*
X171695000Y-74052052D01*
X199490215Y-74685000D02*
X194947634Y-74685000D01*
X153400000Y-63946875D02*
X153400000Y-64003125D01*
X213360000Y-69209000D02*
X213360000Y-69211882D01*
X171695000Y-73987774D02*
X171695000Y-73996842D01*
X199958125Y-70058125D02*
X201685328Y-71785328D01*
X213360000Y-70097328D02*
X213360000Y-70110400D01*
X171695000Y-74114332D02*
X171695000Y-74135003D01*
X171695000Y-73418327D02*
X171695000Y-73379374D01*
X153400000Y-63194530D02*
X153400000Y-63152343D01*
X153400000Y-63412500D02*
X153400000Y-63335156D01*
X171695000Y-73239066D02*
X171695000Y-73276508D01*
X171695000Y-74157941D02*
X171695000Y-74174078D01*
X209568000Y-73642000D02*
X209214000Y-73642000D01*
X171695000Y-73144391D02*
X171695000Y-73139980D01*
X153400000Y-62885155D02*
X153400000Y-62899218D01*
X186431186Y-71731186D02*
X184428465Y-69728465D01*
X213360000Y-69439625D02*
X213360000Y-69407914D01*
X213360000Y-69243593D02*
X213360000Y-69266655D01*
X213360000Y-69771647D02*
X213360000Y-69839245D01*
X153400000Y-64509375D02*
X153400000Y-64790625D01*
X213360000Y-69868568D02*
X213360000Y-69920856D01*
X153400000Y-63925781D02*
X153400000Y-63946875D01*
X171695000Y-73831473D02*
X171695000Y-73834008D01*
X153400000Y-62934375D02*
X153400000Y-62990625D01*
X171695000Y-73327185D02*
X171695000Y-73330208D01*
X157200000Y-58600000D02*
X158350000Y-58600000D01*
X213360000Y-69611799D02*
X213360000Y-69597981D01*
X213360000Y-69920856D02*
X213360000Y-69973144D01*
X162598576Y-75999166D02*
X159052513Y-75999166D01*
X213360000Y-70077720D02*
X213360000Y-70097328D01*
X153400000Y-64115625D02*
X153400000Y-64171875D01*
X167762500Y-56002500D02*
X167885000Y-55880000D01*
X214079999Y-68119999D02*
X213620922Y-68579077D01*
X171695000Y-73195069D02*
X171695000Y-73212717D01*
X153400000Y-63124219D02*
X153400000Y-63103125D01*
X194564000Y-56392500D02*
X194564000Y-55880000D01*
X213360000Y-69211882D02*
X213360000Y-69217647D01*
X171695000Y-73177421D02*
X171695000Y-73176665D01*
X213360000Y-69636451D02*
X213360000Y-69648777D01*
X183270322Y-67829677D02*
X183490000Y-67610000D01*
X199200000Y-63482000D02*
X198120000Y-63482000D01*
X153400000Y-66100000D02*
X153400000Y-66031250D01*
X171695000Y-73144391D02*
X171695000Y-73160528D01*
X153400000Y-63637500D02*
X153400000Y-63714844D01*
X213360000Y-69229179D02*
X213360000Y-69234945D01*
X213360000Y-69439625D02*
X213360000Y-69531875D01*
X207200000Y-71487400D02*
X207200000Y-71659913D01*
X202175000Y-72967500D02*
X202175000Y-73252500D01*
X153400000Y-62871093D02*
X153400000Y-62885155D01*
X171695000Y-74174078D02*
X171695000Y-74190215D01*
X153718197Y-62081801D02*
X154050509Y-61749490D01*
X213360000Y-70136544D02*
X213360000Y-70123472D01*
X186935000Y-73172500D02*
X186935000Y-74147500D01*
X153400000Y-63412500D02*
X153400000Y-63637500D01*
X186447500Y-73660000D02*
X186437500Y-73660000D01*
X213360000Y-69611799D02*
X213360000Y-69624125D01*
X171695000Y-74091761D02*
X171695000Y-74113699D01*
X195076500Y-56905000D02*
X196624215Y-56905000D01*
X171695000Y-73127500D02*
X171695000Y-73131660D01*
X167640000Y-69173500D02*
X167640000Y-69123500D01*
X212916152Y-70600000D02*
X208087400Y-70600000D01*
X171695000Y-73321139D02*
X171695000Y-73324162D01*
X213205000Y-62405000D02*
X213050000Y-62250000D01*
X213360000Y-69223413D02*
X213360000Y-69217647D01*
X182880000Y-62854000D02*
X182880000Y-61704000D01*
X171695000Y-73215617D02*
X171695000Y-73212717D01*
X187279714Y-74979714D02*
X187380000Y-75080000D01*
X153400000Y-62913281D02*
X153400000Y-62934375D01*
X171695000Y-73468371D02*
X171695000Y-73479974D01*
X153400000Y-65432030D02*
X153400000Y-65083593D01*
X171695000Y-73937096D02*
X171695000Y-73892853D01*
X168053500Y-69587000D02*
X167226500Y-69587000D01*
X153400000Y-63714844D02*
X153400000Y-63785156D01*
X183823187Y-74900000D02*
X172386378Y-74900000D01*
X171695000Y-73826403D02*
X171695000Y-73828938D01*
X171695000Y-73345589D02*
X171695000Y-73379374D01*
X213360000Y-69243593D02*
X213360000Y-69234945D01*
X213360000Y-69624125D02*
X213360000Y-69636451D01*
X194157500Y-73660000D02*
X194147500Y-73660000D01*
X213360000Y-62779203D02*
X213360000Y-63482000D01*
X153400000Y-63897655D02*
X153400000Y-63855468D01*
X153400000Y-64982031D02*
X153400000Y-65083593D01*
X193500000Y-58721361D02*
X193500000Y-61293489D01*
X201767500Y-73660000D02*
X201707500Y-73660000D01*
X171695000Y-73160528D02*
X171695000Y-73176665D01*
X153400000Y-64003125D02*
X153400000Y-64059375D01*
X171695000Y-74024313D02*
X171695000Y-74052052D01*
X213360000Y-69350258D02*
X213360000Y-69379086D01*
X171695000Y-74024313D02*
X171695000Y-74014978D01*
X213360000Y-69558019D02*
X213360000Y-69597981D01*
X153400000Y-63911718D02*
X153400000Y-63925781D01*
X153400000Y-63897655D02*
X153400000Y-63911718D01*
X153400000Y-64059375D02*
X153400000Y-64115625D01*
X158905322Y-75996882D02*
X158932612Y-75996882D01*
X182880000Y-69048000D02*
X182880000Y-68772000D01*
X213360000Y-69321429D02*
X213360000Y-69327195D01*
X171695000Y-73658990D02*
X171695000Y-73735627D01*
X171695000Y-73834008D02*
X171695000Y-73852778D01*
X153400000Y-64880469D02*
X153400000Y-64982031D01*
X168053500Y-69587000D02*
X168163500Y-69587000D01*
X171695000Y-74155674D02*
X171695000Y-74157941D01*
X171695000Y-73763757D02*
X171695000Y-73806366D01*
X155400000Y-64100000D02*
X153400000Y-64100000D01*
X213360000Y-69379086D02*
X213360000Y-69407914D01*
X213360000Y-69289717D02*
X213360000Y-69312780D01*
X171695000Y-73456768D02*
X171695000Y-73447822D01*
X171695000Y-73215617D02*
X171695000Y-73239066D01*
X179350000Y-74131801D02*
X179350000Y-73600000D01*
X171695000Y-73828938D02*
X171695000Y-73831473D01*
X171695000Y-74195383D02*
X171695000Y-74204208D01*
X158897795Y-76000000D02*
X158450000Y-76000000D01*
X171695000Y-73506325D02*
X171695000Y-73547423D01*
X171695000Y-74113699D02*
X171695000Y-74114332D01*
X179177297Y-74620512D02*
X178897809Y-74900000D01*
X213360000Y-69704049D02*
X213360000Y-69771647D01*
X171695000Y-73973904D02*
X171695000Y-73987774D01*
X213360000Y-69321429D02*
X213360000Y-69312780D01*
X153400000Y-65772656D02*
X153400000Y-65893750D01*
X213360000Y-69327195D02*
X213360000Y-69332961D01*
X214086429Y-63482000D02*
X213360000Y-63482000D01*
X153400000Y-62990625D02*
X153400000Y-63046875D01*
X183254000Y-63228000D02*
X183294245Y-63228000D01*
X183452000Y-69324000D02*
X183156000Y-69324000D01*
X171695000Y-73826403D02*
X171695000Y-73806366D01*
X171695000Y-73456768D02*
X171695000Y-73468371D01*
X153400000Y-64509375D02*
X153400000Y-64396875D01*
X171695000Y-73735627D02*
X171695000Y-73763757D01*
X213360000Y-70136544D02*
X213360000Y-70149616D01*
X181802369Y-59102369D02*
X179664664Y-56964664D01*
X213360000Y-69839245D02*
X213360000Y-69868568D01*
X154094500Y-61738000D02*
X154078250Y-61738000D01*
X185588214Y-74011785D02*
X185319999Y-74279999D01*
X153400000Y-65602343D02*
X153400000Y-65772656D01*
X194032000Y-57437000D02*
X194201607Y-57267392D01*
X171695000Y-73177421D02*
X171695000Y-73195069D01*
X169057170Y-69957170D02*
X171318465Y-72218465D01*
X171695000Y-73996842D02*
X171695000Y-74005910D01*
X203754073Y-75400000D02*
X208273503Y-75400000D01*
X214800000Y-64195570D02*
X214800000Y-66381766D01*
X195688510Y-63482000D02*
X198120000Y-63482000D01*
X153400000Y-65893750D02*
X153400000Y-66031250D01*
X153400000Y-63194530D02*
X153400000Y-63264843D01*
X171695000Y-74005910D02*
X171695000Y-74014978D01*
X153400000Y-63138281D02*
X153400000Y-63152343D01*
X186935000Y-73172500D02*
X186935000Y-72947500D01*
X153400000Y-64284375D02*
X153400000Y-64340625D01*
X194555000Y-74057500D02*
X194555000Y-74292365D01*
X153400000Y-63785156D02*
X153400000Y-63855468D01*
X213360000Y-69656432D02*
X213360000Y-69684068D01*
X190556245Y-75525000D02*
X188454325Y-75525000D01*
X153400000Y-65432030D02*
X153400000Y-65602343D01*
X192807499Y-74592499D02*
X193451853Y-73948146D01*
X153400000Y-63046875D02*
X153400000Y-63103125D01*
X153400000Y-62850000D02*
X153400000Y-62857031D01*
X213360000Y-69973144D02*
X213360000Y-70025432D01*
X171695000Y-73582353D02*
X171695000Y-73658990D01*
X153400000Y-62899218D02*
X153400000Y-62913281D01*
X168152500Y-68147500D02*
X167967743Y-68332256D01*
X213360000Y-69531875D02*
X213360000Y-69558019D01*
X171695000Y-73582353D02*
X171695000Y-73547423D01*
X168665000Y-66910215D02*
X168665000Y-63958747D01*
X166520611Y-69879388D02*
X164546993Y-71853006D01*
X156455000Y-74281767D02*
X156455000Y-72655000D01*
X171695000Y-74135003D02*
X171695000Y-74155674D01*
X171695000Y-73307270D02*
X171695000Y-73321139D01*
X197861500Y-56392500D02*
X198374000Y-55880000D01*
X179315000Y-56120500D02*
X179315000Y-55626000D01*
X213360000Y-69223413D02*
X213360000Y-69229179D01*
X171695000Y-73345589D02*
X171695000Y-73330208D01*
X153400000Y-63124219D02*
X153400000Y-63138281D01*
X198799000Y-69578000D02*
X198120000Y-69578000D01*
X153400000Y-64340625D02*
X153400000Y-64396875D01*
X162849999Y-76000000D02*
X162600589Y-76000000D01*
X213360000Y-69656432D02*
X213360000Y-69648777D01*
X171695000Y-73276508D02*
X171695000Y-73307270D01*
X202175000Y-73252500D02*
X202175000Y-74067500D01*
X157681801Y-75681801D02*
X156577500Y-74577500D01*
X171695000Y-73324162D02*
X171695000Y-73327185D01*
X213360000Y-70110400D02*
X213360000Y-70123472D01*
X163276775Y-75823223D02*
X163588743Y-75511256D01*
X171695000Y-74208621D02*
X171695000Y-74204208D01*
X168015500Y-63491000D02*
X168197252Y-63491000D01*
X171695000Y-73852778D02*
X171695000Y-73892853D01*
X171695000Y-73479974D02*
X171695000Y-73491577D01*
X164077487Y-72865869D02*
X164077487Y-74331325D01*
X153400000Y-63264843D02*
X153400000Y-63335156D01*
X153400000Y-64171875D02*
X153400000Y-64284375D01*
X153400000Y-64790625D02*
X153400000Y-64880469D01*
X168152495Y-68147495D02*
G75*
G03*
X168665000Y-66910215I-1237295J1237295D01*
G01*
X154078250Y-61738026D02*
G75*
G03*
X154050509Y-61749490I-50J-39174D01*
G01*
X158932612Y-75996881D02*
G75*
G03*
X159052513Y-75999165I395588J17618181D01*
G01*
X162849999Y-75999984D02*
G75*
G03*
X163276774Y-75823222I1J603584D01*
G01*
X207459913Y-70859913D02*
G75*
G03*
X207200000Y-71487400I627487J-627487D01*
G01*
X184100018Y-64033754D02*
G75*
G03*
X183863999Y-63464001I-805818J-46D01*
G01*
X194564000Y-56392500D02*
G75*
G03*
X195076500Y-56905000I512500J0D01*
G01*
X167967741Y-68332254D02*
G75*
G03*
X167640000Y-69123500I791259J-791246D01*
G01*
X208273503Y-75400001D02*
G75*
G03*
X209343000Y-74957000I-3J1512501D01*
G01*
X194201611Y-57267396D02*
G75*
G03*
X194564000Y-56392500I-874911J874896D01*
G01*
X182880000Y-62854000D02*
G75*
G03*
X183254000Y-63228000I374000J0D01*
G01*
X183270332Y-67829687D02*
G75*
G03*
X182880000Y-68772000I942268J-942313D01*
G01*
X213230035Y-70470035D02*
G75*
G03*
X213360000Y-70156152I-313935J313835D01*
G01*
X190556245Y-75525017D02*
G75*
G03*
X192807499Y-74592499I-45J3183817D01*
G01*
X183489991Y-67609991D02*
G75*
G03*
X184100000Y-66137329I-1472691J1472691D01*
G01*
X168528014Y-63627986D02*
G75*
G03*
X168197252Y-63491000I-330714J-330714D01*
G01*
X202175012Y-72967500D02*
G75*
G03*
X201685328Y-71785328I-1671812J0D01*
G01*
X167226500Y-69587000D02*
G75*
G03*
X167640000Y-69173500I0J413500D01*
G01*
X196624215Y-56905006D02*
G75*
G03*
X197861500Y-56392500I-15J1749806D01*
G01*
X183863987Y-63464013D02*
G75*
G03*
X183294245Y-63228000I-569787J-569787D01*
G01*
X186935007Y-72947500D02*
G75*
G03*
X186431185Y-71731187I-1720107J0D01*
G01*
X157681800Y-75681802D02*
G75*
G03*
X158450000Y-76000000I768200J768202D01*
G01*
X182879988Y-61704000D02*
G75*
G03*
X181802368Y-59102370I-3679288J0D01*
G01*
X194147500Y-73660002D02*
G75*
G03*
X193451853Y-73948146I0J-983798D01*
G01*
X202175000Y-74067500D02*
G75*
G03*
X201767500Y-73660000I-407500J0D01*
G01*
X202175003Y-74067500D02*
G75*
G03*
X202463146Y-74763146I983797J0D01*
G01*
X171694991Y-74208621D02*
G75*
G03*
X171897500Y-74697500I691409J21D01*
G01*
X179314992Y-56120500D02*
G75*
G03*
X179664664Y-56964664I1193808J0D01*
G01*
X209477702Y-74822299D02*
G75*
G03*
X209786000Y-74078000I-744302J744299D01*
G01*
X208237540Y-73237528D02*
G75*
G03*
X209214000Y-73642000I976460J976428D01*
G01*
X214590991Y-63691009D02*
G75*
G03*
X214086429Y-63482000I-504591J-504591D01*
G01*
X167640000Y-63115500D02*
G75*
G03*
X168015500Y-63491000I375500J0D01*
G01*
X167762488Y-56002488D02*
G75*
G03*
X167640000Y-56298241I295712J-295712D01*
G01*
X186437500Y-73660008D02*
G75*
G03*
X185588214Y-74011785I0J-1201092D01*
G01*
X209786000Y-73860000D02*
G75*
G03*
X209568000Y-73642000I-218000J0D01*
G01*
X195076500Y-56905004D02*
G75*
G03*
X194201607Y-57267392I0J-1237296D01*
G01*
X183823187Y-74899993D02*
G75*
G03*
X185319999Y-74279999I13J2116793D01*
G01*
X168665021Y-63958747D02*
G75*
G03*
X168527999Y-63628001I-467821J-53D01*
G01*
X202637508Y-74937492D02*
G75*
G03*
X203754073Y-75400000I1116592J1116592D01*
G01*
X184428459Y-69728471D02*
G75*
G03*
X183452000Y-69324000I-976459J-976429D01*
G01*
X213359998Y-62779203D02*
G75*
G03*
X213204999Y-62405001I-529198J3D01*
G01*
X199958114Y-70058136D02*
G75*
G03*
X198799000Y-69578000I-1159114J-1159064D01*
G01*
X194555000Y-74057500D02*
G75*
G03*
X194157500Y-73660000I-397500J0D01*
G01*
X163588733Y-75511246D02*
G75*
G03*
X164077487Y-74331325I-1179933J1179946D01*
G01*
X158897795Y-76000003D02*
G75*
G03*
X158901559Y-75998441I5J5303D01*
G01*
X213620932Y-68579087D02*
G75*
G03*
X213360000Y-69209000I629868J-629913D01*
G01*
X179177285Y-74620503D02*
G75*
G03*
X179349999Y-74131801I-614385J492003D01*
G01*
X201767500Y-73660000D02*
G75*
G03*
X202175000Y-73252500I0J407500D01*
G01*
X153718197Y-62081801D02*
G75*
G03*
X153400000Y-62850000I768203J-768199D01*
G01*
X167226500Y-69587006D02*
G75*
G03*
X166520611Y-69879388I0J-998294D01*
G01*
X194140997Y-62841003D02*
G75*
G03*
X195688510Y-63482000I1547503J1547503D01*
G01*
X214080010Y-68120010D02*
G75*
G03*
X214800000Y-66381766I-1738210J1738210D01*
G01*
X208087400Y-70600000D02*
G75*
G03*
X207459913Y-70859913I0J-887400D01*
G01*
X193500005Y-61293489D02*
G75*
G03*
X194141000Y-62841000I2188495J-11D01*
G01*
X194555015Y-74292365D02*
G75*
G03*
X194670000Y-74570000I392585J-35D01*
G01*
X162599593Y-75999573D02*
G75*
G03*
X162600589Y-76000000I1007J973D01*
G01*
X158905322Y-75996897D02*
G75*
G03*
X158901559Y-75998441I-22J-5303D01*
G01*
X186935000Y-74147500D02*
G75*
G03*
X186447500Y-73660000I-487500J0D01*
G01*
X171694990Y-73127500D02*
G75*
G03*
X171318464Y-72218466I-1285590J0D01*
G01*
X194032011Y-57437011D02*
G75*
G03*
X193500000Y-58721361I1284389J-1284389D01*
G01*
X186934992Y-74147500D02*
G75*
G03*
X187279714Y-74979714I1176908J0D01*
G01*
X186447500Y-73660000D02*
G75*
G03*
X186935000Y-73172500I0J487500D01*
G01*
X164546972Y-71852985D02*
G75*
G03*
X164077487Y-72865869I1156528J-1151315D01*
G01*
X201707500Y-73659987D02*
G75*
G03*
X200909428Y-73990573I0J-1128613D01*
G01*
X187379993Y-75080007D02*
G75*
G03*
X188454325Y-75525000I1074307J1074307D01*
G01*
X156455018Y-74281767D02*
G75*
G03*
X156577501Y-74577499I418182J-33D01*
G01*
X169057162Y-69957178D02*
G75*
G03*
X168163500Y-69587000I-893662J-893622D01*
G01*
X214800012Y-64195570D02*
G75*
G03*
X214591000Y-63691000I-713612J-30D01*
G01*
X182880000Y-69048000D02*
G75*
G03*
X183156000Y-69324000I276000J0D01*
G01*
X212916152Y-70599950D02*
G75*
G03*
X213229999Y-70469999I48J443850D01*
G01*
X199490215Y-74685006D02*
G75*
G03*
X200727500Y-74172500I-15J1749806D01*
G01*
X162599597Y-75999569D02*
G75*
G03*
X162598576Y-75999166I-997J-1031D01*
G01*
X207199996Y-71659913D02*
G75*
G03*
X207581899Y-72581897I1303904J13D01*
G01*
X167640000Y-69173500D02*
G75*
G03*
X168053500Y-69587000I413500J0D01*
G01*
X194669990Y-74570010D02*
G75*
G03*
X194947634Y-74685000I277610J277610D01*
G01*
X171897506Y-74697494D02*
G75*
G03*
X172386378Y-74900000I488894J488894D01*
G01*
%TO.N,Net-(D28-A)*%
X210996675Y-76069497D02*
X212625254Y-74440918D01*
X211836000Y-68864000D02*
X211836000Y-67564000D01*
X212000000Y-71200000D02*
X212214000Y-71414000D01*
X213360000Y-71942679D02*
X213360000Y-72667086D01*
X212730641Y-71628000D02*
X213045320Y-71628000D01*
X204500000Y-81300000D02*
X204500000Y-82100000D01*
X207469497Y-77530502D02*
X205065685Y-79934314D01*
X209233086Y-76799993D02*
G75*
G03*
X207469498Y-77530503I14J-2494107D01*
G01*
X212213988Y-71414012D02*
G75*
G03*
X212730641Y-71628000I516612J516612D01*
G01*
X213360000Y-71942679D02*
G75*
G03*
X213045320Y-71628000I-314700J-21D01*
G01*
X205065679Y-79934308D02*
G75*
G03*
X204500000Y-81300000I1365721J-1365692D01*
G01*
X209233086Y-76799987D02*
G75*
G03*
X210996675Y-76069497I14J2494087D01*
G01*
X212625266Y-74440930D02*
G75*
G03*
X213360000Y-72667086I-1773866J1773830D01*
G01*
%TO.N,Net-(D1-A)*%
X160250000Y-81525000D02*
X160250000Y-82100000D01*
X155555000Y-73140169D02*
X155555000Y-74400500D01*
X156057755Y-72057755D02*
X156050499Y-72050499D01*
X159843413Y-80543413D02*
X156866329Y-77566329D01*
X162009500Y-65541000D02*
X162560000Y-65541000D01*
X161069737Y-65930262D02*
X160389262Y-66610737D01*
X158505000Y-73167801D02*
X158505000Y-73660000D01*
X159610737Y-68490262D02*
X155975142Y-72125857D01*
X157592857Y-72065011D02*
X156075272Y-72065011D01*
X155555012Y-74400500D02*
G75*
G03*
X156866329Y-77566329I4477188J0D01*
G01*
X160389268Y-66610743D02*
G75*
G03*
X160000000Y-67550500I939732J-939757D01*
G01*
X159610732Y-68490257D02*
G75*
G03*
X160000000Y-67550500I-939732J939757D01*
G01*
X162009500Y-65540993D02*
G75*
G03*
X161069738Y-65930263I0J-1329007D01*
G01*
X156057761Y-72057749D02*
G75*
G03*
X156075272Y-72065011I17539J17549D01*
G01*
X158504999Y-73167801D02*
G75*
G03*
X158177750Y-72377750I-1117299J1D01*
G01*
X160249992Y-81525000D02*
G75*
G03*
X159843413Y-80543413I-1388192J0D01*
G01*
X155975169Y-72125884D02*
G75*
G03*
X155555000Y-73140169I1014231J-1014316D01*
G01*
X158177742Y-72377759D02*
G75*
G03*
X157592857Y-72065012I-822942J-835741D01*
G01*
%TO.N,Net-(D2-A)*%
X166125000Y-62414954D02*
X166125000Y-62682417D01*
X166125000Y-60992986D02*
X166125000Y-61000586D01*
X166882500Y-64783500D02*
X167640000Y-65541000D01*
X171950000Y-80687436D02*
X171950000Y-82100000D01*
X166125000Y-61878410D02*
X166125000Y-61817608D01*
X166125000Y-62197620D02*
X166125000Y-62364825D01*
X166125000Y-62887058D02*
X166125000Y-62954733D01*
X166125000Y-61205789D02*
X166125000Y-61243790D01*
X166125000Y-61555403D02*
X166125000Y-61563004D01*
X166125000Y-61487000D02*
X166125000Y-61525001D01*
X166125000Y-61525001D02*
X166125000Y-61547802D01*
X166125000Y-61000586D02*
X166125000Y-61008186D01*
X166125000Y-61087986D02*
X166125000Y-61118387D01*
X166125000Y-61878410D02*
X166125000Y-62030415D01*
X166125000Y-62030415D02*
X166125000Y-62102618D01*
X166125000Y-61167788D02*
X166125000Y-61205789D01*
X166125000Y-61574404D02*
X166125000Y-61604804D01*
X166125000Y-61057586D02*
X166125000Y-61087986D01*
X166125000Y-62102618D02*
X166125000Y-62110218D01*
X166125000Y-61756806D02*
X166125000Y-61787207D01*
X166125000Y-61137388D02*
X166125000Y-61144988D01*
X166125000Y-61027186D02*
X166125000Y-61057586D01*
X170447487Y-77947487D02*
X171075000Y-78575000D01*
X166125000Y-62751709D02*
X166125000Y-62682417D01*
X166125000Y-61285594D02*
X166125000Y-61407198D01*
X166125000Y-61448999D02*
X166125000Y-61407198D01*
X166125000Y-61129788D02*
X166125000Y-61137388D01*
X170200000Y-77350000D02*
X170200000Y-77000000D01*
X166125000Y-61285594D02*
X166125000Y-61243790D01*
X166125000Y-62751709D02*
X166125000Y-62887058D01*
X166125000Y-61015786D02*
X166125000Y-61027186D01*
X166125000Y-61008186D02*
X166125000Y-61015786D01*
X166125000Y-62110218D02*
X166125000Y-62117818D01*
X166125000Y-60985386D02*
X166125000Y-60992986D01*
X166125000Y-61167788D02*
X166125000Y-61144988D01*
X166125000Y-61756806D02*
X166125000Y-61696005D01*
X166125000Y-61665604D02*
X166125000Y-61696005D01*
X166125000Y-62364825D02*
X166125000Y-62414954D01*
X166125000Y-61129788D02*
X166125000Y-61118387D01*
X166412500Y-60287500D02*
X166700000Y-60000000D01*
X166125000Y-61787207D02*
X166125000Y-61817608D01*
X166125000Y-62197620D02*
X166125000Y-62117818D01*
X166125000Y-60985386D02*
X166125000Y-60981586D01*
X166125000Y-61635204D02*
X166125000Y-61665604D01*
X166125000Y-61547802D02*
X166125000Y-61555403D01*
X166125000Y-61574404D02*
X166125000Y-61563004D01*
X166125000Y-61604804D02*
X166125000Y-61635204D01*
X166125000Y-61448999D02*
X166125000Y-61487000D01*
X166124987Y-62954733D02*
G75*
G03*
X166882501Y-64783499I2586313J33D01*
G01*
X170200008Y-77350000D02*
G75*
G03*
X170447487Y-77947487I844992J0D01*
G01*
X166412504Y-60287504D02*
G75*
G03*
X166125000Y-60981586I694096J-694096D01*
G01*
X171949984Y-80687436D02*
G75*
G03*
X171074999Y-78575001I-2987384J36D01*
G01*
%TO.N,Net-(D4-A)*%
X167576837Y-71600000D02*
X166500000Y-71600000D01*
X166125000Y-69100000D02*
X166125000Y-67564000D01*
X168320000Y-73220000D02*
X167959258Y-72859258D01*
X169000000Y-74861665D02*
X169000000Y-82100000D01*
X167640000Y-72088500D02*
X167640000Y-71663162D01*
X167621489Y-71618511D02*
G75*
G03*
X167576837Y-71600000I-44689J-44689D01*
G01*
X167639995Y-72088500D02*
G75*
G03*
X167959258Y-72859258I1090005J0D01*
G01*
X169000014Y-74861665D02*
G75*
G03*
X168320000Y-73220000I-2321714J-35D01*
G01*
X167640015Y-71663162D02*
G75*
G03*
X167621500Y-71618500I-63215J-38D01*
G01*
%TO.N,Net-(D8-A)*%
X175283500Y-66816500D02*
X176476224Y-65623775D01*
X174600000Y-73700000D02*
X174580000Y-73680000D01*
X173745000Y-73660000D02*
X174531715Y-73660000D01*
X177311000Y-65278000D02*
X177800000Y-65278000D01*
X173745000Y-73660000D02*
X173745000Y-70530767D01*
X174900000Y-77000000D02*
X174900000Y-82100000D01*
X175283509Y-66816509D02*
G75*
G03*
X173745000Y-70530767I3714291J-3714291D01*
G01*
X174579995Y-73680005D02*
G75*
G03*
X174531715Y-73660000I-48295J-48295D01*
G01*
X177311000Y-65277985D02*
G75*
G03*
X176476224Y-65623775I0J-1180515D01*
G01*
%TO.N,Net-(D11-A)*%
X183750000Y-80283883D02*
X183750000Y-82100000D01*
X185000000Y-75900000D02*
X185000000Y-77266116D01*
X182479000Y-65278000D02*
X182865857Y-65278000D01*
X181356000Y-64045468D02*
X181356000Y-61214000D01*
X182900000Y-66900000D02*
X182900000Y-65312142D01*
X181794450Y-64994450D02*
X181717000Y-64917000D01*
X184374995Y-78774995D02*
G75*
G03*
X185000000Y-77266116I-1508895J1508895D01*
G01*
X182899982Y-65312142D02*
G75*
G03*
X182890000Y-65288000I-34082J42D01*
G01*
X184375005Y-78775005D02*
G75*
G03*
X183750000Y-80283883I1508895J-1508895D01*
G01*
X181356013Y-64045468D02*
G75*
G03*
X181717000Y-64917000I1232487J-32D01*
G01*
X182890012Y-65287988D02*
G75*
G03*
X182865857Y-65278000I-24112J-24112D01*
G01*
X181794450Y-64994450D02*
G75*
G03*
X182479000Y-65278000I684550J684550D01*
G01*
%TO.N,Net-(D12-A)*%
X182800000Y-76700000D02*
X182800000Y-75900000D01*
X180800000Y-80800000D02*
X180800000Y-82100000D01*
X182800000Y-71510568D02*
X182800000Y-73200000D01*
X181719238Y-78580760D02*
X182234314Y-78065685D01*
X182410991Y-71374000D02*
X182823431Y-71374000D01*
X181356000Y-70319008D02*
X181356000Y-67310000D01*
X181719234Y-78580756D02*
G75*
G03*
X180800000Y-80800000I2219266J-2219244D01*
G01*
X182839946Y-71413946D02*
G75*
G03*
X182823431Y-71374000I-16546J16546D01*
G01*
X181355997Y-70319008D02*
G75*
G03*
X181665000Y-71065000I1055003J8D01*
G01*
X181665002Y-71064998D02*
G75*
G03*
X182410991Y-71374000I745998J745998D01*
G01*
X182234321Y-78065692D02*
G75*
G03*
X182800000Y-76700000I-1365721J1365692D01*
G01*
X182840009Y-71414009D02*
G75*
G03*
X182800000Y-71510568I96591J-96591D01*
G01*
%TO.N,Net-(D16-A)*%
X188929289Y-77270710D02*
X187619238Y-78580760D01*
X192554000Y-65532000D02*
X193040000Y-65532000D01*
X189000000Y-77100000D02*
X189000000Y-77000000D01*
X189000000Y-73685606D02*
X189000000Y-75000000D01*
X191724346Y-65875653D02*
X190526500Y-67073500D01*
X186700000Y-80800000D02*
X186700000Y-82100000D01*
X188985000Y-70795010D02*
X188985000Y-73649393D01*
X188999997Y-73685606D02*
G75*
G03*
X188992500Y-73667500I-25597J6D01*
G01*
X188985003Y-73649393D02*
G75*
G03*
X188992500Y-73667500I25597J-7D01*
G01*
X188929285Y-77270706D02*
G75*
G03*
X189000000Y-77100000I-170685J170706D01*
G01*
X187619234Y-78580756D02*
G75*
G03*
X186700000Y-80800000I2219266J-2219244D01*
G01*
X190526497Y-67073497D02*
G75*
G03*
X188985000Y-70795010I3721503J-3721503D01*
G01*
X192554000Y-65531998D02*
G75*
G03*
X191724347Y-65875654I0J-1173302D01*
G01*
%TO.N,Net-(D19-A)*%
X200500000Y-63229734D02*
X200500000Y-63250000D01*
X198213338Y-65532000D02*
X198544000Y-65532000D01*
X196800000Y-77750000D02*
X196800000Y-77200000D01*
X197894661Y-65400000D02*
X196800000Y-65400000D01*
X195650000Y-80263172D02*
X195650000Y-82100000D01*
X199267813Y-65232186D02*
X199969669Y-64530330D01*
X196225000Y-78875000D02*
X196411091Y-78688908D01*
X198738265Y-61468000D02*
X196596000Y-61468000D01*
X199984010Y-61983990D02*
G75*
G03*
X198738265Y-61468000I-1245710J-1245710D01*
G01*
X196225008Y-78875008D02*
G75*
G03*
X195650000Y-80263172I1388192J-1388192D01*
G01*
X199969678Y-64530339D02*
G75*
G03*
X200500000Y-63250000I-1280378J1280339D01*
G01*
X198544000Y-65532007D02*
G75*
G03*
X199267813Y-65232186I0J1023607D01*
G01*
X198054011Y-65465989D02*
G75*
G03*
X197894661Y-65400000I-159311J-159311D01*
G01*
X200499985Y-63229734D02*
G75*
G03*
X199983999Y-61984001I-1761685J34D01*
G01*
X198053989Y-65466011D02*
G75*
G03*
X198213338Y-65532000I159311J159311D01*
G01*
X196411088Y-78688905D02*
G75*
G03*
X196800000Y-77750000I-938888J938905D01*
G01*
%TO.N,Net-(D20-A)*%
X198100000Y-73100000D02*
X198100000Y-71662142D01*
X198105857Y-71628000D02*
X197668527Y-71628000D01*
X195369669Y-76830329D02*
X193551561Y-78648438D01*
X196605000Y-70564472D02*
X196605000Y-67564000D01*
X192650000Y-80825000D02*
X192650000Y-82100000D01*
X197400000Y-76300000D02*
X196650000Y-76300000D01*
X198110072Y-71638072D02*
G75*
G03*
X198105857Y-71628000I-4172J4172D01*
G01*
X196916492Y-71316508D02*
G75*
G03*
X197668527Y-71628000I752008J752008D01*
G01*
X198109988Y-71637988D02*
G75*
G03*
X198100000Y-71662142I24112J-24112D01*
G01*
X196650000Y-76300011D02*
G75*
G03*
X195369670Y-76830330I0J-1810689D01*
G01*
X196605012Y-70564472D02*
G75*
G03*
X196916500Y-71316500I1063488J-28D01*
G01*
X193551566Y-78648443D02*
G75*
G03*
X192650000Y-80825000I2176534J-2176557D01*
G01*
%TO.N,Net-(D24-A)*%
X198600000Y-81250000D02*
X198600000Y-82100000D01*
X204200000Y-70825000D02*
X204200000Y-73000000D01*
X199201040Y-79798959D02*
X202900000Y-76100000D01*
X207799000Y-65532000D02*
X208280000Y-65532000D01*
X204225000Y-74700000D02*
X204225000Y-73660000D01*
X206977881Y-65872118D02*
X205737956Y-67112042D01*
X199201037Y-79798956D02*
G75*
G03*
X198600000Y-81250000I1451063J-1451044D01*
G01*
X207799000Y-65531989D02*
G75*
G03*
X206977881Y-65872118I0J-1161211D01*
G01*
X205737960Y-67112046D02*
G75*
G03*
X204200000Y-70825000I3712940J-3712954D01*
G01*
%TO.N,/kHz{slash}Hz{slash}dB*%
X170000000Y-57500000D02*
X170000000Y-55990961D01*
X166162500Y-57462500D02*
X166200000Y-57500000D01*
X181000000Y-57500000D02*
X181182500Y-57317500D01*
X169967500Y-55912500D02*
X169935000Y-55880000D01*
X166125000Y-57371966D02*
X166125000Y-55880000D01*
X163100000Y-77000000D02*
X163100000Y-82100000D01*
X181365000Y-56876906D02*
X181365000Y-55626000D01*
X181182498Y-57317498D02*
G75*
G03*
X181365000Y-56876906I-440598J440598D01*
G01*
X166125014Y-57371966D02*
G75*
G03*
X166162500Y-57462500I127986J-34D01*
G01*
X170000015Y-55990961D02*
G75*
G03*
X169967499Y-55912501I-111015J-39D01*
G01*
%TO.N,/Low Battery {slash} Negative*%
X160400000Y-59093175D02*
X160400000Y-59093906D01*
X160400000Y-59093906D02*
X160400000Y-59094394D01*
X160400000Y-59042740D02*
X160400000Y-59052973D01*
X157030171Y-55626000D02*
X155457000Y-55626000D01*
X160400000Y-59085379D02*
X160400000Y-59087328D01*
X160400000Y-59116810D02*
X160400000Y-59119247D01*
X160400000Y-59079532D02*
X160400000Y-59081481D01*
X160400000Y-59128263D02*
X160400000Y-59128994D01*
X160400000Y-59121196D02*
X160400000Y-59121683D01*
X160400000Y-59032507D02*
X160400000Y-59042740D01*
X160400000Y-59081481D02*
X160400000Y-59085379D01*
X160400000Y-59058822D02*
X160400000Y-59059310D01*
X160400000Y-59096344D02*
X160400000Y-59098780D01*
X160400000Y-59120709D02*
X160400000Y-59119247D01*
X154350000Y-81025000D02*
X154350000Y-82100000D01*
X160400000Y-59059310D02*
X160400000Y-59063939D01*
X160400000Y-59087328D02*
X160400000Y-59089277D01*
X160400000Y-59077583D02*
X160400000Y-59073685D01*
X160400000Y-59126313D02*
X160400000Y-59128263D01*
X160400000Y-59091226D02*
X160400000Y-59093175D01*
X160400000Y-59129481D02*
X160400000Y-59129968D01*
X160400000Y-59114373D02*
X160400000Y-59116810D01*
X160400000Y-59120709D02*
X160400000Y-59121196D01*
X160400000Y-59130456D02*
X160400000Y-59130944D01*
X160400000Y-59032507D02*
X160400000Y-59022030D01*
X160400000Y-59094394D02*
X160400000Y-59094882D01*
X160400000Y-59128994D02*
X160400000Y-59129481D01*
X160400000Y-59131188D02*
X160400000Y-59130944D01*
X160400000Y-59103896D02*
X160400000Y-59101216D01*
X160400000Y-59052973D02*
X160400000Y-59058334D01*
X160400000Y-59103896D02*
X160400000Y-59111693D01*
X160400000Y-59096344D02*
X160400000Y-59094882D01*
X160046446Y-57246446D02*
X159413000Y-56613000D01*
X160400000Y-58990842D02*
X160400000Y-58100000D01*
X160400000Y-59063939D02*
X160400000Y-59073685D01*
X160400000Y-59122414D02*
X160400000Y-59121683D01*
X160400000Y-59077583D02*
X160400000Y-59079532D01*
X160400000Y-59130456D02*
X160400000Y-59129968D01*
X160400000Y-59114373D02*
X160400000Y-59111693D01*
X160400000Y-59124363D02*
X160400000Y-59126313D01*
X152050000Y-61299949D02*
X152050000Y-76023654D01*
X160400000Y-59122414D02*
X160400000Y-59124363D01*
X160400000Y-58990842D02*
X160400000Y-59022030D01*
X153589860Y-79189860D02*
X153200000Y-78800000D01*
X160400000Y-59089277D02*
X160400000Y-59091226D01*
X153086916Y-60263000D02*
X159268188Y-60263000D01*
X160400000Y-59058334D02*
X160400000Y-59058822D01*
X160400000Y-59098780D02*
X160400000Y-59101216D01*
X153086916Y-60263020D02*
G75*
G03*
X152353715Y-60566715I-16J-1036880D01*
G01*
X159268188Y-60262995D02*
G75*
G03*
X160068500Y-59931500I12J1131795D01*
G01*
X152353701Y-60566701D02*
G75*
G03*
X152050000Y-61299949I733199J-733199D01*
G01*
X152050019Y-76023654D02*
G75*
G03*
X153200000Y-78800000I3926281J-46D01*
G01*
X159413008Y-56612992D02*
G75*
G03*
X157030171Y-55626000I-2382808J-2382808D01*
G01*
X160400001Y-58100000D02*
G75*
G03*
X160046445Y-57246447I-1207101J0D01*
G01*
X154349994Y-81025000D02*
G75*
G03*
X153589860Y-79189860I-2595294J0D01*
G01*
X160068503Y-59931503D02*
G75*
G03*
X160400000Y-59131188I-800303J800303D01*
G01*
%TO.N,/HalfDigit*%
X152513479Y-70004846D02*
X152507000Y-69998367D01*
X157300000Y-80900000D02*
X157300000Y-82100000D01*
X153219056Y-75619056D02*
X156451471Y-78851471D01*
X153081924Y-60713000D02*
X155211176Y-60713000D01*
X154732000Y-68300000D02*
X155264000Y-68300000D01*
X152513479Y-70004846D02*
X152507000Y-70011325D01*
X152513479Y-70004846D02*
X153984402Y-68533924D01*
X152507000Y-70011325D02*
X152507000Y-73900000D01*
X152507000Y-69998367D02*
X152507000Y-61287999D01*
X155457000Y-60958823D02*
X155457000Y-61738000D01*
X152506997Y-73900000D02*
G75*
G03*
X153219057Y-75619055I2431103J0D01*
G01*
X155456990Y-60958823D02*
G75*
G03*
X155385000Y-60785000I-245790J23D01*
G01*
X157299987Y-80900000D02*
G75*
G03*
X156451471Y-78851471I-2897087J0D01*
G01*
X153081924Y-60713012D02*
G75*
G03*
X152675414Y-60881414I-24J-574788D01*
G01*
X155385007Y-60784993D02*
G75*
G03*
X155211176Y-60713000I-173807J-173807D01*
G01*
X154732000Y-68299974D02*
G75*
G03*
X153984402Y-68533924I-4800J-1296126D01*
G01*
X152675414Y-60881414D02*
G75*
G03*
X152507000Y-61287999I406586J-406586D01*
G01*
%TD*%
%TA.AperFunction,Conductor*%
%TO.N,Net-(D5-A)*%
G36*
X166132300Y-73668231D02*
G01*
X166133096Y-73669129D01*
X166621320Y-74279950D01*
X166623809Y-74288552D01*
X166621780Y-74293945D01*
X166178492Y-74929990D01*
X166170950Y-74934818D01*
X166168893Y-74935000D01*
X165932308Y-74935000D01*
X165924035Y-74931573D01*
X165921794Y-74928432D01*
X165612114Y-74293945D01*
X165572723Y-74213239D01*
X165572174Y-74204302D01*
X165575032Y-74199768D01*
X166115754Y-73668090D01*
X166124056Y-73664734D01*
X166132300Y-73668231D01*
G37*
%TD.AperFunction*%
%TD*%
%TA.AperFunction,Conductor*%
%TO.N,Net-(D5-A)*%
G36*
X166177304Y-80903427D02*
G01*
X166178504Y-80904834D01*
X166643855Y-81546853D01*
X166645936Y-81555562D01*
X166642254Y-81562375D01*
X166057872Y-82093840D01*
X166049446Y-82096871D01*
X166042128Y-82093840D01*
X165457745Y-81562375D01*
X165453930Y-81554273D01*
X165456143Y-81546855D01*
X165921496Y-80904833D01*
X165929126Y-80900146D01*
X165930969Y-80900000D01*
X166169031Y-80900000D01*
X166177304Y-80903427D01*
G37*
%TD.AperFunction*%
%TD*%
%TA.AperFunction,Conductor*%
%TO.N,Net-(D5-A)*%
G36*
X165876002Y-72140533D02*
G01*
X165876704Y-72141312D01*
X166027194Y-72323985D01*
X166029810Y-72332549D01*
X166026249Y-72339881D01*
X165860887Y-72497965D01*
X165852539Y-72501205D01*
X165845383Y-72498554D01*
X165666349Y-72351699D01*
X165662127Y-72343804D01*
X165664724Y-72335234D01*
X165665429Y-72334449D01*
X165761809Y-72236778D01*
X165859456Y-72140422D01*
X165867752Y-72137051D01*
X165876002Y-72140533D01*
G37*
%TD.AperFunction*%
%TD*%
%TA.AperFunction,Conductor*%
%TO.N,Net-(D5-A)*%
G36*
X163958942Y-71490776D02*
G01*
X163963044Y-71498736D01*
X163963084Y-71499630D01*
X163964000Y-71637000D01*
X163963084Y-71774369D01*
X163959602Y-71782619D01*
X163951306Y-71785991D01*
X163950412Y-71785951D01*
X163673728Y-71762894D01*
X163665768Y-71758792D01*
X163663000Y-71751234D01*
X163663000Y-71522765D01*
X163666427Y-71514492D01*
X163673725Y-71511106D01*
X163950414Y-71488048D01*
X163958942Y-71490776D01*
G37*
%TD.AperFunction*%
%TD*%
%TA.AperFunction,Conductor*%
%TO.N,Net-(D5-A)*%
G36*
X163113548Y-71085684D02*
G01*
X163829252Y-71508603D01*
X163834631Y-71515762D01*
X163835000Y-71518676D01*
X163835000Y-71755323D01*
X163831573Y-71763596D01*
X163829252Y-71765396D01*
X163113549Y-72188314D01*
X163104683Y-72189572D01*
X163099254Y-72186444D01*
X162567065Y-71645202D01*
X162563708Y-71636900D01*
X162567063Y-71628799D01*
X163099255Y-71087554D01*
X163107498Y-71084058D01*
X163113548Y-71085684D01*
G37*
%TD.AperFunction*%
%TD*%
%TA.AperFunction,Conductor*%
%TO.N,Net-(D5-A)*%
G36*
X166097745Y-72400099D02*
G01*
X166098267Y-72400683D01*
X166620648Y-73025888D01*
X166623323Y-73034434D01*
X166620813Y-73040691D01*
X166133779Y-73650593D01*
X166125938Y-73654919D01*
X166117335Y-73652435D01*
X166116440Y-73651642D01*
X166115371Y-73650593D01*
X165575703Y-73120879D01*
X165572201Y-73112639D01*
X165573949Y-73106376D01*
X165908780Y-72565126D01*
X165910635Y-72562836D01*
X166081205Y-72399728D01*
X166089551Y-72396488D01*
X166097745Y-72400099D01*
G37*
%TD.AperFunction*%
%TD*%
%TA.AperFunction,Conductor*%
%TO.N,Net-(D10-A)*%
G36*
X177922507Y-73453427D02*
G01*
X177925894Y-73460728D01*
X177948951Y-73737412D01*
X177946223Y-73745942D01*
X177938263Y-73750044D01*
X177937369Y-73750084D01*
X177800000Y-73751000D01*
X177662630Y-73750084D01*
X177654380Y-73746602D01*
X177651008Y-73738306D01*
X177651046Y-73737437D01*
X177674106Y-73460728D01*
X177678209Y-73452768D01*
X177685766Y-73450000D01*
X177914234Y-73450000D01*
X177922507Y-73453427D01*
G37*
%TD.AperFunction*%
%TD*%
%TA.AperFunction,Conductor*%
%TO.N,Net-(D10-A)*%
G36*
X177807988Y-71389466D02*
G01*
X178367411Y-71912281D01*
X178371115Y-71920433D01*
X178368857Y-71927748D01*
X177928506Y-72528219D01*
X177920850Y-72532864D01*
X177919071Y-72533000D01*
X177680929Y-72533000D01*
X177672656Y-72529573D01*
X177671494Y-72528219D01*
X177231142Y-71927748D01*
X177229013Y-71919050D01*
X177232587Y-71912282D01*
X177792012Y-71389465D01*
X177800395Y-71386321D01*
X177807988Y-71389466D01*
G37*
%TD.AperFunction*%
%TD*%
%TA.AperFunction,Conductor*%
%TO.N,Net-(D10-A)*%
G36*
X178353548Y-70831684D02*
G01*
X179069252Y-71254603D01*
X179074631Y-71261762D01*
X179075000Y-71264676D01*
X179075000Y-71501323D01*
X179071573Y-71509596D01*
X179069252Y-71511396D01*
X178353549Y-71934314D01*
X178344683Y-71935572D01*
X178339254Y-71932444D01*
X177925248Y-71511396D01*
X177807064Y-71391201D01*
X177803708Y-71382901D01*
X177807064Y-71374798D01*
X178339255Y-70833554D01*
X178347498Y-70830058D01*
X178353548Y-70831684D01*
G37*
%TD.AperFunction*%
%TD*%
%TA.AperFunction,Conductor*%
%TO.N,Net-(D10-A)*%
G36*
X177937370Y-76999915D02*
G01*
X177945619Y-77003397D01*
X177948991Y-77011693D01*
X177948951Y-77012587D01*
X177925894Y-77289272D01*
X177921792Y-77297232D01*
X177914234Y-77300000D01*
X177685766Y-77300000D01*
X177677493Y-77296573D01*
X177674106Y-77289272D01*
X177674106Y-77289271D01*
X177651048Y-77012584D01*
X177653776Y-77004058D01*
X177661736Y-76999955D01*
X177662608Y-76999915D01*
X177800000Y-76999000D01*
X177937370Y-76999915D01*
G37*
%TD.AperFunction*%
%TD*%
%TA.AperFunction,Conductor*%
%TO.N,Net-(D10-A)*%
G36*
X177927581Y-80903427D02*
G01*
X177928513Y-80904478D01*
X178420672Y-81531796D01*
X178423083Y-81540420D01*
X178419621Y-81547408D01*
X177857637Y-82093577D01*
X177849316Y-82096886D01*
X177841894Y-82094092D01*
X177235310Y-81577185D01*
X177231236Y-81569211D01*
X177233167Y-81561784D01*
X177671526Y-80905202D01*
X177678970Y-80900226D01*
X177681257Y-80900000D01*
X177919308Y-80900000D01*
X177927581Y-80903427D01*
G37*
%TD.AperFunction*%
%TD*%
%TA.AperFunction,Conductor*%
%TO.N,Net-(D10-A)*%
G36*
X181306058Y-72278230D02*
G01*
X181873468Y-72951211D01*
X181876181Y-72959745D01*
X181873904Y-72965745D01*
X181408598Y-73590059D01*
X181400906Y-73594644D01*
X181392225Y-73592448D01*
X181391020Y-73591415D01*
X180849571Y-73059770D01*
X180846068Y-73051529D01*
X180846892Y-73047110D01*
X180882104Y-72958305D01*
X181095540Y-72420011D01*
X181099535Y-72414862D01*
X181290237Y-72276306D01*
X181298943Y-72274216D01*
X181306058Y-72278230D01*
G37*
%TD.AperFunction*%
%TD*%
%TA.AperFunction,Conductor*%
%TO.N,Net-(D18-A)*%
G36*
X193593548Y-71076684D02*
G01*
X194309252Y-71499603D01*
X194314631Y-71506762D01*
X194315000Y-71509676D01*
X194315000Y-71746323D01*
X194311573Y-71754596D01*
X194309252Y-71756396D01*
X193593549Y-72179314D01*
X193584683Y-72180572D01*
X193579254Y-72177444D01*
X193165248Y-71756396D01*
X193047064Y-71636201D01*
X193043708Y-71627901D01*
X193047064Y-71619798D01*
X193579255Y-71078554D01*
X193587498Y-71075058D01*
X193593548Y-71076684D01*
G37*
%TD.AperFunction*%
%TD*%
%TA.AperFunction,Conductor*%
%TO.N,Net-(D18-A)*%
G36*
X191712563Y-71479046D02*
G01*
X191989271Y-71502106D01*
X191989272Y-71502106D01*
X191997232Y-71506209D01*
X192000000Y-71513766D01*
X192000000Y-71742233D01*
X191996573Y-71750506D01*
X191989272Y-71753893D01*
X191712587Y-71776951D01*
X191704058Y-71774223D01*
X191699955Y-71766263D01*
X191699915Y-71765389D01*
X191699000Y-71628000D01*
X191699915Y-71490628D01*
X191703397Y-71482380D01*
X191711693Y-71479008D01*
X191712563Y-71479046D01*
G37*
%TD.AperFunction*%
%TD*%
%TA.AperFunction,Conductor*%
%TO.N,Net-(D18-A)*%
G36*
X192500745Y-71078555D02*
G01*
X193032934Y-71619797D01*
X193036291Y-71628099D01*
X193032934Y-71636203D01*
X192500745Y-72177444D01*
X192492501Y-72180941D01*
X192486450Y-72179314D01*
X191770748Y-71756396D01*
X191765369Y-71749237D01*
X191765000Y-71746323D01*
X191765000Y-71509676D01*
X191768427Y-71501403D01*
X191770745Y-71499604D01*
X192486451Y-71076684D01*
X192495316Y-71075427D01*
X192500745Y-71078555D01*
G37*
%TD.AperFunction*%
%TD*%
%TA.AperFunction,Conductor*%
%TO.N,Net-(D18-A)*%
G36*
X196602639Y-72356161D02*
G01*
X197101387Y-73025984D01*
X197103580Y-73034667D01*
X197101145Y-73040274D01*
X196613544Y-73650760D01*
X196605703Y-73655085D01*
X196597100Y-73652600D01*
X196596203Y-73651805D01*
X196055092Y-73120283D01*
X196051591Y-73112041D01*
X196052818Y-73106721D01*
X196089417Y-73033223D01*
X196372270Y-72465192D01*
X196377428Y-72459985D01*
X196587943Y-72352723D01*
X196596871Y-72352022D01*
X196602639Y-72356161D01*
G37*
%TD.AperFunction*%
%TD*%
%TA.AperFunction,Conductor*%
%TO.N,Net-(D18-A)*%
G36*
X189777304Y-80903427D02*
G01*
X189778504Y-80904834D01*
X190243855Y-81546853D01*
X190245936Y-81555562D01*
X190242254Y-81562375D01*
X189657872Y-82093840D01*
X189649446Y-82096871D01*
X189642128Y-82093840D01*
X189057745Y-81562375D01*
X189053930Y-81554273D01*
X189056143Y-81546855D01*
X189521496Y-80904833D01*
X189529126Y-80900146D01*
X189530969Y-80900000D01*
X189769031Y-80900000D01*
X189777304Y-80903427D01*
G37*
%TD.AperFunction*%
%TD*%
%TA.AperFunction,Conductor*%
%TO.N,Net-(D18-A)*%
G36*
X191037370Y-76999915D02*
G01*
X191045619Y-77003397D01*
X191048991Y-77011693D01*
X191048951Y-77012587D01*
X191025894Y-77289272D01*
X191021792Y-77297232D01*
X191014234Y-77300000D01*
X190785766Y-77300000D01*
X190777493Y-77296573D01*
X190774106Y-77289272D01*
X190751048Y-77012584D01*
X190753776Y-77004058D01*
X190761736Y-76999955D01*
X190762608Y-76999915D01*
X190900000Y-76999000D01*
X191037370Y-76999915D01*
G37*
%TD.AperFunction*%
%TD*%
%TA.AperFunction,Conductor*%
%TO.N,Net-(D26-A)*%
G36*
X208833548Y-71076684D02*
G01*
X209549252Y-71499603D01*
X209554631Y-71506762D01*
X209555000Y-71509676D01*
X209555000Y-71746323D01*
X209551573Y-71754596D01*
X209549252Y-71756396D01*
X208833549Y-72179314D01*
X208824683Y-72180572D01*
X208819254Y-72177444D01*
X208405248Y-71756396D01*
X208287064Y-71636201D01*
X208283708Y-71627901D01*
X208287064Y-71619798D01*
X208819255Y-71078554D01*
X208827498Y-71075058D01*
X208833548Y-71076684D01*
G37*
%TD.AperFunction*%
%TD*%
%TA.AperFunction,Conductor*%
%TO.N,Net-(D26-A)*%
G36*
X201435984Y-81109575D02*
G01*
X201674870Y-81141026D01*
X201681053Y-81143826D01*
X202142541Y-81548287D01*
X202146504Y-81556317D01*
X202143628Y-81564798D01*
X202142670Y-81565770D01*
X201557767Y-82093860D01*
X201549330Y-82096861D01*
X201542023Y-82093803D01*
X200965607Y-81565770D01*
X200961778Y-81562262D01*
X200957993Y-81554148D01*
X200961055Y-81545733D01*
X200961698Y-81545084D01*
X201426492Y-81112609D01*
X201434883Y-81109484D01*
X201435984Y-81109575D01*
G37*
%TD.AperFunction*%
%TD*%
%TA.AperFunction,Conductor*%
%TO.N,Net-(D26-A)*%
G36*
X211842810Y-73651665D02*
G01*
X211844399Y-73653688D01*
X212254188Y-74313431D01*
X212255642Y-74322267D01*
X212252493Y-74327907D01*
X211627190Y-74948768D01*
X211618904Y-74952165D01*
X211610854Y-74948915D01*
X211440906Y-74786168D01*
X211437691Y-74780724D01*
X211315812Y-74322267D01*
X211281780Y-74194254D01*
X211282966Y-74185379D01*
X211284888Y-74182901D01*
X211826266Y-73651509D01*
X211834569Y-73648162D01*
X211842810Y-73651665D01*
G37*
%TD.AperFunction*%
%TD*%
%TA.AperFunction,Conductor*%
%TO.N,Net-(D26-A)*%
G36*
X211802739Y-72335427D02*
G01*
X212332039Y-73007933D01*
X212334463Y-73016553D01*
X212331987Y-73022471D01*
X211844544Y-73632760D01*
X211836703Y-73637085D01*
X211828100Y-73634600D01*
X211827203Y-73633805D01*
X211285840Y-73102036D01*
X211282339Y-73093794D01*
X211283363Y-73088902D01*
X211572356Y-72445130D01*
X211577715Y-72439500D01*
X211788235Y-72332237D01*
X211797161Y-72331536D01*
X211802739Y-72335427D01*
G37*
%TD.AperFunction*%
%TD*%
%TA.AperFunction,Conductor*%
%TO.N,Net-(D27-A)*%
G36*
X211844201Y-61475064D02*
G01*
X212385444Y-62007254D01*
X212388941Y-62015498D01*
X212387314Y-62021549D01*
X211964397Y-62737252D01*
X211957238Y-62742631D01*
X211954324Y-62743000D01*
X211717676Y-62743000D01*
X211709403Y-62739573D01*
X211707603Y-62737252D01*
X211284685Y-62021549D01*
X211283427Y-62012683D01*
X211286553Y-62007256D01*
X211827798Y-61475064D01*
X211836099Y-61471708D01*
X211844201Y-61475064D01*
G37*
%TD.AperFunction*%
%TD*%
%TA.AperFunction,Conductor*%
%TO.N,Net-(D27-A)*%
G36*
X214637370Y-72999915D02*
G01*
X214645619Y-73003397D01*
X214648991Y-73011693D01*
X214648951Y-73012587D01*
X214625894Y-73289272D01*
X214621792Y-73297232D01*
X214614234Y-73300000D01*
X214385766Y-73300000D01*
X214377493Y-73296573D01*
X214374106Y-73289272D01*
X214351048Y-73012584D01*
X214353776Y-73004058D01*
X214361736Y-72999955D01*
X214362608Y-72999915D01*
X214500000Y-72999000D01*
X214637370Y-72999915D01*
G37*
%TD.AperFunction*%
%TD*%
%TA.AperFunction,Conductor*%
%TO.N,Net-(D27-A)*%
G36*
X207401583Y-80944014D02*
G01*
X207628646Y-81017792D01*
X207634154Y-81021596D01*
X208069623Y-81564307D01*
X208072128Y-81572904D01*
X208068032Y-81580581D01*
X207457885Y-82094054D01*
X207449348Y-82096759D01*
X207442098Y-82093395D01*
X206919389Y-81573223D01*
X206888492Y-81542476D01*
X206885046Y-81534212D01*
X206887899Y-81526529D01*
X207389125Y-80947484D01*
X207397129Y-80943472D01*
X207401583Y-80944014D01*
G37*
%TD.AperFunction*%
%TD*%
%TA.AperFunction,Conductor*%
%TO.N,Net-(D27-A)*%
G36*
X213784473Y-66706432D02*
G01*
X213911189Y-66813654D01*
X213996423Y-66885775D01*
X214000525Y-66893735D01*
X213997797Y-66902265D01*
X213997193Y-66902925D01*
X213900707Y-67000707D01*
X213802925Y-67097193D01*
X213794629Y-67100565D01*
X213786379Y-67097083D01*
X213785775Y-67096423D01*
X213622045Y-66902925D01*
X213606432Y-66884473D01*
X213603705Y-66875945D01*
X213607091Y-66868645D01*
X213768645Y-66707091D01*
X213776917Y-66703665D01*
X213784473Y-66706432D01*
G37*
%TD.AperFunction*%
%TD*%
%TA.AperFunction,Conductor*%
%TO.N,Net-(D27-A)*%
G36*
X212816515Y-64978963D02*
G01*
X212819226Y-64981020D01*
X213350532Y-65522367D01*
X213353881Y-65530672D01*
X213350377Y-65538912D01*
X213348423Y-65540458D01*
X212691603Y-65954682D01*
X212682777Y-65956197D01*
X212677094Y-65953064D01*
X212262437Y-65538912D01*
X212052336Y-65329067D01*
X212048905Y-65320797D01*
X212052327Y-65312522D01*
X212052435Y-65312415D01*
X212222032Y-65149365D01*
X212226876Y-65146565D01*
X212807614Y-64977979D01*
X212816515Y-64978963D01*
G37*
%TD.AperFunction*%
%TD*%
%TA.AperFunction,Conductor*%
%TO.N,Net-(D27-A)*%
G36*
X213368124Y-65537070D02*
G01*
X214012495Y-65975196D01*
X214017409Y-65982681D01*
X214015891Y-65990986D01*
X213659054Y-66573050D01*
X213655579Y-66576663D01*
X213458103Y-66708610D01*
X213449320Y-66710357D01*
X213443061Y-66706877D01*
X212882176Y-66107670D01*
X212879024Y-66099289D01*
X212881809Y-66092091D01*
X213352640Y-65539160D01*
X213360612Y-65535083D01*
X213368124Y-65537070D01*
G37*
%TD.AperFunction*%
%TD*%
%TA.AperFunction,Conductor*%
%TO.N,Net-(D32-A)*%
G36*
X213477304Y-80903427D02*
G01*
X213478504Y-80904834D01*
X213943855Y-81546853D01*
X213945936Y-81555562D01*
X213942254Y-81562375D01*
X213357871Y-82093840D01*
X213349445Y-82096871D01*
X213342127Y-82093840D01*
X212757744Y-81562375D01*
X212753929Y-81554273D01*
X212756142Y-81546855D01*
X213221496Y-80904833D01*
X213229126Y-80900146D01*
X213230969Y-80900000D01*
X213469031Y-80900000D01*
X213477304Y-80903427D01*
G37*
%TD.AperFunction*%
%TD*%
%TA.AperFunction,Conductor*%
%TO.N,Net-(D32-A)*%
G36*
X212405180Y-55367706D02*
G01*
X213021640Y-55883155D01*
X213025789Y-55891091D01*
X213024560Y-55897443D01*
X212916650Y-56109225D01*
X212912829Y-56113571D01*
X212346729Y-56500655D01*
X212337965Y-56502496D01*
X212330995Y-56498314D01*
X211844360Y-55891091D01*
X211841934Y-55888064D01*
X211839435Y-55879466D01*
X211843132Y-55872147D01*
X212389744Y-55368080D01*
X212398148Y-55364992D01*
X212405180Y-55367706D01*
G37*
%TD.AperFunction*%
%TD*%
%TA.AperFunction,Conductor*%
%TO.N,Net-(D33-A)*%
G36*
X203212563Y-55751046D02*
G01*
X203489271Y-55774106D01*
X203489272Y-55774106D01*
X203497232Y-55778209D01*
X203500000Y-55785766D01*
X203500000Y-56014233D01*
X203496573Y-56022506D01*
X203489272Y-56025893D01*
X203212587Y-56048951D01*
X203204058Y-56046223D01*
X203199955Y-56038263D01*
X203199915Y-56037389D01*
X203199000Y-55900000D01*
X203199915Y-55762628D01*
X203203397Y-55754380D01*
X203211693Y-55751008D01*
X203212563Y-55751046D01*
G37*
%TD.AperFunction*%
%TD*%
%TA.AperFunction,Conductor*%
%TO.N,Net-(D33-A)*%
G36*
X203698673Y-55323711D02*
G01*
X204227408Y-55872126D01*
X204230683Y-55880461D01*
X204227655Y-55888104D01*
X203712258Y-56456847D01*
X203704163Y-56460676D01*
X203695895Y-56457805D01*
X203436102Y-56231065D01*
X203204005Y-56028495D01*
X203200026Y-56020475D01*
X203200000Y-56019711D01*
X203200000Y-55780070D01*
X203203427Y-55771798D01*
X203203685Y-55771547D01*
X203682255Y-55323291D01*
X203690632Y-55320138D01*
X203698673Y-55323711D01*
G37*
%TD.AperFunction*%
%TD*%
%TA.AperFunction,Conductor*%
%TO.N,Net-(D33-A)*%
G36*
X210527304Y-80903427D02*
G01*
X210528504Y-80904834D01*
X210993855Y-81546853D01*
X210995936Y-81555562D01*
X210992254Y-81562375D01*
X210407872Y-82093840D01*
X210399446Y-82096871D01*
X210392128Y-82093840D01*
X209807745Y-81562375D01*
X209803930Y-81554273D01*
X209806143Y-81546855D01*
X210271496Y-80904833D01*
X210279126Y-80900146D01*
X210280969Y-80900000D01*
X210519031Y-80900000D01*
X210527304Y-80903427D01*
G37*
%TD.AperFunction*%
%TD*%
%TA.AperFunction,Conductor*%
%TO.N,Net-(D33-A)*%
G36*
X201256010Y-55753485D02*
G01*
X201259576Y-55761699D01*
X201259578Y-55761819D01*
X201260500Y-55900000D01*
X201259590Y-56036478D01*
X201256108Y-56044728D01*
X201247812Y-56048100D01*
X201246132Y-56047967D01*
X200973420Y-56006511D01*
X200965755Y-56001880D01*
X200963478Y-55994944D01*
X200963478Y-55766503D01*
X200966905Y-55758230D01*
X200974978Y-55754805D01*
X201247681Y-55750199D01*
X201256010Y-55753485D01*
G37*
%TD.AperFunction*%
%TD*%
%TA.AperFunction,Conductor*%
%TO.N,Net-(D33-A)*%
G36*
X212613620Y-58402916D02*
G01*
X212614224Y-58403576D01*
X212695216Y-58499293D01*
X212793566Y-58615525D01*
X212796294Y-58624054D01*
X212792907Y-58631355D01*
X212631355Y-58792907D01*
X212623082Y-58796334D01*
X212615525Y-58793566D01*
X212516636Y-58709890D01*
X212403576Y-58614224D01*
X212399474Y-58606264D01*
X212402202Y-58597734D01*
X212402794Y-58597086D01*
X212499293Y-58499293D01*
X212597075Y-58402805D01*
X212605370Y-58399434D01*
X212613620Y-58402916D01*
G37*
%TD.AperFunction*%
%TD*%
%TA.AperFunction,Conductor*%
%TO.N,Net-(D33-A)*%
G36*
X205496510Y-55753485D02*
G01*
X205500076Y-55761699D01*
X205500078Y-55761819D01*
X205501000Y-55900000D01*
X205500090Y-56036478D01*
X205496608Y-56044728D01*
X205488312Y-56048100D01*
X205486632Y-56047967D01*
X205213920Y-56006511D01*
X205206255Y-56001880D01*
X205203978Y-55994944D01*
X205203978Y-55766503D01*
X205207405Y-55758230D01*
X205215478Y-55754805D01*
X205488181Y-55750199D01*
X205496510Y-55753485D01*
G37*
%TD.AperFunction*%
%TD*%
%TA.AperFunction,Conductor*%
%TO.N,Net-(D33-A)*%
G36*
X204778748Y-55311142D02*
G01*
X205379219Y-55751494D01*
X205383864Y-55759149D01*
X205384000Y-55760928D01*
X205384000Y-55999071D01*
X205380573Y-56007344D01*
X205379219Y-56008506D01*
X204778748Y-56448857D01*
X204770050Y-56450986D01*
X204763281Y-56447411D01*
X204240466Y-55887989D01*
X204237321Y-55879604D01*
X204240466Y-55872011D01*
X204344280Y-55760928D01*
X204763281Y-55312587D01*
X204771433Y-55308884D01*
X204778748Y-55311142D01*
G37*
%TD.AperFunction*%
%TD*%
%TA.AperFunction,Conductor*%
%TO.N,/TopGround*%
G36*
X177686702Y-62093085D02*
G01*
X177892477Y-62134022D01*
X177920591Y-62139615D01*
X177927365Y-62143684D01*
X178320452Y-62624408D01*
X178368048Y-62682616D01*
X178368975Y-62683749D01*
X178371560Y-62692323D01*
X178367893Y-62699715D01*
X177807805Y-63221526D01*
X177799416Y-63224659D01*
X177791828Y-63221502D01*
X177233599Y-62698213D01*
X177229907Y-62690055D01*
X177232271Y-62682618D01*
X177675091Y-62097499D01*
X177682816Y-62092972D01*
X177686702Y-62093085D01*
G37*
%TD.AperFunction*%
%TD*%
%TA.AperFunction,Conductor*%
%TO.N,/TopGround*%
G36*
X202192201Y-55887064D02*
G01*
X202733444Y-56419254D01*
X202736941Y-56427498D01*
X202735314Y-56433549D01*
X202312397Y-57149252D01*
X202305238Y-57154631D01*
X202302324Y-57155000D01*
X202065676Y-57155000D01*
X202057403Y-57151573D01*
X202055603Y-57149252D01*
X201632685Y-56433549D01*
X201631427Y-56424683D01*
X201634553Y-56419256D01*
X202175798Y-55887064D01*
X202184099Y-55883708D01*
X202192201Y-55887064D01*
G37*
%TD.AperFunction*%
%TD*%
%TA.AperFunction,Conductor*%
%TO.N,/TopGround*%
G36*
X194681597Y-66292427D02*
G01*
X194683397Y-66294748D01*
X195106314Y-67010450D01*
X195107572Y-67019316D01*
X195104444Y-67024745D01*
X194563203Y-67556934D01*
X194554901Y-67560291D01*
X194546797Y-67556934D01*
X194005555Y-67024745D01*
X194002058Y-67016501D01*
X194003684Y-67010452D01*
X194426603Y-66294747D01*
X194433762Y-66289369D01*
X194436676Y-66289000D01*
X194673324Y-66289000D01*
X194681597Y-66292427D01*
G37*
%TD.AperFunction*%
%TD*%
%TA.AperFunction,Conductor*%
%TO.N,/TopGround*%
G36*
X162481066Y-68490381D02*
G01*
X162708378Y-68564236D01*
X162713518Y-68567602D01*
X163143507Y-69052748D01*
X163146430Y-69061212D01*
X163142529Y-69069248D01*
X162567862Y-69580678D01*
X162559404Y-69583618D01*
X162551886Y-69580286D01*
X162031483Y-69069248D01*
X162009171Y-69047338D01*
X162005670Y-69039097D01*
X162008481Y-69031384D01*
X162468566Y-68493900D01*
X162476548Y-68489844D01*
X162481066Y-68490381D01*
G37*
%TD.AperFunction*%
%TD*%
%TA.AperFunction,Conductor*%
%TO.N,/TopGround*%
G36*
X192925678Y-68612150D02*
G01*
X193161974Y-68659146D01*
X193167255Y-68661696D01*
X193604214Y-69032254D01*
X193606209Y-69033946D01*
X193610303Y-69041910D01*
X193607565Y-69050436D01*
X193606613Y-69051433D01*
X193047808Y-69571530D01*
X193039418Y-69574658D01*
X193031831Y-69571498D01*
X192477595Y-69051433D01*
X192475297Y-69049276D01*
X192471610Y-69041118D01*
X192474772Y-69032740D01*
X192475235Y-69032274D01*
X192915357Y-68615132D01*
X192923717Y-68611930D01*
X192925678Y-68612150D01*
G37*
%TD.AperFunction*%
%TD*%
%TA.AperFunction,Conductor*%
%TO.N,/TopGround*%
G36*
X209912597Y-66292427D02*
G01*
X209914397Y-66294748D01*
X210337314Y-67010450D01*
X210338572Y-67019316D01*
X210335444Y-67024745D01*
X209794203Y-67556934D01*
X209785901Y-67560291D01*
X209777797Y-67556934D01*
X209236555Y-67024745D01*
X209233058Y-67016501D01*
X209234684Y-67010452D01*
X209657603Y-66294747D01*
X209664762Y-66289369D01*
X209667676Y-66289000D01*
X209904324Y-66289000D01*
X209912597Y-66292427D01*
G37*
%TD.AperFunction*%
%TD*%
%TA.AperFunction,Conductor*%
%TO.N,/TopGround*%
G36*
X179314581Y-67317144D02*
G01*
X179560819Y-67559395D01*
X179855183Y-67848994D01*
X179858678Y-67857238D01*
X179856812Y-67863672D01*
X179382633Y-68599297D01*
X179375270Y-68604394D01*
X179368322Y-68603768D01*
X179357526Y-68599297D01*
X179328808Y-68587403D01*
X179149919Y-68513316D01*
X179144381Y-68508555D01*
X178754810Y-67863585D01*
X178753466Y-67854732D01*
X178756622Y-67849193D01*
X179298177Y-67317137D01*
X179306480Y-67313784D01*
X179314581Y-67317144D01*
G37*
%TD.AperFunction*%
%TD*%
%TA.AperFunction,Conductor*%
%TO.N,/TopGround*%
G36*
X208166228Y-68550691D02*
G01*
X208401562Y-68597508D01*
X208407488Y-68600646D01*
X208847481Y-69033848D01*
X208850972Y-69042094D01*
X208847609Y-69050394D01*
X208847244Y-69050749D01*
X208287807Y-69571529D01*
X208279417Y-69574658D01*
X208271830Y-69571498D01*
X207714655Y-69048770D01*
X207710966Y-69040610D01*
X207714062Y-69032302D01*
X208155354Y-68554230D01*
X208163482Y-68550476D01*
X208166228Y-68550691D01*
G37*
%TD.AperFunction*%
%TD*%
%TA.AperFunction,Conductor*%
%TO.N,/TopGround*%
G36*
X179432597Y-66038427D02*
G01*
X179434397Y-66040748D01*
X179857314Y-66756450D01*
X179858572Y-66765316D01*
X179855444Y-66770745D01*
X179314203Y-67302934D01*
X179305901Y-67306291D01*
X179297797Y-67302934D01*
X178756555Y-66770745D01*
X178753058Y-66762501D01*
X178754684Y-66756452D01*
X179177603Y-66040747D01*
X179184762Y-66035369D01*
X179187676Y-66035000D01*
X179424324Y-66035000D01*
X179432597Y-66038427D01*
G37*
%TD.AperFunction*%
%TD*%
%TA.AperFunction,Conductor*%
%TO.N,/TopGround*%
G36*
X208201553Y-62415237D02*
G01*
X208429269Y-62489220D01*
X208434165Y-62492321D01*
X208603531Y-62672051D01*
X208863830Y-62948278D01*
X208867010Y-62956649D01*
X208863339Y-62964817D01*
X208863082Y-62965052D01*
X208287871Y-63475689D01*
X208279409Y-63478618D01*
X208271896Y-63475276D01*
X207753424Y-62964817D01*
X207730232Y-62941983D01*
X207726740Y-62933737D01*
X207729768Y-62925793D01*
X208189268Y-62418508D01*
X208197360Y-62414678D01*
X208201553Y-62415237D01*
G37*
%TD.AperFunction*%
%TD*%
%TA.AperFunction,Conductor*%
%TO.N,/TopGround*%
G36*
X164083201Y-55887064D02*
G01*
X164624444Y-56419254D01*
X164627941Y-56427498D01*
X164626314Y-56433549D01*
X164203397Y-57149252D01*
X164196238Y-57154631D01*
X164193324Y-57155000D01*
X163956676Y-57155000D01*
X163948403Y-57151573D01*
X163946603Y-57149252D01*
X163523685Y-56433549D01*
X163522427Y-56424683D01*
X163525553Y-56419256D01*
X164066798Y-55887064D01*
X164075099Y-55883708D01*
X164083201Y-55887064D01*
G37*
%TD.AperFunction*%
%TD*%
%TA.AperFunction,Conductor*%
%TO.N,/TopGround*%
G36*
X164201597Y-60196427D02*
G01*
X164203397Y-60198748D01*
X164626314Y-60914450D01*
X164627572Y-60923316D01*
X164624444Y-60928745D01*
X164083202Y-61460934D01*
X164074900Y-61464291D01*
X164066797Y-61460934D01*
X163525554Y-60928744D01*
X163522058Y-60920501D01*
X163523684Y-60914452D01*
X163946603Y-60198747D01*
X163953762Y-60193369D01*
X163956676Y-60193000D01*
X164193324Y-60193000D01*
X164201597Y-60196427D01*
G37*
%TD.AperFunction*%
%TD*%
%TA.AperFunction,Conductor*%
%TO.N,/TopGround*%
G36*
X209912597Y-60196427D02*
G01*
X209914397Y-60198748D01*
X210337314Y-60914450D01*
X210338572Y-60923316D01*
X210335444Y-60928745D01*
X209794203Y-61460934D01*
X209785901Y-61464291D01*
X209777797Y-61460934D01*
X209236555Y-60928745D01*
X209233058Y-60920501D01*
X209234684Y-60914452D01*
X209657603Y-60198747D01*
X209664762Y-60193369D01*
X209667676Y-60193000D01*
X209904324Y-60193000D01*
X209912597Y-60196427D01*
G37*
%TD.AperFunction*%
%TD*%
%TA.AperFunction,Conductor*%
%TO.N,/TopGround*%
G36*
X209794201Y-55887064D02*
G01*
X210335444Y-56419254D01*
X210338941Y-56427498D01*
X210337314Y-56433549D01*
X209914397Y-57149252D01*
X209907238Y-57154631D01*
X209904324Y-57155000D01*
X209667676Y-57155000D01*
X209659403Y-57151573D01*
X209657603Y-57149252D01*
X209234685Y-56433549D01*
X209233427Y-56424683D01*
X209236553Y-56419256D01*
X209777798Y-55887064D01*
X209786099Y-55883708D01*
X209794201Y-55887064D01*
G37*
%TD.AperFunction*%
%TD*%
%TA.AperFunction,Conductor*%
%TO.N,/TopGround*%
G36*
X164226395Y-66292427D02*
G01*
X164228345Y-66295010D01*
X164626636Y-67010543D01*
X164627665Y-67019438D01*
X164624616Y-67024576D01*
X164083203Y-67556934D01*
X164074901Y-67560291D01*
X164066797Y-67556934D01*
X163525725Y-67024912D01*
X163522228Y-67016668D01*
X163524006Y-67010369D01*
X163971562Y-66294498D01*
X163978855Y-66289299D01*
X163981484Y-66289000D01*
X164218122Y-66289000D01*
X164226395Y-66292427D01*
G37*
%TD.AperFunction*%
%TD*%
%TA.AperFunction,Conductor*%
%TO.N,/TopGround*%
G36*
X164083201Y-61475064D02*
G01*
X164624444Y-62007254D01*
X164627941Y-62015498D01*
X164626314Y-62021549D01*
X164203397Y-62737252D01*
X164196238Y-62742631D01*
X164193324Y-62743000D01*
X163956676Y-62743000D01*
X163948403Y-62739573D01*
X163946603Y-62737252D01*
X163523685Y-62021549D01*
X163522427Y-62012683D01*
X163525553Y-62007256D01*
X164066798Y-61475064D01*
X164075099Y-61471708D01*
X164083201Y-61475064D01*
G37*
%TD.AperFunction*%
%TD*%
%TA.AperFunction,Conductor*%
%TO.N,/TopGround*%
G36*
X209219515Y-55457067D02*
G01*
X209778098Y-55872884D01*
X209782688Y-55880573D01*
X209781064Y-55888421D01*
X209370780Y-56552150D01*
X209363515Y-56557385D01*
X209355917Y-56556617D01*
X208786332Y-56293206D01*
X208782970Y-56290860D01*
X208615548Y-56123438D01*
X208612121Y-56115165D01*
X208615155Y-56107304D01*
X209203866Y-55458588D01*
X209211962Y-55454766D01*
X209219515Y-55457067D01*
G37*
%TD.AperFunction*%
%TD*%
%TA.AperFunction,Conductor*%
%TO.N,/TopGround*%
G36*
X178744913Y-60740969D02*
G01*
X179298830Y-61206718D01*
X179302957Y-61214665D01*
X179301043Y-61222150D01*
X178869628Y-61871115D01*
X178862195Y-61876108D01*
X178853918Y-61874702D01*
X178264349Y-61525159D01*
X178260588Y-61521595D01*
X178128650Y-61324142D01*
X178126904Y-61315362D01*
X178130329Y-61309154D01*
X178729336Y-60741431D01*
X178737697Y-60738228D01*
X178744913Y-60740969D01*
G37*
%TD.AperFunction*%
%TD*%
%TA.AperFunction,Conductor*%
%TO.N,/TopGround*%
G36*
X209220356Y-67114668D02*
G01*
X209778557Y-67556842D01*
X209782914Y-67564665D01*
X209781244Y-67572165D01*
X209371159Y-68235538D01*
X209363894Y-68240773D01*
X209355598Y-68239654D01*
X208764158Y-67916594D01*
X208761332Y-67914434D01*
X208597258Y-67743732D01*
X208593995Y-67735392D01*
X208597389Y-67727382D01*
X209204790Y-67115595D01*
X209213049Y-67112139D01*
X209220356Y-67114668D01*
G37*
%TD.AperFunction*%
%TD*%
%TA.AperFunction,Conductor*%
%TO.N,/TopGround*%
G36*
X178352266Y-68778797D02*
G01*
X178895088Y-68924297D01*
X178900331Y-68927325D01*
X179066944Y-69093951D01*
X179070371Y-69102224D01*
X179067278Y-69110150D01*
X178489172Y-69737908D01*
X178481046Y-69741672D01*
X178474533Y-69740007D01*
X177811993Y-69341349D01*
X177806671Y-69334147D01*
X177808000Y-69325292D01*
X177809670Y-69323134D01*
X178340888Y-68781902D01*
X178349129Y-68778400D01*
X178352266Y-68778797D01*
G37*
%TD.AperFunction*%
%TD*%
%TA.AperFunction,Conductor*%
%TO.N,/TopGround*%
G36*
X195126046Y-61211895D02*
G01*
X195622291Y-62216844D01*
X195622881Y-62225779D01*
X195622225Y-62227336D01*
X195515698Y-62436405D01*
X195508888Y-62442220D01*
X195502232Y-62442391D01*
X194492125Y-62170552D01*
X194485027Y-62165093D01*
X194483512Y-62158217D01*
X194544507Y-61474290D01*
X194548655Y-61466356D01*
X194551253Y-61464710D01*
X195110652Y-61206451D01*
X195119599Y-61206096D01*
X195126046Y-61211895D01*
G37*
%TD.AperFunction*%
%TD*%
%TA.AperFunction,Conductor*%
%TO.N,/TopGround*%
G36*
X163508463Y-67137265D02*
G01*
X164067162Y-67556875D01*
X164071720Y-67564583D01*
X164070088Y-67572382D01*
X163659834Y-68236063D01*
X163652569Y-68241298D01*
X163644868Y-68240482D01*
X163071141Y-67968328D01*
X163067882Y-67966030D01*
X162900476Y-67798623D01*
X162897049Y-67790350D01*
X162900141Y-67782426D01*
X163492832Y-67138693D01*
X163500954Y-67134930D01*
X163508463Y-67137265D01*
G37*
%TD.AperFunction*%
%TD*%
%TA.AperFunction,Conductor*%
%TO.N,/TopGround*%
G36*
X208966214Y-63066172D02*
G01*
X209566131Y-63689084D01*
X209569402Y-63697420D01*
X209565820Y-63705627D01*
X209565797Y-63705649D01*
X209395784Y-63868496D01*
X209391000Y-63871269D01*
X208832409Y-64035983D01*
X208823505Y-64035036D01*
X208820750Y-64032956D01*
X208659342Y-63868496D01*
X208289547Y-63491710D01*
X208286199Y-63483406D01*
X208289703Y-63475166D01*
X208291726Y-63473577D01*
X208951622Y-63064344D01*
X208960458Y-63062897D01*
X208966214Y-63066172D01*
G37*
%TD.AperFunction*%
%TD*%
%TA.AperFunction,Conductor*%
%TO.N,/TopGround*%
G36*
X209219563Y-61048563D02*
G01*
X209778038Y-61460893D01*
X209782659Y-61468564D01*
X209781041Y-61476458D01*
X209370730Y-62140231D01*
X209363465Y-62145466D01*
X209355965Y-62144743D01*
X208790202Y-61889400D01*
X208786742Y-61887009D01*
X208619307Y-61719575D01*
X208615880Y-61711302D01*
X208618863Y-61703498D01*
X209203899Y-61050170D01*
X209211970Y-61046294D01*
X209219563Y-61048563D01*
G37*
%TD.AperFunction*%
%TD*%
%TA.AperFunction,Conductor*%
%TO.N,/TopGround*%
G36*
X193048069Y-63487318D02*
G01*
X193709421Y-63895542D01*
X193714661Y-63902803D01*
X193713232Y-63911643D01*
X193712219Y-63913043D01*
X193345313Y-64347937D01*
X193285212Y-64572306D01*
X193279761Y-64579411D01*
X193270883Y-64580581D01*
X193266688Y-64578484D01*
X192611030Y-64064110D01*
X192606636Y-64056308D01*
X192608936Y-64047827D01*
X192711342Y-63913043D01*
X193032611Y-63490195D01*
X193040344Y-63485683D01*
X193048069Y-63487318D01*
G37*
%TD.AperFunction*%
%TD*%
%TA.AperFunction,Conductor*%
%TO.N,/TopGround*%
G36*
X194700361Y-60158658D02*
G01*
X194891121Y-60297254D01*
X194895343Y-60303016D01*
X195099657Y-60915398D01*
X195099024Y-60924331D01*
X195096755Y-60927449D01*
X194555330Y-61459071D01*
X194547026Y-61462423D01*
X194538785Y-61458920D01*
X194537509Y-61457376D01*
X194095583Y-60818114D01*
X194093697Y-60809360D01*
X194096573Y-60803566D01*
X194684852Y-60160227D01*
X194692961Y-60156435D01*
X194700361Y-60158658D01*
G37*
%TD.AperFunction*%
%TD*%
%TA.AperFunction,Conductor*%
%TO.N,/TopGround*%
G36*
X155952727Y-69796571D02*
G01*
X156571262Y-70019314D01*
X156576763Y-70023444D01*
X156715342Y-70214188D01*
X156717432Y-70222894D01*
X156713625Y-70229830D01*
X156057843Y-70809550D01*
X156049375Y-70812462D01*
X156043297Y-70810307D01*
X155410332Y-70358539D01*
X155405589Y-70350944D01*
X155407606Y-70342219D01*
X155408774Y-70340827D01*
X155940416Y-69799381D01*
X155948656Y-69795879D01*
X155952727Y-69796571D01*
G37*
%TD.AperFunction*%
%TD*%
%TA.AperFunction,Conductor*%
%TO.N,/TopGround*%
G36*
X192999739Y-62303300D02*
G01*
X193535055Y-62909565D01*
X193537962Y-62918034D01*
X193535039Y-62925070D01*
X193047519Y-63474920D01*
X193039467Y-63478837D01*
X193031856Y-63476600D01*
X192402413Y-63016016D01*
X192397760Y-63008365D01*
X192399419Y-63000345D01*
X192769273Y-62412728D01*
X192773857Y-62408540D01*
X192985661Y-62300619D01*
X192994586Y-62299918D01*
X192999739Y-62303300D01*
G37*
%TD.AperFunction*%
%TD*%
%TA.AperFunction,Conductor*%
%TO.N,/TopGround*%
G36*
X179216127Y-59890968D02*
G01*
X179781597Y-60566595D01*
X179784279Y-60575138D01*
X179781984Y-60581125D01*
X179314607Y-61204118D01*
X179306901Y-61208680D01*
X179298227Y-61206456D01*
X179297051Y-61205445D01*
X178755600Y-60673798D01*
X178752097Y-60665557D01*
X178752942Y-60661086D01*
X178788073Y-60573707D01*
X179005606Y-60032655D01*
X179009579Y-60027558D01*
X179200280Y-59889010D01*
X179208985Y-59886921D01*
X179216127Y-59890968D01*
G37*
%TD.AperFunction*%
%TD*%
%TA.AperFunction,Conductor*%
%TO.N,/TopGround*%
G36*
X161916881Y-63030415D02*
G01*
X161917934Y-63031167D01*
X162549675Y-63482459D01*
X162554415Y-63490056D01*
X162552394Y-63498780D01*
X162551222Y-63500176D01*
X162019587Y-64041614D01*
X162011346Y-64045117D01*
X162007268Y-64044422D01*
X161388564Y-63821164D01*
X161383069Y-63817036D01*
X161244491Y-63626293D01*
X161242401Y-63617586D01*
X161246210Y-63610649D01*
X161902339Y-63031166D01*
X161910806Y-63028258D01*
X161916881Y-63030415D01*
G37*
%TD.AperFunction*%
%TD*%
%TA.AperFunction,Conductor*%
%TO.N,/TopGround*%
G36*
X178480532Y-62803378D02*
G01*
X179098669Y-63421923D01*
X179102093Y-63430197D01*
X179098663Y-63438469D01*
X179098503Y-63438627D01*
X178928895Y-63601720D01*
X178924252Y-63604461D01*
X178352487Y-63781855D01*
X178343570Y-63781033D01*
X178340671Y-63778876D01*
X177809410Y-63237574D01*
X177806062Y-63229270D01*
X177809566Y-63221030D01*
X177811456Y-63219525D01*
X178465962Y-62801785D01*
X178474779Y-62800223D01*
X178480532Y-62803378D01*
G37*
%TD.AperFunction*%
%TD*%
%TA.AperFunction,Conductor*%
%TO.N,/TopGround*%
G36*
X193988319Y-67123959D02*
G01*
X194547394Y-67556860D01*
X194551837Y-67564635D01*
X194550183Y-67572263D01*
X194140039Y-68235731D01*
X194132774Y-68240966D01*
X194124691Y-68239960D01*
X193542346Y-67937278D01*
X193539308Y-67935006D01*
X193375155Y-67764279D01*
X193371891Y-67755940D01*
X193375145Y-67748071D01*
X193972716Y-67125110D01*
X193980914Y-67121514D01*
X193988319Y-67123959D01*
G37*
%TD.AperFunction*%
%TD*%
%TA.AperFunction,Conductor*%
%TO.N,/BottomGround*%
G36*
X167767344Y-62344427D02*
G01*
X167768506Y-62345781D01*
X168208857Y-62946250D01*
X168210986Y-62954948D01*
X168207411Y-62961717D01*
X167647989Y-63484533D01*
X167639604Y-63487678D01*
X167632011Y-63484533D01*
X167072588Y-62961717D01*
X167068884Y-62953565D01*
X167071141Y-62946251D01*
X167511493Y-62345781D01*
X167519150Y-62341136D01*
X167520929Y-62341000D01*
X167759071Y-62341000D01*
X167767344Y-62344427D01*
G37*
%TD.AperFunction*%
%TD*%
%TA.AperFunction,Conductor*%
%TO.N,/BottomGround*%
G36*
X167891690Y-55888830D02*
G01*
X167892930Y-55890320D01*
X168339104Y-56527222D01*
X168341044Y-56535964D01*
X168338068Y-56541925D01*
X167768468Y-57151290D01*
X167760315Y-57154993D01*
X167759921Y-57155000D01*
X167524091Y-57155000D01*
X167515818Y-57151573D01*
X167512754Y-57146191D01*
X167330692Y-56432189D01*
X167331968Y-56423326D01*
X167333826Y-56420955D01*
X167875145Y-55888689D01*
X167883446Y-55885333D01*
X167891690Y-55888830D01*
G37*
%TD.AperFunction*%
%TD*%
%TA.AperFunction,Conductor*%
%TO.N,/BottomGround*%
G36*
X157212563Y-58451046D02*
G01*
X157489271Y-58474106D01*
X157489272Y-58474106D01*
X157497232Y-58478209D01*
X157500000Y-58485766D01*
X157500000Y-58714233D01*
X157496573Y-58722506D01*
X157489272Y-58725893D01*
X157212587Y-58748951D01*
X157204058Y-58746223D01*
X157199955Y-58738263D01*
X157199915Y-58737389D01*
X157199000Y-58600000D01*
X157199915Y-58462628D01*
X157203397Y-58454380D01*
X157211693Y-58451008D01*
X157212563Y-58451046D01*
G37*
%TD.AperFunction*%
%TD*%
%TA.AperFunction,Conductor*%
%TO.N,/BottomGround*%
G36*
X157820718Y-58032588D02*
G01*
X158343533Y-58592010D01*
X158346678Y-58600395D01*
X158343533Y-58607988D01*
X157820718Y-59167411D01*
X157812566Y-59171115D01*
X157805251Y-59168857D01*
X157204781Y-58728506D01*
X157200136Y-58720850D01*
X157200000Y-58719071D01*
X157200000Y-58480928D01*
X157203427Y-58472655D01*
X157204773Y-58471499D01*
X157805252Y-58031141D01*
X157813949Y-58029013D01*
X157820718Y-58032588D01*
G37*
%TD.AperFunction*%
%TD*%
%TA.AperFunction,Conductor*%
%TO.N,/BottomGround*%
G36*
X199195941Y-63335776D02*
G01*
X199200044Y-63343736D01*
X199200084Y-63344630D01*
X199201000Y-63482000D01*
X199200084Y-63619369D01*
X199196602Y-63627619D01*
X199188306Y-63630991D01*
X199187412Y-63630951D01*
X198910728Y-63607894D01*
X198902768Y-63603792D01*
X198900000Y-63596234D01*
X198900000Y-63367766D01*
X198903427Y-63359493D01*
X198910728Y-63356106D01*
X199187414Y-63333048D01*
X199195941Y-63335776D01*
G37*
%TD.AperFunction*%
%TD*%
%TA.AperFunction,Conductor*%
%TO.N,/BottomGround*%
G36*
X198754110Y-62986320D02*
G01*
X199195779Y-63353491D01*
X199199951Y-63361415D01*
X199200000Y-63362488D01*
X199200000Y-63601511D01*
X199196573Y-63609784D01*
X199195779Y-63610508D01*
X198754110Y-63977679D01*
X198745558Y-63980333D01*
X198739326Y-63977821D01*
X198279777Y-63610508D01*
X198130432Y-63491137D01*
X198126110Y-63483297D01*
X198128599Y-63474695D01*
X198130429Y-63472864D01*
X198739327Y-62986177D01*
X198747928Y-62983689D01*
X198754110Y-62986320D01*
G37*
%TD.AperFunction*%
%TD*%
%TA.AperFunction,Conductor*%
%TO.N,/BottomGround*%
G36*
X153996761Y-61640151D02*
G01*
X154095207Y-61737293D01*
X154190970Y-61834342D01*
X154194342Y-61842638D01*
X154190860Y-61850888D01*
X154189482Y-61852052D01*
X153965813Y-62013218D01*
X153957097Y-62015275D01*
X153950700Y-62011999D01*
X153789178Y-61850476D01*
X153785751Y-61842203D01*
X153789121Y-61833988D01*
X153980217Y-61640263D01*
X153988465Y-61636780D01*
X153996761Y-61640151D01*
G37*
%TD.AperFunction*%
%TD*%
%TA.AperFunction,Conductor*%
%TO.N,/BottomGround*%
G36*
X213163509Y-62153026D02*
G01*
X213164207Y-62153799D01*
X213352532Y-62382008D01*
X213355155Y-62390570D01*
X213350955Y-62398479D01*
X213349358Y-62399588D01*
X213151767Y-62513665D01*
X213142889Y-62514833D01*
X213138583Y-62512648D01*
X213063973Y-62452629D01*
X212954024Y-62364183D01*
X212949727Y-62356329D01*
X212952243Y-62347734D01*
X212953020Y-62346861D01*
X213049501Y-62249134D01*
X213146963Y-62152919D01*
X213155258Y-62149546D01*
X213163509Y-62153026D01*
G37*
%TD.AperFunction*%
%TD*%
%TA.AperFunction,Conductor*%
%TO.N,/BottomGround*%
G36*
X183007344Y-62081427D02*
G01*
X183008506Y-62082781D01*
X183448857Y-62683250D01*
X183450986Y-62691948D01*
X183447411Y-62698717D01*
X182887989Y-63221533D01*
X182879604Y-63224678D01*
X182872011Y-63221533D01*
X182312588Y-62698717D01*
X182308884Y-62690565D01*
X182311141Y-62683251D01*
X182751493Y-62082781D01*
X182759150Y-62078136D01*
X182760929Y-62078000D01*
X182999071Y-62078000D01*
X183007344Y-62081427D01*
G37*
%TD.AperFunction*%
%TD*%
%TA.AperFunction,Conductor*%
%TO.N,/BottomGround*%
G36*
X154860744Y-63550554D02*
G01*
X155392934Y-64091797D01*
X155396291Y-64100098D01*
X155392934Y-64108202D01*
X154860745Y-64649444D01*
X154852501Y-64652941D01*
X154846450Y-64651314D01*
X154130748Y-64228396D01*
X154125369Y-64221237D01*
X154125000Y-64218323D01*
X154125000Y-63981676D01*
X154128427Y-63973403D01*
X154130745Y-63971604D01*
X154846451Y-63548684D01*
X154855316Y-63547427D01*
X154860744Y-63550554D01*
G37*
%TD.AperFunction*%
%TD*%
%TA.AperFunction,Conductor*%
%TO.N,/BottomGround*%
G36*
X197580745Y-62932555D02*
G01*
X198112934Y-63473797D01*
X198116291Y-63482099D01*
X198112934Y-63490203D01*
X197580745Y-64031444D01*
X197572501Y-64034941D01*
X197566450Y-64033314D01*
X196850748Y-63610396D01*
X196845369Y-63603237D01*
X196845000Y-63600323D01*
X196845000Y-63363676D01*
X196848427Y-63355403D01*
X196850745Y-63353604D01*
X197566451Y-62930684D01*
X197575316Y-62929427D01*
X197580745Y-62932555D01*
G37*
%TD.AperFunction*%
%TD*%
%TA.AperFunction,Conductor*%
%TO.N,/BottomGround*%
G36*
X153522507Y-65803427D02*
G01*
X153525894Y-65810728D01*
X153548951Y-66087412D01*
X153546223Y-66095942D01*
X153538263Y-66100044D01*
X153537369Y-66100084D01*
X153400000Y-66101000D01*
X153262630Y-66100084D01*
X153254380Y-66096602D01*
X153251008Y-66088306D01*
X153251046Y-66087437D01*
X153274106Y-65810728D01*
X153278209Y-65802768D01*
X153285766Y-65800000D01*
X153514234Y-65800000D01*
X153522507Y-65803427D01*
G37*
%TD.AperFunction*%
%TD*%
%TA.AperFunction,Conductor*%
%TO.N,/BottomGround*%
G36*
X186965108Y-72371737D02*
G01*
X186969333Y-72375385D01*
X187431668Y-73026033D01*
X187433667Y-73034762D01*
X187431272Y-73040113D01*
X186943401Y-73650821D01*
X186935560Y-73655146D01*
X186926957Y-73652659D01*
X186926060Y-73651863D01*
X186385201Y-73120393D01*
X186381701Y-73112150D01*
X186383020Y-73106652D01*
X186724384Y-72449883D01*
X186731146Y-72444155D01*
X186956180Y-72371035D01*
X186965108Y-72371737D01*
G37*
%TD.AperFunction*%
%TD*%
%TA.AperFunction,Conductor*%
%TO.N,/BottomGround*%
G36*
X156592370Y-72654915D02*
G01*
X156600619Y-72658397D01*
X156603991Y-72666693D01*
X156603951Y-72667587D01*
X156580894Y-72944272D01*
X156576792Y-72952232D01*
X156569234Y-72955000D01*
X156340766Y-72955000D01*
X156332493Y-72951573D01*
X156329106Y-72944272D01*
X156306048Y-72667584D01*
X156308776Y-72659058D01*
X156316736Y-72654955D01*
X156317608Y-72654915D01*
X156455000Y-72654000D01*
X156592370Y-72654915D01*
G37*
%TD.AperFunction*%
%TD*%
%TA.AperFunction,Conductor*%
%TO.N,/BottomGround*%
G36*
X156583413Y-72658426D02*
G01*
X156949404Y-73025822D01*
X156952815Y-73034100D01*
X156950254Y-73041383D01*
X156464139Y-73649566D01*
X156456297Y-73653889D01*
X156447695Y-73651400D01*
X156445861Y-73649566D01*
X155959745Y-73041383D01*
X155957256Y-73032781D01*
X155960593Y-73025824D01*
X156326570Y-72658442D01*
X156334837Y-72655000D01*
X156575141Y-72655000D01*
X156583413Y-72658426D01*
G37*
%TD.AperFunction*%
%TD*%
%TA.AperFunction,Conductor*%
%TO.N,/BottomGround*%
G36*
X195133788Y-55724307D02*
G01*
X195139313Y-55731355D01*
X195139728Y-55733916D01*
X195191873Y-56779845D01*
X195191880Y-56780136D01*
X195191881Y-57010816D01*
X195188454Y-57019089D01*
X195180181Y-57022516D01*
X195174825Y-57021218D01*
X194326932Y-56584660D01*
X194321145Y-56577826D01*
X194321244Y-56570393D01*
X194560982Y-55885761D01*
X194566951Y-55879087D01*
X194568878Y-55878359D01*
X195124901Y-55723229D01*
X195133788Y-55724307D01*
G37*
%TD.AperFunction*%
%TD*%
%TA.AperFunction,Conductor*%
%TO.N,/BottomGround*%
G36*
X167756715Y-68406429D02*
G01*
X167954128Y-68538336D01*
X167957751Y-68542198D01*
X168303116Y-69138337D01*
X168304298Y-69147213D01*
X168299419Y-69153979D01*
X167648161Y-69582100D01*
X167639365Y-69583781D01*
X167632756Y-69579825D01*
X167169514Y-69025405D01*
X167166839Y-69016859D01*
X167170008Y-69009847D01*
X167741734Y-68408098D01*
X167749917Y-68404462D01*
X167756715Y-68406429D01*
G37*
%TD.AperFunction*%
%TD*%
%TA.AperFunction,Conductor*%
%TO.N,/BottomGround*%
G36*
X194571260Y-55889035D02*
G01*
X194572504Y-55890533D01*
X194946064Y-56425671D01*
X195017417Y-56527886D01*
X195019342Y-56536631D01*
X195016497Y-56542434D01*
X194430779Y-57189545D01*
X194422687Y-57193380D01*
X194415228Y-57191160D01*
X194224471Y-57052568D01*
X194220276Y-57046885D01*
X194010411Y-56432640D01*
X194010979Y-56423703D01*
X194013283Y-56420513D01*
X194554715Y-55888883D01*
X194563019Y-55885532D01*
X194571260Y-55889035D01*
G37*
%TD.AperFunction*%
%TD*%
%TA.AperFunction,Conductor*%
%TO.N,/BottomGround*%
G36*
X182911932Y-68138223D02*
G01*
X183123720Y-68246139D01*
X183128164Y-68250106D01*
X183388706Y-68643709D01*
X183466590Y-68761371D01*
X183510871Y-68828266D01*
X183512580Y-68837056D01*
X183508223Y-68844017D01*
X182888086Y-69318357D01*
X182879433Y-69320662D01*
X182872317Y-69316930D01*
X182442855Y-68844017D01*
X182374732Y-68769001D01*
X182371707Y-68760572D01*
X182374497Y-68753536D01*
X182897724Y-68141049D01*
X182905703Y-68136984D01*
X182911932Y-68138223D01*
G37*
%TD.AperFunction*%
%TD*%
%TA.AperFunction,Conductor*%
%TO.N,/BottomGround*%
G36*
X202192784Y-72361095D02*
G01*
X202196977Y-72364698D01*
X202671609Y-73026022D01*
X202673649Y-73034741D01*
X202671245Y-73040147D01*
X202183401Y-73650821D01*
X202175560Y-73655146D01*
X202166957Y-73652659D01*
X202166060Y-73651863D01*
X201625067Y-73120261D01*
X201621567Y-73112018D01*
X201622775Y-73106739D01*
X201662603Y-73026022D01*
X201952046Y-72439430D01*
X201958779Y-72433528D01*
X201958850Y-72433504D01*
X202183856Y-72360393D01*
X202192784Y-72361095D01*
G37*
%TD.AperFunction*%
%TD*%
%TA.AperFunction,Conductor*%
%TO.N,/BottomGround*%
G36*
X197809347Y-55618451D02*
G01*
X198368742Y-55876708D01*
X198374817Y-55883287D01*
X198375492Y-55886292D01*
X198436487Y-56570215D01*
X198433808Y-56578760D01*
X198427874Y-56582552D01*
X197417767Y-56854391D01*
X197408887Y-56853232D01*
X197404301Y-56848405D01*
X197297774Y-56639336D01*
X197297072Y-56630409D01*
X197297703Y-56628853D01*
X197793953Y-55623894D01*
X197800689Y-55617994D01*
X197809347Y-55618451D01*
G37*
%TD.AperFunction*%
%TD*%
%TA.AperFunction,Conductor*%
%TO.N,/BottomGround*%
G36*
X183580293Y-62882714D02*
G01*
X184113278Y-63592964D01*
X184115503Y-63601638D01*
X184110943Y-63609344D01*
X184108398Y-63610795D01*
X183892515Y-63700223D01*
X183890135Y-63700924D01*
X183336957Y-63801732D01*
X183328203Y-63799844D01*
X183325643Y-63797429D01*
X182888382Y-63238284D01*
X182885986Y-63229658D01*
X182890392Y-63221863D01*
X182892305Y-63220645D01*
X183565648Y-62879301D01*
X183574575Y-62878618D01*
X183580293Y-62882714D01*
G37*
%TD.AperFunction*%
%TD*%
%TA.AperFunction,Conductor*%
%TO.N,/BottomGround*%
G36*
X193988319Y-73222660D02*
G01*
X194055104Y-73274054D01*
X194547337Y-73652852D01*
X194551804Y-73660612D01*
X194550154Y-73668275D01*
X194139979Y-74331828D01*
X194132714Y-74337063D01*
X194124741Y-74336114D01*
X193539545Y-74039738D01*
X193536558Y-74037573D01*
X193369202Y-73870217D01*
X193365775Y-73861944D01*
X193369025Y-73853852D01*
X193972738Y-73223835D01*
X193980935Y-73220235D01*
X193988319Y-73222660D01*
G37*
%TD.AperFunction*%
%TD*%
%TA.AperFunction,Conductor*%
%TO.N,/BottomGround*%
G36*
X202183549Y-73666724D02*
G01*
X202185084Y-73667741D01*
X202744620Y-74105788D01*
X202749022Y-74113587D01*
X202748976Y-74116754D01*
X202650141Y-74768988D01*
X202646846Y-74775508D01*
X202480563Y-74941791D01*
X202472290Y-74945218D01*
X202464547Y-74942288D01*
X202109043Y-74628365D01*
X201799132Y-74354702D01*
X201795199Y-74346657D01*
X201796643Y-74340260D01*
X202167645Y-73671280D01*
X202174652Y-73665709D01*
X202183549Y-73666724D01*
G37*
%TD.AperFunction*%
%TD*%
%TA.AperFunction,Conductor*%
%TO.N,/BottomGround*%
G36*
X171702525Y-73668469D02*
G01*
X171704987Y-73670316D01*
X171707670Y-73672946D01*
X172245987Y-74200785D01*
X172249495Y-74209024D01*
X172249040Y-74212375D01*
X172107460Y-74704309D01*
X172107242Y-74704930D01*
X172017789Y-74920882D01*
X172011457Y-74927213D01*
X172002502Y-74927213D01*
X171999479Y-74925383D01*
X171315369Y-74353880D01*
X171311217Y-74345946D01*
X171312666Y-74339176D01*
X171686596Y-73672945D01*
X171693634Y-73667408D01*
X171702525Y-73668469D01*
G37*
%TD.AperFunction*%
%TD*%
%TA.AperFunction,Conductor*%
%TO.N,/BottomGround*%
G36*
X179322791Y-55633688D02*
G01*
X179324438Y-55635034D01*
X179865853Y-56166647D01*
X179869356Y-56174888D01*
X179868816Y-56178509D01*
X179677361Y-56786573D01*
X179673078Y-56792524D01*
X179482308Y-56931130D01*
X179473601Y-56933221D01*
X179466890Y-56929662D01*
X178872751Y-56295102D01*
X178869598Y-56286720D01*
X178871596Y-56280558D01*
X179306547Y-55636831D01*
X179314018Y-55631895D01*
X179322791Y-55633688D01*
G37*
%TD.AperFunction*%
%TD*%
%TA.AperFunction,Conductor*%
%TO.N,/BottomGround*%
G36*
X209792559Y-73651943D02*
G01*
X209794297Y-73654213D01*
X210184481Y-74318395D01*
X210185717Y-74327264D01*
X210182412Y-74332840D01*
X209535372Y-74941887D01*
X209526999Y-74945063D01*
X209519080Y-74941641D01*
X209352810Y-74775373D01*
X209349623Y-74769456D01*
X209231313Y-74193913D01*
X209233003Y-74185119D01*
X209234572Y-74183212D01*
X209776013Y-73651788D01*
X209784318Y-73648440D01*
X209792559Y-73651943D01*
G37*
%TD.AperFunction*%
%TD*%
%TA.AperFunction,Conductor*%
%TO.N,/BottomGround*%
G36*
X209291004Y-73023685D02*
G01*
X209780064Y-73633934D01*
X209782564Y-73642533D01*
X209778866Y-73649852D01*
X209232255Y-74153917D01*
X209223850Y-74157006D01*
X209216818Y-74154292D01*
X208600358Y-73638844D01*
X208596209Y-73630908D01*
X208597437Y-73624559D01*
X208705350Y-73412772D01*
X208709168Y-73408429D01*
X209275271Y-73021343D01*
X209284034Y-73019503D01*
X209291004Y-73023685D01*
G37*
%TD.AperFunction*%
%TD*%
%TA.AperFunction,Conductor*%
%TO.N,/BottomGround*%
G36*
X186376328Y-73173807D02*
G01*
X186927828Y-73652486D01*
X186931830Y-73660497D01*
X186929727Y-73668055D01*
X186481177Y-74305471D01*
X186473614Y-74310265D01*
X186465388Y-74308646D01*
X185879737Y-73940851D01*
X185876493Y-73937820D01*
X185737091Y-73745943D01*
X185735001Y-73737236D01*
X185738756Y-73730346D01*
X186360860Y-73173921D01*
X186369310Y-73170961D01*
X186376328Y-73173807D01*
G37*
%TD.AperFunction*%
%TD*%
%TA.AperFunction,Conductor*%
%TO.N,/BottomGround*%
G36*
X183521977Y-68840157D02*
G01*
X184182858Y-69386922D01*
X184187048Y-69394836D01*
X184185825Y-69401249D01*
X184078562Y-69611761D01*
X184072539Y-69617289D01*
X183432930Y-69877022D01*
X183423975Y-69876960D01*
X183420181Y-69874381D01*
X182888359Y-69332964D01*
X182885006Y-69324660D01*
X182888507Y-69316418D01*
X182889560Y-69315501D01*
X183507384Y-68839900D01*
X183516028Y-68837570D01*
X183521977Y-68840157D01*
G37*
%TD.AperFunction*%
%TD*%
%TA.AperFunction,Conductor*%
%TO.N,/BottomGround*%
G36*
X164082605Y-73668281D02*
G01*
X164083401Y-73669178D01*
X164571217Y-74279818D01*
X164573704Y-74288421D01*
X164571549Y-74293988D01*
X164092399Y-74954983D01*
X164084769Y-74959670D01*
X164079310Y-74959243D01*
X163854369Y-74886152D01*
X163847560Y-74880337D01*
X163847466Y-74880147D01*
X163522713Y-74213236D01*
X163522173Y-74204300D01*
X163525030Y-74199774D01*
X164066062Y-73668134D01*
X164074362Y-73664781D01*
X164082605Y-73668281D01*
G37*
%TD.AperFunction*%
%TD*%
%TA.AperFunction,Conductor*%
%TO.N,/BottomGround*%
G36*
X213622424Y-68416319D02*
G01*
X213789874Y-68583768D01*
X213792325Y-68587363D01*
X214036914Y-69148032D01*
X214037081Y-69156985D01*
X214032342Y-69162662D01*
X213368506Y-69573011D01*
X213359667Y-69574446D01*
X213352905Y-69569959D01*
X213055493Y-69162662D01*
X212945205Y-69011627D01*
X212943095Y-69002925D01*
X212946925Y-68995945D01*
X213606425Y-68415806D01*
X213614898Y-68412916D01*
X213622424Y-68416319D01*
G37*
%TD.AperFunction*%
%TD*%
%TA.AperFunction,Conductor*%
%TO.N,/BottomGround*%
G36*
X179356553Y-73609948D02*
G01*
X179358294Y-73612223D01*
X179747954Y-74276315D01*
X179749185Y-74285185D01*
X179745709Y-74290915D01*
X179107722Y-74867654D01*
X179099287Y-74870660D01*
X179091603Y-74867248D01*
X178925057Y-74700702D01*
X178921936Y-74695084D01*
X178795519Y-74152071D01*
X178796981Y-74143236D01*
X178798716Y-74141071D01*
X179340008Y-73609793D01*
X179348312Y-73606445D01*
X179356553Y-73609948D01*
G37*
%TD.AperFunction*%
%TD*%
%TA.AperFunction,Conductor*%
%TO.N,/BottomGround*%
G36*
X166960558Y-69204391D02*
G01*
X167628816Y-69579616D01*
X167634352Y-69586655D01*
X167633290Y-69595546D01*
X167632301Y-69597030D01*
X167194265Y-70156551D01*
X167186466Y-70160953D01*
X167183170Y-70160887D01*
X166527121Y-70053982D01*
X166520730Y-70050707D01*
X166354450Y-69884427D01*
X166351023Y-69876154D01*
X166354004Y-69868352D01*
X166946112Y-69206789D01*
X166954183Y-69202911D01*
X166960558Y-69204391D01*
G37*
%TD.AperFunction*%
%TD*%
%TA.AperFunction,Conductor*%
%TO.N,/BottomGround*%
G36*
X171582663Y-72343934D02*
G01*
X172158742Y-73004881D01*
X172161595Y-73013369D01*
X172159403Y-73019424D01*
X171703558Y-73649786D01*
X171695933Y-73654482D01*
X171687221Y-73652411D01*
X171685880Y-73651278D01*
X171684360Y-73649786D01*
X171144439Y-73119640D01*
X171140936Y-73111399D01*
X171141667Y-73107222D01*
X171174247Y-73019424D01*
X171372143Y-72486120D01*
X171376231Y-72480729D01*
X171566968Y-72342154D01*
X171575673Y-72340065D01*
X171582663Y-72343934D01*
G37*
%TD.AperFunction*%
%TD*%
%TA.AperFunction,Conductor*%
%TO.N,/BottomGround*%
G36*
X186942691Y-73667803D02*
G01*
X186944414Y-73669199D01*
X187485839Y-74200635D01*
X187489342Y-74208876D01*
X187488795Y-74212524D01*
X187297835Y-74814356D01*
X187294788Y-74819255D01*
X187125159Y-74982179D01*
X187116818Y-74985439D01*
X187108616Y-74981846D01*
X187108577Y-74981805D01*
X186497971Y-74332551D01*
X186494801Y-74324178D01*
X186496747Y-74318067D01*
X186926473Y-73671075D01*
X186933904Y-73666080D01*
X186942691Y-73667803D01*
G37*
%TD.AperFunction*%
%TD*%
%TA.AperFunction,Conductor*%
%TO.N,/BottomGround*%
G36*
X201613747Y-73187685D02*
G01*
X202167829Y-73652729D01*
X202171963Y-73660672D01*
X202170060Y-73668153D01*
X201739573Y-74317809D01*
X201732147Y-74322812D01*
X201723916Y-74321447D01*
X201129004Y-73973700D01*
X201125180Y-73970099D01*
X200993273Y-73772696D01*
X200991526Y-73763914D01*
X200994967Y-73757691D01*
X201598196Y-73188140D01*
X201606563Y-73184953D01*
X201613747Y-73187685D01*
G37*
%TD.AperFunction*%
%TD*%
%TA.AperFunction,Conductor*%
%TO.N,/BottomGround*%
G36*
X156462736Y-73668149D02*
G01*
X156465201Y-73669999D01*
X157006448Y-74201233D01*
X157009951Y-74209474D01*
X157009724Y-74211883D01*
X156906701Y-74725760D01*
X156903502Y-74731733D01*
X156736832Y-74898403D01*
X156728559Y-74901830D01*
X156721013Y-74899071D01*
X156074953Y-74353818D01*
X156070841Y-74345864D01*
X156072298Y-74339148D01*
X156446806Y-73672616D01*
X156453845Y-73667084D01*
X156462736Y-73668149D01*
G37*
%TD.AperFunction*%
%TD*%
%TA.AperFunction,Conductor*%
%TO.N,/BottomGround*%
G36*
X168298356Y-69128236D02*
G01*
X168953164Y-69708636D01*
X168957082Y-69716688D01*
X168954868Y-69724269D01*
X168816283Y-69915008D01*
X168810762Y-69919146D01*
X168192718Y-70140446D01*
X168183774Y-70140009D01*
X168180426Y-70137628D01*
X167648793Y-69596192D01*
X167645441Y-69587888D01*
X167648944Y-69579647D01*
X167650350Y-69578467D01*
X168283810Y-69127460D01*
X168292536Y-69125454D01*
X168298356Y-69128236D01*
G37*
%TD.AperFunction*%
%TD*%
%TA.AperFunction,Conductor*%
%TO.N,Net-(D28-A)*%
G36*
X211958507Y-68567427D02*
G01*
X211961894Y-68574728D01*
X211984951Y-68851412D01*
X211982223Y-68859942D01*
X211974263Y-68864044D01*
X211973369Y-68864084D01*
X211836000Y-68865000D01*
X211698630Y-68864084D01*
X211690380Y-68860602D01*
X211687008Y-68852306D01*
X211687046Y-68851437D01*
X211710106Y-68574728D01*
X211714209Y-68566768D01*
X211721766Y-68564000D01*
X211950234Y-68564000D01*
X211958507Y-68567427D01*
G37*
%TD.AperFunction*%
%TD*%
%TA.AperFunction,Conductor*%
%TO.N,Net-(D28-A)*%
G36*
X211844202Y-67571065D02*
G01*
X212385444Y-68103254D01*
X212388941Y-68111498D01*
X212387314Y-68117549D01*
X211964397Y-68833252D01*
X211957238Y-68838631D01*
X211954324Y-68839000D01*
X211717676Y-68839000D01*
X211709403Y-68835573D01*
X211707603Y-68833252D01*
X211284685Y-68117549D01*
X211283427Y-68108683D01*
X211286553Y-68103256D01*
X211827799Y-67571063D01*
X211836098Y-67567708D01*
X211844202Y-67571065D01*
G37*
%TD.AperFunction*%
%TD*%
%TA.AperFunction,Conductor*%
%TO.N,Net-(D28-A)*%
G36*
X212113620Y-71102916D02*
G01*
X212114224Y-71103576D01*
X212195216Y-71199293D01*
X212293566Y-71315525D01*
X212296294Y-71324054D01*
X212292907Y-71331355D01*
X212131355Y-71492907D01*
X212123082Y-71496334D01*
X212115525Y-71493566D01*
X212016636Y-71409890D01*
X211903576Y-71314224D01*
X211899474Y-71306264D01*
X211902202Y-71297734D01*
X211902794Y-71297086D01*
X211999293Y-71199293D01*
X212097075Y-71102805D01*
X212105370Y-71099434D01*
X212113620Y-71102916D01*
G37*
%TD.AperFunction*%
%TD*%
%TA.AperFunction,Conductor*%
%TO.N,Net-(D28-A)*%
G36*
X213368003Y-71634467D02*
G01*
X213926656Y-72156564D01*
X213930360Y-72164716D01*
X213927399Y-72172899D01*
X213488546Y-72665031D01*
X213480482Y-72668925D01*
X213479632Y-72668943D01*
X213240121Y-72665224D01*
X213231902Y-72661669D01*
X213231601Y-72661345D01*
X212792676Y-72172911D01*
X212789695Y-72164467D01*
X212793388Y-72156544D01*
X213352026Y-71634466D01*
X213360410Y-71631322D01*
X213368003Y-71634467D01*
G37*
%TD.AperFunction*%
%TD*%
%TA.AperFunction,Conductor*%
%TO.N,Net-(D28-A)*%
G36*
X204421786Y-80892456D02*
G01*
X204651795Y-80954085D01*
X204658111Y-80958345D01*
X205109423Y-81557298D01*
X205111665Y-81565968D01*
X205107749Y-81573174D01*
X204507780Y-82093987D01*
X204499286Y-82096823D01*
X204492037Y-82093620D01*
X203923678Y-81551798D01*
X203920054Y-81543610D01*
X203922441Y-81536243D01*
X204409452Y-80896669D01*
X204417191Y-80892164D01*
X204421786Y-80892456D01*
G37*
%TD.AperFunction*%
%TD*%
%TA.AperFunction,Conductor*%
%TO.N,Net-(D28-A)*%
G36*
X212816359Y-71074971D02*
G01*
X212819408Y-71077204D01*
X213001138Y-71262360D01*
X213350669Y-71618480D01*
X213354018Y-71626785D01*
X213350515Y-71635026D01*
X213348679Y-71636496D01*
X212697007Y-72058575D01*
X212688201Y-72060196D01*
X212682388Y-72057042D01*
X212068680Y-71445426D01*
X212065239Y-71437159D01*
X212068651Y-71428881D01*
X212235174Y-71262358D01*
X212239812Y-71259511D01*
X212807433Y-71074280D01*
X212816359Y-71074971D01*
G37*
%TD.AperFunction*%
%TD*%
%TA.AperFunction,Conductor*%
%TO.N,Net-(D1-A)*%
G36*
X161925920Y-65066825D02*
G01*
X161926498Y-65067256D01*
X162550067Y-65532400D01*
X162554649Y-65540093D01*
X162552449Y-65548774D01*
X162551419Y-65549975D01*
X162019774Y-66091424D01*
X162011533Y-66094927D01*
X162007107Y-66094101D01*
X161379839Y-65844937D01*
X161374693Y-65840940D01*
X161359333Y-65819800D01*
X161236140Y-65650242D01*
X161234050Y-65641537D01*
X161238067Y-65634420D01*
X161911390Y-65067255D01*
X161919924Y-65064547D01*
X161925920Y-65066825D01*
G37*
%TD.AperFunction*%
%TD*%
%TA.AperFunction,Conductor*%
%TO.N,Net-(D1-A)*%
G36*
X158320527Y-72345895D02*
G01*
X158935385Y-72983141D01*
X158938663Y-72991474D01*
X158936774Y-72997642D01*
X158513488Y-73648728D01*
X158506106Y-73653797D01*
X158497302Y-73652160D01*
X158495486Y-73650703D01*
X157954086Y-73119292D01*
X157950584Y-73111052D01*
X157951086Y-73107550D01*
X158131267Y-72513627D01*
X158134354Y-72508591D01*
X158304002Y-72345581D01*
X158312340Y-72342321D01*
X158320527Y-72345895D01*
G37*
%TD.AperFunction*%
%TD*%
%TA.AperFunction,Conductor*%
%TO.N,Net-(D1-A)*%
G36*
X160225553Y-80867890D02*
G01*
X160777768Y-81508950D01*
X160780571Y-81517454D01*
X160777537Y-81524480D01*
X160257476Y-82093209D01*
X160249364Y-82097002D01*
X160242006Y-82094810D01*
X159597776Y-81631053D01*
X159593064Y-81623438D01*
X159594700Y-81615342D01*
X159995090Y-80977166D01*
X159999686Y-80972962D01*
X160211377Y-80865101D01*
X160220305Y-80864400D01*
X160225553Y-80867890D01*
G37*
%TD.AperFunction*%
%TD*%
%TA.AperFunction,Conductor*%
%TO.N,Net-(D2-A)*%
G36*
X166869861Y-64588074D02*
G01*
X167867410Y-64961755D01*
X167873955Y-64967865D01*
X167874261Y-64976814D01*
X167874117Y-64977182D01*
X167643112Y-65535737D01*
X167636783Y-65542072D01*
X167634135Y-65542820D01*
X166950101Y-65651441D01*
X166941393Y-65649354D01*
X166937060Y-65643248D01*
X166667773Y-64745719D01*
X166668677Y-64736812D01*
X166671854Y-64733078D01*
X166858643Y-64589749D01*
X166867291Y-64587432D01*
X166869861Y-64588074D01*
G37*
%TD.AperFunction*%
%TD*%
%TA.AperFunction,Conductor*%
%TO.N,Net-(D2-A)*%
G36*
X172077304Y-80903427D02*
G01*
X172078504Y-80904834D01*
X172543855Y-81546853D01*
X172545936Y-81555562D01*
X172542254Y-81562375D01*
X171957872Y-82093840D01*
X171949446Y-82096871D01*
X171942128Y-82093840D01*
X171357745Y-81562375D01*
X171353930Y-81554273D01*
X171356143Y-81546855D01*
X171821496Y-80904833D01*
X171829126Y-80900146D01*
X171830969Y-80900000D01*
X172069031Y-80900000D01*
X172077304Y-80903427D01*
G37*
%TD.AperFunction*%
%TD*%
%TA.AperFunction,Conductor*%
%TO.N,Net-(D2-A)*%
G36*
X170337370Y-76999915D02*
G01*
X170345619Y-77003397D01*
X170348991Y-77011693D01*
X170348951Y-77012587D01*
X170325894Y-77289272D01*
X170321792Y-77297232D01*
X170314234Y-77300000D01*
X170085766Y-77300000D01*
X170077493Y-77296573D01*
X170074106Y-77289272D01*
X170074105Y-77289271D01*
X170051048Y-77012584D01*
X170053776Y-77004058D01*
X170061736Y-76999955D01*
X170062608Y-76999915D01*
X170200000Y-76999000D01*
X170337370Y-76999915D01*
G37*
%TD.AperFunction*%
%TD*%
%TA.AperFunction,Conductor*%
%TO.N,Net-(D2-A)*%
G36*
X166602265Y-59902202D02*
G01*
X166602925Y-59902806D01*
X166700707Y-59999293D01*
X166797193Y-60097074D01*
X166800565Y-60105370D01*
X166797083Y-60113620D01*
X166796423Y-60114224D01*
X166584475Y-60293566D01*
X166575945Y-60296294D01*
X166568644Y-60292907D01*
X166407092Y-60131355D01*
X166403665Y-60123082D01*
X166406431Y-60115527D01*
X166585775Y-59903575D01*
X166593735Y-59899474D01*
X166602265Y-59902202D01*
G37*
%TD.AperFunction*%
%TD*%
%TA.AperFunction,Conductor*%
%TO.N,Net-(D2-A)*%
G36*
X166371048Y-60168392D02*
G01*
X166537388Y-60334732D01*
X166540488Y-60340260D01*
X166679413Y-60915879D01*
X166678023Y-60924725D01*
X166676236Y-60926974D01*
X166134859Y-61458335D01*
X166126554Y-61461684D01*
X166118313Y-61458181D01*
X166116645Y-61456029D01*
X165716964Y-60793482D01*
X165715625Y-60784627D01*
X165718877Y-60779000D01*
X166354672Y-60168225D01*
X166363010Y-60164967D01*
X166371048Y-60168392D01*
G37*
%TD.AperFunction*%
%TD*%
%TA.AperFunction,Conductor*%
%TO.N,Net-(D4-A)*%
G36*
X166512563Y-71451046D02*
G01*
X166789271Y-71474106D01*
X166789272Y-71474106D01*
X166797232Y-71478209D01*
X166800000Y-71485766D01*
X166800000Y-71714233D01*
X166796573Y-71722506D01*
X166789272Y-71725893D01*
X166512587Y-71748951D01*
X166504058Y-71746223D01*
X166499955Y-71738263D01*
X166499915Y-71737389D01*
X166499000Y-71600000D01*
X166499915Y-71462628D01*
X166503397Y-71454380D01*
X166511693Y-71451008D01*
X166512563Y-71451046D01*
G37*
%TD.AperFunction*%
%TD*%
%TA.AperFunction,Conductor*%
%TO.N,Net-(D4-A)*%
G36*
X167101093Y-71087909D02*
G01*
X167631908Y-71627754D01*
X167635265Y-71636056D01*
X167631768Y-71644300D01*
X167630870Y-71645096D01*
X167020559Y-72132913D01*
X167011957Y-72135402D01*
X167005912Y-72132883D01*
X166504355Y-71728511D01*
X166500067Y-71720652D01*
X166500000Y-71719404D01*
X166500000Y-71481281D01*
X166503427Y-71473008D01*
X166505236Y-71471529D01*
X167086289Y-71086359D01*
X167095075Y-71084645D01*
X167101093Y-71087909D01*
G37*
%TD.AperFunction*%
%TD*%
%TA.AperFunction,Conductor*%
%TO.N,Net-(D4-A)*%
G36*
X166247507Y-68803427D02*
G01*
X166250894Y-68810728D01*
X166273951Y-69087412D01*
X166271223Y-69095942D01*
X166263263Y-69100044D01*
X166262369Y-69100084D01*
X166125000Y-69101000D01*
X165987630Y-69100084D01*
X165979380Y-69096602D01*
X165976008Y-69088306D01*
X165976046Y-69087437D01*
X165999106Y-68810728D01*
X166003209Y-68802768D01*
X166010766Y-68800000D01*
X166239234Y-68800000D01*
X166247507Y-68803427D01*
G37*
%TD.AperFunction*%
%TD*%
%TA.AperFunction,Conductor*%
%TO.N,Net-(D4-A)*%
G36*
X166133201Y-67571064D02*
G01*
X166674444Y-68103254D01*
X166677941Y-68111498D01*
X166676314Y-68117549D01*
X166253397Y-68833252D01*
X166246238Y-68838631D01*
X166243324Y-68839000D01*
X166006676Y-68839000D01*
X165998403Y-68835573D01*
X165996603Y-68833252D01*
X165573685Y-68117549D01*
X165572427Y-68108683D01*
X165575553Y-68103256D01*
X166116798Y-67571064D01*
X166125099Y-67567708D01*
X166133201Y-67571064D01*
G37*
%TD.AperFunction*%
%TD*%
%TA.AperFunction,Conductor*%
%TO.N,Net-(D4-A)*%
G36*
X169127304Y-80903427D02*
G01*
X169128504Y-80904834D01*
X169593855Y-81546853D01*
X169595936Y-81555562D01*
X169592254Y-81562375D01*
X169007872Y-82093840D01*
X168999446Y-82096871D01*
X168992128Y-82093840D01*
X168407745Y-81562375D01*
X168403930Y-81554273D01*
X168406143Y-81546855D01*
X168871496Y-80904833D01*
X168879126Y-80900146D01*
X168880969Y-80900000D01*
X169119031Y-80900000D01*
X169127304Y-80903427D01*
G37*
%TD.AperFunction*%
%TD*%
%TA.AperFunction,Conductor*%
%TO.N,Net-(D4-A)*%
G36*
X167648184Y-71641787D02*
G01*
X168303912Y-72063310D01*
X168309018Y-72070666D01*
X168307772Y-72078907D01*
X167969096Y-72678371D01*
X167965409Y-72682344D01*
X167767983Y-72814263D01*
X167759201Y-72816010D01*
X167753072Y-72812668D01*
X167175246Y-72215133D01*
X167171959Y-72206804D01*
X167174631Y-72199555D01*
X167632834Y-71644181D01*
X167640740Y-71639982D01*
X167648184Y-71641787D01*
G37*
%TD.AperFunction*%
%TD*%
%TA.AperFunction,Conductor*%
%TO.N,Net-(D8-A)*%
G36*
X174320227Y-73535630D02*
G01*
X174588974Y-73549433D01*
X174597060Y-73553280D01*
X174600073Y-73561040D01*
X174600983Y-73697594D01*
X174600065Y-73702216D01*
X174546410Y-73829533D01*
X174540039Y-73835826D01*
X174533023Y-73836395D01*
X174317051Y-73787076D01*
X174309749Y-73781894D01*
X174307956Y-73775670D01*
X174307956Y-73547316D01*
X174311383Y-73539043D01*
X174319656Y-73535616D01*
X174320227Y-73535630D01*
G37*
%TD.AperFunction*%
%TD*%
%TA.AperFunction,Conductor*%
%TO.N,Net-(D8-A)*%
G36*
X173871597Y-72388427D02*
G01*
X173873397Y-72390748D01*
X174296314Y-73106450D01*
X174297572Y-73115316D01*
X174294444Y-73120745D01*
X173753203Y-73652934D01*
X173744901Y-73656291D01*
X173736797Y-73652934D01*
X173195555Y-73120745D01*
X173192058Y-73112501D01*
X173193684Y-73106452D01*
X173616603Y-72390747D01*
X173623762Y-72385369D01*
X173626676Y-72385000D01*
X173863324Y-72385000D01*
X173871597Y-72388427D01*
G37*
%TD.AperFunction*%
%TD*%
%TA.AperFunction,Conductor*%
%TO.N,Net-(D8-A)*%
G36*
X175037370Y-76999915D02*
G01*
X175045619Y-77003397D01*
X175048991Y-77011693D01*
X175048951Y-77012587D01*
X175025894Y-77289272D01*
X175021792Y-77297232D01*
X175014234Y-77300000D01*
X174785766Y-77300000D01*
X174777493Y-77296573D01*
X174774106Y-77289272D01*
X174751048Y-77012584D01*
X174753776Y-77004058D01*
X174761736Y-76999955D01*
X174762608Y-76999915D01*
X174900000Y-76999000D01*
X175037370Y-76999915D01*
G37*
%TD.AperFunction*%
%TD*%
%TA.AperFunction,Conductor*%
%TO.N,Net-(D8-A)*%
G36*
X175027304Y-80903427D02*
G01*
X175028504Y-80904834D01*
X175493855Y-81546853D01*
X175495936Y-81555562D01*
X175492254Y-81562375D01*
X174907871Y-82093840D01*
X174899445Y-82096871D01*
X174892127Y-82093840D01*
X174307745Y-81562375D01*
X174303930Y-81554273D01*
X174306143Y-81546855D01*
X174771496Y-80904833D01*
X174779126Y-80900146D01*
X174780969Y-80900000D01*
X175019031Y-80900000D01*
X175027304Y-80903427D01*
G37*
%TD.AperFunction*%
%TD*%
%TA.AperFunction,Conductor*%
%TO.N,Net-(D8-A)*%
G36*
X177142668Y-64838644D02*
G01*
X177788957Y-65269466D01*
X177793940Y-65276906D01*
X177792202Y-65285691D01*
X177790817Y-65287397D01*
X177259379Y-65828824D01*
X177251138Y-65832327D01*
X177247462Y-65831771D01*
X176644749Y-65638849D01*
X176639877Y-65635810D01*
X176476967Y-65466176D01*
X176473708Y-65457835D01*
X176477302Y-65449633D01*
X177128182Y-64839841D01*
X177136561Y-64836686D01*
X177142668Y-64838644D01*
G37*
%TD.AperFunction*%
%TD*%
%TA.AperFunction,Conductor*%
%TO.N,Net-(D11-A)*%
G36*
X183877304Y-80903427D02*
G01*
X183878504Y-80904834D01*
X184343855Y-81546853D01*
X184345936Y-81555562D01*
X184342254Y-81562375D01*
X183757872Y-82093840D01*
X183749446Y-82096871D01*
X183742128Y-82093840D01*
X183157745Y-81562375D01*
X183153930Y-81554273D01*
X183156143Y-81546855D01*
X183621496Y-80904833D01*
X183629126Y-80900146D01*
X183630969Y-80900000D01*
X183869031Y-80900000D01*
X183877304Y-80903427D01*
G37*
%TD.AperFunction*%
%TD*%
%TA.AperFunction,Conductor*%
%TO.N,Net-(D11-A)*%
G36*
X185137370Y-75899915D02*
G01*
X185145619Y-75903397D01*
X185148991Y-75911693D01*
X185148951Y-75912587D01*
X185125894Y-76189272D01*
X185121792Y-76197232D01*
X185114234Y-76200000D01*
X184885766Y-76200000D01*
X184877493Y-76196573D01*
X184874106Y-76189272D01*
X184874106Y-76189271D01*
X184851048Y-75912584D01*
X184853776Y-75904058D01*
X184861736Y-75899955D01*
X184862608Y-75899915D01*
X185000000Y-75899000D01*
X185137370Y-75899915D01*
G37*
%TD.AperFunction*%
%TD*%
%TA.AperFunction,Conductor*%
%TO.N,Net-(D11-A)*%
G36*
X181364201Y-61221064D02*
G01*
X181905444Y-61753254D01*
X181908941Y-61761498D01*
X181907314Y-61767549D01*
X181484397Y-62483252D01*
X181477238Y-62488631D01*
X181474324Y-62489000D01*
X181237676Y-62489000D01*
X181229403Y-62485573D01*
X181227603Y-62483252D01*
X180804685Y-61767549D01*
X180803427Y-61758683D01*
X180806553Y-61753256D01*
X181347798Y-61221064D01*
X181356099Y-61217708D01*
X181364201Y-61221064D01*
G37*
%TD.AperFunction*%
%TD*%
%TA.AperFunction,Conductor*%
%TO.N,Net-(D11-A)*%
G36*
X183022507Y-66603427D02*
G01*
X183025894Y-66610728D01*
X183048951Y-66887412D01*
X183046223Y-66895942D01*
X183038263Y-66900044D01*
X183037369Y-66900084D01*
X182900000Y-66901000D01*
X182762630Y-66900084D01*
X182754380Y-66896602D01*
X182751008Y-66888306D01*
X182751046Y-66887437D01*
X182774106Y-66610728D01*
X182778209Y-66602768D01*
X182785766Y-66600000D01*
X183014234Y-66600000D01*
X183022507Y-66603427D01*
G37*
%TD.AperFunction*%
%TD*%
%TA.AperFunction,Conductor*%
%TO.N,Net-(D11-A)*%
G36*
X182888090Y-65284354D02*
G01*
X183292664Y-65652115D01*
X183456647Y-65801178D01*
X183460464Y-65809279D01*
X183458323Y-65816601D01*
X183028498Y-66423065D01*
X183020918Y-66427834D01*
X183018952Y-66428000D01*
X182780811Y-66428000D01*
X182772538Y-66424573D01*
X182771489Y-66423370D01*
X182562269Y-66147506D01*
X182320647Y-65828917D01*
X182318379Y-65820257D01*
X182321861Y-65813415D01*
X182872116Y-65284576D01*
X182880454Y-65281315D01*
X182888090Y-65284354D01*
G37*
%TD.AperFunction*%
%TD*%
%TA.AperFunction,Conductor*%
%TO.N,Net-(D11-A)*%
G36*
X182336897Y-64725008D02*
G01*
X182338771Y-64726556D01*
X182870021Y-65267819D01*
X182873370Y-65276124D01*
X182869867Y-65284365D01*
X182867422Y-65286204D01*
X182201128Y-65662263D01*
X182192239Y-65663345D01*
X182186474Y-65659665D01*
X181635624Y-65013610D01*
X181632864Y-65005091D01*
X181636253Y-64997747D01*
X181802892Y-64831108D01*
X181808849Y-64827915D01*
X182328110Y-64723283D01*
X182336897Y-64725008D01*
G37*
%TD.AperFunction*%
%TD*%
%TA.AperFunction,Conductor*%
%TO.N,Net-(D12-A)*%
G36*
X182937370Y-75899915D02*
G01*
X182945619Y-75903397D01*
X182948991Y-75911693D01*
X182948951Y-75912587D01*
X182925894Y-76189272D01*
X182921792Y-76197232D01*
X182914234Y-76200000D01*
X182685766Y-76200000D01*
X182677493Y-76196573D01*
X182674106Y-76189272D01*
X182674106Y-76189271D01*
X182651048Y-75912584D01*
X182653776Y-75904058D01*
X182661736Y-75899955D01*
X182662608Y-75899915D01*
X182800000Y-75899000D01*
X182937370Y-75899915D01*
G37*
%TD.AperFunction*%
%TD*%
%TA.AperFunction,Conductor*%
%TO.N,Net-(D12-A)*%
G36*
X180927304Y-80903427D02*
G01*
X180928504Y-80904834D01*
X181393855Y-81546853D01*
X181395936Y-81555562D01*
X181392254Y-81562375D01*
X180807872Y-82093840D01*
X180799446Y-82096871D01*
X180792128Y-82093840D01*
X180207745Y-81562375D01*
X180203930Y-81554273D01*
X180206143Y-81546855D01*
X180671496Y-80904833D01*
X180679126Y-80900146D01*
X180680969Y-80900000D01*
X180919031Y-80900000D01*
X180927304Y-80903427D01*
G37*
%TD.AperFunction*%
%TD*%
%TA.AperFunction,Conductor*%
%TO.N,Net-(D12-A)*%
G36*
X182922507Y-72903427D02*
G01*
X182925894Y-72910728D01*
X182948951Y-73187412D01*
X182946223Y-73195942D01*
X182938263Y-73200044D01*
X182937369Y-73200084D01*
X182800000Y-73201000D01*
X182662630Y-73200084D01*
X182654380Y-73196602D01*
X182651008Y-73188306D01*
X182651046Y-73187437D01*
X182674106Y-72910728D01*
X182678209Y-72902768D01*
X182685766Y-72900000D01*
X182914234Y-72900000D01*
X182922507Y-72903427D01*
G37*
%TD.AperFunction*%
%TD*%
%TA.AperFunction,Conductor*%
%TO.N,Net-(D12-A)*%
G36*
X182887571Y-71380867D02*
G01*
X183410302Y-71924038D01*
X183413570Y-71932375D01*
X183410869Y-71939631D01*
X182928509Y-72519780D01*
X182920584Y-72523951D01*
X182919512Y-72524000D01*
X182681416Y-72524000D01*
X182673143Y-72520573D01*
X182671551Y-72518590D01*
X182273505Y-71894300D01*
X182271946Y-71885482D01*
X182275856Y-71879042D01*
X182871630Y-71380010D01*
X182880171Y-71377325D01*
X182887571Y-71380867D01*
G37*
%TD.AperFunction*%
%TD*%
%TA.AperFunction,Conductor*%
%TO.N,Net-(D12-A)*%
G36*
X181364201Y-67317064D02*
G01*
X181905444Y-67849254D01*
X181908941Y-67857498D01*
X181907314Y-67863549D01*
X181484397Y-68579252D01*
X181477238Y-68584631D01*
X181474324Y-68585000D01*
X181237676Y-68585000D01*
X181229403Y-68581573D01*
X181227603Y-68579252D01*
X180804685Y-67863549D01*
X180803427Y-67854683D01*
X180806553Y-67849256D01*
X181347798Y-67317064D01*
X181356099Y-67313708D01*
X181364201Y-67317064D01*
G37*
%TD.AperFunction*%
%TD*%
%TA.AperFunction,Conductor*%
%TO.N,Net-(D12-A)*%
G36*
X182336572Y-70820964D02*
G01*
X182339159Y-70822951D01*
X182870416Y-71364253D01*
X182873765Y-71372558D01*
X182870261Y-71380798D01*
X182868200Y-71382411D01*
X182206969Y-71789489D01*
X182198127Y-71790908D01*
X182192441Y-71787676D01*
X181797395Y-71380798D01*
X181582930Y-71159910D01*
X181579626Y-71151588D01*
X181583175Y-71143367D01*
X181583207Y-71143334D01*
X181753149Y-70980576D01*
X181758112Y-70977754D01*
X182327686Y-70819871D01*
X182336572Y-70820964D01*
G37*
%TD.AperFunction*%
%TD*%
%TA.AperFunction,Conductor*%
%TO.N,Net-(D16-A)*%
G36*
X189122507Y-74703427D02*
G01*
X189125894Y-74710728D01*
X189148951Y-74987412D01*
X189146223Y-74995942D01*
X189138263Y-75000044D01*
X189137369Y-75000084D01*
X189000000Y-75001000D01*
X188862630Y-75000084D01*
X188854380Y-74996602D01*
X188851008Y-74988306D01*
X188851046Y-74987437D01*
X188874106Y-74710728D01*
X188878209Y-74702768D01*
X188885766Y-74700000D01*
X189114234Y-74700000D01*
X189122507Y-74703427D01*
G37*
%TD.AperFunction*%
%TD*%
%TA.AperFunction,Conductor*%
%TO.N,Net-(D16-A)*%
G36*
X188993201Y-73667064D02*
G01*
X189534547Y-74199355D01*
X189538044Y-74207599D01*
X189536507Y-74213495D01*
X189128367Y-74929097D01*
X189121292Y-74934585D01*
X189118204Y-74935000D01*
X188881560Y-74935000D01*
X188873287Y-74931573D01*
X188871578Y-74929404D01*
X188433878Y-74213600D01*
X188432486Y-74204754D01*
X188435654Y-74199157D01*
X188976798Y-73667064D01*
X188985099Y-73663708D01*
X188993201Y-73667064D01*
G37*
%TD.AperFunction*%
%TD*%
%TA.AperFunction,Conductor*%
%TO.N,Net-(D16-A)*%
G36*
X186827304Y-80903427D02*
G01*
X186828504Y-80904834D01*
X187293855Y-81546853D01*
X187295936Y-81555562D01*
X187292254Y-81562375D01*
X186707872Y-82093840D01*
X186699446Y-82096871D01*
X186692128Y-82093840D01*
X186107745Y-81562375D01*
X186103930Y-81554273D01*
X186106143Y-81546855D01*
X186571496Y-80904833D01*
X186579126Y-80900146D01*
X186580969Y-80900000D01*
X186819031Y-80900000D01*
X186827304Y-80903427D01*
G37*
%TD.AperFunction*%
%TD*%
%TA.AperFunction,Conductor*%
%TO.N,Net-(D16-A)*%
G36*
X189111597Y-72388427D02*
G01*
X189113397Y-72390748D01*
X189536314Y-73106450D01*
X189537572Y-73115316D01*
X189534444Y-73120745D01*
X188993203Y-73652934D01*
X188984901Y-73656291D01*
X188976797Y-73652934D01*
X188435555Y-73120745D01*
X188432058Y-73112501D01*
X188433684Y-73106452D01*
X188856603Y-72390747D01*
X188863762Y-72385369D01*
X188866676Y-72385000D01*
X189103324Y-72385000D01*
X189111597Y-72388427D01*
G37*
%TD.AperFunction*%
%TD*%
%TA.AperFunction,Conductor*%
%TO.N,Net-(D16-A)*%
G36*
X189002911Y-77000222D02*
G01*
X189127800Y-77052859D01*
X189134093Y-77059230D01*
X189134038Y-77068184D01*
X189013666Y-77353834D01*
X189007295Y-77360128D01*
X188998341Y-77360073D01*
X188994611Y-77357564D01*
X188834070Y-77197023D01*
X188830643Y-77188750D01*
X188830704Y-77187553D01*
X188844094Y-77057403D01*
X188848924Y-77010451D01*
X188853180Y-77002574D01*
X188860506Y-76999950D01*
X188998313Y-76999304D01*
X189002911Y-77000222D01*
G37*
%TD.AperFunction*%
%TD*%
%TA.AperFunction,Conductor*%
%TO.N,Net-(D16-A)*%
G36*
X192381198Y-65094857D02*
G01*
X193028890Y-65523479D01*
X193033898Y-65530902D01*
X193032190Y-65539693D01*
X193030783Y-65541432D01*
X192499350Y-66082854D01*
X192491109Y-66086357D01*
X192487490Y-66085819D01*
X191886538Y-65896823D01*
X191881610Y-65893767D01*
X191718674Y-65724141D01*
X191715414Y-65715801D01*
X191719007Y-65707598D01*
X191719030Y-65707575D01*
X192366710Y-65096105D01*
X192375077Y-65092919D01*
X192381198Y-65094857D01*
G37*
%TD.AperFunction*%
%TD*%
%TA.AperFunction,Conductor*%
%TO.N,Net-(D19-A)*%
G36*
X196937370Y-77199915D02*
G01*
X196945619Y-77203397D01*
X196948991Y-77211693D01*
X196948951Y-77212587D01*
X196925894Y-77489272D01*
X196921792Y-77497232D01*
X196914234Y-77500000D01*
X196685766Y-77500000D01*
X196677493Y-77496573D01*
X196674106Y-77489272D01*
X196674106Y-77489271D01*
X196651048Y-77212584D01*
X196653776Y-77204058D01*
X196661736Y-77199955D01*
X196662608Y-77199915D01*
X196800000Y-77199000D01*
X196937370Y-77199915D01*
G37*
%TD.AperFunction*%
%TD*%
%TA.AperFunction,Conductor*%
%TO.N,Net-(D19-A)*%
G36*
X196812563Y-65251046D02*
G01*
X197089271Y-65274106D01*
X197089272Y-65274106D01*
X197097232Y-65278209D01*
X197100000Y-65285766D01*
X197100000Y-65514233D01*
X197096573Y-65522506D01*
X197089272Y-65525893D01*
X196812587Y-65548951D01*
X196804058Y-65546223D01*
X196799955Y-65538263D01*
X196799915Y-65537389D01*
X196799000Y-65400000D01*
X196799915Y-65262628D01*
X196803397Y-65254380D01*
X196811693Y-65251008D01*
X196812563Y-65251046D01*
G37*
%TD.AperFunction*%
%TD*%
%TA.AperFunction,Conductor*%
%TO.N,Net-(D19-A)*%
G36*
X197576012Y-64979043D02*
G01*
X197579838Y-64981633D01*
X198111908Y-65522754D01*
X198115265Y-65531056D01*
X198111768Y-65539300D01*
X198110870Y-65540096D01*
X197500462Y-66027990D01*
X197491860Y-66030479D01*
X197485933Y-66028055D01*
X196849476Y-65528513D01*
X196845084Y-65520709D01*
X196845000Y-65519309D01*
X196845000Y-65282849D01*
X196848427Y-65274576D01*
X196852262Y-65272023D01*
X197567059Y-64979010D01*
X197576012Y-64979043D01*
G37*
%TD.AperFunction*%
%TD*%
%TA.AperFunction,Conductor*%
%TO.N,Net-(D19-A)*%
G36*
X195777304Y-80903427D02*
G01*
X195778504Y-80904834D01*
X196243855Y-81546853D01*
X196245936Y-81555562D01*
X196242254Y-81562375D01*
X195657872Y-82093840D01*
X195649446Y-82096871D01*
X195642128Y-82093840D01*
X195057745Y-81562375D01*
X195053930Y-81554273D01*
X195056143Y-81546855D01*
X195521496Y-80904833D01*
X195529126Y-80900146D01*
X195530969Y-80900000D01*
X195769031Y-80900000D01*
X195777304Y-80903427D01*
G37*
%TD.AperFunction*%
%TD*%
%TA.AperFunction,Conductor*%
%TO.N,Net-(D19-A)*%
G36*
X197140748Y-60899142D02*
G01*
X197741219Y-61339494D01*
X197745864Y-61347149D01*
X197746000Y-61348928D01*
X197746000Y-61587071D01*
X197742573Y-61595344D01*
X197741219Y-61596506D01*
X197140748Y-62036857D01*
X197132050Y-62038986D01*
X197125281Y-62035411D01*
X196602466Y-61475989D01*
X196599321Y-61467604D01*
X196602466Y-61460011D01*
X196706280Y-61348928D01*
X197125281Y-60900587D01*
X197133433Y-60896884D01*
X197140748Y-60899142D01*
G37*
%TD.AperFunction*%
%TD*%
%TA.AperFunction,Conductor*%
%TO.N,Net-(D19-A)*%
G36*
X198576954Y-64958269D02*
G01*
X199239682Y-65079297D01*
X199245852Y-65082534D01*
X199412126Y-65248808D01*
X199415553Y-65257081D01*
X199412479Y-65264985D01*
X198812464Y-65919784D01*
X198804348Y-65923569D01*
X198798016Y-65922029D01*
X198131012Y-65539429D01*
X198125541Y-65532340D01*
X198126685Y-65523458D01*
X198127614Y-65522077D01*
X198565641Y-64962567D01*
X198573439Y-64958166D01*
X198576954Y-64958269D01*
G37*
%TD.AperFunction*%
%TD*%
%TA.AperFunction,Conductor*%
%TO.N,Net-(D20-A)*%
G36*
X198222507Y-72803427D02*
G01*
X198225894Y-72810728D01*
X198248951Y-73087412D01*
X198246223Y-73095942D01*
X198238263Y-73100044D01*
X198237369Y-73100084D01*
X198100000Y-73101000D01*
X197962630Y-73100084D01*
X197954380Y-73096602D01*
X197951008Y-73088306D01*
X197951046Y-73087437D01*
X197974106Y-72810728D01*
X197978209Y-72802768D01*
X197985766Y-72800000D01*
X198214234Y-72800000D01*
X198222507Y-72803427D01*
G37*
%TD.AperFunction*%
%TD*%
%TA.AperFunction,Conductor*%
%TO.N,Net-(D20-A)*%
G36*
X198127883Y-71634576D02*
G01*
X198672657Y-72158148D01*
X198678135Y-72163413D01*
X198681726Y-72171617D01*
X198679350Y-72178919D01*
X198228511Y-72773370D01*
X198220781Y-72777891D01*
X198219189Y-72778000D01*
X197981048Y-72778000D01*
X197972775Y-72774573D01*
X197971502Y-72773065D01*
X197541675Y-72166601D01*
X197539687Y-72157870D01*
X197543350Y-72151179D01*
X198111909Y-71634353D01*
X198120334Y-71631326D01*
X198127883Y-71634576D01*
G37*
%TD.AperFunction*%
%TD*%
%TA.AperFunction,Conductor*%
%TO.N,Net-(D20-A)*%
G36*
X196613202Y-67571065D02*
G01*
X197154444Y-68103254D01*
X197157941Y-68111498D01*
X197156314Y-68117549D01*
X196733397Y-68833252D01*
X196726238Y-68838631D01*
X196723324Y-68839000D01*
X196486676Y-68839000D01*
X196478403Y-68835573D01*
X196476603Y-68833252D01*
X196053685Y-68117549D01*
X196052427Y-68108683D01*
X196055553Y-68103256D01*
X196596799Y-67571063D01*
X196605098Y-67567708D01*
X196613202Y-67571065D01*
G37*
%TD.AperFunction*%
%TD*%
%TA.AperFunction,Conductor*%
%TO.N,Net-(D20-A)*%
G36*
X192777304Y-80903427D02*
G01*
X192778504Y-80904834D01*
X193243855Y-81546853D01*
X193245936Y-81555562D01*
X193242254Y-81562375D01*
X192657872Y-82093840D01*
X192649446Y-82096871D01*
X192642128Y-82093840D01*
X192057745Y-81562375D01*
X192053930Y-81554273D01*
X192056143Y-81546855D01*
X192521496Y-80904833D01*
X192529126Y-80900146D01*
X192530969Y-80900000D01*
X192769031Y-80900000D01*
X192777304Y-80903427D01*
G37*
%TD.AperFunction*%
%TD*%
%TA.AperFunction,Conductor*%
%TO.N,Net-(D20-A)*%
G36*
X197395941Y-76153776D02*
G01*
X197400044Y-76161736D01*
X197400084Y-76162630D01*
X197401000Y-76300000D01*
X197400084Y-76437369D01*
X197396602Y-76445619D01*
X197388306Y-76448991D01*
X197387412Y-76448951D01*
X197110728Y-76425894D01*
X197102768Y-76421792D01*
X197100000Y-76414234D01*
X197100000Y-76185766D01*
X197103427Y-76177493D01*
X197110728Y-76174106D01*
X197387414Y-76151048D01*
X197395941Y-76153776D01*
G37*
%TD.AperFunction*%
%TD*%
%TA.AperFunction,Conductor*%
%TO.N,Net-(D20-A)*%
G36*
X197576567Y-71074963D02*
G01*
X197579161Y-71076953D01*
X197729252Y-71229881D01*
X198110385Y-71618218D01*
X198113734Y-71626523D01*
X198110230Y-71634763D01*
X198108138Y-71636395D01*
X197446528Y-72040918D01*
X197437682Y-72042310D01*
X197431952Y-72039005D01*
X197031223Y-71618218D01*
X196834408Y-71411551D01*
X196831185Y-71403197D01*
X196834772Y-71395050D01*
X197004496Y-71231924D01*
X197009463Y-71229090D01*
X197567681Y-71073878D01*
X197576567Y-71074963D01*
G37*
%TD.AperFunction*%
%TD*%
%TA.AperFunction,Conductor*%
%TO.N,Net-(D24-A)*%
G36*
X198483685Y-81100050D02*
G01*
X198722419Y-81131479D01*
X198728683Y-81134351D01*
X199191381Y-81547394D01*
X199195270Y-81555460D01*
X199192317Y-81563914D01*
X199191446Y-81564791D01*
X198607753Y-82093845D01*
X198599322Y-82096862D01*
X198592010Y-82093819D01*
X198010344Y-81563056D01*
X198006543Y-81554949D01*
X198009588Y-81546528D01*
X198010142Y-81545960D01*
X198474081Y-81103186D01*
X198482432Y-81099954D01*
X198483685Y-81100050D01*
G37*
%TD.AperFunction*%
%TD*%
%TA.AperFunction,Conductor*%
%TO.N,Net-(D24-A)*%
G36*
X202802265Y-76002202D02*
G01*
X202802925Y-76002806D01*
X202900707Y-76099293D01*
X202997193Y-76197074D01*
X203000565Y-76205370D01*
X202997083Y-76213620D01*
X202996423Y-76214224D01*
X202784475Y-76393566D01*
X202775945Y-76396294D01*
X202768644Y-76392907D01*
X202607092Y-76231355D01*
X202603665Y-76223082D01*
X202606431Y-76215527D01*
X202785775Y-76003575D01*
X202793735Y-75999474D01*
X202802265Y-76002202D01*
G37*
%TD.AperFunction*%
%TD*%
%TA.AperFunction,Conductor*%
%TO.N,Net-(D24-A)*%
G36*
X204347507Y-74403427D02*
G01*
X204350894Y-74410728D01*
X204373951Y-74687412D01*
X204371223Y-74695942D01*
X204363263Y-74700044D01*
X204362369Y-74700084D01*
X204225000Y-74701000D01*
X204087630Y-74700084D01*
X204079380Y-74696602D01*
X204076008Y-74688306D01*
X204076046Y-74687437D01*
X204099106Y-74410728D01*
X204103209Y-74402768D01*
X204110766Y-74400000D01*
X204339234Y-74400000D01*
X204347507Y-74403427D01*
G37*
%TD.AperFunction*%
%TD*%
%TA.AperFunction,Conductor*%
%TO.N,Net-(D24-A)*%
G36*
X204232304Y-73668599D02*
G01*
X204234138Y-73670433D01*
X204720538Y-74278971D01*
X204723027Y-74287573D01*
X204720045Y-74294159D01*
X204353480Y-74696183D01*
X204345373Y-74699988D01*
X204344834Y-74700000D01*
X204105166Y-74700000D01*
X204096893Y-74696573D01*
X204096520Y-74696183D01*
X203729954Y-74294159D01*
X203726912Y-74285737D01*
X203729459Y-74278974D01*
X204215863Y-73670431D01*
X204223702Y-73666110D01*
X204232304Y-73668599D01*
G37*
%TD.AperFunction*%
%TD*%
%TA.AperFunction,Conductor*%
%TO.N,Net-(D24-A)*%
G36*
X207618718Y-65098581D02*
G01*
X208268778Y-65523501D01*
X208273828Y-65530896D01*
X208272169Y-65539696D01*
X208270726Y-65541490D01*
X207739301Y-66082903D01*
X207731060Y-66086406D01*
X207727537Y-66085898D01*
X207129509Y-65903485D01*
X207124485Y-65900399D01*
X206961540Y-65730752D01*
X206958280Y-65722411D01*
X206961871Y-65714211D01*
X207604231Y-65099917D01*
X207612577Y-65096677D01*
X207618718Y-65098581D01*
G37*
%TD.AperFunction*%
%TD*%
%TA.AperFunction,Conductor*%
%TO.N,/kHz{slash}Hz{slash}dB*%
G36*
X170122507Y-57203427D02*
G01*
X170125894Y-57210728D01*
X170148951Y-57487412D01*
X170146223Y-57495942D01*
X170138263Y-57500044D01*
X170137369Y-57500084D01*
X170000000Y-57501000D01*
X169862630Y-57500084D01*
X169854380Y-57496602D01*
X169851008Y-57488306D01*
X169851046Y-57487437D01*
X169874106Y-57210728D01*
X169878209Y-57202768D01*
X169885766Y-57200000D01*
X170114234Y-57200000D01*
X170122507Y-57203427D01*
G37*
%TD.AperFunction*%
%TD*%
%TA.AperFunction,Conductor*%
%TO.N,/kHz{slash}Hz{slash}dB*%
G36*
X169943347Y-55887295D02*
G01*
X169944245Y-55888091D01*
X169945301Y-55889129D01*
X170484894Y-56419697D01*
X170488391Y-56427940D01*
X170487148Y-56433286D01*
X170128238Y-57148547D01*
X170121465Y-57154405D01*
X170117781Y-57155000D01*
X169881185Y-57155000D01*
X169872912Y-57151573D01*
X169871517Y-57149889D01*
X169438090Y-56513919D01*
X169436262Y-56505153D01*
X169438617Y-56500027D01*
X169926904Y-55889128D01*
X169934745Y-55884806D01*
X169943347Y-55887295D01*
G37*
%TD.AperFunction*%
%TD*%
%TA.AperFunction,Conductor*%
%TO.N,/kHz{slash}Hz{slash}dB*%
G36*
X181099332Y-57238559D02*
G01*
X181265244Y-57396040D01*
X181268885Y-57404221D01*
X181266214Y-57411972D01*
X181114205Y-57596201D01*
X181106296Y-57600402D01*
X181097734Y-57597780D01*
X181096967Y-57597088D01*
X180999312Y-57500725D01*
X180902937Y-57403058D01*
X180899566Y-57394763D01*
X180903048Y-57386513D01*
X180903827Y-57385810D01*
X181083854Y-57238001D01*
X181092421Y-57235401D01*
X181099332Y-57238559D01*
G37*
%TD.AperFunction*%
%TD*%
%TA.AperFunction,Conductor*%
%TO.N,/kHz{slash}Hz{slash}dB*%
G36*
X166133201Y-55887064D02*
G01*
X166674444Y-56419254D01*
X166677941Y-56427498D01*
X166676314Y-56433549D01*
X166253397Y-57149252D01*
X166246238Y-57154631D01*
X166243324Y-57155000D01*
X166006676Y-57155000D01*
X165998403Y-57151573D01*
X165996603Y-57149252D01*
X165573685Y-56433549D01*
X165572427Y-56424683D01*
X165575553Y-56419256D01*
X166116798Y-55887064D01*
X166125099Y-55883708D01*
X166133201Y-55887064D01*
G37*
%TD.AperFunction*%
%TD*%
%TA.AperFunction,Conductor*%
%TO.N,/kHz{slash}Hz{slash}dB*%
G36*
X163237370Y-76999915D02*
G01*
X163245619Y-77003397D01*
X163248991Y-77011693D01*
X163248951Y-77012587D01*
X163225894Y-77289272D01*
X163221792Y-77297232D01*
X163214234Y-77300000D01*
X162985766Y-77300000D01*
X162977493Y-77296573D01*
X162974106Y-77289272D01*
X162974105Y-77289272D01*
X162951048Y-77012584D01*
X162953776Y-77004058D01*
X162961736Y-76999955D01*
X162962608Y-76999915D01*
X163100000Y-76999000D01*
X163237370Y-76999915D01*
G37*
%TD.AperFunction*%
%TD*%
%TA.AperFunction,Conductor*%
%TO.N,/kHz{slash}Hz{slash}dB*%
G36*
X163227304Y-80903427D02*
G01*
X163228504Y-80904834D01*
X163693855Y-81546853D01*
X163695936Y-81555562D01*
X163692254Y-81562375D01*
X163107872Y-82093840D01*
X163099446Y-82096871D01*
X163092128Y-82093840D01*
X162507745Y-81562375D01*
X162503930Y-81554273D01*
X162506143Y-81546855D01*
X162971496Y-80904833D01*
X162979126Y-80900146D01*
X162980969Y-80900000D01*
X163219031Y-80900000D01*
X163227304Y-80903427D01*
G37*
%TD.AperFunction*%
%TD*%
%TA.AperFunction,Conductor*%
%TO.N,/kHz{slash}Hz{slash}dB*%
G36*
X181373228Y-55633066D02*
G01*
X181914329Y-56165141D01*
X181914358Y-56165169D01*
X181917855Y-56173413D01*
X181916151Y-56179592D01*
X181493480Y-56874371D01*
X181486252Y-56879658D01*
X181483179Y-56879986D01*
X181246388Y-56873814D01*
X181238207Y-56870173D01*
X181236722Y-56868240D01*
X180813902Y-56179606D01*
X180812494Y-56170763D01*
X180815668Y-56165144D01*
X181356823Y-55633065D01*
X181365125Y-55629709D01*
X181373228Y-55633066D01*
G37*
%TD.AperFunction*%
%TD*%
%TA.AperFunction,Conductor*%
%TO.N,/Low Battery {slash} Negative*%
G36*
X155953635Y-55049020D02*
G01*
X156669512Y-55497561D01*
X156674703Y-55504858D01*
X156675000Y-55507476D01*
X156675000Y-55744113D01*
X156671573Y-55752386D01*
X156668980Y-55754342D01*
X155953453Y-56151648D01*
X155944556Y-56152668D01*
X155939430Y-56149622D01*
X155668950Y-55874542D01*
X155407064Y-55608201D01*
X155403708Y-55599901D01*
X155407064Y-55591798D01*
X155939081Y-55050731D01*
X155947324Y-55047235D01*
X155953635Y-55049020D01*
G37*
%TD.AperFunction*%
%TD*%
%TA.AperFunction,Conductor*%
%TO.N,/Low Battery {slash} Negative*%
G36*
X154477960Y-81026437D02*
G01*
X154478546Y-81027048D01*
X154942289Y-81546688D01*
X154945241Y-81555142D01*
X154941432Y-81563134D01*
X154357886Y-82093839D01*
X154349460Y-82096870D01*
X154342142Y-82093839D01*
X153758613Y-81563152D01*
X153754798Y-81555050D01*
X153757783Y-81546675D01*
X154221602Y-81030740D01*
X154229682Y-81026880D01*
X154230092Y-81026865D01*
X154469635Y-81023139D01*
X154477960Y-81026437D01*
G37*
%TD.AperFunction*%
%TD*%
%TA.AperFunction,Conductor*%
%TO.N,/Low Battery {slash} Negative*%
G36*
X160253847Y-57294524D02*
G01*
X160845418Y-57932959D01*
X160848528Y-57941355D01*
X160846500Y-57947506D01*
X160408470Y-58589259D01*
X160400975Y-58594160D01*
X160392210Y-58592327D01*
X160390609Y-58591011D01*
X159849189Y-58059394D01*
X159845686Y-58051153D01*
X159846252Y-58047451D01*
X160043367Y-57437481D01*
X160047623Y-57431615D01*
X160238392Y-57293011D01*
X160247096Y-57290921D01*
X160253847Y-57294524D01*
G37*
%TD.AperFunction*%
%TD*%
%TA.AperFunction,Conductor*%
%TO.N,/Low Battery {slash} Negative*%
G36*
X160407197Y-58609044D02*
G01*
X160408464Y-58610576D01*
X160851271Y-59249258D01*
X160853169Y-59258009D01*
X160850264Y-59263848D01*
X160266749Y-59897722D01*
X160258625Y-59901488D01*
X160251641Y-59899526D01*
X160190458Y-59858645D01*
X160055421Y-59768418D01*
X160050830Y-59762412D01*
X159881698Y-59258009D01*
X159846357Y-59152610D01*
X159846976Y-59143676D01*
X159849249Y-59140545D01*
X160390652Y-58608893D01*
X160398955Y-58605542D01*
X160407197Y-58609044D01*
G37*
%TD.AperFunction*%
%TD*%
%TA.AperFunction,Conductor*%
%TO.N,/HalfDigit*%
G36*
X157427304Y-80903427D02*
G01*
X157428504Y-80904834D01*
X157893855Y-81546853D01*
X157895936Y-81555562D01*
X157892254Y-81562375D01*
X157307871Y-82093840D01*
X157299445Y-82096871D01*
X157292127Y-82093840D01*
X156707745Y-81562375D01*
X156703930Y-81554273D01*
X156706143Y-81546855D01*
X157171496Y-80904833D01*
X157179126Y-80900146D01*
X157180969Y-80900000D01*
X157419031Y-80900000D01*
X157427304Y-80903427D01*
G37*
%TD.AperFunction*%
%TD*%
%TA.AperFunction,Conductor*%
%TO.N,/HalfDigit*%
G36*
X155571747Y-60865969D02*
G01*
X155577114Y-60870456D01*
X155996074Y-61522833D01*
X155997661Y-61531646D01*
X155993879Y-61538007D01*
X155408664Y-62043765D01*
X155400164Y-62046582D01*
X155392690Y-62043135D01*
X154859720Y-61503523D01*
X154856344Y-61495229D01*
X154859387Y-61487430D01*
X155339097Y-60959821D01*
X155343273Y-60956885D01*
X155562793Y-60865968D01*
X155571747Y-60865969D01*
G37*
%TD.AperFunction*%
%TD*%
%TA.AperFunction,Conductor*%
%TO.N,/HalfDigit*%
G36*
X154780412Y-67803965D02*
G01*
X155390766Y-68291467D01*
X155395091Y-68299308D01*
X155392606Y-68307911D01*
X155391811Y-68308808D01*
X154860106Y-68850088D01*
X154851863Y-68853589D01*
X154846846Y-68852508D01*
X154202591Y-68554424D01*
X154197003Y-68548965D01*
X154092778Y-68336882D01*
X154092205Y-68327946D01*
X154096114Y-68322473D01*
X154765947Y-67803855D01*
X154774587Y-67801501D01*
X154780412Y-67803965D01*
G37*
%TD.AperFunction*%
%TD*%
M02*
