M48
; DRILL file {KiCad 7.0.7} date Wed Feb  7 23:55:41 2024
; FORMAT={-:-/ absolute / inch / decimal}
; #@! TF.CreationDate,2024-02-07T23:55:41-05:00
; #@! TF.GenerationSoftware,Kicad,Pcbnew,7.0.7
; #@! TF.FileFunction,Plated,1,2,PTH
FMAT,2
INCH
; #@! TA.AperFunction,Plated,PTH,ViaDrill
T1C0.0039
%
G90
G05
T1
X6.0394Y-2.6024
X6.0667Y-2.4306
X6.1596Y-2.8604
X6.189Y-2.3071
X6.4213Y-3.0315
X6.4552Y-2.8204
X6.5261Y-2.844
X6.5404Y-2.7205
X6.5433Y-2.2638
X6.5551Y-2.8189
X6.563Y-2.3622
X6.6929Y-2.2638
X6.7008Y-3.0315
X6.874Y-2.9016
X6.8858Y-3.0315
X7.0Y-2.9035
X7.0Y-3.0315
X7.126Y-2.2638
X7.1969Y-2.8819
X7.1969Y-2.9882
X7.2008Y-2.6339
X7.2835Y-2.9882
X7.4409Y-2.9528
X7.4409Y-3.0315
X7.5157Y-3.0315
X7.5472Y-2.82
X7.748Y-2.5748
X7.748Y-3.0394
X7.7717Y-3.0039
X7.7992Y-2.878
X7.8425Y-2.4993
X7.9236Y-2.2008
X7.9882Y-2.9961
X8.0Y-2.2008
X8.0404Y-2.9409
X8.0906Y-2.2008
X8.34Y-2.7112
X8.3465Y-2.8031
X8.3661Y-2.3031
X8.3878Y-2.4508
X8.4213Y-2.6378
X8.4449Y-2.874
T0
M30
