%TF.GenerationSoftware,KiCad,Pcbnew,7.0.7*%
%TF.CreationDate,2024-02-07T23:55:42-05:00*%
%TF.ProjectId,Fluke_LCD,466c756b-655f-44c4-9344-2e6b69636164,rev?*%
%TF.SameCoordinates,Original*%
%TF.FileFunction,Drillmap*%
%TF.FilePolarity,Positive*%
%FSLAX45Y45*%
G04 Gerber Fmt 4.5, Leading zero omitted, Abs format (unit mm)*
G04 Created by KiCad (PCBNEW 7.0.7) date 2024-02-07 23:55:42*
%MOMM*%
%LPD*%
G01*
G04 APERTURE LIST*
%ADD10C,0.200000*%
%ADD11C,0.010000*%
G04 APERTURE END LIST*
D10*
X15189200Y-5207000D02*
X21615400Y-5207000D01*
X21615400Y-8610600D01*
X15189200Y-8610600D01*
X15189200Y-5207000D01*
D11*
X15335000Y-6605000D02*
X15345000Y-6615000D01*
X15345000Y-6605000D02*
X15335000Y-6615000D01*
X15404450Y-6168800D02*
X15414450Y-6178800D01*
X15414450Y-6168800D02*
X15404450Y-6178800D01*
X15640500Y-7260500D02*
X15650500Y-7270500D01*
X15650500Y-7260500D02*
X15640500Y-7270500D01*
X15715000Y-5855000D02*
X15725000Y-5865000D01*
X15725000Y-5855000D02*
X15715000Y-5865000D01*
X16305000Y-7695000D02*
X16315000Y-7705000D01*
X16315000Y-7695000D02*
X16305000Y-7705000D01*
X16391300Y-7158700D02*
X16401300Y-7168700D01*
X16401300Y-7158700D02*
X16391300Y-7168700D01*
X16571250Y-7218750D02*
X16581250Y-7228750D01*
X16581250Y-7218750D02*
X16571250Y-7228750D01*
X16607500Y-6905000D02*
X16617500Y-6915000D01*
X16617500Y-6905000D02*
X16607500Y-6915000D01*
X16615000Y-5745000D02*
X16625000Y-5755000D01*
X16625000Y-5745000D02*
X16615000Y-5755000D01*
X16645000Y-7155000D02*
X16655000Y-7165000D01*
X16655000Y-7155000D02*
X16645000Y-7165000D01*
X16665000Y-5995000D02*
X16675000Y-6005000D01*
X16675000Y-5995000D02*
X16665000Y-6005000D01*
X16995000Y-5745000D02*
X17005000Y-5755000D01*
X17005000Y-5745000D02*
X16995000Y-5755000D01*
X17015000Y-7695000D02*
X17025000Y-7705000D01*
X17025000Y-7695000D02*
X17015000Y-7705000D01*
X17455000Y-7365000D02*
X17465000Y-7375000D01*
X17465000Y-7365000D02*
X17455000Y-7375000D01*
X17485000Y-7695000D02*
X17495000Y-7705000D01*
X17495000Y-7695000D02*
X17485000Y-7705000D01*
X17775000Y-7370000D02*
X17785000Y-7380000D01*
X17785000Y-7370000D02*
X17775000Y-7380000D01*
X17775000Y-7695000D02*
X17785000Y-7705000D01*
X17785000Y-7695000D02*
X17775000Y-7705000D01*
X18095000Y-5745000D02*
X18105000Y-5755000D01*
X18105000Y-5745000D02*
X18095000Y-5755000D01*
X18275000Y-7315000D02*
X18285000Y-7325000D01*
X18285000Y-7315000D02*
X18275000Y-7325000D01*
X18275000Y-7585000D02*
X18285000Y-7595000D01*
X18285000Y-7585000D02*
X18275000Y-7595000D01*
X18285000Y-6685000D02*
X18295000Y-6695000D01*
X18295000Y-6685000D02*
X18285000Y-6695000D01*
X18495000Y-7585000D02*
X18505000Y-7595000D01*
X18505000Y-7585000D02*
X18495000Y-7595000D01*
X18895000Y-7495000D02*
X18905000Y-7505000D01*
X18905000Y-7495000D02*
X18895000Y-7505000D01*
X18895000Y-7695000D02*
X18905000Y-7705000D01*
X18905000Y-7695000D02*
X18895000Y-7705000D01*
X19085000Y-7695000D02*
X19095000Y-7705000D01*
X19095000Y-7695000D02*
X19085000Y-7705000D01*
X19165000Y-7157800D02*
X19175000Y-7167800D01*
X19175000Y-7157800D02*
X19165000Y-7167800D01*
X19675000Y-6535000D02*
X19685000Y-6545000D01*
X19685000Y-6535000D02*
X19675000Y-6545000D01*
X19675000Y-7715000D02*
X19685000Y-7725000D01*
X19685000Y-7715000D02*
X19675000Y-7725000D01*
X19735000Y-7625000D02*
X19745000Y-7635000D01*
X19745000Y-7625000D02*
X19735000Y-7635000D01*
X19805000Y-7305000D02*
X19815000Y-7315000D01*
X19815000Y-7305000D02*
X19805000Y-7315000D01*
X19915000Y-6343200D02*
X19925000Y-6353200D01*
X19925000Y-6343200D02*
X19915000Y-6353200D01*
X20120950Y-5585000D02*
X20130950Y-5595000D01*
X20130950Y-5585000D02*
X20120950Y-5595000D01*
X20285000Y-7605000D02*
X20295000Y-7615000D01*
X20295000Y-7605000D02*
X20285000Y-7615000D01*
X20315000Y-5585000D02*
X20325000Y-5595000D01*
X20325000Y-5585000D02*
X20315000Y-5595000D01*
X20417500Y-7465000D02*
X20427500Y-7475000D01*
X20427500Y-7465000D02*
X20417500Y-7475000D01*
X20545000Y-5585000D02*
X20555000Y-5595000D01*
X20555000Y-5585000D02*
X20545000Y-5595000D01*
X21178600Y-6881400D02*
X21188600Y-6891400D01*
X21188600Y-6881400D02*
X21178600Y-6891400D01*
X21195000Y-7115000D02*
X21205000Y-7125000D01*
X21205000Y-7115000D02*
X21195000Y-7125000D01*
X21245000Y-5845000D02*
X21255000Y-5855000D01*
X21255000Y-5845000D02*
X21245000Y-5855000D01*
X21300000Y-6220000D02*
X21310000Y-6230000D01*
X21310000Y-6220000D02*
X21300000Y-6230000D01*
X21385000Y-6695000D02*
X21395000Y-6705000D01*
X21395000Y-6695000D02*
X21385000Y-6705000D01*
X21445000Y-7295000D02*
X21455000Y-7305000D01*
X21455000Y-7295000D02*
X21445000Y-7305000D01*
D10*
X15439977Y-8932084D02*
X15439977Y-8732084D01*
X15439977Y-8732084D02*
X15487596Y-8732084D01*
X15487596Y-8732084D02*
X15516167Y-8741608D01*
X15516167Y-8741608D02*
X15535215Y-8760655D01*
X15535215Y-8760655D02*
X15544739Y-8779703D01*
X15544739Y-8779703D02*
X15554262Y-8817798D01*
X15554262Y-8817798D02*
X15554262Y-8846370D01*
X15554262Y-8846370D02*
X15544739Y-8884465D01*
X15544739Y-8884465D02*
X15535215Y-8903512D01*
X15535215Y-8903512D02*
X15516167Y-8922560D01*
X15516167Y-8922560D02*
X15487596Y-8932084D01*
X15487596Y-8932084D02*
X15439977Y-8932084D01*
X15639977Y-8932084D02*
X15639977Y-8798750D01*
X15639977Y-8836846D02*
X15649501Y-8817798D01*
X15649501Y-8817798D02*
X15659024Y-8808274D01*
X15659024Y-8808274D02*
X15678072Y-8798750D01*
X15678072Y-8798750D02*
X15697120Y-8798750D01*
X15763786Y-8932084D02*
X15763786Y-8798750D01*
X15763786Y-8732084D02*
X15754262Y-8741608D01*
X15754262Y-8741608D02*
X15763786Y-8751131D01*
X15763786Y-8751131D02*
X15773310Y-8741608D01*
X15773310Y-8741608D02*
X15763786Y-8732084D01*
X15763786Y-8732084D02*
X15763786Y-8751131D01*
X15887596Y-8932084D02*
X15868548Y-8922560D01*
X15868548Y-8922560D02*
X15859024Y-8903512D01*
X15859024Y-8903512D02*
X15859024Y-8732084D01*
X15992358Y-8932084D02*
X15973310Y-8922560D01*
X15973310Y-8922560D02*
X15963786Y-8903512D01*
X15963786Y-8903512D02*
X15963786Y-8732084D01*
X16220929Y-8932084D02*
X16220929Y-8732084D01*
X16220929Y-8732084D02*
X16287596Y-8874941D01*
X16287596Y-8874941D02*
X16354262Y-8732084D01*
X16354262Y-8732084D02*
X16354262Y-8932084D01*
X16535215Y-8932084D02*
X16535215Y-8827322D01*
X16535215Y-8827322D02*
X16525691Y-8808274D01*
X16525691Y-8808274D02*
X16506643Y-8798750D01*
X16506643Y-8798750D02*
X16468548Y-8798750D01*
X16468548Y-8798750D02*
X16449501Y-8808274D01*
X16535215Y-8922560D02*
X16516167Y-8932084D01*
X16516167Y-8932084D02*
X16468548Y-8932084D01*
X16468548Y-8932084D02*
X16449501Y-8922560D01*
X16449501Y-8922560D02*
X16439977Y-8903512D01*
X16439977Y-8903512D02*
X16439977Y-8884465D01*
X16439977Y-8884465D02*
X16449501Y-8865417D01*
X16449501Y-8865417D02*
X16468548Y-8855893D01*
X16468548Y-8855893D02*
X16516167Y-8855893D01*
X16516167Y-8855893D02*
X16535215Y-8846370D01*
X16630453Y-8798750D02*
X16630453Y-8998750D01*
X16630453Y-8808274D02*
X16649501Y-8798750D01*
X16649501Y-8798750D02*
X16687596Y-8798750D01*
X16687596Y-8798750D02*
X16706643Y-8808274D01*
X16706643Y-8808274D02*
X16716167Y-8817798D01*
X16716167Y-8817798D02*
X16725691Y-8836846D01*
X16725691Y-8836846D02*
X16725691Y-8893989D01*
X16725691Y-8893989D02*
X16716167Y-8913036D01*
X16716167Y-8913036D02*
X16706643Y-8922560D01*
X16706643Y-8922560D02*
X16687596Y-8932084D01*
X16687596Y-8932084D02*
X16649501Y-8932084D01*
X16649501Y-8932084D02*
X16630453Y-8922560D01*
X16811405Y-8913036D02*
X16820929Y-8922560D01*
X16820929Y-8922560D02*
X16811405Y-8932084D01*
X16811405Y-8932084D02*
X16801882Y-8922560D01*
X16801882Y-8922560D02*
X16811405Y-8913036D01*
X16811405Y-8913036D02*
X16811405Y-8932084D01*
X16811405Y-8808274D02*
X16820929Y-8817798D01*
X16820929Y-8817798D02*
X16811405Y-8827322D01*
X16811405Y-8827322D02*
X16801882Y-8817798D01*
X16801882Y-8817798D02*
X16811405Y-8808274D01*
X16811405Y-8808274D02*
X16811405Y-8827322D01*
D11*
X15169200Y-9255600D02*
X15179200Y-9265600D01*
X15179200Y-9255600D02*
X15169200Y-9265600D01*
D10*
X15478072Y-9152084D02*
X15497120Y-9152084D01*
X15497120Y-9152084D02*
X15516167Y-9161608D01*
X15516167Y-9161608D02*
X15525691Y-9171131D01*
X15525691Y-9171131D02*
X15535215Y-9190179D01*
X15535215Y-9190179D02*
X15544739Y-9228274D01*
X15544739Y-9228274D02*
X15544739Y-9275893D01*
X15544739Y-9275893D02*
X15535215Y-9313989D01*
X15535215Y-9313989D02*
X15525691Y-9333036D01*
X15525691Y-9333036D02*
X15516167Y-9342560D01*
X15516167Y-9342560D02*
X15497120Y-9352084D01*
X15497120Y-9352084D02*
X15478072Y-9352084D01*
X15478072Y-9352084D02*
X15459024Y-9342560D01*
X15459024Y-9342560D02*
X15449501Y-9333036D01*
X15449501Y-9333036D02*
X15439977Y-9313989D01*
X15439977Y-9313989D02*
X15430453Y-9275893D01*
X15430453Y-9275893D02*
X15430453Y-9228274D01*
X15430453Y-9228274D02*
X15439977Y-9190179D01*
X15439977Y-9190179D02*
X15449501Y-9171131D01*
X15449501Y-9171131D02*
X15459024Y-9161608D01*
X15459024Y-9161608D02*
X15478072Y-9152084D01*
X15630453Y-9333036D02*
X15639977Y-9342560D01*
X15639977Y-9342560D02*
X15630453Y-9352084D01*
X15630453Y-9352084D02*
X15620929Y-9342560D01*
X15620929Y-9342560D02*
X15630453Y-9333036D01*
X15630453Y-9333036D02*
X15630453Y-9352084D01*
X15830453Y-9352084D02*
X15716167Y-9352084D01*
X15773310Y-9352084D02*
X15773310Y-9152084D01*
X15773310Y-9152084D02*
X15754262Y-9180655D01*
X15754262Y-9180655D02*
X15735215Y-9199703D01*
X15735215Y-9199703D02*
X15716167Y-9209227D01*
X15954262Y-9152084D02*
X15973310Y-9152084D01*
X15973310Y-9152084D02*
X15992358Y-9161608D01*
X15992358Y-9161608D02*
X16001882Y-9171131D01*
X16001882Y-9171131D02*
X16011405Y-9190179D01*
X16011405Y-9190179D02*
X16020929Y-9228274D01*
X16020929Y-9228274D02*
X16020929Y-9275893D01*
X16020929Y-9275893D02*
X16011405Y-9313989D01*
X16011405Y-9313989D02*
X16001882Y-9333036D01*
X16001882Y-9333036D02*
X15992358Y-9342560D01*
X15992358Y-9342560D02*
X15973310Y-9352084D01*
X15973310Y-9352084D02*
X15954262Y-9352084D01*
X15954262Y-9352084D02*
X15935215Y-9342560D01*
X15935215Y-9342560D02*
X15925691Y-9333036D01*
X15925691Y-9333036D02*
X15916167Y-9313989D01*
X15916167Y-9313989D02*
X15906643Y-9275893D01*
X15906643Y-9275893D02*
X15906643Y-9228274D01*
X15906643Y-9228274D02*
X15916167Y-9190179D01*
X15916167Y-9190179D02*
X15925691Y-9171131D01*
X15925691Y-9171131D02*
X15935215Y-9161608D01*
X15935215Y-9161608D02*
X15954262Y-9152084D01*
X16144739Y-9152084D02*
X16163786Y-9152084D01*
X16163786Y-9152084D02*
X16182834Y-9161608D01*
X16182834Y-9161608D02*
X16192358Y-9171131D01*
X16192358Y-9171131D02*
X16201882Y-9190179D01*
X16201882Y-9190179D02*
X16211405Y-9228274D01*
X16211405Y-9228274D02*
X16211405Y-9275893D01*
X16211405Y-9275893D02*
X16201882Y-9313989D01*
X16201882Y-9313989D02*
X16192358Y-9333036D01*
X16192358Y-9333036D02*
X16182834Y-9342560D01*
X16182834Y-9342560D02*
X16163786Y-9352084D01*
X16163786Y-9352084D02*
X16144739Y-9352084D01*
X16144739Y-9352084D02*
X16125691Y-9342560D01*
X16125691Y-9342560D02*
X16116167Y-9333036D01*
X16116167Y-9333036D02*
X16106643Y-9313989D01*
X16106643Y-9313989D02*
X16097120Y-9275893D01*
X16097120Y-9275893D02*
X16097120Y-9228274D01*
X16097120Y-9228274D02*
X16106643Y-9190179D01*
X16106643Y-9190179D02*
X16116167Y-9171131D01*
X16116167Y-9171131D02*
X16125691Y-9161608D01*
X16125691Y-9161608D02*
X16144739Y-9152084D01*
X16297120Y-9352084D02*
X16297120Y-9218750D01*
X16297120Y-9237798D02*
X16306643Y-9228274D01*
X16306643Y-9228274D02*
X16325691Y-9218750D01*
X16325691Y-9218750D02*
X16354263Y-9218750D01*
X16354263Y-9218750D02*
X16373310Y-9228274D01*
X16373310Y-9228274D02*
X16382834Y-9247322D01*
X16382834Y-9247322D02*
X16382834Y-9352084D01*
X16382834Y-9247322D02*
X16392358Y-9228274D01*
X16392358Y-9228274D02*
X16411405Y-9218750D01*
X16411405Y-9218750D02*
X16439977Y-9218750D01*
X16439977Y-9218750D02*
X16459024Y-9228274D01*
X16459024Y-9228274D02*
X16468548Y-9247322D01*
X16468548Y-9247322D02*
X16468548Y-9352084D01*
X16563786Y-9352084D02*
X16563786Y-9218750D01*
X16563786Y-9237798D02*
X16573310Y-9228274D01*
X16573310Y-9228274D02*
X16592358Y-9218750D01*
X16592358Y-9218750D02*
X16620929Y-9218750D01*
X16620929Y-9218750D02*
X16639977Y-9228274D01*
X16639977Y-9228274D02*
X16649501Y-9247322D01*
X16649501Y-9247322D02*
X16649501Y-9352084D01*
X16649501Y-9247322D02*
X16659024Y-9228274D01*
X16659024Y-9228274D02*
X16678072Y-9218750D01*
X16678072Y-9218750D02*
X16706643Y-9218750D01*
X16706643Y-9218750D02*
X16725691Y-9228274D01*
X16725691Y-9228274D02*
X16735215Y-9247322D01*
X16735215Y-9247322D02*
X16735215Y-9352084D01*
X17125691Y-9142560D02*
X16954263Y-9399703D01*
X17382834Y-9152084D02*
X17401882Y-9152084D01*
X17401882Y-9152084D02*
X17420929Y-9161608D01*
X17420929Y-9161608D02*
X17430453Y-9171131D01*
X17430453Y-9171131D02*
X17439977Y-9190179D01*
X17439977Y-9190179D02*
X17449501Y-9228274D01*
X17449501Y-9228274D02*
X17449501Y-9275893D01*
X17449501Y-9275893D02*
X17439977Y-9313989D01*
X17439977Y-9313989D02*
X17430453Y-9333036D01*
X17430453Y-9333036D02*
X17420929Y-9342560D01*
X17420929Y-9342560D02*
X17401882Y-9352084D01*
X17401882Y-9352084D02*
X17382834Y-9352084D01*
X17382834Y-9352084D02*
X17363787Y-9342560D01*
X17363787Y-9342560D02*
X17354263Y-9333036D01*
X17354263Y-9333036D02*
X17344739Y-9313989D01*
X17344739Y-9313989D02*
X17335215Y-9275893D01*
X17335215Y-9275893D02*
X17335215Y-9228274D01*
X17335215Y-9228274D02*
X17344739Y-9190179D01*
X17344739Y-9190179D02*
X17354263Y-9171131D01*
X17354263Y-9171131D02*
X17363787Y-9161608D01*
X17363787Y-9161608D02*
X17382834Y-9152084D01*
X17535215Y-9333036D02*
X17544739Y-9342560D01*
X17544739Y-9342560D02*
X17535215Y-9352084D01*
X17535215Y-9352084D02*
X17525691Y-9342560D01*
X17525691Y-9342560D02*
X17535215Y-9333036D01*
X17535215Y-9333036D02*
X17535215Y-9352084D01*
X17668548Y-9152084D02*
X17687596Y-9152084D01*
X17687596Y-9152084D02*
X17706644Y-9161608D01*
X17706644Y-9161608D02*
X17716168Y-9171131D01*
X17716168Y-9171131D02*
X17725691Y-9190179D01*
X17725691Y-9190179D02*
X17735215Y-9228274D01*
X17735215Y-9228274D02*
X17735215Y-9275893D01*
X17735215Y-9275893D02*
X17725691Y-9313989D01*
X17725691Y-9313989D02*
X17716168Y-9333036D01*
X17716168Y-9333036D02*
X17706644Y-9342560D01*
X17706644Y-9342560D02*
X17687596Y-9352084D01*
X17687596Y-9352084D02*
X17668548Y-9352084D01*
X17668548Y-9352084D02*
X17649501Y-9342560D01*
X17649501Y-9342560D02*
X17639977Y-9333036D01*
X17639977Y-9333036D02*
X17630453Y-9313989D01*
X17630453Y-9313989D02*
X17620929Y-9275893D01*
X17620929Y-9275893D02*
X17620929Y-9228274D01*
X17620929Y-9228274D02*
X17630453Y-9190179D01*
X17630453Y-9190179D02*
X17639977Y-9171131D01*
X17639977Y-9171131D02*
X17649501Y-9161608D01*
X17649501Y-9161608D02*
X17668548Y-9152084D01*
X17859025Y-9152084D02*
X17878072Y-9152084D01*
X17878072Y-9152084D02*
X17897120Y-9161608D01*
X17897120Y-9161608D02*
X17906644Y-9171131D01*
X17906644Y-9171131D02*
X17916168Y-9190179D01*
X17916168Y-9190179D02*
X17925691Y-9228274D01*
X17925691Y-9228274D02*
X17925691Y-9275893D01*
X17925691Y-9275893D02*
X17916168Y-9313989D01*
X17916168Y-9313989D02*
X17906644Y-9333036D01*
X17906644Y-9333036D02*
X17897120Y-9342560D01*
X17897120Y-9342560D02*
X17878072Y-9352084D01*
X17878072Y-9352084D02*
X17859025Y-9352084D01*
X17859025Y-9352084D02*
X17839977Y-9342560D01*
X17839977Y-9342560D02*
X17830453Y-9333036D01*
X17830453Y-9333036D02*
X17820929Y-9313989D01*
X17820929Y-9313989D02*
X17811406Y-9275893D01*
X17811406Y-9275893D02*
X17811406Y-9228274D01*
X17811406Y-9228274D02*
X17820929Y-9190179D01*
X17820929Y-9190179D02*
X17830453Y-9171131D01*
X17830453Y-9171131D02*
X17839977Y-9161608D01*
X17839977Y-9161608D02*
X17859025Y-9152084D01*
X17992358Y-9152084D02*
X18116168Y-9152084D01*
X18116168Y-9152084D02*
X18049501Y-9228274D01*
X18049501Y-9228274D02*
X18078072Y-9228274D01*
X18078072Y-9228274D02*
X18097120Y-9237798D01*
X18097120Y-9237798D02*
X18106644Y-9247322D01*
X18106644Y-9247322D02*
X18116168Y-9266370D01*
X18116168Y-9266370D02*
X18116168Y-9313989D01*
X18116168Y-9313989D02*
X18106644Y-9333036D01*
X18106644Y-9333036D02*
X18097120Y-9342560D01*
X18097120Y-9342560D02*
X18078072Y-9352084D01*
X18078072Y-9352084D02*
X18020929Y-9352084D01*
X18020929Y-9352084D02*
X18001882Y-9342560D01*
X18001882Y-9342560D02*
X17992358Y-9333036D01*
X18211406Y-9352084D02*
X18249501Y-9352084D01*
X18249501Y-9352084D02*
X18268549Y-9342560D01*
X18268549Y-9342560D02*
X18278072Y-9333036D01*
X18278072Y-9333036D02*
X18297120Y-9304465D01*
X18297120Y-9304465D02*
X18306644Y-9266370D01*
X18306644Y-9266370D02*
X18306644Y-9190179D01*
X18306644Y-9190179D02*
X18297120Y-9171131D01*
X18297120Y-9171131D02*
X18287596Y-9161608D01*
X18287596Y-9161608D02*
X18268549Y-9152084D01*
X18268549Y-9152084D02*
X18230453Y-9152084D01*
X18230453Y-9152084D02*
X18211406Y-9161608D01*
X18211406Y-9161608D02*
X18201882Y-9171131D01*
X18201882Y-9171131D02*
X18192358Y-9190179D01*
X18192358Y-9190179D02*
X18192358Y-9237798D01*
X18192358Y-9237798D02*
X18201882Y-9256846D01*
X18201882Y-9256846D02*
X18211406Y-9266370D01*
X18211406Y-9266370D02*
X18230453Y-9275893D01*
X18230453Y-9275893D02*
X18268549Y-9275893D01*
X18268549Y-9275893D02*
X18287596Y-9266370D01*
X18287596Y-9266370D02*
X18297120Y-9256846D01*
X18297120Y-9256846D02*
X18306644Y-9237798D01*
X18382834Y-9152084D02*
X18382834Y-9190179D01*
X18459025Y-9152084D02*
X18459025Y-9190179D01*
X18754263Y-9428274D02*
X18744739Y-9418750D01*
X18744739Y-9418750D02*
X18725691Y-9390179D01*
X18725691Y-9390179D02*
X18716168Y-9371131D01*
X18716168Y-9371131D02*
X18706644Y-9342560D01*
X18706644Y-9342560D02*
X18697120Y-9294941D01*
X18697120Y-9294941D02*
X18697120Y-9256846D01*
X18697120Y-9256846D02*
X18706644Y-9209227D01*
X18706644Y-9209227D02*
X18716168Y-9180655D01*
X18716168Y-9180655D02*
X18725691Y-9161608D01*
X18725691Y-9161608D02*
X18744739Y-9133036D01*
X18744739Y-9133036D02*
X18754263Y-9123512D01*
X18916168Y-9218750D02*
X18916168Y-9352084D01*
X18868549Y-9142560D02*
X18820930Y-9285417D01*
X18820930Y-9285417D02*
X18944739Y-9285417D01*
X19011406Y-9171131D02*
X19020930Y-9161608D01*
X19020930Y-9161608D02*
X19039977Y-9152084D01*
X19039977Y-9152084D02*
X19087596Y-9152084D01*
X19087596Y-9152084D02*
X19106644Y-9161608D01*
X19106644Y-9161608D02*
X19116168Y-9171131D01*
X19116168Y-9171131D02*
X19125691Y-9190179D01*
X19125691Y-9190179D02*
X19125691Y-9209227D01*
X19125691Y-9209227D02*
X19116168Y-9237798D01*
X19116168Y-9237798D02*
X19001882Y-9352084D01*
X19001882Y-9352084D02*
X19125691Y-9352084D01*
X19363787Y-9352084D02*
X19363787Y-9152084D01*
X19449501Y-9352084D02*
X19449501Y-9247322D01*
X19449501Y-9247322D02*
X19439977Y-9228274D01*
X19439977Y-9228274D02*
X19420930Y-9218750D01*
X19420930Y-9218750D02*
X19392358Y-9218750D01*
X19392358Y-9218750D02*
X19373311Y-9228274D01*
X19373311Y-9228274D02*
X19363787Y-9237798D01*
X19573311Y-9352084D02*
X19554263Y-9342560D01*
X19554263Y-9342560D02*
X19544739Y-9333036D01*
X19544739Y-9333036D02*
X19535215Y-9313989D01*
X19535215Y-9313989D02*
X19535215Y-9256846D01*
X19535215Y-9256846D02*
X19544739Y-9237798D01*
X19544739Y-9237798D02*
X19554263Y-9228274D01*
X19554263Y-9228274D02*
X19573311Y-9218750D01*
X19573311Y-9218750D02*
X19601882Y-9218750D01*
X19601882Y-9218750D02*
X19620930Y-9228274D01*
X19620930Y-9228274D02*
X19630453Y-9237798D01*
X19630453Y-9237798D02*
X19639977Y-9256846D01*
X19639977Y-9256846D02*
X19639977Y-9313989D01*
X19639977Y-9313989D02*
X19630453Y-9333036D01*
X19630453Y-9333036D02*
X19620930Y-9342560D01*
X19620930Y-9342560D02*
X19601882Y-9352084D01*
X19601882Y-9352084D02*
X19573311Y-9352084D01*
X19754263Y-9352084D02*
X19735215Y-9342560D01*
X19735215Y-9342560D02*
X19725692Y-9323512D01*
X19725692Y-9323512D02*
X19725692Y-9152084D01*
X19906644Y-9342560D02*
X19887596Y-9352084D01*
X19887596Y-9352084D02*
X19849501Y-9352084D01*
X19849501Y-9352084D02*
X19830453Y-9342560D01*
X19830453Y-9342560D02*
X19820930Y-9323512D01*
X19820930Y-9323512D02*
X19820930Y-9247322D01*
X19820930Y-9247322D02*
X19830453Y-9228274D01*
X19830453Y-9228274D02*
X19849501Y-9218750D01*
X19849501Y-9218750D02*
X19887596Y-9218750D01*
X19887596Y-9218750D02*
X19906644Y-9228274D01*
X19906644Y-9228274D02*
X19916168Y-9247322D01*
X19916168Y-9247322D02*
X19916168Y-9266370D01*
X19916168Y-9266370D02*
X19820930Y-9285417D01*
X19992358Y-9342560D02*
X20011406Y-9352084D01*
X20011406Y-9352084D02*
X20049501Y-9352084D01*
X20049501Y-9352084D02*
X20068549Y-9342560D01*
X20068549Y-9342560D02*
X20078073Y-9323512D01*
X20078073Y-9323512D02*
X20078073Y-9313989D01*
X20078073Y-9313989D02*
X20068549Y-9294941D01*
X20068549Y-9294941D02*
X20049501Y-9285417D01*
X20049501Y-9285417D02*
X20020930Y-9285417D01*
X20020930Y-9285417D02*
X20001882Y-9275893D01*
X20001882Y-9275893D02*
X19992358Y-9256846D01*
X19992358Y-9256846D02*
X19992358Y-9247322D01*
X19992358Y-9247322D02*
X20001882Y-9228274D01*
X20001882Y-9228274D02*
X20020930Y-9218750D01*
X20020930Y-9218750D02*
X20049501Y-9218750D01*
X20049501Y-9218750D02*
X20068549Y-9228274D01*
X20144739Y-9428274D02*
X20154263Y-9418750D01*
X20154263Y-9418750D02*
X20173311Y-9390179D01*
X20173311Y-9390179D02*
X20182834Y-9371131D01*
X20182834Y-9371131D02*
X20192358Y-9342560D01*
X20192358Y-9342560D02*
X20201882Y-9294941D01*
X20201882Y-9294941D02*
X20201882Y-9256846D01*
X20201882Y-9256846D02*
X20192358Y-9209227D01*
X20192358Y-9209227D02*
X20182834Y-9180655D01*
X20182834Y-9180655D02*
X20173311Y-9161608D01*
X20173311Y-9161608D02*
X20154263Y-9133036D01*
X20154263Y-9133036D02*
X20144739Y-9123512D01*
M02*
