%TF.GenerationSoftware,KiCad,Pcbnew,7.0.7*%
%TF.CreationDate,2024-09-12T05:12:33-04:00*%
%TF.ProjectId,Fluke_LCD,466c756b-655f-44c4-9344-2e6b69636164,rev?*%
%TF.SameCoordinates,Original*%
%TF.FileFunction,Soldermask,Top*%
%TF.FilePolarity,Negative*%
%FSLAX46Y46*%
G04 Gerber Fmt 4.6, Leading zero omitted, Abs format (unit mm)*
G04 Created by KiCad (PCBNEW 7.0.7) date 2024-09-12 05:12:33*
%MOMM*%
%LPD*%
G01*
G04 APERTURE LIST*
G04 Aperture macros list*
%AMRoundRect*
0 Rectangle with rounded corners*
0 $1 Rounding radius*
0 $2 $3 $4 $5 $6 $7 $8 $9 X,Y pos of 4 corners*
0 Add a 4 corners polygon primitive as box body*
4,1,4,$2,$3,$4,$5,$6,$7,$8,$9,$2,$3,0*
0 Add four circle primitives for the rounded corners*
1,1,$1+$1,$2,$3*
1,1,$1+$1,$4,$5*
1,1,$1+$1,$6,$7*
1,1,$1+$1,$8,$9*
0 Add four rect primitives between the rounded corners*
20,1,$1+$1,$2,$3,$4,$5,0*
20,1,$1+$1,$4,$5,$6,$7,0*
20,1,$1+$1,$6,$7,$8,$9,0*
20,1,$1+$1,$8,$9,$2,$3,0*%
G04 Aperture macros list end*
%ADD10RoundRect,0.250000X-0.450000X0.325000X-0.450000X-0.325000X0.450000X-0.325000X0.450000X0.325000X0*%
%ADD11RoundRect,0.250000X-0.325000X-0.450000X0.325000X-0.450000X0.325000X0.450000X-0.325000X0.450000X0*%
%ADD12RoundRect,0.250000X0.450000X-0.325000X0.450000X0.325000X-0.450000X0.325000X-0.450000X-0.325000X0*%
%ADD13RoundRect,0.250000X0.450000X-0.350000X0.450000X0.350000X-0.450000X0.350000X-0.450000X-0.350000X0*%
%ADD14R,0.850000X0.850000*%
%ADD15O,0.850000X0.850000*%
%ADD16C,0.500000*%
%ADD17C,0.300000*%
G04 APERTURE END LIST*
D10*
%TO.C,D15*%
X182880000Y-69324000D03*
X182880000Y-71374000D03*
%TD*%
D11*
%TO.C,D7*%
X164075000Y-73660000D03*
X166125000Y-73660000D03*
%TD*%
D12*
%TO.C,D41*%
X155400000Y-64100000D03*
X155400000Y-62050000D03*
%TD*%
D11*
%TO.C,D13*%
X179350000Y-73600000D03*
X181400000Y-73600000D03*
%TD*%
D10*
%TO.C,D22*%
X198120000Y-63482000D03*
X198120000Y-65532000D03*
%TD*%
D13*
%TO.C,R6*%
X157300000Y-84100000D03*
X157300000Y-82100000D03*
%TD*%
D10*
%TO.C,D3*%
X167640000Y-63491000D03*
X167640000Y-65541000D03*
%TD*%
D11*
%TO.C,D39*%
X164075000Y-55880000D03*
X166125000Y-55880000D03*
%TD*%
D10*
%TO.C,D23*%
X198120000Y-69578000D03*
X198120000Y-71628000D03*
%TD*%
D13*
%TO.C,R38*%
X207450000Y-84100000D03*
X207450000Y-82100000D03*
%TD*%
%TO.C,R34*%
X201550000Y-84100000D03*
X201550000Y-82100000D03*
%TD*%
D11*
%TO.C,D19*%
X194546000Y-61468000D03*
X196596000Y-61468000D03*
%TD*%
%TO.C,D28*%
X209786000Y-67564000D03*
X211836000Y-67564000D03*
%TD*%
%TO.C,D34*%
X198374000Y-55880000D03*
X200424000Y-55880000D03*
%TD*%
%TO.C,D44*%
X156455000Y-73660000D03*
X158505000Y-73660000D03*
%TD*%
D10*
%TO.C,D31*%
X213360000Y-69578000D03*
X213360000Y-71628000D03*
%TD*%
D11*
%TO.C,D4*%
X164075000Y-67564000D03*
X166125000Y-67564000D03*
%TD*%
D12*
%TO.C,D43*%
X155400000Y-70350000D03*
X155400000Y-68300000D03*
%TD*%
D13*
%TO.C,R40*%
X210400000Y-84100000D03*
X210400000Y-82100000D03*
%TD*%
D11*
%TO.C,D11*%
X179306000Y-61214000D03*
X181356000Y-61214000D03*
%TD*%
%TO.C,D27*%
X209786000Y-61468000D03*
X211836000Y-61468000D03*
%TD*%
%TO.C,D33*%
X202184000Y-55880000D03*
X204234000Y-55880000D03*
%TD*%
D13*
%TO.C,R18*%
X177850000Y-84100000D03*
X177850000Y-82100000D03*
%TD*%
%TO.C,R12*%
X169000000Y-84100000D03*
X169000000Y-82100000D03*
%TD*%
%TO.C,R36*%
X204500000Y-84100000D03*
X204500000Y-82100000D03*
%TD*%
D11*
%TO.C,D36*%
X179315000Y-55626000D03*
X181365000Y-55626000D03*
%TD*%
D10*
%TO.C,D9*%
X177800000Y-63228000D03*
X177800000Y-65278000D03*
%TD*%
D11*
%TO.C,D42*%
X158350000Y-58600000D03*
X160400000Y-58600000D03*
%TD*%
D10*
%TO.C,D18*%
X193040000Y-69578000D03*
X193040000Y-71628000D03*
%TD*%
D13*
%TO.C,R8*%
X160250000Y-84100000D03*
X160250000Y-82100000D03*
%TD*%
D10*
%TO.C,D6*%
X167640000Y-69587000D03*
X167640000Y-71637000D03*
%TD*%
D13*
%TO.C,R32*%
X198600000Y-84100000D03*
X198600000Y-82100000D03*
%TD*%
D11*
%TO.C,D24*%
X202175000Y-73660000D03*
X204225000Y-73660000D03*
%TD*%
D10*
%TO.C,D40*%
X155400000Y-53550000D03*
X155400000Y-55600000D03*
%TD*%
D13*
%TO.C,R1*%
X189650000Y-84100000D03*
X189650000Y-82100000D03*
%TD*%
D11*
%TO.C,D32*%
X209786000Y-55880000D03*
X211836000Y-55880000D03*
%TD*%
%TO.C,D2*%
X164075000Y-61468000D03*
X166125000Y-61468000D03*
%TD*%
D13*
%TO.C,R10*%
X166050000Y-84100000D03*
X166050000Y-82100000D03*
%TD*%
D11*
%TO.C,D35*%
X194564000Y-55880000D03*
X196614000Y-55880000D03*
%TD*%
%TO.C,D20*%
X194555000Y-67564000D03*
X196605000Y-67564000D03*
%TD*%
%TO.C,D21*%
X194555000Y-73660000D03*
X196605000Y-73660000D03*
%TD*%
D13*
%TO.C,R42*%
X213350000Y-84100000D03*
X213350000Y-82100000D03*
%TD*%
%TO.C,R28*%
X192650000Y-84100000D03*
X192650000Y-82100000D03*
%TD*%
D11*
%TO.C,D8*%
X171695000Y-73660000D03*
X173745000Y-73660000D03*
%TD*%
D10*
%TO.C,D14*%
X182880000Y-63228000D03*
X182880000Y-65278000D03*
%TD*%
%TO.C,D26*%
X208280000Y-69578000D03*
X208280000Y-71628000D03*
%TD*%
D13*
%TO.C,R20*%
X180800000Y-84100000D03*
X180800000Y-82100000D03*
%TD*%
%TO.C,R14*%
X171950000Y-84100000D03*
X171950000Y-82100000D03*
%TD*%
D10*
%TO.C,D5*%
X162560000Y-69587000D03*
X162560000Y-71637000D03*
%TD*%
D13*
%TO.C,R16*%
X174900000Y-84100000D03*
X174900000Y-82100000D03*
%TD*%
%TO.C,R22*%
X183750000Y-84100000D03*
X183750000Y-82100000D03*
%TD*%
D10*
%TO.C,D25*%
X208280000Y-63482000D03*
X208280000Y-65532000D03*
%TD*%
D11*
%TO.C,D16*%
X186935000Y-73660000D03*
X188985000Y-73660000D03*
%TD*%
D10*
%TO.C,D17*%
X193040000Y-63482000D03*
X193040000Y-65532000D03*
%TD*%
%TO.C,D30*%
X213360000Y-63482000D03*
X213360000Y-65532000D03*
%TD*%
D11*
%TO.C,D12*%
X179306000Y-67310000D03*
X181356000Y-67310000D03*
%TD*%
D10*
%TO.C,D1*%
X162560000Y-63491000D03*
X162560000Y-65541000D03*
%TD*%
D13*
%TO.C,R24*%
X186700000Y-84100000D03*
X186700000Y-82100000D03*
%TD*%
D11*
%TO.C,D38*%
X167885000Y-55880000D03*
X169935000Y-55880000D03*
%TD*%
D13*
%TO.C,R2*%
X163100000Y-84100000D03*
X163100000Y-82100000D03*
%TD*%
%TO.C,R30*%
X195650000Y-84100000D03*
X195650000Y-82100000D03*
%TD*%
D11*
%TO.C,D29*%
X209786000Y-73642000D03*
X211836000Y-73642000D03*
%TD*%
D10*
%TO.C,D10*%
X177800000Y-69333000D03*
X177800000Y-71383000D03*
%TD*%
D13*
%TO.C,R4*%
X154350000Y-84100000D03*
X154350000Y-82100000D03*
%TD*%
D14*
%TO.C,J1*%
X192700000Y-53100000D03*
D15*
X191700000Y-53100000D03*
X190700000Y-53100000D03*
X189700000Y-53100000D03*
X188700000Y-53100000D03*
X187700000Y-53100000D03*
X186700000Y-53100000D03*
X185700000Y-53100000D03*
X184700000Y-53100000D03*
X183700000Y-53100000D03*
X182700000Y-53100000D03*
X181700000Y-53100000D03*
X180700000Y-53100000D03*
X179700000Y-53100000D03*
X178700000Y-53100000D03*
X177700000Y-53100000D03*
X176700000Y-53100000D03*
X175700000Y-53100000D03*
X174700000Y-53100000D03*
X173700000Y-53100000D03*
X172700000Y-53100000D03*
X171700000Y-53100000D03*
%TD*%
D16*
X165473409Y-72026591D03*
X163963000Y-71637000D03*
X177800000Y-77000000D03*
X177800000Y-73750000D03*
D17*
X191700000Y-71628000D03*
D16*
X190900000Y-77000000D03*
X214500000Y-73000000D03*
X213900000Y-67000000D03*
X203250000Y-56750000D03*
X207389091Y-56110909D03*
X201259500Y-57250000D03*
X212500000Y-58500000D03*
X188250000Y-84000000D03*
X162500000Y-57500000D03*
X162500000Y-54900000D03*
X161300000Y-67700000D03*
X163970710Y-53100000D03*
X161300000Y-79100000D03*
X161300000Y-76800000D03*
X161700000Y-84100000D03*
X161300000Y-74700000D03*
X152800000Y-84100000D03*
X155800000Y-84100000D03*
X171500000Y-56250000D03*
X158800000Y-84000000D03*
X171250000Y-59100000D03*
X172233628Y-56733628D03*
X167400000Y-84100000D03*
X172000000Y-59100000D03*
X170400000Y-84100000D03*
X172750000Y-59099833D03*
X173002971Y-56767755D03*
X173750000Y-59100000D03*
X174000000Y-56774500D03*
X173400000Y-84100000D03*
X176400000Y-84100000D03*
X175750000Y-56975500D03*
X175500000Y-59100000D03*
X179400000Y-59250000D03*
X179400000Y-84100000D03*
X178209633Y-57475500D03*
X178500000Y-56750000D03*
X182200000Y-82700000D03*
X180250000Y-54000000D03*
X178500000Y-59000000D03*
X179101832Y-57104086D03*
X180300000Y-59500000D03*
X182400000Y-84100000D03*
X185300000Y-84000000D03*
X191250000Y-84100000D03*
X197100000Y-84100000D03*
X200000000Y-84100000D03*
X203100000Y-84100000D03*
X206000000Y-84100000D03*
X209000000Y-84100000D03*
X212000000Y-84100000D03*
X215100000Y-84000000D03*
X154094500Y-61738000D03*
X157250000Y-72589511D03*
X153400000Y-66750000D03*
X199475500Y-63000000D03*
X213050000Y-62250000D03*
X156775000Y-59025000D03*
X211836000Y-68864000D03*
X212000000Y-71200000D03*
X167000000Y-60250000D03*
X169750000Y-77000000D03*
X166500000Y-69100000D03*
X166500000Y-71600000D03*
X174600000Y-73700000D03*
X174900000Y-77000000D03*
X183300000Y-66800000D03*
X185700000Y-75900000D03*
X182800000Y-73200000D03*
X182800000Y-75900000D03*
X189000000Y-75000000D03*
X189000000Y-76500000D03*
X197300000Y-77000000D03*
X197000000Y-66000000D03*
X198100000Y-76000000D03*
X198100000Y-73100000D03*
X204112500Y-74875500D03*
X202900000Y-76100000D03*
X163100000Y-76750000D03*
X181000000Y-57500000D03*
X166750000Y-57750000D03*
X170000000Y-57500000D03*
M02*
