%TF.GenerationSoftware,KiCad,Pcbnew,7.0.7*%
%TF.CreationDate,2024-09-12T05:12:30-04:00*%
%TF.ProjectId,Fluke_LCD,466c756b-655f-44c4-9344-2e6b69636164,rev?*%
%TF.SameCoordinates,Original*%
%TF.FileFunction,Drillmap*%
%TF.FilePolarity,Positive*%
%FSLAX45Y45*%
G04 Gerber Fmt 4.5, Leading zero omitted, Abs format (unit mm)*
G04 Created by KiCad (PCBNEW 7.0.7) date 2024-09-12 05:12:30*
%MOMM*%
%LPD*%
G01*
G04 APERTURE LIST*
%ADD10C,0.200000*%
%ADD11C,0.010000*%
%ADD12C,0.020000*%
%ADD13C,0.050000*%
G04 APERTURE END LIST*
D10*
X15189200Y-5207000D02*
X21615400Y-5207000D01*
X21615400Y-8610600D01*
X15189200Y-8610600D01*
X15189200Y-5207000D01*
D11*
X19165000Y-7157800D02*
X19175000Y-7167800D01*
X19175000Y-7157800D02*
X19165000Y-7167800D01*
D12*
X15290000Y-8410000D02*
G75*
G03*
X15290000Y-8410000I-10000J0D01*
G01*
X15350000Y-6675000D02*
G75*
G03*
X15350000Y-6675000I-10000J0D01*
G01*
X15419450Y-6173800D02*
G75*
G03*
X15419450Y-6173800I-10000J0D01*
G01*
X15590000Y-8410000D02*
G75*
G03*
X15590000Y-8410000I-10000J0D01*
G01*
X15687500Y-5902500D02*
G75*
G03*
X15687500Y-5902500I-10000J0D01*
G01*
X15735000Y-7258951D02*
G75*
G03*
X15735000Y-7258951I-10000J0D01*
G01*
X15890000Y-8400000D02*
G75*
G03*
X15890000Y-8400000I-10000J0D01*
G01*
X16140000Y-6770000D02*
G75*
G03*
X16140000Y-6770000I-10000J0D01*
G01*
X16140000Y-7470000D02*
G75*
G03*
X16140000Y-7470000I-10000J0D01*
G01*
X16140000Y-7680000D02*
G75*
G03*
X16140000Y-7680000I-10000J0D01*
G01*
X16140000Y-7910000D02*
G75*
G03*
X16140000Y-7910000I-10000J0D01*
G01*
X16180000Y-8410000D02*
G75*
G03*
X16180000Y-8410000I-10000J0D01*
G01*
X16260000Y-5490000D02*
G75*
G03*
X16260000Y-5490000I-10000J0D01*
G01*
X16260000Y-5750000D02*
G75*
G03*
X16260000Y-5750000I-10000J0D01*
G01*
X16320000Y-7675000D02*
G75*
G03*
X16320000Y-7675000I-10000J0D01*
G01*
X16406300Y-7163700D02*
G75*
G03*
X16406300Y-7163700I-10000J0D01*
G01*
X16407071Y-5310000D02*
G75*
G03*
X16407071Y-5310000I-10000J0D01*
G01*
X16557341Y-7202659D02*
G75*
G03*
X16557341Y-7202659I-10000J0D01*
G01*
X16660000Y-6910000D02*
G75*
G03*
X16660000Y-6910000I-10000J0D01*
G01*
X16660000Y-7160000D02*
G75*
G03*
X16660000Y-7160000I-10000J0D01*
G01*
X16685000Y-5775000D02*
G75*
G03*
X16685000Y-5775000I-10000J0D01*
G01*
X16710000Y-6025000D02*
G75*
G03*
X16710000Y-6025000I-10000J0D01*
G01*
X16750000Y-8410000D02*
G75*
G03*
X16750000Y-8410000I-10000J0D01*
G01*
X16985000Y-7700000D02*
G75*
G03*
X16985000Y-7700000I-10000J0D01*
G01*
X17010000Y-5750000D02*
G75*
G03*
X17010000Y-5750000I-10000J0D01*
G01*
X17050000Y-8410000D02*
G75*
G03*
X17050000Y-8410000I-10000J0D01*
G01*
X17135000Y-5910000D02*
G75*
G03*
X17135000Y-5910000I-10000J0D01*
G01*
X17160000Y-5625000D02*
G75*
G03*
X17160000Y-5625000I-10000J0D01*
G01*
X17210000Y-5910000D02*
G75*
G03*
X17210000Y-5910000I-10000J0D01*
G01*
X17233363Y-5673363D02*
G75*
G03*
X17233363Y-5673363I-10000J0D01*
G01*
X17285000Y-5909983D02*
G75*
G03*
X17285000Y-5909983I-10000J0D01*
G01*
X17310297Y-5676775D02*
G75*
G03*
X17310297Y-5676775I-10000J0D01*
G01*
X17350000Y-8410000D02*
G75*
G03*
X17350000Y-8410000I-10000J0D01*
G01*
X17385000Y-5910000D02*
G75*
G03*
X17385000Y-5910000I-10000J0D01*
G01*
X17410000Y-5677450D02*
G75*
G03*
X17410000Y-5677450I-10000J0D01*
G01*
X17470000Y-7370000D02*
G75*
G03*
X17470000Y-7370000I-10000J0D01*
G01*
X17500000Y-7700000D02*
G75*
G03*
X17500000Y-7700000I-10000J0D01*
G01*
X17560000Y-5910000D02*
G75*
G03*
X17560000Y-5910000I-10000J0D01*
G01*
X17585000Y-5697550D02*
G75*
G03*
X17585000Y-5697550I-10000J0D01*
G01*
X17650000Y-8410000D02*
G75*
G03*
X17650000Y-8410000I-10000J0D01*
G01*
X17790000Y-7375000D02*
G75*
G03*
X17790000Y-7375000I-10000J0D01*
G01*
X17790000Y-7700000D02*
G75*
G03*
X17790000Y-7700000I-10000J0D01*
G01*
X17830963Y-5747550D02*
G75*
G03*
X17830963Y-5747550I-10000J0D01*
G01*
X17860000Y-5675000D02*
G75*
G03*
X17860000Y-5675000I-10000J0D01*
G01*
X17860000Y-5900000D02*
G75*
G03*
X17860000Y-5900000I-10000J0D01*
G01*
X17920183Y-5710409D02*
G75*
G03*
X17920183Y-5710409I-10000J0D01*
G01*
X17950000Y-5925000D02*
G75*
G03*
X17950000Y-5925000I-10000J0D01*
G01*
X17950000Y-8410000D02*
G75*
G03*
X17950000Y-8410000I-10000J0D01*
G01*
X18035000Y-5400000D02*
G75*
G03*
X18035000Y-5400000I-10000J0D01*
G01*
X18040000Y-5950000D02*
G75*
G03*
X18040000Y-5950000I-10000J0D01*
G01*
X18110000Y-5750000D02*
G75*
G03*
X18110000Y-5750000I-10000J0D01*
G01*
X18230000Y-8270000D02*
G75*
G03*
X18230000Y-8270000I-10000J0D01*
G01*
X18250000Y-8410000D02*
G75*
G03*
X18250000Y-8410000I-10000J0D01*
G01*
X18290000Y-7320000D02*
G75*
G03*
X18290000Y-7320000I-10000J0D01*
G01*
X18290000Y-7590000D02*
G75*
G03*
X18290000Y-7590000I-10000J0D01*
G01*
X18340000Y-6680000D02*
G75*
G03*
X18340000Y-6680000I-10000J0D01*
G01*
X18540000Y-8400000D02*
G75*
G03*
X18540000Y-8400000I-10000J0D01*
G01*
X18580000Y-7590000D02*
G75*
G03*
X18580000Y-7590000I-10000J0D01*
G01*
X18835000Y-8400000D02*
G75*
G03*
X18835000Y-8400000I-10000J0D01*
G01*
X18910000Y-7500000D02*
G75*
G03*
X18910000Y-7500000I-10000J0D01*
G01*
X18910000Y-7650000D02*
G75*
G03*
X18910000Y-7650000I-10000J0D01*
G01*
X19100000Y-7700000D02*
G75*
G03*
X19100000Y-7700000I-10000J0D01*
G01*
X19135000Y-8410000D02*
G75*
G03*
X19135000Y-8410000I-10000J0D01*
G01*
X19710000Y-6600000D02*
G75*
G03*
X19710000Y-6600000I-10000J0D01*
G01*
X19720000Y-8410000D02*
G75*
G03*
X19720000Y-8410000I-10000J0D01*
G01*
X19740000Y-7700000D02*
G75*
G03*
X19740000Y-7700000I-10000J0D01*
G01*
X19820000Y-7310000D02*
G75*
G03*
X19820000Y-7310000I-10000J0D01*
G01*
X19820000Y-7600000D02*
G75*
G03*
X19820000Y-7600000I-10000J0D01*
G01*
X19957550Y-6300000D02*
G75*
G03*
X19957550Y-6300000I-10000J0D01*
G01*
X20010000Y-8410000D02*
G75*
G03*
X20010000Y-8410000I-10000J0D01*
G01*
X20135950Y-5725000D02*
G75*
G03*
X20135950Y-5725000I-10000J0D01*
G01*
X20300000Y-7610000D02*
G75*
G03*
X20300000Y-7610000I-10000J0D01*
G01*
X20320000Y-8410000D02*
G75*
G03*
X20320000Y-8410000I-10000J0D01*
G01*
X20335000Y-5675000D02*
G75*
G03*
X20335000Y-5675000I-10000J0D01*
G01*
X20421250Y-7487550D02*
G75*
G03*
X20421250Y-7487550I-10000J0D01*
G01*
X20610000Y-8410000D02*
G75*
G03*
X20610000Y-8410000I-10000J0D01*
G01*
X20748909Y-5611091D02*
G75*
G03*
X20748909Y-5611091I-10000J0D01*
G01*
X20910000Y-8410000D02*
G75*
G03*
X20910000Y-8410000I-10000J0D01*
G01*
X21193600Y-6886400D02*
G75*
G03*
X21193600Y-6886400I-10000J0D01*
G01*
X21210000Y-7120000D02*
G75*
G03*
X21210000Y-7120000I-10000J0D01*
G01*
X21210000Y-8410000D02*
G75*
G03*
X21210000Y-8410000I-10000J0D01*
G01*
X21260000Y-5850000D02*
G75*
G03*
X21260000Y-5850000I-10000J0D01*
G01*
X21315000Y-6225000D02*
G75*
G03*
X21315000Y-6225000I-10000J0D01*
G01*
X21400000Y-6700000D02*
G75*
G03*
X21400000Y-6700000I-10000J0D01*
G01*
X21460000Y-7300000D02*
G75*
G03*
X21460000Y-7300000I-10000J0D01*
G01*
X21520000Y-8400000D02*
G75*
G03*
X21520000Y-8400000I-10000J0D01*
G01*
D13*
X17170000Y-5285000D02*
X17170000Y-5335000D01*
X17145000Y-5310000D02*
X17195000Y-5310000D01*
X17270000Y-5285000D02*
X17270000Y-5335000D01*
X17245000Y-5310000D02*
X17295000Y-5310000D01*
X17370000Y-5285000D02*
X17370000Y-5335000D01*
X17345000Y-5310000D02*
X17395000Y-5310000D01*
X17470000Y-5285000D02*
X17470000Y-5335000D01*
X17445000Y-5310000D02*
X17495000Y-5310000D01*
X17570000Y-5285000D02*
X17570000Y-5335000D01*
X17545000Y-5310000D02*
X17595000Y-5310000D01*
X17670000Y-5285000D02*
X17670000Y-5335000D01*
X17645000Y-5310000D02*
X17695000Y-5310000D01*
X17770000Y-5285000D02*
X17770000Y-5335000D01*
X17745000Y-5310000D02*
X17795000Y-5310000D01*
X17870000Y-5285000D02*
X17870000Y-5335000D01*
X17845000Y-5310000D02*
X17895000Y-5310000D01*
X17970000Y-5285000D02*
X17970000Y-5335000D01*
X17945000Y-5310000D02*
X17995000Y-5310000D01*
X18070000Y-5285000D02*
X18070000Y-5335000D01*
X18045000Y-5310000D02*
X18095000Y-5310000D01*
X18170000Y-5285000D02*
X18170000Y-5335000D01*
X18145000Y-5310000D02*
X18195000Y-5310000D01*
X18270000Y-5285000D02*
X18270000Y-5335000D01*
X18245000Y-5310000D02*
X18295000Y-5310000D01*
X18370000Y-5285000D02*
X18370000Y-5335000D01*
X18345000Y-5310000D02*
X18395000Y-5310000D01*
X18470000Y-5285000D02*
X18470000Y-5335000D01*
X18445000Y-5310000D02*
X18495000Y-5310000D01*
X18570000Y-5285000D02*
X18570000Y-5335000D01*
X18545000Y-5310000D02*
X18595000Y-5310000D01*
X18670000Y-5285000D02*
X18670000Y-5335000D01*
X18645000Y-5310000D02*
X18695000Y-5310000D01*
X18770000Y-5285000D02*
X18770000Y-5335000D01*
X18745000Y-5310000D02*
X18795000Y-5310000D01*
X18870000Y-5285000D02*
X18870000Y-5335000D01*
X18845000Y-5310000D02*
X18895000Y-5310000D01*
X18970000Y-5285000D02*
X18970000Y-5335000D01*
X18945000Y-5310000D02*
X18995000Y-5310000D01*
X19070000Y-5285000D02*
X19070000Y-5335000D01*
X19045000Y-5310000D02*
X19095000Y-5310000D01*
X19170000Y-5285000D02*
X19170000Y-5335000D01*
X19145000Y-5310000D02*
X19195000Y-5310000D01*
X19270000Y-5285000D02*
X19270000Y-5335000D01*
X19245000Y-5310000D02*
X19295000Y-5310000D01*
D10*
X15439977Y-8932084D02*
X15439977Y-8732084D01*
X15439977Y-8732084D02*
X15487596Y-8732084D01*
X15487596Y-8732084D02*
X15516167Y-8741608D01*
X15516167Y-8741608D02*
X15535215Y-8760655D01*
X15535215Y-8760655D02*
X15544739Y-8779703D01*
X15544739Y-8779703D02*
X15554262Y-8817798D01*
X15554262Y-8817798D02*
X15554262Y-8846370D01*
X15554262Y-8846370D02*
X15544739Y-8884465D01*
X15544739Y-8884465D02*
X15535215Y-8903512D01*
X15535215Y-8903512D02*
X15516167Y-8922560D01*
X15516167Y-8922560D02*
X15487596Y-8932084D01*
X15487596Y-8932084D02*
X15439977Y-8932084D01*
X15639977Y-8932084D02*
X15639977Y-8798750D01*
X15639977Y-8836846D02*
X15649501Y-8817798D01*
X15649501Y-8817798D02*
X15659024Y-8808274D01*
X15659024Y-8808274D02*
X15678072Y-8798750D01*
X15678072Y-8798750D02*
X15697120Y-8798750D01*
X15763786Y-8932084D02*
X15763786Y-8798750D01*
X15763786Y-8732084D02*
X15754262Y-8741608D01*
X15754262Y-8741608D02*
X15763786Y-8751131D01*
X15763786Y-8751131D02*
X15773310Y-8741608D01*
X15773310Y-8741608D02*
X15763786Y-8732084D01*
X15763786Y-8732084D02*
X15763786Y-8751131D01*
X15887596Y-8932084D02*
X15868548Y-8922560D01*
X15868548Y-8922560D02*
X15859024Y-8903512D01*
X15859024Y-8903512D02*
X15859024Y-8732084D01*
X15992358Y-8932084D02*
X15973310Y-8922560D01*
X15973310Y-8922560D02*
X15963786Y-8903512D01*
X15963786Y-8903512D02*
X15963786Y-8732084D01*
X16220929Y-8932084D02*
X16220929Y-8732084D01*
X16220929Y-8732084D02*
X16287596Y-8874941D01*
X16287596Y-8874941D02*
X16354262Y-8732084D01*
X16354262Y-8732084D02*
X16354262Y-8932084D01*
X16535215Y-8932084D02*
X16535215Y-8827322D01*
X16535215Y-8827322D02*
X16525691Y-8808274D01*
X16525691Y-8808274D02*
X16506643Y-8798750D01*
X16506643Y-8798750D02*
X16468548Y-8798750D01*
X16468548Y-8798750D02*
X16449501Y-8808274D01*
X16535215Y-8922560D02*
X16516167Y-8932084D01*
X16516167Y-8932084D02*
X16468548Y-8932084D01*
X16468548Y-8932084D02*
X16449501Y-8922560D01*
X16449501Y-8922560D02*
X16439977Y-8903512D01*
X16439977Y-8903512D02*
X16439977Y-8884465D01*
X16439977Y-8884465D02*
X16449501Y-8865417D01*
X16449501Y-8865417D02*
X16468548Y-8855893D01*
X16468548Y-8855893D02*
X16516167Y-8855893D01*
X16516167Y-8855893D02*
X16535215Y-8846370D01*
X16630453Y-8798750D02*
X16630453Y-8998750D01*
X16630453Y-8808274D02*
X16649501Y-8798750D01*
X16649501Y-8798750D02*
X16687596Y-8798750D01*
X16687596Y-8798750D02*
X16706643Y-8808274D01*
X16706643Y-8808274D02*
X16716167Y-8817798D01*
X16716167Y-8817798D02*
X16725691Y-8836846D01*
X16725691Y-8836846D02*
X16725691Y-8893989D01*
X16725691Y-8893989D02*
X16716167Y-8913036D01*
X16716167Y-8913036D02*
X16706643Y-8922560D01*
X16706643Y-8922560D02*
X16687596Y-8932084D01*
X16687596Y-8932084D02*
X16649501Y-8932084D01*
X16649501Y-8932084D02*
X16630453Y-8922560D01*
X16811405Y-8913036D02*
X16820929Y-8922560D01*
X16820929Y-8922560D02*
X16811405Y-8932084D01*
X16811405Y-8932084D02*
X16801882Y-8922560D01*
X16801882Y-8922560D02*
X16811405Y-8913036D01*
X16811405Y-8913036D02*
X16811405Y-8932084D01*
X16811405Y-8808274D02*
X16820929Y-8817798D01*
X16820929Y-8817798D02*
X16811405Y-8827322D01*
X16811405Y-8827322D02*
X16801882Y-8817798D01*
X16801882Y-8817798D02*
X16811405Y-8808274D01*
X16811405Y-8808274D02*
X16811405Y-8827322D01*
D11*
X15169200Y-9255600D02*
X15179200Y-9265600D01*
X15179200Y-9255600D02*
X15169200Y-9265600D01*
D10*
X15478072Y-9152084D02*
X15497120Y-9152084D01*
X15497120Y-9152084D02*
X15516167Y-9161608D01*
X15516167Y-9161608D02*
X15525691Y-9171131D01*
X15525691Y-9171131D02*
X15535215Y-9190179D01*
X15535215Y-9190179D02*
X15544739Y-9228274D01*
X15544739Y-9228274D02*
X15544739Y-9275893D01*
X15544739Y-9275893D02*
X15535215Y-9313989D01*
X15535215Y-9313989D02*
X15525691Y-9333036D01*
X15525691Y-9333036D02*
X15516167Y-9342560D01*
X15516167Y-9342560D02*
X15497120Y-9352084D01*
X15497120Y-9352084D02*
X15478072Y-9352084D01*
X15478072Y-9352084D02*
X15459024Y-9342560D01*
X15459024Y-9342560D02*
X15449501Y-9333036D01*
X15449501Y-9333036D02*
X15439977Y-9313989D01*
X15439977Y-9313989D02*
X15430453Y-9275893D01*
X15430453Y-9275893D02*
X15430453Y-9228274D01*
X15430453Y-9228274D02*
X15439977Y-9190179D01*
X15439977Y-9190179D02*
X15449501Y-9171131D01*
X15449501Y-9171131D02*
X15459024Y-9161608D01*
X15459024Y-9161608D02*
X15478072Y-9152084D01*
X15630453Y-9333036D02*
X15639977Y-9342560D01*
X15639977Y-9342560D02*
X15630453Y-9352084D01*
X15630453Y-9352084D02*
X15620929Y-9342560D01*
X15620929Y-9342560D02*
X15630453Y-9333036D01*
X15630453Y-9333036D02*
X15630453Y-9352084D01*
X15830453Y-9352084D02*
X15716167Y-9352084D01*
X15773310Y-9352084D02*
X15773310Y-9152084D01*
X15773310Y-9152084D02*
X15754262Y-9180655D01*
X15754262Y-9180655D02*
X15735215Y-9199703D01*
X15735215Y-9199703D02*
X15716167Y-9209227D01*
X15954262Y-9152084D02*
X15973310Y-9152084D01*
X15973310Y-9152084D02*
X15992358Y-9161608D01*
X15992358Y-9161608D02*
X16001882Y-9171131D01*
X16001882Y-9171131D02*
X16011405Y-9190179D01*
X16011405Y-9190179D02*
X16020929Y-9228274D01*
X16020929Y-9228274D02*
X16020929Y-9275893D01*
X16020929Y-9275893D02*
X16011405Y-9313989D01*
X16011405Y-9313989D02*
X16001882Y-9333036D01*
X16001882Y-9333036D02*
X15992358Y-9342560D01*
X15992358Y-9342560D02*
X15973310Y-9352084D01*
X15973310Y-9352084D02*
X15954262Y-9352084D01*
X15954262Y-9352084D02*
X15935215Y-9342560D01*
X15935215Y-9342560D02*
X15925691Y-9333036D01*
X15925691Y-9333036D02*
X15916167Y-9313989D01*
X15916167Y-9313989D02*
X15906643Y-9275893D01*
X15906643Y-9275893D02*
X15906643Y-9228274D01*
X15906643Y-9228274D02*
X15916167Y-9190179D01*
X15916167Y-9190179D02*
X15925691Y-9171131D01*
X15925691Y-9171131D02*
X15935215Y-9161608D01*
X15935215Y-9161608D02*
X15954262Y-9152084D01*
X16144739Y-9152084D02*
X16163786Y-9152084D01*
X16163786Y-9152084D02*
X16182834Y-9161608D01*
X16182834Y-9161608D02*
X16192358Y-9171131D01*
X16192358Y-9171131D02*
X16201882Y-9190179D01*
X16201882Y-9190179D02*
X16211405Y-9228274D01*
X16211405Y-9228274D02*
X16211405Y-9275893D01*
X16211405Y-9275893D02*
X16201882Y-9313989D01*
X16201882Y-9313989D02*
X16192358Y-9333036D01*
X16192358Y-9333036D02*
X16182834Y-9342560D01*
X16182834Y-9342560D02*
X16163786Y-9352084D01*
X16163786Y-9352084D02*
X16144739Y-9352084D01*
X16144739Y-9352084D02*
X16125691Y-9342560D01*
X16125691Y-9342560D02*
X16116167Y-9333036D01*
X16116167Y-9333036D02*
X16106643Y-9313989D01*
X16106643Y-9313989D02*
X16097120Y-9275893D01*
X16097120Y-9275893D02*
X16097120Y-9228274D01*
X16097120Y-9228274D02*
X16106643Y-9190179D01*
X16106643Y-9190179D02*
X16116167Y-9171131D01*
X16116167Y-9171131D02*
X16125691Y-9161608D01*
X16125691Y-9161608D02*
X16144739Y-9152084D01*
X16297120Y-9352084D02*
X16297120Y-9218750D01*
X16297120Y-9237798D02*
X16306643Y-9228274D01*
X16306643Y-9228274D02*
X16325691Y-9218750D01*
X16325691Y-9218750D02*
X16354263Y-9218750D01*
X16354263Y-9218750D02*
X16373310Y-9228274D01*
X16373310Y-9228274D02*
X16382834Y-9247322D01*
X16382834Y-9247322D02*
X16382834Y-9352084D01*
X16382834Y-9247322D02*
X16392358Y-9228274D01*
X16392358Y-9228274D02*
X16411405Y-9218750D01*
X16411405Y-9218750D02*
X16439977Y-9218750D01*
X16439977Y-9218750D02*
X16459024Y-9228274D01*
X16459024Y-9228274D02*
X16468548Y-9247322D01*
X16468548Y-9247322D02*
X16468548Y-9352084D01*
X16563786Y-9352084D02*
X16563786Y-9218750D01*
X16563786Y-9237798D02*
X16573310Y-9228274D01*
X16573310Y-9228274D02*
X16592358Y-9218750D01*
X16592358Y-9218750D02*
X16620929Y-9218750D01*
X16620929Y-9218750D02*
X16639977Y-9228274D01*
X16639977Y-9228274D02*
X16649501Y-9247322D01*
X16649501Y-9247322D02*
X16649501Y-9352084D01*
X16649501Y-9247322D02*
X16659024Y-9228274D01*
X16659024Y-9228274D02*
X16678072Y-9218750D01*
X16678072Y-9218750D02*
X16706643Y-9218750D01*
X16706643Y-9218750D02*
X16725691Y-9228274D01*
X16725691Y-9228274D02*
X16735215Y-9247322D01*
X16735215Y-9247322D02*
X16735215Y-9352084D01*
X17125691Y-9142560D02*
X16954263Y-9399703D01*
X17382834Y-9152084D02*
X17401882Y-9152084D01*
X17401882Y-9152084D02*
X17420929Y-9161608D01*
X17420929Y-9161608D02*
X17430453Y-9171131D01*
X17430453Y-9171131D02*
X17439977Y-9190179D01*
X17439977Y-9190179D02*
X17449501Y-9228274D01*
X17449501Y-9228274D02*
X17449501Y-9275893D01*
X17449501Y-9275893D02*
X17439977Y-9313989D01*
X17439977Y-9313989D02*
X17430453Y-9333036D01*
X17430453Y-9333036D02*
X17420929Y-9342560D01*
X17420929Y-9342560D02*
X17401882Y-9352084D01*
X17401882Y-9352084D02*
X17382834Y-9352084D01*
X17382834Y-9352084D02*
X17363787Y-9342560D01*
X17363787Y-9342560D02*
X17354263Y-9333036D01*
X17354263Y-9333036D02*
X17344739Y-9313989D01*
X17344739Y-9313989D02*
X17335215Y-9275893D01*
X17335215Y-9275893D02*
X17335215Y-9228274D01*
X17335215Y-9228274D02*
X17344739Y-9190179D01*
X17344739Y-9190179D02*
X17354263Y-9171131D01*
X17354263Y-9171131D02*
X17363787Y-9161608D01*
X17363787Y-9161608D02*
X17382834Y-9152084D01*
X17535215Y-9333036D02*
X17544739Y-9342560D01*
X17544739Y-9342560D02*
X17535215Y-9352084D01*
X17535215Y-9352084D02*
X17525691Y-9342560D01*
X17525691Y-9342560D02*
X17535215Y-9333036D01*
X17535215Y-9333036D02*
X17535215Y-9352084D01*
X17668548Y-9152084D02*
X17687596Y-9152084D01*
X17687596Y-9152084D02*
X17706644Y-9161608D01*
X17706644Y-9161608D02*
X17716168Y-9171131D01*
X17716168Y-9171131D02*
X17725691Y-9190179D01*
X17725691Y-9190179D02*
X17735215Y-9228274D01*
X17735215Y-9228274D02*
X17735215Y-9275893D01*
X17735215Y-9275893D02*
X17725691Y-9313989D01*
X17725691Y-9313989D02*
X17716168Y-9333036D01*
X17716168Y-9333036D02*
X17706644Y-9342560D01*
X17706644Y-9342560D02*
X17687596Y-9352084D01*
X17687596Y-9352084D02*
X17668548Y-9352084D01*
X17668548Y-9352084D02*
X17649501Y-9342560D01*
X17649501Y-9342560D02*
X17639977Y-9333036D01*
X17639977Y-9333036D02*
X17630453Y-9313989D01*
X17630453Y-9313989D02*
X17620929Y-9275893D01*
X17620929Y-9275893D02*
X17620929Y-9228274D01*
X17620929Y-9228274D02*
X17630453Y-9190179D01*
X17630453Y-9190179D02*
X17639977Y-9171131D01*
X17639977Y-9171131D02*
X17649501Y-9161608D01*
X17649501Y-9161608D02*
X17668548Y-9152084D01*
X17859025Y-9152084D02*
X17878072Y-9152084D01*
X17878072Y-9152084D02*
X17897120Y-9161608D01*
X17897120Y-9161608D02*
X17906644Y-9171131D01*
X17906644Y-9171131D02*
X17916168Y-9190179D01*
X17916168Y-9190179D02*
X17925691Y-9228274D01*
X17925691Y-9228274D02*
X17925691Y-9275893D01*
X17925691Y-9275893D02*
X17916168Y-9313989D01*
X17916168Y-9313989D02*
X17906644Y-9333036D01*
X17906644Y-9333036D02*
X17897120Y-9342560D01*
X17897120Y-9342560D02*
X17878072Y-9352084D01*
X17878072Y-9352084D02*
X17859025Y-9352084D01*
X17859025Y-9352084D02*
X17839977Y-9342560D01*
X17839977Y-9342560D02*
X17830453Y-9333036D01*
X17830453Y-9333036D02*
X17820929Y-9313989D01*
X17820929Y-9313989D02*
X17811406Y-9275893D01*
X17811406Y-9275893D02*
X17811406Y-9228274D01*
X17811406Y-9228274D02*
X17820929Y-9190179D01*
X17820929Y-9190179D02*
X17830453Y-9171131D01*
X17830453Y-9171131D02*
X17839977Y-9161608D01*
X17839977Y-9161608D02*
X17859025Y-9152084D01*
X17992358Y-9152084D02*
X18116168Y-9152084D01*
X18116168Y-9152084D02*
X18049501Y-9228274D01*
X18049501Y-9228274D02*
X18078072Y-9228274D01*
X18078072Y-9228274D02*
X18097120Y-9237798D01*
X18097120Y-9237798D02*
X18106644Y-9247322D01*
X18106644Y-9247322D02*
X18116168Y-9266370D01*
X18116168Y-9266370D02*
X18116168Y-9313989D01*
X18116168Y-9313989D02*
X18106644Y-9333036D01*
X18106644Y-9333036D02*
X18097120Y-9342560D01*
X18097120Y-9342560D02*
X18078072Y-9352084D01*
X18078072Y-9352084D02*
X18020929Y-9352084D01*
X18020929Y-9352084D02*
X18001882Y-9342560D01*
X18001882Y-9342560D02*
X17992358Y-9333036D01*
X18211406Y-9352084D02*
X18249501Y-9352084D01*
X18249501Y-9352084D02*
X18268549Y-9342560D01*
X18268549Y-9342560D02*
X18278072Y-9333036D01*
X18278072Y-9333036D02*
X18297120Y-9304465D01*
X18297120Y-9304465D02*
X18306644Y-9266370D01*
X18306644Y-9266370D02*
X18306644Y-9190179D01*
X18306644Y-9190179D02*
X18297120Y-9171131D01*
X18297120Y-9171131D02*
X18287596Y-9161608D01*
X18287596Y-9161608D02*
X18268549Y-9152084D01*
X18268549Y-9152084D02*
X18230453Y-9152084D01*
X18230453Y-9152084D02*
X18211406Y-9161608D01*
X18211406Y-9161608D02*
X18201882Y-9171131D01*
X18201882Y-9171131D02*
X18192358Y-9190179D01*
X18192358Y-9190179D02*
X18192358Y-9237798D01*
X18192358Y-9237798D02*
X18201882Y-9256846D01*
X18201882Y-9256846D02*
X18211406Y-9266370D01*
X18211406Y-9266370D02*
X18230453Y-9275893D01*
X18230453Y-9275893D02*
X18268549Y-9275893D01*
X18268549Y-9275893D02*
X18287596Y-9266370D01*
X18287596Y-9266370D02*
X18297120Y-9256846D01*
X18297120Y-9256846D02*
X18306644Y-9237798D01*
X18382834Y-9152084D02*
X18382834Y-9190179D01*
X18459025Y-9152084D02*
X18459025Y-9190179D01*
X18754263Y-9428274D02*
X18744739Y-9418750D01*
X18744739Y-9418750D02*
X18725691Y-9390179D01*
X18725691Y-9390179D02*
X18716168Y-9371131D01*
X18716168Y-9371131D02*
X18706644Y-9342560D01*
X18706644Y-9342560D02*
X18697120Y-9294941D01*
X18697120Y-9294941D02*
X18697120Y-9256846D01*
X18697120Y-9256846D02*
X18706644Y-9209227D01*
X18706644Y-9209227D02*
X18716168Y-9180655D01*
X18716168Y-9180655D02*
X18725691Y-9161608D01*
X18725691Y-9161608D02*
X18744739Y-9133036D01*
X18744739Y-9133036D02*
X18754263Y-9123512D01*
X18935215Y-9352084D02*
X18820930Y-9352084D01*
X18878072Y-9352084D02*
X18878072Y-9152084D01*
X18878072Y-9152084D02*
X18859025Y-9180655D01*
X18859025Y-9180655D02*
X18839977Y-9199703D01*
X18839977Y-9199703D02*
X18820930Y-9209227D01*
X19173311Y-9352084D02*
X19173311Y-9152084D01*
X19259025Y-9352084D02*
X19259025Y-9247322D01*
X19259025Y-9247322D02*
X19249501Y-9228274D01*
X19249501Y-9228274D02*
X19230453Y-9218750D01*
X19230453Y-9218750D02*
X19201882Y-9218750D01*
X19201882Y-9218750D02*
X19182834Y-9228274D01*
X19182834Y-9228274D02*
X19173311Y-9237798D01*
X19382834Y-9352084D02*
X19363787Y-9342560D01*
X19363787Y-9342560D02*
X19354263Y-9333036D01*
X19354263Y-9333036D02*
X19344739Y-9313989D01*
X19344739Y-9313989D02*
X19344739Y-9256846D01*
X19344739Y-9256846D02*
X19354263Y-9237798D01*
X19354263Y-9237798D02*
X19363787Y-9228274D01*
X19363787Y-9228274D02*
X19382834Y-9218750D01*
X19382834Y-9218750D02*
X19411406Y-9218750D01*
X19411406Y-9218750D02*
X19430453Y-9228274D01*
X19430453Y-9228274D02*
X19439977Y-9237798D01*
X19439977Y-9237798D02*
X19449501Y-9256846D01*
X19449501Y-9256846D02*
X19449501Y-9313989D01*
X19449501Y-9313989D02*
X19439977Y-9333036D01*
X19439977Y-9333036D02*
X19430453Y-9342560D01*
X19430453Y-9342560D02*
X19411406Y-9352084D01*
X19411406Y-9352084D02*
X19382834Y-9352084D01*
X19563787Y-9352084D02*
X19544739Y-9342560D01*
X19544739Y-9342560D02*
X19535215Y-9323512D01*
X19535215Y-9323512D02*
X19535215Y-9152084D01*
X19716168Y-9342560D02*
X19697120Y-9352084D01*
X19697120Y-9352084D02*
X19659025Y-9352084D01*
X19659025Y-9352084D02*
X19639977Y-9342560D01*
X19639977Y-9342560D02*
X19630453Y-9323512D01*
X19630453Y-9323512D02*
X19630453Y-9247322D01*
X19630453Y-9247322D02*
X19639977Y-9228274D01*
X19639977Y-9228274D02*
X19659025Y-9218750D01*
X19659025Y-9218750D02*
X19697120Y-9218750D01*
X19697120Y-9218750D02*
X19716168Y-9228274D01*
X19716168Y-9228274D02*
X19725692Y-9247322D01*
X19725692Y-9247322D02*
X19725692Y-9266370D01*
X19725692Y-9266370D02*
X19630453Y-9285417D01*
X19792358Y-9428274D02*
X19801882Y-9418750D01*
X19801882Y-9418750D02*
X19820930Y-9390179D01*
X19820930Y-9390179D02*
X19830453Y-9371131D01*
X19830453Y-9371131D02*
X19839977Y-9342560D01*
X19839977Y-9342560D02*
X19849501Y-9294941D01*
X19849501Y-9294941D02*
X19849501Y-9256846D01*
X19849501Y-9256846D02*
X19839977Y-9209227D01*
X19839977Y-9209227D02*
X19830453Y-9180655D01*
X19830453Y-9180655D02*
X19820930Y-9161608D01*
X19820930Y-9161608D02*
X19801882Y-9133036D01*
X19801882Y-9133036D02*
X19792358Y-9123512D01*
D12*
X15179200Y-9524600D02*
G75*
G03*
X15179200Y-9524600I-10000J0D01*
G01*
D10*
X15478072Y-9416084D02*
X15497120Y-9416084D01*
X15497120Y-9416084D02*
X15516167Y-9425608D01*
X15516167Y-9425608D02*
X15525691Y-9435131D01*
X15525691Y-9435131D02*
X15535215Y-9454179D01*
X15535215Y-9454179D02*
X15544739Y-9492274D01*
X15544739Y-9492274D02*
X15544739Y-9539893D01*
X15544739Y-9539893D02*
X15535215Y-9577989D01*
X15535215Y-9577989D02*
X15525691Y-9597036D01*
X15525691Y-9597036D02*
X15516167Y-9606560D01*
X15516167Y-9606560D02*
X15497120Y-9616084D01*
X15497120Y-9616084D02*
X15478072Y-9616084D01*
X15478072Y-9616084D02*
X15459024Y-9606560D01*
X15459024Y-9606560D02*
X15449501Y-9597036D01*
X15449501Y-9597036D02*
X15439977Y-9577989D01*
X15439977Y-9577989D02*
X15430453Y-9539893D01*
X15430453Y-9539893D02*
X15430453Y-9492274D01*
X15430453Y-9492274D02*
X15439977Y-9454179D01*
X15439977Y-9454179D02*
X15449501Y-9435131D01*
X15449501Y-9435131D02*
X15459024Y-9425608D01*
X15459024Y-9425608D02*
X15478072Y-9416084D01*
X15630453Y-9597036D02*
X15639977Y-9606560D01*
X15639977Y-9606560D02*
X15630453Y-9616084D01*
X15630453Y-9616084D02*
X15620929Y-9606560D01*
X15620929Y-9606560D02*
X15630453Y-9597036D01*
X15630453Y-9597036D02*
X15630453Y-9616084D01*
X15716167Y-9435131D02*
X15725691Y-9425608D01*
X15725691Y-9425608D02*
X15744739Y-9416084D01*
X15744739Y-9416084D02*
X15792358Y-9416084D01*
X15792358Y-9416084D02*
X15811405Y-9425608D01*
X15811405Y-9425608D02*
X15820929Y-9435131D01*
X15820929Y-9435131D02*
X15830453Y-9454179D01*
X15830453Y-9454179D02*
X15830453Y-9473227D01*
X15830453Y-9473227D02*
X15820929Y-9501798D01*
X15820929Y-9501798D02*
X15706643Y-9616084D01*
X15706643Y-9616084D02*
X15830453Y-9616084D01*
X15954262Y-9416084D02*
X15973310Y-9416084D01*
X15973310Y-9416084D02*
X15992358Y-9425608D01*
X15992358Y-9425608D02*
X16001882Y-9435131D01*
X16001882Y-9435131D02*
X16011405Y-9454179D01*
X16011405Y-9454179D02*
X16020929Y-9492274D01*
X16020929Y-9492274D02*
X16020929Y-9539893D01*
X16020929Y-9539893D02*
X16011405Y-9577989D01*
X16011405Y-9577989D02*
X16001882Y-9597036D01*
X16001882Y-9597036D02*
X15992358Y-9606560D01*
X15992358Y-9606560D02*
X15973310Y-9616084D01*
X15973310Y-9616084D02*
X15954262Y-9616084D01*
X15954262Y-9616084D02*
X15935215Y-9606560D01*
X15935215Y-9606560D02*
X15925691Y-9597036D01*
X15925691Y-9597036D02*
X15916167Y-9577989D01*
X15916167Y-9577989D02*
X15906643Y-9539893D01*
X15906643Y-9539893D02*
X15906643Y-9492274D01*
X15906643Y-9492274D02*
X15916167Y-9454179D01*
X15916167Y-9454179D02*
X15925691Y-9435131D01*
X15925691Y-9435131D02*
X15935215Y-9425608D01*
X15935215Y-9425608D02*
X15954262Y-9416084D01*
X16144739Y-9416084D02*
X16163786Y-9416084D01*
X16163786Y-9416084D02*
X16182834Y-9425608D01*
X16182834Y-9425608D02*
X16192358Y-9435131D01*
X16192358Y-9435131D02*
X16201882Y-9454179D01*
X16201882Y-9454179D02*
X16211405Y-9492274D01*
X16211405Y-9492274D02*
X16211405Y-9539893D01*
X16211405Y-9539893D02*
X16201882Y-9577989D01*
X16201882Y-9577989D02*
X16192358Y-9597036D01*
X16192358Y-9597036D02*
X16182834Y-9606560D01*
X16182834Y-9606560D02*
X16163786Y-9616084D01*
X16163786Y-9616084D02*
X16144739Y-9616084D01*
X16144739Y-9616084D02*
X16125691Y-9606560D01*
X16125691Y-9606560D02*
X16116167Y-9597036D01*
X16116167Y-9597036D02*
X16106643Y-9577989D01*
X16106643Y-9577989D02*
X16097120Y-9539893D01*
X16097120Y-9539893D02*
X16097120Y-9492274D01*
X16097120Y-9492274D02*
X16106643Y-9454179D01*
X16106643Y-9454179D02*
X16116167Y-9435131D01*
X16116167Y-9435131D02*
X16125691Y-9425608D01*
X16125691Y-9425608D02*
X16144739Y-9416084D01*
X16297120Y-9616084D02*
X16297120Y-9482750D01*
X16297120Y-9501798D02*
X16306643Y-9492274D01*
X16306643Y-9492274D02*
X16325691Y-9482750D01*
X16325691Y-9482750D02*
X16354263Y-9482750D01*
X16354263Y-9482750D02*
X16373310Y-9492274D01*
X16373310Y-9492274D02*
X16382834Y-9511322D01*
X16382834Y-9511322D02*
X16382834Y-9616084D01*
X16382834Y-9511322D02*
X16392358Y-9492274D01*
X16392358Y-9492274D02*
X16411405Y-9482750D01*
X16411405Y-9482750D02*
X16439977Y-9482750D01*
X16439977Y-9482750D02*
X16459024Y-9492274D01*
X16459024Y-9492274D02*
X16468548Y-9511322D01*
X16468548Y-9511322D02*
X16468548Y-9616084D01*
X16563786Y-9616084D02*
X16563786Y-9482750D01*
X16563786Y-9501798D02*
X16573310Y-9492274D01*
X16573310Y-9492274D02*
X16592358Y-9482750D01*
X16592358Y-9482750D02*
X16620929Y-9482750D01*
X16620929Y-9482750D02*
X16639977Y-9492274D01*
X16639977Y-9492274D02*
X16649501Y-9511322D01*
X16649501Y-9511322D02*
X16649501Y-9616084D01*
X16649501Y-9511322D02*
X16659024Y-9492274D01*
X16659024Y-9492274D02*
X16678072Y-9482750D01*
X16678072Y-9482750D02*
X16706643Y-9482750D01*
X16706643Y-9482750D02*
X16725691Y-9492274D01*
X16725691Y-9492274D02*
X16735215Y-9511322D01*
X16735215Y-9511322D02*
X16735215Y-9616084D01*
X17125691Y-9406560D02*
X16954263Y-9663703D01*
X17382834Y-9416084D02*
X17401882Y-9416084D01*
X17401882Y-9416084D02*
X17420929Y-9425608D01*
X17420929Y-9425608D02*
X17430453Y-9435131D01*
X17430453Y-9435131D02*
X17439977Y-9454179D01*
X17439977Y-9454179D02*
X17449501Y-9492274D01*
X17449501Y-9492274D02*
X17449501Y-9539893D01*
X17449501Y-9539893D02*
X17439977Y-9577989D01*
X17439977Y-9577989D02*
X17430453Y-9597036D01*
X17430453Y-9597036D02*
X17420929Y-9606560D01*
X17420929Y-9606560D02*
X17401882Y-9616084D01*
X17401882Y-9616084D02*
X17382834Y-9616084D01*
X17382834Y-9616084D02*
X17363787Y-9606560D01*
X17363787Y-9606560D02*
X17354263Y-9597036D01*
X17354263Y-9597036D02*
X17344739Y-9577989D01*
X17344739Y-9577989D02*
X17335215Y-9539893D01*
X17335215Y-9539893D02*
X17335215Y-9492274D01*
X17335215Y-9492274D02*
X17344739Y-9454179D01*
X17344739Y-9454179D02*
X17354263Y-9435131D01*
X17354263Y-9435131D02*
X17363787Y-9425608D01*
X17363787Y-9425608D02*
X17382834Y-9416084D01*
X17535215Y-9597036D02*
X17544739Y-9606560D01*
X17544739Y-9606560D02*
X17535215Y-9616084D01*
X17535215Y-9616084D02*
X17525691Y-9606560D01*
X17525691Y-9606560D02*
X17535215Y-9597036D01*
X17535215Y-9597036D02*
X17535215Y-9616084D01*
X17668548Y-9416084D02*
X17687596Y-9416084D01*
X17687596Y-9416084D02*
X17706644Y-9425608D01*
X17706644Y-9425608D02*
X17716168Y-9435131D01*
X17716168Y-9435131D02*
X17725691Y-9454179D01*
X17725691Y-9454179D02*
X17735215Y-9492274D01*
X17735215Y-9492274D02*
X17735215Y-9539893D01*
X17735215Y-9539893D02*
X17725691Y-9577989D01*
X17725691Y-9577989D02*
X17716168Y-9597036D01*
X17716168Y-9597036D02*
X17706644Y-9606560D01*
X17706644Y-9606560D02*
X17687596Y-9616084D01*
X17687596Y-9616084D02*
X17668548Y-9616084D01*
X17668548Y-9616084D02*
X17649501Y-9606560D01*
X17649501Y-9606560D02*
X17639977Y-9597036D01*
X17639977Y-9597036D02*
X17630453Y-9577989D01*
X17630453Y-9577989D02*
X17620929Y-9539893D01*
X17620929Y-9539893D02*
X17620929Y-9492274D01*
X17620929Y-9492274D02*
X17630453Y-9454179D01*
X17630453Y-9454179D02*
X17639977Y-9435131D01*
X17639977Y-9435131D02*
X17649501Y-9425608D01*
X17649501Y-9425608D02*
X17668548Y-9416084D01*
X17859025Y-9416084D02*
X17878072Y-9416084D01*
X17878072Y-9416084D02*
X17897120Y-9425608D01*
X17897120Y-9425608D02*
X17906644Y-9435131D01*
X17906644Y-9435131D02*
X17916168Y-9454179D01*
X17916168Y-9454179D02*
X17925691Y-9492274D01*
X17925691Y-9492274D02*
X17925691Y-9539893D01*
X17925691Y-9539893D02*
X17916168Y-9577989D01*
X17916168Y-9577989D02*
X17906644Y-9597036D01*
X17906644Y-9597036D02*
X17897120Y-9606560D01*
X17897120Y-9606560D02*
X17878072Y-9616084D01*
X17878072Y-9616084D02*
X17859025Y-9616084D01*
X17859025Y-9616084D02*
X17839977Y-9606560D01*
X17839977Y-9606560D02*
X17830453Y-9597036D01*
X17830453Y-9597036D02*
X17820929Y-9577989D01*
X17820929Y-9577989D02*
X17811406Y-9539893D01*
X17811406Y-9539893D02*
X17811406Y-9492274D01*
X17811406Y-9492274D02*
X17820929Y-9454179D01*
X17820929Y-9454179D02*
X17830453Y-9435131D01*
X17830453Y-9435131D02*
X17839977Y-9425608D01*
X17839977Y-9425608D02*
X17859025Y-9416084D01*
X17992358Y-9416084D02*
X18125691Y-9416084D01*
X18125691Y-9416084D02*
X18039977Y-9616084D01*
X18211406Y-9616084D02*
X18249501Y-9616084D01*
X18249501Y-9616084D02*
X18268549Y-9606560D01*
X18268549Y-9606560D02*
X18278072Y-9597036D01*
X18278072Y-9597036D02*
X18297120Y-9568465D01*
X18297120Y-9568465D02*
X18306644Y-9530370D01*
X18306644Y-9530370D02*
X18306644Y-9454179D01*
X18306644Y-9454179D02*
X18297120Y-9435131D01*
X18297120Y-9435131D02*
X18287596Y-9425608D01*
X18287596Y-9425608D02*
X18268549Y-9416084D01*
X18268549Y-9416084D02*
X18230453Y-9416084D01*
X18230453Y-9416084D02*
X18211406Y-9425608D01*
X18211406Y-9425608D02*
X18201882Y-9435131D01*
X18201882Y-9435131D02*
X18192358Y-9454179D01*
X18192358Y-9454179D02*
X18192358Y-9501798D01*
X18192358Y-9501798D02*
X18201882Y-9520846D01*
X18201882Y-9520846D02*
X18211406Y-9530370D01*
X18211406Y-9530370D02*
X18230453Y-9539893D01*
X18230453Y-9539893D02*
X18268549Y-9539893D01*
X18268549Y-9539893D02*
X18287596Y-9530370D01*
X18287596Y-9530370D02*
X18297120Y-9520846D01*
X18297120Y-9520846D02*
X18306644Y-9501798D01*
X18382834Y-9416084D02*
X18382834Y-9454179D01*
X18459025Y-9416084D02*
X18459025Y-9454179D01*
X18754263Y-9692274D02*
X18744739Y-9682750D01*
X18744739Y-9682750D02*
X18725691Y-9654179D01*
X18725691Y-9654179D02*
X18716168Y-9635131D01*
X18716168Y-9635131D02*
X18706644Y-9606560D01*
X18706644Y-9606560D02*
X18697120Y-9558941D01*
X18697120Y-9558941D02*
X18697120Y-9520846D01*
X18697120Y-9520846D02*
X18706644Y-9473227D01*
X18706644Y-9473227D02*
X18716168Y-9444655D01*
X18716168Y-9444655D02*
X18725691Y-9425608D01*
X18725691Y-9425608D02*
X18744739Y-9397036D01*
X18744739Y-9397036D02*
X18754263Y-9387512D01*
X18859025Y-9501798D02*
X18839977Y-9492274D01*
X18839977Y-9492274D02*
X18830453Y-9482750D01*
X18830453Y-9482750D02*
X18820930Y-9463703D01*
X18820930Y-9463703D02*
X18820930Y-9454179D01*
X18820930Y-9454179D02*
X18830453Y-9435131D01*
X18830453Y-9435131D02*
X18839977Y-9425608D01*
X18839977Y-9425608D02*
X18859025Y-9416084D01*
X18859025Y-9416084D02*
X18897120Y-9416084D01*
X18897120Y-9416084D02*
X18916168Y-9425608D01*
X18916168Y-9425608D02*
X18925691Y-9435131D01*
X18925691Y-9435131D02*
X18935215Y-9454179D01*
X18935215Y-9454179D02*
X18935215Y-9463703D01*
X18935215Y-9463703D02*
X18925691Y-9482750D01*
X18925691Y-9482750D02*
X18916168Y-9492274D01*
X18916168Y-9492274D02*
X18897120Y-9501798D01*
X18897120Y-9501798D02*
X18859025Y-9501798D01*
X18859025Y-9501798D02*
X18839977Y-9511322D01*
X18839977Y-9511322D02*
X18830453Y-9520846D01*
X18830453Y-9520846D02*
X18820930Y-9539893D01*
X18820930Y-9539893D02*
X18820930Y-9577989D01*
X18820930Y-9577989D02*
X18830453Y-9597036D01*
X18830453Y-9597036D02*
X18839977Y-9606560D01*
X18839977Y-9606560D02*
X18859025Y-9616084D01*
X18859025Y-9616084D02*
X18897120Y-9616084D01*
X18897120Y-9616084D02*
X18916168Y-9606560D01*
X18916168Y-9606560D02*
X18925691Y-9597036D01*
X18925691Y-9597036D02*
X18935215Y-9577989D01*
X18935215Y-9577989D02*
X18935215Y-9539893D01*
X18935215Y-9539893D02*
X18925691Y-9520846D01*
X18925691Y-9520846D02*
X18916168Y-9511322D01*
X18916168Y-9511322D02*
X18897120Y-9501798D01*
X19106644Y-9416084D02*
X19068549Y-9416084D01*
X19068549Y-9416084D02*
X19049501Y-9425608D01*
X19049501Y-9425608D02*
X19039977Y-9435131D01*
X19039977Y-9435131D02*
X19020930Y-9463703D01*
X19020930Y-9463703D02*
X19011406Y-9501798D01*
X19011406Y-9501798D02*
X19011406Y-9577989D01*
X19011406Y-9577989D02*
X19020930Y-9597036D01*
X19020930Y-9597036D02*
X19030453Y-9606560D01*
X19030453Y-9606560D02*
X19049501Y-9616084D01*
X19049501Y-9616084D02*
X19087596Y-9616084D01*
X19087596Y-9616084D02*
X19106644Y-9606560D01*
X19106644Y-9606560D02*
X19116168Y-9597036D01*
X19116168Y-9597036D02*
X19125691Y-9577989D01*
X19125691Y-9577989D02*
X19125691Y-9530370D01*
X19125691Y-9530370D02*
X19116168Y-9511322D01*
X19116168Y-9511322D02*
X19106644Y-9501798D01*
X19106644Y-9501798D02*
X19087596Y-9492274D01*
X19087596Y-9492274D02*
X19049501Y-9492274D01*
X19049501Y-9492274D02*
X19030453Y-9501798D01*
X19030453Y-9501798D02*
X19020930Y-9511322D01*
X19020930Y-9511322D02*
X19011406Y-9530370D01*
X19363787Y-9616084D02*
X19363787Y-9416084D01*
X19449501Y-9616084D02*
X19449501Y-9511322D01*
X19449501Y-9511322D02*
X19439977Y-9492274D01*
X19439977Y-9492274D02*
X19420930Y-9482750D01*
X19420930Y-9482750D02*
X19392358Y-9482750D01*
X19392358Y-9482750D02*
X19373311Y-9492274D01*
X19373311Y-9492274D02*
X19363787Y-9501798D01*
X19573311Y-9616084D02*
X19554263Y-9606560D01*
X19554263Y-9606560D02*
X19544739Y-9597036D01*
X19544739Y-9597036D02*
X19535215Y-9577989D01*
X19535215Y-9577989D02*
X19535215Y-9520846D01*
X19535215Y-9520846D02*
X19544739Y-9501798D01*
X19544739Y-9501798D02*
X19554263Y-9492274D01*
X19554263Y-9492274D02*
X19573311Y-9482750D01*
X19573311Y-9482750D02*
X19601882Y-9482750D01*
X19601882Y-9482750D02*
X19620930Y-9492274D01*
X19620930Y-9492274D02*
X19630453Y-9501798D01*
X19630453Y-9501798D02*
X19639977Y-9520846D01*
X19639977Y-9520846D02*
X19639977Y-9577989D01*
X19639977Y-9577989D02*
X19630453Y-9597036D01*
X19630453Y-9597036D02*
X19620930Y-9606560D01*
X19620930Y-9606560D02*
X19601882Y-9616084D01*
X19601882Y-9616084D02*
X19573311Y-9616084D01*
X19754263Y-9616084D02*
X19735215Y-9606560D01*
X19735215Y-9606560D02*
X19725692Y-9587512D01*
X19725692Y-9587512D02*
X19725692Y-9416084D01*
X19906644Y-9606560D02*
X19887596Y-9616084D01*
X19887596Y-9616084D02*
X19849501Y-9616084D01*
X19849501Y-9616084D02*
X19830453Y-9606560D01*
X19830453Y-9606560D02*
X19820930Y-9587512D01*
X19820930Y-9587512D02*
X19820930Y-9511322D01*
X19820930Y-9511322D02*
X19830453Y-9492274D01*
X19830453Y-9492274D02*
X19849501Y-9482750D01*
X19849501Y-9482750D02*
X19887596Y-9482750D01*
X19887596Y-9482750D02*
X19906644Y-9492274D01*
X19906644Y-9492274D02*
X19916168Y-9511322D01*
X19916168Y-9511322D02*
X19916168Y-9530370D01*
X19916168Y-9530370D02*
X19820930Y-9549417D01*
X19992358Y-9606560D02*
X20011406Y-9616084D01*
X20011406Y-9616084D02*
X20049501Y-9616084D01*
X20049501Y-9616084D02*
X20068549Y-9606560D01*
X20068549Y-9606560D02*
X20078073Y-9587512D01*
X20078073Y-9587512D02*
X20078073Y-9577989D01*
X20078073Y-9577989D02*
X20068549Y-9558941D01*
X20068549Y-9558941D02*
X20049501Y-9549417D01*
X20049501Y-9549417D02*
X20020930Y-9549417D01*
X20020930Y-9549417D02*
X20001882Y-9539893D01*
X20001882Y-9539893D02*
X19992358Y-9520846D01*
X19992358Y-9520846D02*
X19992358Y-9511322D01*
X19992358Y-9511322D02*
X20001882Y-9492274D01*
X20001882Y-9492274D02*
X20020930Y-9482750D01*
X20020930Y-9482750D02*
X20049501Y-9482750D01*
X20049501Y-9482750D02*
X20068549Y-9492274D01*
X20144739Y-9692274D02*
X20154263Y-9682750D01*
X20154263Y-9682750D02*
X20173311Y-9654179D01*
X20173311Y-9654179D02*
X20182834Y-9635131D01*
X20182834Y-9635131D02*
X20192358Y-9606560D01*
X20192358Y-9606560D02*
X20201882Y-9558941D01*
X20201882Y-9558941D02*
X20201882Y-9520846D01*
X20201882Y-9520846D02*
X20192358Y-9473227D01*
X20192358Y-9473227D02*
X20182834Y-9444655D01*
X20182834Y-9444655D02*
X20173311Y-9425608D01*
X20173311Y-9425608D02*
X20154263Y-9397036D01*
X20154263Y-9397036D02*
X20144739Y-9387512D01*
D13*
X15154200Y-9763600D02*
X15154200Y-9813600D01*
X15129200Y-9788600D02*
X15179200Y-9788600D01*
D10*
X15478072Y-9680084D02*
X15497120Y-9680084D01*
X15497120Y-9680084D02*
X15516167Y-9689608D01*
X15516167Y-9689608D02*
X15525691Y-9699131D01*
X15525691Y-9699131D02*
X15535215Y-9718179D01*
X15535215Y-9718179D02*
X15544739Y-9756274D01*
X15544739Y-9756274D02*
X15544739Y-9803893D01*
X15544739Y-9803893D02*
X15535215Y-9841989D01*
X15535215Y-9841989D02*
X15525691Y-9861036D01*
X15525691Y-9861036D02*
X15516167Y-9870560D01*
X15516167Y-9870560D02*
X15497120Y-9880084D01*
X15497120Y-9880084D02*
X15478072Y-9880084D01*
X15478072Y-9880084D02*
X15459024Y-9870560D01*
X15459024Y-9870560D02*
X15449501Y-9861036D01*
X15449501Y-9861036D02*
X15439977Y-9841989D01*
X15439977Y-9841989D02*
X15430453Y-9803893D01*
X15430453Y-9803893D02*
X15430453Y-9756274D01*
X15430453Y-9756274D02*
X15439977Y-9718179D01*
X15439977Y-9718179D02*
X15449501Y-9699131D01*
X15449501Y-9699131D02*
X15459024Y-9689608D01*
X15459024Y-9689608D02*
X15478072Y-9680084D01*
X15630453Y-9861036D02*
X15639977Y-9870560D01*
X15639977Y-9870560D02*
X15630453Y-9880084D01*
X15630453Y-9880084D02*
X15620929Y-9870560D01*
X15620929Y-9870560D02*
X15630453Y-9861036D01*
X15630453Y-9861036D02*
X15630453Y-9880084D01*
X15820929Y-9680084D02*
X15725691Y-9680084D01*
X15725691Y-9680084D02*
X15716167Y-9775322D01*
X15716167Y-9775322D02*
X15725691Y-9765798D01*
X15725691Y-9765798D02*
X15744739Y-9756274D01*
X15744739Y-9756274D02*
X15792358Y-9756274D01*
X15792358Y-9756274D02*
X15811405Y-9765798D01*
X15811405Y-9765798D02*
X15820929Y-9775322D01*
X15820929Y-9775322D02*
X15830453Y-9794370D01*
X15830453Y-9794370D02*
X15830453Y-9841989D01*
X15830453Y-9841989D02*
X15820929Y-9861036D01*
X15820929Y-9861036D02*
X15811405Y-9870560D01*
X15811405Y-9870560D02*
X15792358Y-9880084D01*
X15792358Y-9880084D02*
X15744739Y-9880084D01*
X15744739Y-9880084D02*
X15725691Y-9870560D01*
X15725691Y-9870560D02*
X15716167Y-9861036D01*
X15954262Y-9680084D02*
X15973310Y-9680084D01*
X15973310Y-9680084D02*
X15992358Y-9689608D01*
X15992358Y-9689608D02*
X16001882Y-9699131D01*
X16001882Y-9699131D02*
X16011405Y-9718179D01*
X16011405Y-9718179D02*
X16020929Y-9756274D01*
X16020929Y-9756274D02*
X16020929Y-9803893D01*
X16020929Y-9803893D02*
X16011405Y-9841989D01*
X16011405Y-9841989D02*
X16001882Y-9861036D01*
X16001882Y-9861036D02*
X15992358Y-9870560D01*
X15992358Y-9870560D02*
X15973310Y-9880084D01*
X15973310Y-9880084D02*
X15954262Y-9880084D01*
X15954262Y-9880084D02*
X15935215Y-9870560D01*
X15935215Y-9870560D02*
X15925691Y-9861036D01*
X15925691Y-9861036D02*
X15916167Y-9841989D01*
X15916167Y-9841989D02*
X15906643Y-9803893D01*
X15906643Y-9803893D02*
X15906643Y-9756274D01*
X15906643Y-9756274D02*
X15916167Y-9718179D01*
X15916167Y-9718179D02*
X15925691Y-9699131D01*
X15925691Y-9699131D02*
X15935215Y-9689608D01*
X15935215Y-9689608D02*
X15954262Y-9680084D01*
X16144739Y-9680084D02*
X16163786Y-9680084D01*
X16163786Y-9680084D02*
X16182834Y-9689608D01*
X16182834Y-9689608D02*
X16192358Y-9699131D01*
X16192358Y-9699131D02*
X16201882Y-9718179D01*
X16201882Y-9718179D02*
X16211405Y-9756274D01*
X16211405Y-9756274D02*
X16211405Y-9803893D01*
X16211405Y-9803893D02*
X16201882Y-9841989D01*
X16201882Y-9841989D02*
X16192358Y-9861036D01*
X16192358Y-9861036D02*
X16182834Y-9870560D01*
X16182834Y-9870560D02*
X16163786Y-9880084D01*
X16163786Y-9880084D02*
X16144739Y-9880084D01*
X16144739Y-9880084D02*
X16125691Y-9870560D01*
X16125691Y-9870560D02*
X16116167Y-9861036D01*
X16116167Y-9861036D02*
X16106643Y-9841989D01*
X16106643Y-9841989D02*
X16097120Y-9803893D01*
X16097120Y-9803893D02*
X16097120Y-9756274D01*
X16097120Y-9756274D02*
X16106643Y-9718179D01*
X16106643Y-9718179D02*
X16116167Y-9699131D01*
X16116167Y-9699131D02*
X16125691Y-9689608D01*
X16125691Y-9689608D02*
X16144739Y-9680084D01*
X16297120Y-9880084D02*
X16297120Y-9746750D01*
X16297120Y-9765798D02*
X16306643Y-9756274D01*
X16306643Y-9756274D02*
X16325691Y-9746750D01*
X16325691Y-9746750D02*
X16354263Y-9746750D01*
X16354263Y-9746750D02*
X16373310Y-9756274D01*
X16373310Y-9756274D02*
X16382834Y-9775322D01*
X16382834Y-9775322D02*
X16382834Y-9880084D01*
X16382834Y-9775322D02*
X16392358Y-9756274D01*
X16392358Y-9756274D02*
X16411405Y-9746750D01*
X16411405Y-9746750D02*
X16439977Y-9746750D01*
X16439977Y-9746750D02*
X16459024Y-9756274D01*
X16459024Y-9756274D02*
X16468548Y-9775322D01*
X16468548Y-9775322D02*
X16468548Y-9880084D01*
X16563786Y-9880084D02*
X16563786Y-9746750D01*
X16563786Y-9765798D02*
X16573310Y-9756274D01*
X16573310Y-9756274D02*
X16592358Y-9746750D01*
X16592358Y-9746750D02*
X16620929Y-9746750D01*
X16620929Y-9746750D02*
X16639977Y-9756274D01*
X16639977Y-9756274D02*
X16649501Y-9775322D01*
X16649501Y-9775322D02*
X16649501Y-9880084D01*
X16649501Y-9775322D02*
X16659024Y-9756274D01*
X16659024Y-9756274D02*
X16678072Y-9746750D01*
X16678072Y-9746750D02*
X16706643Y-9746750D01*
X16706643Y-9746750D02*
X16725691Y-9756274D01*
X16725691Y-9756274D02*
X16735215Y-9775322D01*
X16735215Y-9775322D02*
X16735215Y-9880084D01*
X17125691Y-9670560D02*
X16954263Y-9927703D01*
X17382834Y-9680084D02*
X17401882Y-9680084D01*
X17401882Y-9680084D02*
X17420929Y-9689608D01*
X17420929Y-9689608D02*
X17430453Y-9699131D01*
X17430453Y-9699131D02*
X17439977Y-9718179D01*
X17439977Y-9718179D02*
X17449501Y-9756274D01*
X17449501Y-9756274D02*
X17449501Y-9803893D01*
X17449501Y-9803893D02*
X17439977Y-9841989D01*
X17439977Y-9841989D02*
X17430453Y-9861036D01*
X17430453Y-9861036D02*
X17420929Y-9870560D01*
X17420929Y-9870560D02*
X17401882Y-9880084D01*
X17401882Y-9880084D02*
X17382834Y-9880084D01*
X17382834Y-9880084D02*
X17363787Y-9870560D01*
X17363787Y-9870560D02*
X17354263Y-9861036D01*
X17354263Y-9861036D02*
X17344739Y-9841989D01*
X17344739Y-9841989D02*
X17335215Y-9803893D01*
X17335215Y-9803893D02*
X17335215Y-9756274D01*
X17335215Y-9756274D02*
X17344739Y-9718179D01*
X17344739Y-9718179D02*
X17354263Y-9699131D01*
X17354263Y-9699131D02*
X17363787Y-9689608D01*
X17363787Y-9689608D02*
X17382834Y-9680084D01*
X17535215Y-9861036D02*
X17544739Y-9870560D01*
X17544739Y-9870560D02*
X17535215Y-9880084D01*
X17535215Y-9880084D02*
X17525691Y-9870560D01*
X17525691Y-9870560D02*
X17535215Y-9861036D01*
X17535215Y-9861036D02*
X17535215Y-9880084D01*
X17668548Y-9680084D02*
X17687596Y-9680084D01*
X17687596Y-9680084D02*
X17706644Y-9689608D01*
X17706644Y-9689608D02*
X17716168Y-9699131D01*
X17716168Y-9699131D02*
X17725691Y-9718179D01*
X17725691Y-9718179D02*
X17735215Y-9756274D01*
X17735215Y-9756274D02*
X17735215Y-9803893D01*
X17735215Y-9803893D02*
X17725691Y-9841989D01*
X17725691Y-9841989D02*
X17716168Y-9861036D01*
X17716168Y-9861036D02*
X17706644Y-9870560D01*
X17706644Y-9870560D02*
X17687596Y-9880084D01*
X17687596Y-9880084D02*
X17668548Y-9880084D01*
X17668548Y-9880084D02*
X17649501Y-9870560D01*
X17649501Y-9870560D02*
X17639977Y-9861036D01*
X17639977Y-9861036D02*
X17630453Y-9841989D01*
X17630453Y-9841989D02*
X17620929Y-9803893D01*
X17620929Y-9803893D02*
X17620929Y-9756274D01*
X17620929Y-9756274D02*
X17630453Y-9718179D01*
X17630453Y-9718179D02*
X17639977Y-9699131D01*
X17639977Y-9699131D02*
X17649501Y-9689608D01*
X17649501Y-9689608D02*
X17668548Y-9680084D01*
X17925691Y-9880084D02*
X17811406Y-9880084D01*
X17868548Y-9880084D02*
X17868548Y-9680084D01*
X17868548Y-9680084D02*
X17849501Y-9708655D01*
X17849501Y-9708655D02*
X17830453Y-9727703D01*
X17830453Y-9727703D02*
X17811406Y-9737227D01*
X18020929Y-9880084D02*
X18059025Y-9880084D01*
X18059025Y-9880084D02*
X18078072Y-9870560D01*
X18078072Y-9870560D02*
X18087596Y-9861036D01*
X18087596Y-9861036D02*
X18106644Y-9832465D01*
X18106644Y-9832465D02*
X18116168Y-9794370D01*
X18116168Y-9794370D02*
X18116168Y-9718179D01*
X18116168Y-9718179D02*
X18106644Y-9699131D01*
X18106644Y-9699131D02*
X18097120Y-9689608D01*
X18097120Y-9689608D02*
X18078072Y-9680084D01*
X18078072Y-9680084D02*
X18039977Y-9680084D01*
X18039977Y-9680084D02*
X18020929Y-9689608D01*
X18020929Y-9689608D02*
X18011406Y-9699131D01*
X18011406Y-9699131D02*
X18001882Y-9718179D01*
X18001882Y-9718179D02*
X18001882Y-9765798D01*
X18001882Y-9765798D02*
X18011406Y-9784846D01*
X18011406Y-9784846D02*
X18020929Y-9794370D01*
X18020929Y-9794370D02*
X18039977Y-9803893D01*
X18039977Y-9803893D02*
X18078072Y-9803893D01*
X18078072Y-9803893D02*
X18097120Y-9794370D01*
X18097120Y-9794370D02*
X18106644Y-9784846D01*
X18106644Y-9784846D02*
X18116168Y-9765798D01*
X18182834Y-9680084D02*
X18316168Y-9680084D01*
X18316168Y-9680084D02*
X18230453Y-9880084D01*
X18382834Y-9680084D02*
X18382834Y-9718179D01*
X18459025Y-9680084D02*
X18459025Y-9718179D01*
X18754263Y-9956274D02*
X18744739Y-9946750D01*
X18744739Y-9946750D02*
X18725691Y-9918179D01*
X18725691Y-9918179D02*
X18716168Y-9899131D01*
X18716168Y-9899131D02*
X18706644Y-9870560D01*
X18706644Y-9870560D02*
X18697120Y-9822941D01*
X18697120Y-9822941D02*
X18697120Y-9784846D01*
X18697120Y-9784846D02*
X18706644Y-9737227D01*
X18706644Y-9737227D02*
X18716168Y-9708655D01*
X18716168Y-9708655D02*
X18725691Y-9689608D01*
X18725691Y-9689608D02*
X18744739Y-9661036D01*
X18744739Y-9661036D02*
X18754263Y-9651512D01*
X18820930Y-9699131D02*
X18830453Y-9689608D01*
X18830453Y-9689608D02*
X18849501Y-9680084D01*
X18849501Y-9680084D02*
X18897120Y-9680084D01*
X18897120Y-9680084D02*
X18916168Y-9689608D01*
X18916168Y-9689608D02*
X18925691Y-9699131D01*
X18925691Y-9699131D02*
X18935215Y-9718179D01*
X18935215Y-9718179D02*
X18935215Y-9737227D01*
X18935215Y-9737227D02*
X18925691Y-9765798D01*
X18925691Y-9765798D02*
X18811406Y-9880084D01*
X18811406Y-9880084D02*
X18935215Y-9880084D01*
X19011406Y-9699131D02*
X19020930Y-9689608D01*
X19020930Y-9689608D02*
X19039977Y-9680084D01*
X19039977Y-9680084D02*
X19087596Y-9680084D01*
X19087596Y-9680084D02*
X19106644Y-9689608D01*
X19106644Y-9689608D02*
X19116168Y-9699131D01*
X19116168Y-9699131D02*
X19125691Y-9718179D01*
X19125691Y-9718179D02*
X19125691Y-9737227D01*
X19125691Y-9737227D02*
X19116168Y-9765798D01*
X19116168Y-9765798D02*
X19001882Y-9880084D01*
X19001882Y-9880084D02*
X19125691Y-9880084D01*
X19363787Y-9880084D02*
X19363787Y-9680084D01*
X19449501Y-9880084D02*
X19449501Y-9775322D01*
X19449501Y-9775322D02*
X19439977Y-9756274D01*
X19439977Y-9756274D02*
X19420930Y-9746750D01*
X19420930Y-9746750D02*
X19392358Y-9746750D01*
X19392358Y-9746750D02*
X19373311Y-9756274D01*
X19373311Y-9756274D02*
X19363787Y-9765798D01*
X19573311Y-9880084D02*
X19554263Y-9870560D01*
X19554263Y-9870560D02*
X19544739Y-9861036D01*
X19544739Y-9861036D02*
X19535215Y-9841989D01*
X19535215Y-9841989D02*
X19535215Y-9784846D01*
X19535215Y-9784846D02*
X19544739Y-9765798D01*
X19544739Y-9765798D02*
X19554263Y-9756274D01*
X19554263Y-9756274D02*
X19573311Y-9746750D01*
X19573311Y-9746750D02*
X19601882Y-9746750D01*
X19601882Y-9746750D02*
X19620930Y-9756274D01*
X19620930Y-9756274D02*
X19630453Y-9765798D01*
X19630453Y-9765798D02*
X19639977Y-9784846D01*
X19639977Y-9784846D02*
X19639977Y-9841989D01*
X19639977Y-9841989D02*
X19630453Y-9861036D01*
X19630453Y-9861036D02*
X19620930Y-9870560D01*
X19620930Y-9870560D02*
X19601882Y-9880084D01*
X19601882Y-9880084D02*
X19573311Y-9880084D01*
X19754263Y-9880084D02*
X19735215Y-9870560D01*
X19735215Y-9870560D02*
X19725692Y-9851512D01*
X19725692Y-9851512D02*
X19725692Y-9680084D01*
X19906644Y-9870560D02*
X19887596Y-9880084D01*
X19887596Y-9880084D02*
X19849501Y-9880084D01*
X19849501Y-9880084D02*
X19830453Y-9870560D01*
X19830453Y-9870560D02*
X19820930Y-9851512D01*
X19820930Y-9851512D02*
X19820930Y-9775322D01*
X19820930Y-9775322D02*
X19830453Y-9756274D01*
X19830453Y-9756274D02*
X19849501Y-9746750D01*
X19849501Y-9746750D02*
X19887596Y-9746750D01*
X19887596Y-9746750D02*
X19906644Y-9756274D01*
X19906644Y-9756274D02*
X19916168Y-9775322D01*
X19916168Y-9775322D02*
X19916168Y-9794370D01*
X19916168Y-9794370D02*
X19820930Y-9813417D01*
X19992358Y-9870560D02*
X20011406Y-9880084D01*
X20011406Y-9880084D02*
X20049501Y-9880084D01*
X20049501Y-9880084D02*
X20068549Y-9870560D01*
X20068549Y-9870560D02*
X20078073Y-9851512D01*
X20078073Y-9851512D02*
X20078073Y-9841989D01*
X20078073Y-9841989D02*
X20068549Y-9822941D01*
X20068549Y-9822941D02*
X20049501Y-9813417D01*
X20049501Y-9813417D02*
X20020930Y-9813417D01*
X20020930Y-9813417D02*
X20001882Y-9803893D01*
X20001882Y-9803893D02*
X19992358Y-9784846D01*
X19992358Y-9784846D02*
X19992358Y-9775322D01*
X19992358Y-9775322D02*
X20001882Y-9756274D01*
X20001882Y-9756274D02*
X20020930Y-9746750D01*
X20020930Y-9746750D02*
X20049501Y-9746750D01*
X20049501Y-9746750D02*
X20068549Y-9756274D01*
X20144739Y-9956274D02*
X20154263Y-9946750D01*
X20154263Y-9946750D02*
X20173311Y-9918179D01*
X20173311Y-9918179D02*
X20182834Y-9899131D01*
X20182834Y-9899131D02*
X20192358Y-9870560D01*
X20192358Y-9870560D02*
X20201882Y-9822941D01*
X20201882Y-9822941D02*
X20201882Y-9784846D01*
X20201882Y-9784846D02*
X20192358Y-9737227D01*
X20192358Y-9737227D02*
X20182834Y-9708655D01*
X20182834Y-9708655D02*
X20173311Y-9689608D01*
X20173311Y-9689608D02*
X20154263Y-9661036D01*
X20154263Y-9661036D02*
X20144739Y-9651512D01*
M02*
