M48
; DRILL file {KiCad 7.0.7} date Thu Sep 12 05:12:27 2024
; FORMAT={-:-/ absolute / inch / decimal}
; #@! TF.CreationDate,2024-09-12T05:12:27-04:00
; #@! TF.GenerationSoftware,Kicad,Pcbnew,7.0.7
; #@! TF.FileFunction,Plated,1,2,PTH
FMAT,2
INCH
; #@! TA.AperFunction,Plated,PTH,ViaDrill
T1C0.0039
; #@! TA.AperFunction,Plated,PTH,ViaDrill
T2C0.0079
; #@! TA.AperFunction,Plated,PTH,ComponentDrill
T3C0.0197
%
G90
G05
T1
X7.5472Y-2.82
T2
X6.0157Y-3.311
X6.0394Y-2.628
X6.0667Y-2.4306
X6.1339Y-3.311
X6.1722Y-2.3238
X6.1909Y-2.8579
X6.252Y-3.3071
X6.3504Y-2.6654
X6.3504Y-2.9409
X6.3504Y-3.0236
X6.3504Y-3.1142
X6.3661Y-3.311
X6.3976Y-2.1614
X6.3976Y-2.2638
X6.4213Y-3.0217
X6.4552Y-2.8204
X6.4555Y-2.0906
X6.5147Y-2.8357
X6.5551Y-2.7205
X6.5551Y-2.8189
X6.565Y-2.2736
X6.5748Y-2.372
X6.5906Y-3.311
X6.6831Y-3.0315
X6.6929Y-2.2638
X6.7087Y-3.311
X6.7421Y-2.3268
X6.752Y-2.2146
X6.7717Y-2.3268
X6.7809Y-2.2336
X6.8012Y-2.3268
X6.8111Y-2.235
X6.8268Y-3.311
X6.8406Y-2.3268
X6.8504Y-2.2352
X6.874Y-2.9016
X6.8858Y-3.0315
X6.9094Y-2.3268
X6.9193Y-2.2431
X6.9449Y-3.311
X7.0Y-2.9035
X7.0Y-3.0315
X7.0161Y-2.2628
X7.0276Y-2.2343
X7.0276Y-2.3228
X7.0513Y-2.2482
X7.063Y-2.3327
X7.063Y-3.311
X7.0965Y-2.126
X7.0984Y-2.3425
X7.126Y-2.2638
X7.1732Y-3.2559
X7.1811Y-3.311
X7.1969Y-2.8819
X7.1969Y-2.9882
X7.2165Y-2.6299
X7.2953Y-3.3071
X7.311Y-2.9882
X7.4114Y-3.3071
X7.4409Y-2.9528
X7.4409Y-3.0118
X7.5157Y-3.0315
X7.5295Y-3.311
X7.7559Y-2.5984
X7.7598Y-3.311
X7.7677Y-3.0315
X7.7992Y-2.878
X7.7992Y-2.9921
X7.8534Y-2.4803
X7.874Y-3.311
X7.9236Y-2.2539
X7.9882Y-2.9961
X7.9961Y-3.311
X8.002Y-2.2343
X8.0359Y-2.9479
X8.1102Y-3.311
X8.1649Y-2.2091
X8.2283Y-3.311
X8.34Y-2.7112
X8.3465Y-2.8031
X8.3465Y-3.311
X8.3661Y-2.3031
X8.3878Y-2.4508
X8.4213Y-2.6378
X8.4449Y-2.874
X8.4685Y-3.3071
T3
X6.7598Y-2.0906
X6.7992Y-2.0906
X6.8386Y-2.0906
X6.878Y-2.0906
X6.9173Y-2.0906
X6.9567Y-2.0906
X6.9961Y-2.0906
X7.0354Y-2.0906
X7.0748Y-2.0906
X7.1142Y-2.0906
X7.1535Y-2.0906
X7.1929Y-2.0906
X7.2323Y-2.0906
X7.2717Y-2.0906
X7.311Y-2.0906
X7.3504Y-2.0906
X7.3898Y-2.0906
X7.4291Y-2.0906
X7.4685Y-2.0906
X7.5079Y-2.0906
X7.5472Y-2.0906
X7.5866Y-2.0906
T0
M30
