%TF.GenerationSoftware,KiCad,Pcbnew,7.0.7*%
%TF.CreationDate,2024-02-07T23:55:39-05:00*%
%TF.ProjectId,Fluke_LCD,466c756b-655f-44c4-9344-2e6b69636164,rev?*%
%TF.SameCoordinates,Original*%
%TF.FileFunction,Soldermask,Bot*%
%TF.FilePolarity,Negative*%
%FSLAX46Y46*%
G04 Gerber Fmt 4.6, Leading zero omitted, Abs format (unit mm)*
G04 Created by KiCad (PCBNEW 7.0.7) date 2024-02-07 23:55:39*
%MOMM*%
%LPD*%
G01*
G04 APERTURE LIST*
%ADD10C,0.300000*%
G04 APERTURE END LIST*
D10*
X165762500Y-72237500D03*
X163963000Y-71637000D03*
X177800000Y-77000000D03*
X177800000Y-73750000D03*
X191700000Y-71628000D03*
X190900000Y-77000000D03*
X214500000Y-73000000D03*
X213900000Y-67000000D03*
X203200000Y-55900000D03*
X205500000Y-55900000D03*
X201259500Y-55900000D03*
X212500000Y-58500000D03*
X154094500Y-61738000D03*
X156455000Y-72655000D03*
X153400000Y-66100000D03*
X199200000Y-63482000D03*
X213050000Y-62250000D03*
X157200000Y-58600000D03*
X211836000Y-68864000D03*
X212000000Y-71200000D03*
X166700000Y-60000000D03*
X170200000Y-77000000D03*
X166125000Y-69100000D03*
X166500000Y-71600000D03*
X174600000Y-73700000D03*
X174900000Y-77000000D03*
X182900000Y-66900000D03*
X185000000Y-75900000D03*
X182800000Y-73200000D03*
X182800000Y-75900000D03*
X189000000Y-75000000D03*
X189000000Y-77000000D03*
X196800000Y-77200000D03*
X196800000Y-65400000D03*
X197400000Y-76300000D03*
X198100000Y-73100000D03*
X204225000Y-74700000D03*
X202900000Y-76100000D03*
X163100000Y-77000000D03*
X181000000Y-57500000D03*
X166200000Y-57500000D03*
X170000000Y-57500000D03*
M02*
