%TF.GenerationSoftware,KiCad,Pcbnew,7.0.7*%
%TF.CreationDate,2024-09-12T05:12:33-04:00*%
%TF.ProjectId,Fluke_LCD,466c756b-655f-44c4-9344-2e6b69636164,rev?*%
%TF.SameCoordinates,Original*%
%TF.FileFunction,Legend,Top*%
%TF.FilePolarity,Positive*%
%FSLAX46Y46*%
G04 Gerber Fmt 4.6, Leading zero omitted, Abs format (unit mm)*
G04 Created by KiCad (PCBNEW 7.0.7) date 2024-09-12 05:12:33*
%MOMM*%
%LPD*%
G01*
G04 APERTURE LIST*
%ADD10C,0.120000*%
G04 APERTURE END LIST*
D10*
%TO.C,D15*%
X183840000Y-68489000D02*
X181920000Y-68489000D01*
X181920000Y-68489000D02*
X181920000Y-71349000D01*
X183840000Y-71349000D02*
X183840000Y-68489000D01*
%TO.C,D7*%
X163240000Y-72700000D02*
X163240000Y-74620000D01*
X163240000Y-74620000D02*
X166100000Y-74620000D01*
X166100000Y-72700000D02*
X163240000Y-72700000D01*
%TO.C,D41*%
X154440000Y-64935000D02*
X156360000Y-64935000D01*
X156360000Y-64935000D02*
X156360000Y-62075000D01*
X154440000Y-62075000D02*
X154440000Y-64935000D01*
%TO.C,D13*%
X178515000Y-72640000D02*
X178515000Y-74560000D01*
X178515000Y-74560000D02*
X181375000Y-74560000D01*
X181375000Y-72640000D02*
X178515000Y-72640000D01*
%TO.C,D22*%
X199080000Y-62647000D02*
X197160000Y-62647000D01*
X197160000Y-62647000D02*
X197160000Y-65507000D01*
X199080000Y-65507000D02*
X199080000Y-62647000D01*
%TO.C,R6*%
X156565000Y-83327064D02*
X156565000Y-82872936D01*
X158035000Y-83327064D02*
X158035000Y-82872936D01*
%TO.C,D3*%
X168600000Y-62656000D02*
X166680000Y-62656000D01*
X166680000Y-62656000D02*
X166680000Y-65516000D01*
X168600000Y-65516000D02*
X168600000Y-62656000D01*
%TO.C,D39*%
X163240000Y-54920000D02*
X163240000Y-56840000D01*
X163240000Y-56840000D02*
X166100000Y-56840000D01*
X166100000Y-54920000D02*
X163240000Y-54920000D01*
%TO.C,D23*%
X199080000Y-68743000D02*
X197160000Y-68743000D01*
X197160000Y-68743000D02*
X197160000Y-71603000D01*
X199080000Y-71603000D02*
X199080000Y-68743000D01*
%TO.C,R38*%
X206715000Y-83327064D02*
X206715000Y-82872936D01*
X208185000Y-83327064D02*
X208185000Y-82872936D01*
%TO.C,R34*%
X200815000Y-83327064D02*
X200815000Y-82872936D01*
X202285000Y-83327064D02*
X202285000Y-82872936D01*
%TO.C,D19*%
X193711000Y-60508000D02*
X193711000Y-62428000D01*
X193711000Y-62428000D02*
X196571000Y-62428000D01*
X196571000Y-60508000D02*
X193711000Y-60508000D01*
%TO.C,D28*%
X208951000Y-66604000D02*
X208951000Y-68524000D01*
X208951000Y-68524000D02*
X211811000Y-68524000D01*
X211811000Y-66604000D02*
X208951000Y-66604000D01*
%TO.C,D34*%
X197539000Y-54920000D02*
X197539000Y-56840000D01*
X197539000Y-56840000D02*
X200399000Y-56840000D01*
X200399000Y-54920000D02*
X197539000Y-54920000D01*
%TO.C,D44*%
X155620000Y-72700000D02*
X155620000Y-74620000D01*
X155620000Y-74620000D02*
X158480000Y-74620000D01*
X158480000Y-72700000D02*
X155620000Y-72700000D01*
%TO.C,D31*%
X214320000Y-68743000D02*
X212400000Y-68743000D01*
X212400000Y-68743000D02*
X212400000Y-71603000D01*
X214320000Y-71603000D02*
X214320000Y-68743000D01*
%TO.C,D4*%
X163240000Y-66604000D02*
X163240000Y-68524000D01*
X163240000Y-68524000D02*
X166100000Y-68524000D01*
X166100000Y-66604000D02*
X163240000Y-66604000D01*
%TO.C,D43*%
X154440000Y-71185000D02*
X156360000Y-71185000D01*
X156360000Y-71185000D02*
X156360000Y-68325000D01*
X154440000Y-68325000D02*
X154440000Y-71185000D01*
%TO.C,R40*%
X209665000Y-83327064D02*
X209665000Y-82872936D01*
X211135000Y-83327064D02*
X211135000Y-82872936D01*
%TO.C,D11*%
X178471000Y-60254000D02*
X178471000Y-62174000D01*
X178471000Y-62174000D02*
X181331000Y-62174000D01*
X181331000Y-60254000D02*
X178471000Y-60254000D01*
%TO.C,D27*%
X208951000Y-60508000D02*
X208951000Y-62428000D01*
X208951000Y-62428000D02*
X211811000Y-62428000D01*
X211811000Y-60508000D02*
X208951000Y-60508000D01*
%TO.C,D33*%
X201349000Y-54920000D02*
X201349000Y-56840000D01*
X201349000Y-56840000D02*
X204209000Y-56840000D01*
X204209000Y-54920000D02*
X201349000Y-54920000D01*
%TO.C,R18*%
X177115000Y-83327064D02*
X177115000Y-82872936D01*
X178585000Y-83327064D02*
X178585000Y-82872936D01*
%TO.C,R12*%
X168265000Y-83327064D02*
X168265000Y-82872936D01*
X169735000Y-83327064D02*
X169735000Y-82872936D01*
%TO.C,R36*%
X203765000Y-83327064D02*
X203765000Y-82872936D01*
X205235000Y-83327064D02*
X205235000Y-82872936D01*
%TO.C,D36*%
X178480000Y-54666000D02*
X178480000Y-56586000D01*
X178480000Y-56586000D02*
X181340000Y-56586000D01*
X181340000Y-54666000D02*
X178480000Y-54666000D01*
%TO.C,D9*%
X178760000Y-62393000D02*
X176840000Y-62393000D01*
X176840000Y-62393000D02*
X176840000Y-65253000D01*
X178760000Y-65253000D02*
X178760000Y-62393000D01*
%TO.C,D42*%
X157515000Y-57640000D02*
X157515000Y-59560000D01*
X157515000Y-59560000D02*
X160375000Y-59560000D01*
X160375000Y-57640000D02*
X157515000Y-57640000D01*
%TO.C,D18*%
X194000000Y-68743000D02*
X192080000Y-68743000D01*
X192080000Y-68743000D02*
X192080000Y-71603000D01*
X194000000Y-71603000D02*
X194000000Y-68743000D01*
%TO.C,R8*%
X159515000Y-83327064D02*
X159515000Y-82872936D01*
X160985000Y-83327064D02*
X160985000Y-82872936D01*
%TO.C,D6*%
X168600000Y-68752000D02*
X166680000Y-68752000D01*
X166680000Y-68752000D02*
X166680000Y-71612000D01*
X168600000Y-71612000D02*
X168600000Y-68752000D01*
%TO.C,R32*%
X197865000Y-83327064D02*
X197865000Y-82872936D01*
X199335000Y-83327064D02*
X199335000Y-82872936D01*
%TO.C,D24*%
X201340000Y-72700000D02*
X201340000Y-74620000D01*
X201340000Y-74620000D02*
X204200000Y-74620000D01*
X204200000Y-72700000D02*
X201340000Y-72700000D01*
%TO.C,D40*%
X156360000Y-52715000D02*
X154440000Y-52715000D01*
X154440000Y-52715000D02*
X154440000Y-55575000D01*
X156360000Y-55575000D02*
X156360000Y-52715000D01*
%TO.C,R1*%
X188915000Y-83327064D02*
X188915000Y-82872936D01*
X190385000Y-83327064D02*
X190385000Y-82872936D01*
%TO.C,D32*%
X208951000Y-54920000D02*
X208951000Y-56840000D01*
X208951000Y-56840000D02*
X211811000Y-56840000D01*
X211811000Y-54920000D02*
X208951000Y-54920000D01*
%TO.C,D2*%
X163240000Y-60508000D02*
X163240000Y-62428000D01*
X163240000Y-62428000D02*
X166100000Y-62428000D01*
X166100000Y-60508000D02*
X163240000Y-60508000D01*
%TO.C,R10*%
X165315000Y-83327064D02*
X165315000Y-82872936D01*
X166785000Y-83327064D02*
X166785000Y-82872936D01*
%TO.C,D35*%
X193729000Y-54920000D02*
X193729000Y-56840000D01*
X193729000Y-56840000D02*
X196589000Y-56840000D01*
X196589000Y-54920000D02*
X193729000Y-54920000D01*
%TO.C,D20*%
X193720000Y-66604000D02*
X193720000Y-68524000D01*
X193720000Y-68524000D02*
X196580000Y-68524000D01*
X196580000Y-66604000D02*
X193720000Y-66604000D01*
%TO.C,D21*%
X193720000Y-72700000D02*
X193720000Y-74620000D01*
X193720000Y-74620000D02*
X196580000Y-74620000D01*
X196580000Y-72700000D02*
X193720000Y-72700000D01*
%TO.C,R42*%
X212615000Y-83327064D02*
X212615000Y-82872936D01*
X214085000Y-83327064D02*
X214085000Y-82872936D01*
%TO.C,R28*%
X191915000Y-83327064D02*
X191915000Y-82872936D01*
X193385000Y-83327064D02*
X193385000Y-82872936D01*
%TO.C,D8*%
X170860000Y-72700000D02*
X170860000Y-74620000D01*
X170860000Y-74620000D02*
X173720000Y-74620000D01*
X173720000Y-72700000D02*
X170860000Y-72700000D01*
%TO.C,D14*%
X183840000Y-62393000D02*
X181920000Y-62393000D01*
X181920000Y-62393000D02*
X181920000Y-65253000D01*
X183840000Y-65253000D02*
X183840000Y-62393000D01*
%TO.C,D26*%
X209240000Y-68743000D02*
X207320000Y-68743000D01*
X207320000Y-68743000D02*
X207320000Y-71603000D01*
X209240000Y-71603000D02*
X209240000Y-68743000D01*
%TO.C,R20*%
X180065000Y-83327064D02*
X180065000Y-82872936D01*
X181535000Y-83327064D02*
X181535000Y-82872936D01*
%TO.C,R14*%
X171215000Y-83327064D02*
X171215000Y-82872936D01*
X172685000Y-83327064D02*
X172685000Y-82872936D01*
%TO.C,D5*%
X163520000Y-68752000D02*
X161600000Y-68752000D01*
X161600000Y-68752000D02*
X161600000Y-71612000D01*
X163520000Y-71612000D02*
X163520000Y-68752000D01*
%TO.C,R16*%
X174165000Y-83327064D02*
X174165000Y-82872936D01*
X175635000Y-83327064D02*
X175635000Y-82872936D01*
%TO.C,R22*%
X183015000Y-83327064D02*
X183015000Y-82872936D01*
X184485000Y-83327064D02*
X184485000Y-82872936D01*
%TO.C,D25*%
X209240000Y-62647000D02*
X207320000Y-62647000D01*
X207320000Y-62647000D02*
X207320000Y-65507000D01*
X209240000Y-65507000D02*
X209240000Y-62647000D01*
%TO.C,D16*%
X186100000Y-72700000D02*
X186100000Y-74620000D01*
X186100000Y-74620000D02*
X188960000Y-74620000D01*
X188960000Y-72700000D02*
X186100000Y-72700000D01*
%TO.C,D17*%
X194000000Y-62647000D02*
X192080000Y-62647000D01*
X192080000Y-62647000D02*
X192080000Y-65507000D01*
X194000000Y-65507000D02*
X194000000Y-62647000D01*
%TO.C,D30*%
X214320000Y-62647000D02*
X212400000Y-62647000D01*
X212400000Y-62647000D02*
X212400000Y-65507000D01*
X214320000Y-65507000D02*
X214320000Y-62647000D01*
%TO.C,D12*%
X178471000Y-66350000D02*
X178471000Y-68270000D01*
X178471000Y-68270000D02*
X181331000Y-68270000D01*
X181331000Y-66350000D02*
X178471000Y-66350000D01*
%TO.C,D1*%
X163520000Y-62656000D02*
X161600000Y-62656000D01*
X161600000Y-62656000D02*
X161600000Y-65516000D01*
X163520000Y-65516000D02*
X163520000Y-62656000D01*
%TO.C,R24*%
X185965000Y-83327064D02*
X185965000Y-82872936D01*
X187435000Y-83327064D02*
X187435000Y-82872936D01*
%TO.C,D38*%
X167050000Y-54920000D02*
X167050000Y-56840000D01*
X167050000Y-56840000D02*
X169910000Y-56840000D01*
X169910000Y-54920000D02*
X167050000Y-54920000D01*
%TO.C,R2*%
X162365000Y-83327064D02*
X162365000Y-82872936D01*
X163835000Y-83327064D02*
X163835000Y-82872936D01*
%TO.C,R30*%
X194915000Y-83327064D02*
X194915000Y-82872936D01*
X196385000Y-83327064D02*
X196385000Y-82872936D01*
%TO.C,D29*%
X208951000Y-72682000D02*
X208951000Y-74602000D01*
X208951000Y-74602000D02*
X211811000Y-74602000D01*
X211811000Y-72682000D02*
X208951000Y-72682000D01*
%TO.C,D10*%
X178760000Y-68498000D02*
X176840000Y-68498000D01*
X176840000Y-68498000D02*
X176840000Y-71358000D01*
X178760000Y-71358000D02*
X178760000Y-68498000D01*
%TO.C,R4*%
X153615000Y-83327064D02*
X153615000Y-82872936D01*
X155085000Y-83327064D02*
X155085000Y-82872936D01*
%TD*%
M02*
